<?xml version="1.0" encoding="UTF-8" standalone="no"?>
<!DOCTYPE svg PUBLIC "-//W3C//DTD SVG 1.1//EN"
 "http://www.w3.org/Graphics/SVG/1.1/DTD/svg11.dtd">
<!-- Generated by graphviz version 2.43.0 (0)
 -->
<!-- Title: Dot1_Normalization_Math Pages: 1 -->
<svg width="1877pt" height="367pt"
 viewBox="0.00 0.00 1876.50 367.40" xmlns="http://www.w3.org/2000/svg" xmlns:xlink="http://www.w3.org/1999/xlink">
<g id="graph0" class="graph" transform="scale(1 1) rotate(0) translate(43.2 324.2)">
<title>Dot1_Normalization_Math</title>
<polygon fill="#1a1a2e" stroke="transparent" points="-43.2,43.2 -43.2,-324.2 1833.3,-324.2 1833.3,43.2 -43.2,43.2"/>
<text text-anchor="middle" x="895.05" y="-264.2" font-family="Helvetica,sans-Serif" font-size="16.00" fill="#e0e0e0">L2 Normalization: Placing Vectors on the Unit Hypersphere</text>
<g id="clust1" class="cluster">
<title>cluster_discard</title>
<polygon fill="#1a1a2e" stroke="#553333" stroke-dasharray="5,2" points="790.05,-8 790.05,-94 937.05,-94 937.05,-8 790.05,-8"/>
<text text-anchor="middle" x="863.55" y="-77.2" font-family="Helvetica,sans-Serif" font-size="16.00" fill="#cc4444">What is discarded</text>
</g>
<g id="clust2" class="cluster">
<title>cluster_keep</title>
<polygon fill="#1a1a2e" stroke="#335533" stroke-dasharray="5,2" points="1326.1,-52 1326.1,-138 1525.1,-138 1525.1,-52 1326.1,-52"/>
<text text-anchor="middle" x="1425.6" y="-121.2" font-family="Helvetica,sans-Serif" font-size="16.00" fill="#44cc44">What is preserved</text>
</g>
<g id="clust3" class="cluster">
<title>cluster_why</title>
<polygon fill="#1a1a2e" stroke="#444466" stroke-dasharray="5,2" points="1590.1,-149 1590.1,-247 1782.1,-247 1782.1,-149 1590.1,-149"/>
<text text-anchor="middle" x="1686.1" y="-230.2" font-family="Helvetica,sans-Serif" font-size="16.00" fill="#e0e0e0">Why normalize?</text>
</g>
<!-- doc -->
<g id="node1" class="node">
<title>doc</title>
<polygon fill="#2a2a5a" stroke="black" points="74,-103 0,-103 0,-67 80,-67 80,-97 74,-103"/>
<polyline fill="none" stroke="black" points="74,-103 74,-97 "/>
<polyline fill="none" stroke="black" points="80,-97 74,-97 "/>
<text text-anchor="middle" x="40" y="-88.2" font-family="Helvetica,sans-Serif" font-size="11.00" fill="white">Document</text>
<text text-anchor="middle" x="40" y="-76.2" font-family="Helvetica,sans-Serif" font-size="11.00" fill="white">(text content)</text>
</g>
<!-- enc -->
<g id="node2" class="node">
<title>enc</title>
<polygon fill="#1a1a6a" stroke="black" points="340,-103 201,-103 201,-67 340,-67 340,-103"/>
<text text-anchor="middle" x="270.5" y="-88.2" font-family="Helvetica,sans-Serif" font-size="11.00" fill="white">bge&#45;m3 Encoder</text>
<text text-anchor="middle" x="270.5" y="-76.2" font-family="Helvetica,sans-Serif" font-size="11.00" fill="white">(570M parameters, GPU)</text>
</g>
<!-- doc&#45;&gt;enc -->
<g id="edge1" class="edge">
<title>doc&#45;&gt;enc</title>
<path fill="none" stroke="#aaaaaa" d="M80.15,-85C80.15,-85 190.55,-85 190.55,-85"/>
<polygon fill="#aaaaaa" stroke="#aaaaaa" points="190.55,-88.5 200.55,-85 190.55,-81.5 190.55,-88.5"/>
<text text-anchor="middle" x="140.5" y="-88" font-family="Helvetica,sans-Serif" font-size="10.00" fill="#cccccc">text input</text>
</g>
<!-- raw -->
<g id="node3" class="node">
<title>raw</title>
<polygon fill="#333344" stroke="black" points="613,-107 458,-107 458,-63 613,-63 613,-107"/>
<text text-anchor="middle" x="535.5" y="-94.2" font-family="Helvetica,sans-Serif" font-size="11.00" fill="#e0e0e0">Raw vector &#160;v</text>
<text text-anchor="middle" x="535.5" y="-82.2" font-family="Helvetica,sans-Serif" font-size="11.00" fill="#e0e0e0">1024 float32 values</text>
<text text-anchor="middle" x="535.5" y="-70.2" font-family="Helvetica,sans-Serif" font-size="11.00" fill="#e0e0e0">‖v‖ ≠ 1 &#160;(arbitrary magnitude)</text>
</g>
<!-- enc&#45;&gt;raw -->
<g id="edge2" class="edge">
<title>enc&#45;&gt;raw</title>
<path fill="none" stroke="#aaaaaa" d="M340.13,-85C340.13,-85 447.94,-85 447.94,-85"/>
<polygon fill="#aaaaaa" stroke="#aaaaaa" points="447.94,-88.5 457.94,-85 447.94,-81.5 447.94,-88.5"/>
<text text-anchor="middle" x="399" y="-88" font-family="Helvetica,sans-Serif" font-size="10.00" fill="#cccccc">encode()</text>
</g>
<!-- norm -->
<g id="node4" class="node">
<title>norm</title>
<ellipse fill="#3a2200" stroke="black" cx="863.55" cy="-133" rx="114.6" ry="22.76"/>
<text text-anchor="middle" x="863.55" y="-136.2" font-family="Helvetica,sans-Serif" font-size="11.00" fill="#ffcc88">Compute magnitude</text>
<text text-anchor="middle" x="863.55" y="-124.2" font-family="Helvetica,sans-Serif" font-size="11.00" fill="#ffcc88">‖v‖ = √( v₁² + v₂² + … + v₁₀₂₄² )</text>
</g>
<!-- raw&#45;&gt;norm -->
<g id="edge3" class="edge">
<title>raw&#45;&gt;norm</title>
<path fill="none" stroke="#aaaaaa" d="M613.3,-90.33C682.93,-90.33 774.1,-90.33 774.1,-90.33 774.1,-90.33 774.1,-108.56 774.1,-108.56"/>
<polygon fill="#aaaaaa" stroke="#aaaaaa" points="770.6,-108.55 774.1,-118.56 777.6,-108.56 770.6,-108.55"/>
<text text-anchor="middle" x="681" y="-128" font-family="Helvetica,sans-Serif" font-size="10.00" fill="#cccccc">compute</text>
</g>
<!-- mag -->
<g id="node7" class="node">
<title>mag</title>
<polygon fill="#3a1a1a" stroke="black" points="929.05,-60 798.05,-60 798.05,-16 929.05,-16 929.05,-60"/>
<text text-anchor="middle" x="863.55" y="-47.2" font-family="Helvetica,sans-Serif" font-size="11.00" fill="#cc8888">Magnitude &#160;‖v‖</text>
<text text-anchor="middle" x="863.55" y="-35.2" font-family="Helvetica,sans-Serif" font-size="11.00" fill="#cc8888">(how long the vector is)</text>
<text text-anchor="middle" x="863.55" y="-23.2" font-family="Helvetica,sans-Serif" font-size="11.00" fill="#cc8888">→ irrelevant to meaning</text>
</g>
<!-- raw&#45;&gt;mag -->
<g id="edge6" class="edge">
<title>raw&#45;&gt;mag</title>
<path fill="none" stroke="#cc4444" stroke-dasharray="5,2" d="M613.37,-76.67C710.55,-76.67 864.1,-76.67 864.1,-76.67 864.1,-76.67 864.1,-70.04 864.1,-70.04"/>
<polygon fill="#cc4444" stroke="#cc4444" points="867.6,-70.04 864.1,-60.04 860.6,-70.04 867.6,-70.04"/>
<text text-anchor="middle" x="681" y="-55" font-family="Helvetica,sans-Serif" font-size="10.00" fill="#cc4444">throws away</text>
</g>
<!-- unit -->
<g id="node5" class="node">
<title>unit</title>
<polygon fill="#1a3a1a" stroke="black" points="1211.1,-151 1084.1,-151 1084.1,-115 1211.1,-115 1211.1,-151"/>
<text text-anchor="middle" x="1147.6" y="-136.2" font-family="Helvetica,sans-Serif" font-size="11.00" fill="#88ff88">Unit vector &#160;v̂ = v / ‖v‖</text>
<text text-anchor="middle" x="1147.6" y="-124.2" font-family="Helvetica,sans-Serif" font-size="11.00" fill="#88ff88">‖v̂‖ = 1.0 &#160;(guaranteed)</text>
</g>
<!-- norm&#45;&gt;unit -->
<g id="edge4" class="edge">
<title>norm&#45;&gt;unit</title>
<path fill="none" stroke="#aaaaaa" d="M978.27,-133C978.27,-133 1073.91,-133 1073.91,-133"/>
<polygon fill="#aaaaaa" stroke="#aaaaaa" points="1073.91,-136.5 1083.91,-133 1073.91,-129.5 1073.91,-136.5"/>
<text text-anchor="middle" x="1031.1" y="-136" font-family="Helvetica,sans-Serif" font-size="10.00" fill="#cccccc">divide</text>
</g>
<!-- sphere -->
<g id="node6" class="node">
<title>sphere</title>
<ellipse fill="#1a3a5a" stroke="black" cx="1425.6" cy="-185" rx="79.81" ry="31.23"/>
<text text-anchor="middle" x="1425.6" y="-194.2" font-family="Helvetica,sans-Serif" font-size="11.00" fill="#88ccff">Point on &#160;S¹⁰²³</text>
<text text-anchor="middle" x="1425.6" y="-182.2" font-family="Helvetica,sans-Serif" font-size="11.00" fill="#88ccff">(unit hypersphere</text>
<text text-anchor="middle" x="1425.6" y="-170.2" font-family="Helvetica,sans-Serif" font-size="11.00" fill="#88ccff">in 1024 dimensions)</text>
</g>
<!-- unit&#45;&gt;sphere -->
<g id="edge5" class="edge">
<title>unit&#45;&gt;sphere</title>
<path fill="none" stroke="#aaaaaa" d="M1148.1,-151.19C1148.1,-166.49 1148.1,-185.87 1148.1,-185.87 1148.1,-185.87 1335.71,-185.87 1335.71,-185.87"/>
<polygon fill="#aaaaaa" stroke="#aaaaaa" points="1335.71,-189.37 1345.71,-185.87 1335.71,-182.37 1335.71,-189.37"/>
<text text-anchor="middle" x="1272.6" y="-178" font-family="Helvetica,sans-Serif" font-size="10.00" fill="#cccccc">placed on</text>
</g>
<!-- dir -->
<g id="node8" class="node">
<title>dir</title>
<polygon fill="#1a3a1a" stroke="black" points="1517.1,-104 1334.1,-104 1334.1,-60 1517.1,-60 1517.1,-104"/>
<text text-anchor="middle" x="1425.6" y="-91.2" font-family="Helvetica,sans-Serif" font-size="11.00" fill="#88ff88">Direction &#160;v/‖v‖</text>
<text text-anchor="middle" x="1425.6" y="-79.2" font-family="Helvetica,sans-Serif" font-size="11.00" fill="#88ff88">(which way it points)</text>
<text text-anchor="middle" x="1425.6" y="-67.2" font-family="Helvetica,sans-Serif" font-size="11.00" fill="#88ff88">= the document&#39;s semantic content</text>
</g>
<!-- unit&#45;&gt;dir -->
<g id="edge7" class="edge">
<title>unit&#45;&gt;dir</title>
<path fill="none" stroke="#44cc44" stroke-dasharray="5,2" d="M1211.17,-133C1267.24,-133 1340.1,-133 1340.1,-133 1340.1,-133 1340.1,-114.22 1340.1,-114.22"/>
<polygon fill="#44cc44" stroke="#44cc44" points="1343.6,-114.22 1340.1,-104.22 1336.6,-114.22 1343.6,-114.22"/>
<text text-anchor="middle" x="1272.6" y="-103" font-family="Helvetica,sans-Serif" font-size="10.00" fill="#44cc44">retains</text>
</g>
<!-- why -->
<g id="node9" class="node">
<title>why</title>
<polygon fill="#2a2a44" stroke="black" points="1768.1,-213 1598.1,-213 1598.1,-157 1774.1,-157 1774.1,-207 1768.1,-213"/>
<polyline fill="none" stroke="black" points="1768.1,-213 1768.1,-207 "/>
<polyline fill="none" stroke="black" points="1774.1,-207 1768.1,-207 "/>
<text text-anchor="middle" x="1686.1" y="-200.2" font-family="Helvetica,sans-Serif" font-size="11.00" fill="#ccccff">Two docs on the same topic</text>
<text text-anchor="middle" x="1686.1" y="-188.2" font-family="Helvetica,sans-Serif" font-size="11.00" fill="#ccccff">but different lengths should land</text>
<text text-anchor="middle" x="1686.1" y="-176.2" font-family="Helvetica,sans-Serif" font-size="11.00" fill="#ccccff">at the SAME point on the sphere.</text>
<text text-anchor="middle" x="1686.1" y="-164.2" font-family="Helvetica,sans-Serif" font-size="11.00" fill="#ccccff">Normalization ensures this.</text>
</g>
<!-- sphere&#45;&gt;why -->
</g>
</svg>
