<?xml version="1.0" encoding="UTF-8" standalone="no"?>
<!DOCTYPE svg PUBLIC "-//W3C//DTD SVG 1.1//EN"
 "http://www.w3.org/Graphics/SVG/1.1/DTD/svg11.dtd">
<!-- Generated by graphviz version 2.43.0 (0)
 -->
<!-- Title: Dot2_TfIdf_vs_Embedding Pages: 1 -->
<svg width="603pt" height="783pt"
 viewBox="0.00 0.00 603.40 783.40" xmlns="http://www.w3.org/2000/svg" xmlns:xlink="http://www.w3.org/1999/xlink">
<g id="graph0" class="graph" transform="scale(1 1) rotate(0) translate(43.2 740.2)">
<title>Dot2_TfIdf_vs_Embedding</title>
<polygon fill="#1a1a2e" stroke="transparent" points="-43.2,43.2 -43.2,-740.2 560.2,-740.2 560.2,43.2 -43.2,43.2"/>
<text text-anchor="middle" x="258.5" y="-680.2" font-family="Helvetica,sans-Serif" font-size="16.00" fill="#e0e0e0">TF&#45;IDF Space vs Embedding Space</text>
<g id="clust1" class="cluster">
<title>cluster_tfidf</title>
<polygon fill="#1a0e00" stroke="#553322" points="8,-8 8,-541 172,-541 172,-8 8,-8"/>
<text text-anchor="middle" x="90" y="-525.8" font-family="Helvetica,sans-Serif" font-size="14.00" fill="#cc8844">TF&#45;IDF Vector Space</text>
</g>
<g id="clust2" class="cluster">
<title>cluster_embed</title>
<polygon fill="#001a00" stroke="#224422" points="318,-8 318,-541 509,-541 509,-8 318,-8"/>
<text text-anchor="middle" x="413.5" y="-525.8" font-family="Helvetica,sans-Serif" font-size="14.00" fill="#44cc44">Embedding Space &#160;(bge&#45;m3)</text>
</g>
<g id="clust3" class="cluster">
<title>cluster_compare</title>
<polygon fill="#1a1a2e" stroke="#444466" stroke-dasharray="5,2" points="191,-115 191,-663 309,-663 309,-115 191,-115"/>
<text text-anchor="middle" x="250" y="-646.2" font-family="Helvetica,sans-Serif" font-size="16.00" fill="#e0e0e0">Comparison</text>
</g>
<!-- td -->
<g id="node1" class="node">
<title>td</title>
<polygon fill="#3a2200" stroke="black" points="163.5,-510 20.5,-510 20.5,-474 163.5,-474 163.5,-510"/>
<text text-anchor="middle" x="92" y="-495.2" font-family="Helvetica,sans-Serif" font-size="11.00" fill="#ffaa44">~100,000 dimensions</text>
<text text-anchor="middle" x="92" y="-483.2" font-family="Helvetica,sans-Serif" font-size="11.00" fill="#ffaa44">(one per vocabulary word)</text>
</g>
<!-- ts -->
<g id="node2" class="node">
<title>ts</title>
<polygon fill="#2a1a00" stroke="black" points="136.5,-397 47.5,-397 47.5,-361 136.5,-361 136.5,-397"/>
<text text-anchor="middle" x="92" y="-382.2" font-family="Helvetica,sans-Serif" font-size="11.00" fill="#cc8844">Sparse vectors</text>
<text text-anchor="middle" x="92" y="-370.2" font-family="Helvetica,sans-Serif" font-size="11.00" fill="#cc8844">(mostly zeros)</text>
</g>
<!-- td&#45;&gt;ts -->
<!-- tv -->
<g id="node3" class="node">
<title>tv</title>
<polygon fill="#2a1a00" stroke="black" points="164.5,-284 15.5,-284 15.5,-240 164.5,-240 164.5,-284"/>
<text text-anchor="middle" x="90" y="-271.2" font-family="Helvetica,sans-Serif" font-size="11.00" fill="#cc8844">Vocabulary&#45;dependent</text>
<text text-anchor="middle" x="90" y="-259.2" font-family="Helvetica,sans-Serif" font-size="11.00" fill="#cc8844">&#39;attack&#39; ≠ &#39;assault&#39;</text>
<text text-anchor="middle" x="90" y="-247.2" font-family="Helvetica,sans-Serif" font-size="11.00" fill="#cc8844">(different words = far apart)</text>
</g>
<!-- ts&#45;&gt;tv -->
<!-- tm -->
<g id="node4" class="node">
<title>tm</title>
<polygon fill="#2a1a00" stroke="black" points="160,-163 20,-163 20,-119 160,-119 160,-163"/>
<text text-anchor="middle" x="90" y="-150.2" font-family="Helvetica,sans-Serif" font-size="11.00" fill="#cc8844">Distance metric:</text>
<text text-anchor="middle" x="90" y="-138.2" font-family="Helvetica,sans-Serif" font-size="11.00" fill="#cc8844">Euclidean or cosine</text>
<text text-anchor="middle" x="90" y="-126.2" font-family="Helvetica,sans-Serif" font-size="11.00" fill="#cc8844">(no meaningful geometry)</text>
</g>
<!-- tv&#45;&gt;tm -->
<!-- tl -->
<g id="node5" class="node">
<title>tl</title>
<polygon fill="#5a1a00" stroke="black" points="163.5,-52 16.5,-52 16.5,-16 163.5,-16 163.5,-52"/>
<text text-anchor="middle" x="90" y="-37.2" font-family="Helvetica,sans-Serif" font-size="11.00" fill="#ffaa44">Same topic, different vocab</text>
<text text-anchor="middle" x="90" y="-25.2" font-family="Helvetica,sans-Serif" font-size="11.00" fill="#ffaa44">→ distant in space</text>
</g>
<!-- tm&#45;&gt;tl -->
<!-- ed -->
<g id="node6" class="node">
<title>ed</title>
<polygon fill="#1a3a1a" stroke="black" points="431,-510 333,-510 333,-474 431,-474 431,-510"/>
<text text-anchor="middle" x="382" y="-495.2" font-family="Helvetica,sans-Serif" font-size="11.00" fill="#88ff88">1024 dimensions</text>
<text text-anchor="middle" x="382" y="-483.2" font-family="Helvetica,sans-Serif" font-size="11.00" fill="#88ff88">(dense, fixed)</text>
</g>
<!-- es -->
<g id="node7" class="node">
<title>es</title>
<polygon fill="#0a2a0a" stroke="black" points="455,-397 337,-397 337,-361 455,-361 455,-397"/>
<text text-anchor="middle" x="396" y="-382.2" font-family="Helvetica,sans-Serif" font-size="11.00" fill="#66cc66">Dense vectors</text>
<text text-anchor="middle" x="396" y="-370.2" font-family="Helvetica,sans-Serif" font-size="11.00" fill="#66cc66">(all dims carry signal)</text>
</g>
<!-- ed&#45;&gt;es -->
<!-- ev -->
<g id="node8" class="node">
<title>ev</title>
<polygon fill="#0a2a0a" stroke="black" points="476,-284 336,-284 336,-240 476,-240 476,-284"/>
<text text-anchor="middle" x="406" y="-271.2" font-family="Helvetica,sans-Serif" font-size="11.00" fill="#66cc66">Vocabulary&#45;independent</text>
<text text-anchor="middle" x="406" y="-259.2" font-family="Helvetica,sans-Serif" font-size="11.00" fill="#66cc66">&#39;attack&#39; ≈ &#39;assault&#39;</text>
<text text-anchor="middle" x="406" y="-247.2" font-family="Helvetica,sans-Serif" font-size="11.00" fill="#66cc66">(same meaning = nearby)</text>
</g>
<!-- es&#45;&gt;ev -->
<!-- em -->
<g id="node9" class="node">
<title>em</title>
<polygon fill="#0a2a0a" stroke="black" points="470.5,-163 333.5,-163 333.5,-119 470.5,-119 470.5,-163"/>
<text text-anchor="middle" x="402" y="-150.2" font-family="Helvetica,sans-Serif" font-size="11.00" fill="#66cc66">Distance metric:</text>
<text text-anchor="middle" x="402" y="-138.2" font-family="Helvetica,sans-Serif" font-size="11.00" fill="#66cc66">cosine similarity</text>
<text text-anchor="middle" x="402" y="-126.2" font-family="Helvetica,sans-Serif" font-size="11.00" fill="#66cc66">on unit hypersphere S¹⁰²³</text>
</g>
<!-- ev&#45;&gt;em -->
<!-- el -->
<g id="node10" class="node">
<title>el</title>
<polygon fill="#0a4a0a" stroke="black" points="475.5,-52 328.5,-52 328.5,-16 475.5,-16 475.5,-52"/>
<text text-anchor="middle" x="402" y="-37.2" font-family="Helvetica,sans-Serif" font-size="11.00" fill="#88ff88">Same topic, different vocab</text>
<text text-anchor="middle" x="402" y="-25.2" font-family="Helvetica,sans-Serif" font-size="11.00" fill="#88ff88">→ close on the sphere</text>
</g>
<!-- em&#45;&gt;el -->
<!-- c1 -->
<g id="node11" class="node">
<title>c1</title>
<polygon fill="#2a2a4a" stroke="black" points="293,-629 207,-629 207,-593 293,-593 293,-629"/>
<text text-anchor="middle" x="250" y="-608.2" font-family="Helvetica,sans-Serif" font-size="11.00" fill="#ccccff">Dimensionality</text>
</g>
<!-- c1&#45;&gt;td -->
<g id="edge13" class="edge">
<title>c1&#45;&gt;td</title>
<path fill="none" stroke="#cc8844" d="M227.03,-592.99C199.64,-572.71 153.76,-538.74 123.19,-516.1"/>
<polygon fill="#cc8844" stroke="#cc8844" points="125.12,-513.17 115,-510.03 120.96,-518.8 125.12,-513.17"/>
<text text-anchor="middle" x="194" y="-552" font-family="Helvetica,sans-Serif" font-size="10.00" fill="#cc8844">~100k</text>
</g>
<!-- c1&#45;&gt;ed -->
<g id="edge14" class="edge">
<title>c1&#45;&gt;ed</title>
<path fill="none" stroke="#44cc44" d="M269.19,-592.99C291.87,-572.88 329.75,-539.32 355.28,-516.68"/>
<polygon fill="#44cc44" stroke="#44cc44" points="357.62,-519.29 362.78,-510.03 352.98,-514.05 357.62,-519.29"/>
<text text-anchor="middle" x="327" y="-552" font-family="Helvetica,sans-Serif" font-size="10.00" fill="#44cc44">1024</text>
</g>
<!-- c2 -->
<g id="node12" class="node">
<title>c2</title>
<polygon fill="#2a2a4a" stroke="black" points="278,-510 222,-510 222,-474 278,-474 278,-510"/>
<text text-anchor="middle" x="250" y="-489.2" font-family="Helvetica,sans-Serif" font-size="11.00" fill="#ccccff">Sparsity</text>
</g>
<!-- c1&#45;&gt;c2 -->
<!-- c2&#45;&gt;ts -->
<g id="edge15" class="edge">
<title>c2&#45;&gt;ts</title>
<path fill="none" stroke="#cc8844" d="M225.66,-473.9C198.64,-454.91 154.87,-424.17 124.83,-403.07"/>
<polygon fill="#cc8844" stroke="#cc8844" points="126.56,-400 116.37,-397.12 122.54,-405.73 126.56,-400"/>
<text text-anchor="middle" x="190" y="-433" font-family="Helvetica,sans-Serif" font-size="10.00" fill="#cc8844">sparse</text>
</g>
<!-- c2&#45;&gt;es -->
<g id="edge16" class="edge">
<title>c2&#45;&gt;es</title>
<path fill="none" stroke="#44cc44" d="M272.49,-473.9C297.28,-455.05 337.32,-424.61 365.06,-403.52"/>
<polygon fill="#44cc44" stroke="#44cc44" points="367.4,-406.14 373.24,-397.3 363.16,-400.57 367.4,-406.14"/>
<text text-anchor="middle" x="340.5" y="-433" font-family="Helvetica,sans-Serif" font-size="10.00" fill="#44cc44">dense</text>
</g>
<!-- c3 -->
<g id="node13" class="node">
<title>c3</title>
<polygon fill="#2a2a4a" stroke="black" points="300.5,-397 199.5,-397 199.5,-361 300.5,-361 300.5,-397"/>
<text text-anchor="middle" x="250" y="-376.2" font-family="Helvetica,sans-Serif" font-size="11.00" fill="#ccccff">Semantic aware?</text>
</g>
<!-- c2&#45;&gt;c3 -->
<!-- c3&#45;&gt;tv -->
<g id="edge17" class="edge">
<title>c3&#45;&gt;tv</title>
<path fill="none" stroke="#cc8844" d="M226.05,-360.78C199.99,-342.05 157.99,-311.87 127.54,-289.98"/>
<polygon fill="#cc8844" stroke="#cc8844" points="129.45,-287.04 119.28,-284.05 125.36,-292.73 129.45,-287.04"/>
<text text-anchor="middle" x="184.5" y="-320" font-family="Helvetica,sans-Serif" font-size="10.00" fill="#cc8844">no</text>
</g>
<!-- c3&#45;&gt;ev -->
<g id="edge18" class="edge">
<title>c3&#45;&gt;ev</title>
<path fill="none" stroke="#44cc44" d="M273.35,-360.78C298.76,-342.05 339.71,-311.87 369.4,-289.98"/>
<polygon fill="#44cc44" stroke="#44cc44" points="371.48,-292.8 377.45,-284.05 367.32,-287.16 371.48,-292.8"/>
<text text-anchor="middle" x="340" y="-320" font-family="Helvetica,sans-Serif" font-size="10.00" fill="#44cc44">yes</text>
</g>
<!-- c4 -->
<g id="node14" class="node">
<title>c4</title>
<polygon fill="#2a2a4a" stroke="black" points="299.5,-280 200.5,-280 200.5,-244 299.5,-244 299.5,-280"/>
<text text-anchor="middle" x="250" y="-259.2" font-family="Helvetica,sans-Serif" font-size="11.00" fill="#ccccff">Cross&#45;language?</text>
</g>
<!-- c3&#45;&gt;c4 -->
<!-- c4&#45;&gt;tm -->
<g id="edge19" class="edge">
<title>c4&#45;&gt;tm</title>
<path fill="none" stroke="#cc8844" d="M227.08,-243.95C200.85,-224.45 157.56,-192.25 126.64,-169.25"/>
<polygon fill="#cc8844" stroke="#cc8844" points="128.39,-166.19 118.28,-163.03 124.21,-171.81 128.39,-166.19"/>
<text text-anchor="middle" x="179.5" y="-199" font-family="Helvetica,sans-Serif" font-size="10.00" fill="#cc8844">no</text>
</g>
<!-- c4&#45;&gt;em -->
<g id="edge20" class="edge">
<title>c4&#45;&gt;em</title>
<path fill="none" stroke="#44cc44" d="M271.78,-243.95C296.69,-224.45 337.82,-192.25 367.19,-169.25"/>
<polygon fill="#44cc44" stroke="#44cc44" points="369.42,-171.95 375.14,-163.03 365.11,-166.44 369.42,-171.95"/>
<text text-anchor="middle" x="359" y="-199" font-family="Helvetica,sans-Serif" font-size="10.00" fill="#44cc44">yes (bge&#45;m3)</text>
</g>
<!-- c5 -->
<g id="node15" class="node">
<title>c5</title>
<polygon fill="#2a2a4a" stroke="black" points="282,-159 218,-159 218,-123 282,-123 282,-159"/>
<text text-anchor="middle" x="250" y="-138.2" font-family="Helvetica,sans-Serif" font-size="11.00" fill="#ccccff">Geometry</text>
</g>
<!-- c4&#45;&gt;c5 -->
</g>
</svg>
