<?xml version="1.0" encoding="UTF-8" standalone="no"?>
<!DOCTYPE svg PUBLIC "-//W3C//DTD SVG 1.1//EN"
 "http://www.w3.org/Graphics/SVG/1.1/DTD/svg11.dtd">
<!-- Generated by graphviz version 2.43.0 (0)
 -->
<!-- Title: Dot3_Inference_Flow Pages: 1 -->
<svg width="453pt" height="1186pt"
 viewBox="0.00 0.00 453.40 1185.90" xmlns="http://www.w3.org/2000/svg" xmlns:xlink="http://www.w3.org/1999/xlink">
<g id="graph0" class="graph" transform="scale(1 1) rotate(0) translate(43.2 1142.7)">
<title>Dot3_Inference_Flow</title>
<polygon fill="#1a1a2e" stroke="transparent" points="-43.2,43.2 -43.2,-1142.7 410.2,-1142.7 410.2,43.2 -43.2,43.2"/>
<text text-anchor="middle" x="183.5" y="-1082.7" font-family="Helvetica,sans-Serif" font-size="16.00" fill="#e0e0e0">Classification Inference: Document → Prediction</text>
<g id="clust1" class="cluster">
<title>cluster_extract</title>
<polygon fill="#1a1a2e" stroke="#444466" stroke-dasharray="5,2" points="35,-911.5 35,-997.5 225,-997.5 225,-911.5 35,-911.5"/>
<text text-anchor="middle" x="130" y="-980.7" font-family="Helvetica,sans-Serif" font-size="16.00" fill="#e0e0e0">Text Extraction &#160;(CPU)</text>
</g>
<g id="clust2" class="cluster">
<title>cluster_chunk</title>
<polygon fill="#1a1a2e" stroke="#335533" stroke-dasharray="5,2" points="27,-793.5 27,-879.5 233,-879.5 233,-793.5 27,-793.5"/>
<text text-anchor="middle" x="130" y="-862.7" font-family="Helvetica,sans-Serif" font-size="16.00" fill="#e0e0e0">Chunking &#160;(CPU)</text>
</g>
<g id="clust3" class="cluster">
<title>cluster_encode</title>
<polygon fill="#0a1400" stroke="#335500" points="8,-370.25 8,-761.5 243,-761.5 243,-370.25 8,-370.25"/>
<text text-anchor="middle" x="125.5" y="-744.7" font-family="Helvetica,sans-Serif" font-size="16.00" fill="#76b900">Encoding &#160;(GPU — RTX 5080)</text>
</g>
<g id="clust4" class="cluster">
<title>cluster_classify</title>
<polygon fill="#1a1a2e" stroke="#553333" stroke-dasharray="5,2" points="103,-8 103,-320 341,-320 341,-8 103,-8"/>
<text text-anchor="middle" x="222" y="-303.2" font-family="Helvetica,sans-Serif" font-size="16.00" fill="#e0e0e0">Classification &#160;(CPU — instant)</text>
</g>
<!-- doc -->
<g id="node1" class="node">
<title>doc</title>
<polygon fill="#2a2a5a" stroke="black" points="170,-1073.5 84,-1073.5 84,-1037.5 176,-1037.5 176,-1067.5 170,-1073.5"/>
<polyline fill="none" stroke="black" points="170,-1073.5 170,-1067.5 "/>
<polyline fill="none" stroke="black" points="176,-1067.5 170,-1067.5 "/>
<text text-anchor="middle" x="130" y="-1058.7" font-family="Helvetica,sans-Serif" font-size="11.00" fill="white">New document</text>
<text text-anchor="middle" x="130" y="-1046.7" font-family="Helvetica,sans-Serif" font-size="11.00" fill="white">(.pdf / .jpg / .txt)</text>
</g>
<!-- ext -->
<g id="node2" class="node">
<title>ext</title>
<polygon fill="#333355" stroke="black" points="216.5,-963.5 43.5,-963.5 43.5,-919.5 216.5,-919.5 216.5,-963.5"/>
<text text-anchor="middle" x="130" y="-950.7" font-family="Helvetica,sans-Serif" font-size="11.00" fill="#aaaaff">extract_text()</text>
<text text-anchor="middle" x="130" y="-938.7" font-family="Helvetica,sans-Serif" font-size="11.00" fill="#aaaaff">PyMuPDF → text layer</text>
<text text-anchor="middle" x="130" y="-926.7" font-family="Helvetica,sans-Serif" font-size="11.00" fill="#aaaaff">EasyOCR → GPU OCR fallback</text>
</g>
<!-- doc&#45;&gt;ext -->
<g id="edge6" class="edge">
<title>doc&#45;&gt;ext</title>
<path fill="none" stroke="#aaaaaa" d="M130,-1037.44C130,-1037.44 130,-973.78 130,-973.78"/>
<polygon fill="#aaaaaa" stroke="#aaaaaa" points="133.5,-973.78 130,-963.78 126.5,-973.78 133.5,-973.78"/>
</g>
<!-- chk -->
<g id="node3" class="node">
<title>chk</title>
<polygon fill="#1a3a1a" stroke="black" points="224.5,-845.5 35.5,-845.5 35.5,-801.5 224.5,-801.5 224.5,-845.5"/>
<text text-anchor="middle" x="130" y="-832.7" font-family="Helvetica,sans-Serif" font-size="11.00" fill="#88ff88">chunk_text(text, 4000, overlap=200)</text>
<text text-anchor="middle" x="130" y="-820.7" font-family="Helvetica,sans-Serif" font-size="11.00" fill="#88ff88">→ [chunk₀, chunk₁, … chunkₙ]</text>
<text text-anchor="middle" x="130" y="-808.7" font-family="Helvetica,sans-Serif" font-size="11.00" fill="#88ff88">n chunks of ≤4000 chars each</text>
</g>
<!-- ext&#45;&gt;chk -->
<g id="edge7" class="edge">
<title>ext&#45;&gt;chk</title>
<path fill="none" stroke="#aaaaaa" d="M130,-919.31C130,-919.31 130,-855.6 130,-855.6"/>
<polygon fill="#aaaaaa" stroke="#aaaaaa" points="133.5,-855.6 130,-845.6 126.5,-855.6 133.5,-855.6"/>
</g>
<!-- enc -->
<g id="node4" class="node">
<title>enc</title>
<polygon fill="#1a3a00" stroke="black" points="234.5,-727.5 25.5,-727.5 25.5,-691.5 234.5,-691.5 234.5,-727.5"/>
<text text-anchor="middle" x="130" y="-712.7" font-family="Helvetica,sans-Serif" font-size="11.00" fill="#76b900">bge&#45;m3.encode(chunks, batch_size=32)</text>
<text text-anchor="middle" x="130" y="-700.7" font-family="Helvetica,sans-Serif" font-size="11.00" fill="#76b900">normalize_embeddings=True</text>
</g>
<!-- chk&#45;&gt;enc -->
<g id="edge8" class="edge">
<title>chk&#45;&gt;enc</title>
<path fill="none" stroke="#aaaaaa" d="M130,-801.25C130,-801.25 130,-737.57 130,-737.57"/>
<polygon fill="#aaaaaa" stroke="#aaaaaa" points="133.5,-737.57 130,-727.57 126.5,-737.57 133.5,-737.57"/>
</g>
<!-- mat -->
<g id="node5" class="node">
<title>mat</title>
<polygon fill="#1a2a00" stroke="black" points="196,-628.5 66,-628.5 66,-592.5 196,-592.5 196,-628.5"/>
<text text-anchor="middle" x="131" y="-613.7" font-family="Helvetica,sans-Serif" font-size="11.00" fill="#aae0aa">n × 1024 &#160;float32 matrix</text>
<text text-anchor="middle" x="131" y="-601.7" font-family="Helvetica,sans-Serif" font-size="11.00" fill="#aae0aa">(one row per chunk)</text>
</g>
<!-- enc&#45;&gt;mat -->
<g id="edge1" class="edge">
<title>enc&#45;&gt;mat</title>
<path fill="none" stroke="#aaaaaa" d="M131,-691.34C131,-691.34 131,-638.54 131,-638.54"/>
<polygon fill="#aaaaaa" stroke="#aaaaaa" points="134.5,-638.54 131,-628.54 127.5,-638.54 134.5,-638.54"/>
</g>
<!-- pool -->
<g id="node6" class="node">
<title>pool</title>
<polygon fill="#1a3a00" stroke="black" points="203.5,-529.5 62.5,-529.5 62.5,-493.5 203.5,-493.5 203.5,-529.5"/>
<text text-anchor="middle" x="133" y="-514.7" font-family="Helvetica,sans-Serif" font-size="11.00" fill="#76b900">mean_pool: average rows</text>
<text text-anchor="middle" x="133" y="-502.7" font-family="Helvetica,sans-Serif" font-size="11.00" fill="#76b900">→ 1 × 1024 &#160;vector</text>
</g>
<!-- mat&#45;&gt;pool -->
<g id="edge2" class="edge">
<title>mat&#45;&gt;pool</title>
<path fill="none" stroke="#aaaaaa" d="M131,-592.34C131,-592.34 131,-539.54 131,-539.54"/>
<polygon fill="#aaaaaa" stroke="#aaaaaa" points="134.5,-539.54 131,-529.54 127.5,-539.54 134.5,-539.54"/>
</g>
<!-- norm -->
<g id="node7" class="node">
<title>norm</title>
<polygon fill="#2a3a00" stroke="black" points="202.5,-422.25 67.5,-422.25 67.5,-378.25 202.5,-378.25 202.5,-422.25"/>
<text text-anchor="middle" x="135" y="-409.45" font-family="Helvetica,sans-Serif" font-size="11.00" fill="#ccff88">L2 normalize</text>
<text text-anchor="middle" x="135" y="-397.45" font-family="Helvetica,sans-Serif" font-size="11.00" fill="#ccff88">→ unit vector &#160;v̂ &#160;on S¹⁰²³</text>
<text text-anchor="middle" x="135" y="-385.45" font-family="Helvetica,sans-Serif" font-size="11.00" fill="#ccff88">‖v̂‖ = 1.0</text>
</g>
<!-- pool&#45;&gt;norm -->
<g id="edge3" class="edge">
<title>pool&#45;&gt;norm</title>
<path fill="none" stroke="#aaaaaa" d="M135,-493.13C135,-493.13 135,-432.48 135,-432.48"/>
<polygon fill="#aaaaaa" stroke="#aaaaaa" points="138.5,-432.48 135,-422.48 131.5,-432.48 138.5,-432.48"/>
</g>
<!-- dot -->
<g id="node8" class="node">
<title>dot</title>
<polygon fill="#3a1a1a" stroke="black" points="300,-286 144,-286 144,-242 300,-242 300,-286"/>
<text text-anchor="middle" x="222" y="-273.2" font-family="Helvetica,sans-Serif" font-size="11.00" fill="#ffaaaa">W · v̂</text>
<text text-anchor="middle" x="222" y="-261.2" font-family="Helvetica,sans-Serif" font-size="11.00" fill="#ffaaaa">69 dot products</text>
<text text-anchor="middle" x="222" y="-249.2" font-family="Helvetica,sans-Serif" font-size="11.00" fill="#ffaaaa">(weight matrix W: 69 × 1024)</text>
</g>
<!-- norm&#45;&gt;dot -->
<g id="edge9" class="edge">
<title>norm&#45;&gt;dot</title>
<path fill="none" stroke="#aaaaaa" d="M173.25,-378.06C173.25,-378.06 173.25,-296.18 173.25,-296.18"/>
<polygon fill="#aaaaaa" stroke="#aaaaaa" points="176.75,-296.18 173.25,-286.18 169.75,-296.18 176.75,-296.18"/>
</g>
<!-- smx -->
<g id="node9" class="node">
<title>smx</title>
<polygon fill="#4a1a00" stroke="black" points="289,-179 155,-179 155,-135 289,-135 289,-179"/>
<text text-anchor="middle" x="222" y="-166.2" font-family="Helvetica,sans-Serif" font-size="11.00" fill="#ffcc88">softmax(scores)</text>
<text text-anchor="middle" x="222" y="-154.2" font-family="Helvetica,sans-Serif" font-size="11.00" fill="#ffcc88">→ probability distribution</text>
<text text-anchor="middle" x="222" y="-142.2" font-family="Helvetica,sans-Serif" font-size="11.00" fill="#ffcc88">Σ pᵢ = 1.0</text>
</g>
<!-- dot&#45;&gt;smx -->
<g id="edge4" class="edge">
<title>dot&#45;&gt;smx</title>
<path fill="none" stroke="#aaaaaa" d="M222,-241.83C222,-241.83 222,-189.14 222,-189.14"/>
<polygon fill="#aaaaaa" stroke="#aaaaaa" points="225.5,-189.14 222,-179.14 218.5,-189.14 225.5,-189.14"/>
</g>
<!-- out -->
<g id="node10" class="node">
<title>out</title>
<polygon fill="#1a4a1a" stroke="black" points="266.5,-72 171.5,-72 171.5,-16 272.5,-16 272.5,-66 266.5,-72"/>
<polyline fill="none" stroke="black" points="266.5,-72 266.5,-66 "/>
<polyline fill="none" stroke="black" points="272.5,-66 266.5,-66 "/>
<text text-anchor="middle" x="222" y="-59.2" font-family="Helvetica,sans-Serif" font-size="11.00" fill="#88ff88">Top&#45;3 predictions:</text>
<text text-anchor="middle" x="222" y="-47.2" font-family="Helvetica,sans-Serif" font-size="11.00" fill="#88ff88">strategy &#160;88%</text>
<text text-anchor="middle" x="222" y="-35.2" font-family="Helvetica,sans-Serif" font-size="11.00" fill="#88ff88">C2 &#160;&#160;&#160;&#160;&#160;&#160;&#160;&#160;7%</text>
<text text-anchor="middle" x="222" y="-23.2" font-family="Helvetica,sans-Serif" font-size="11.00" fill="#88ff88">Spec_ops &#160;&#160;5%</text>
</g>
<!-- smx&#45;&gt;out -->
<g id="edge5" class="edge">
<title>smx&#45;&gt;out</title>
<path fill="none" stroke="#aaaaaa" d="M222,-134.94C222,-134.94 222,-82.02 222,-82.02"/>
<polygon fill="#aaaaaa" stroke="#aaaaaa" points="225.5,-82.02 222,-72.02 218.5,-82.02 225.5,-82.02"/>
</g>
<!-- W -->
<g id="node11" class="node">
<title>W</title>
<path fill="#2a2a44" stroke="black" d="M367,-425.21C367,-428.27 341,-430.75 309,-430.75 277,-430.75 251,-428.27 251,-425.21 251,-425.21 251,-375.29 251,-375.29 251,-372.23 277,-369.75 309,-369.75 341,-369.75 367,-372.23 367,-375.29 367,-375.29 367,-425.21 367,-425.21"/>
<path fill="none" stroke="black" d="M367,-425.21C367,-422.15 341,-419.66 309,-419.66 277,-419.66 251,-422.15 251,-425.21"/>
<text text-anchor="middle" x="309" y="-409.45" font-family="Helvetica,sans-Serif" font-size="11.00" fill="#aaaaff">W &#160;(69 × 1024)</text>
<text text-anchor="middle" x="309" y="-397.45" font-family="Helvetica,sans-Serif" font-size="11.00" fill="#aaaaff">learned at train time</text>
<text text-anchor="middle" x="309" y="-385.45" font-family="Helvetica,sans-Serif" font-size="11.00" fill="#aaaaff">stored in militia.joblib</text>
</g>
<!-- W&#45;&gt;dot -->
<g id="edge10" class="edge">
<title>W&#45;&gt;dot</title>
<path fill="none" stroke="#4477ff" stroke-dasharray="5,2" d="M275.5,-369.67C275.5,-369.67 275.5,-296.42 275.5,-296.42"/>
<polygon fill="#4477ff" stroke="#4477ff" points="279,-296.42 275.5,-286.42 272,-296.42 279,-296.42"/>
<text text-anchor="middle" x="335.5" y="-331" font-family="Helvetica,sans-Serif" font-size="10.00" fill="#4477ff">loaded once</text>
</g>
</g>
</svg>
