<?xml version="1.0" encoding="UTF-8" standalone="no"?>
<!DOCTYPE svg PUBLIC "-//W3C//DTD SVG 1.1//EN"
 "http://www.w3.org/Graphics/SVG/1.1/DTD/svg11.dtd">
<!-- Generated by graphviz version 2.43.0 (0)
 -->
<!-- Title: Dot4_Class_Geometry Pages: 1 -->
<svg width="1527pt" height="840pt"
 viewBox="0.00 0.00 1526.80 839.80" xmlns="http://www.w3.org/2000/svg" xmlns:xlink="http://www.w3.org/1999/xlink">
<g id="graph0" class="graph" transform="scale(1 1) rotate(0) translate(50.4 789.4)">
<title>Dot4_Class_Geometry</title>
<polygon fill="#1a1a2e" stroke="transparent" points="-50.4,50.4 -50.4,-789.4 1476.4,-789.4 1476.4,50.4 -50.4,50.4"/>
<text text-anchor="middle" x="713" y="-722.2" font-family="Helvetica,sans-Serif" font-size="16.00" fill="#e0e0e0">Semantic Neighborhoods on the Hypersphere</text>
<text text-anchor="middle" x="713" y="-704.2" font-family="Helvetica,sans-Serif" font-size="16.00" fill="#e0e0e0">(classes that are close together in embedding space)</text>
<g id="clust1" class="cluster">
<title>cluster_doctrine</title>
<polygon fill="#0a1400" stroke="#335500" points="8,-8 8,-687 214,-687 214,-8 8,-8"/>
<text text-anchor="middle" x="111" y="-670.2" font-family="Helvetica,sans-Serif" font-size="16.00" fill="#76b900">Military Doctrine</text>
</g>
<g id="clust2" class="cluster">
<title>cluster_weapons</title>
<polygon fill="#1a0500" stroke="#552200" points="690,-397 690,-687 1048,-687 1048,-397 690,-397"/>
<text text-anchor="middle" x="869" y="-670.2" font-family="Helvetica,sans-Serif" font-size="16.00" fill="#cc4422">Weapons &amp; Ordnance</text>
</g>
<g id="clust3" class="cluster">
<title>cluster_intel</title>
<polygon fill="#000a1a" stroke="#223366" points="234,-302 234,-570 496,-570 496,-302 234,-302"/>
<text text-anchor="middle" x="365" y="-553.2" font-family="Helvetica,sans-Serif" font-size="16.00" fill="#4477ff">Intel &amp; Information Ops</text>
</g>
<g id="clust4" class="cluster">
<title>cluster_medical</title>
<polygon fill="#001414" stroke="#224444" points="1068,-397 1068,-687 1240,-687 1240,-397 1068,-397"/>
<text text-anchor="middle" x="1154" y="-670.2" font-family="Helvetica,sans-Serif" font-size="16.00" fill="#44cccc">Medical &amp; Physical</text>
</g>
<g id="clust5" class="cluster">
<title>cluster_tech</title>
<polygon fill="#0a0014" stroke="#442266" points="510,-198 510,-570 682,-570 682,-198 510,-198"/>
<text text-anchor="middle" x="596" y="-553.2" font-family="Helvetica,sans-Serif" font-size="16.00" fill="#aa44ff">Technology</text>
</g>
<g id="clust6" class="cluster">
<title>cluster_geo</title>
<polygon fill="#1a1000" stroke="#443300" points="1252,-302 1252,-687 1418,-687 1418,-302 1252,-302"/>
<text text-anchor="middle" x="1335" y="-670.2" font-family="Helvetica,sans-Serif" font-size="16.00" fill="#ffcc44">Geography &amp; Terrain</text>
</g>
<!-- strategy -->
<g id="node1" class="node">
<title>strategy</title>
<polygon fill="#1a3a00" stroke="black" points="199,-653 145,-653 145,-617 199,-617 199,-653"/>
<text text-anchor="middle" x="172" y="-632.5" font-family="Helvetica,sans-Serif" font-size="10.00" fill="#76b900">strategy</text>
</g>
<!-- tactics -->
<g id="node2" class="node">
<title>tactics</title>
<polygon fill="#1a3a00" stroke="black" points="140,-536 86,-536 86,-500 140,-500 140,-536"/>
<text text-anchor="middle" x="113" y="-515.5" font-family="Helvetica,sans-Serif" font-size="10.00" fill="#76b900">tactics</text>
</g>
<!-- strategy&#45;&#45;tactics -->
<g id="edge1" class="edge">
<title>strategy&#45;&#45;tactics</title>
<path fill="none" stroke="#555577" d="M163.04,-616.53C151.89,-594.79 132.95,-557.89 121.85,-536.25"/>
</g>
<!-- Intel -->
<g id="node17" class="node">
<title>Intel</title>
<polygon fill="#0a1a3a" stroke="black" points="298,-536 244,-536 244,-500 298,-500 298,-536"/>
<text text-anchor="middle" x="271" y="-515.5" font-family="Helvetica,sans-Serif" font-size="10.00" fill="#6699ff">Intel</text>
</g>
<!-- strategy&#45;&#45;Intel -->
<g id="edge28" class="edge">
<title>strategy&#45;&#45;Intel</title>
<path fill="none" stroke="#445555" stroke-dasharray="5,2" d="M187.04,-616.53C205.75,-594.79 237.52,-557.89 256.15,-536.25"/>
<text text-anchor="middle" x="245.5" y="-580.8" font-family="Helvetica,sans-Serif" font-size="9.00" fill="#8899aa">strategic intel</text>
</g>
<!-- LSCO -->
<g id="node3" class="node">
<title>LSCO</title>
<polygon fill="#1a3a00" stroke="black" points="206,-441 152,-441 152,-405 206,-405 206,-441"/>
<text text-anchor="middle" x="179" y="-420.5" font-family="Helvetica,sans-Serif" font-size="10.00" fill="#76b900">LSCO</text>
</g>
<!-- tactics&#45;&#45;LSCO -->
<g id="edge2" class="edge">
<title>tactics&#45;&#45;LSCO</title>
<path fill="none" stroke="#555577" d="M125.11,-499.94C136.94,-483.27 154.86,-458.01 166.75,-441.26"/>
</g>
<!-- unconventional_warfare -->
<g id="node7" class="node">
<title>unconventional_warfare</title>
<polygon fill="#1a3a00" stroke="black" points="122,-52 40,-52 40,-16 122,-16 122,-52"/>
<text text-anchor="middle" x="81" y="-37" font-family="Helvetica,sans-Serif" font-size="10.00" fill="#76b900">unconventional</text>
<text text-anchor="middle" x="81" y="-26" font-family="Helvetica,sans-Serif" font-size="10.00" fill="#76b900">warfare</text>
</g>
<!-- tactics&#45;&#45;unconventional_warfare -->
<g id="edge35" class="edge">
<title>tactics&#45;&#45;unconventional_warfare</title>
<path fill="none" stroke="#76b900" d="M85.75,-504.88C57.37,-490.19 17,-462.52 17,-424 17,-424 17,-424 17,-128 17,-97.23 41.07,-69.22 59.69,-52.16"/>
</g>
<!-- stability_operations -->
<g id="node8" class="node">
<title>stability_operations</title>
<polygon fill="#1a3a00" stroke="black" points="116,-441 54,-441 54,-405 116,-405 116,-441"/>
<text text-anchor="middle" x="85" y="-426" font-family="Helvetica,sans-Serif" font-size="10.00" fill="#76b900">stability</text>
<text text-anchor="middle" x="85" y="-415" font-family="Helvetica,sans-Serif" font-size="10.00" fill="#76b900">operations</text>
</g>
<!-- tactics&#45;&#45;stability_operations -->
<g id="edge7" class="edge">
<title>tactics&#45;&#45;stability_operations</title>
<path fill="none" stroke="#555577" d="M107.86,-499.94C102.84,-483.27 95.24,-458.01 90.2,-441.26"/>
</g>
<!-- C2 -->
<g id="node4" class="node">
<title>C2</title>
<polygon fill="#1a3a00" stroke="black" points="206,-346 152,-346 152,-310 206,-310 206,-346"/>
<text text-anchor="middle" x="179" y="-325.5" font-family="Helvetica,sans-Serif" font-size="10.00" fill="#76b900">C2</text>
</g>
<!-- LSCO&#45;&#45;C2 -->
<g id="edge3" class="edge">
<title>LSCO&#45;&#45;C2</title>
<path fill="none" stroke="#555577" d="M179,-404.94C179,-388.27 179,-363.01 179,-346.26"/>
</g>
<!-- hybrid_threat -->
<g id="node5" class="node">
<title>hybrid_threat</title>
<polygon fill="#1a3a00" stroke="black" points="166.5,-242 93.5,-242 93.5,-206 166.5,-206 166.5,-242"/>
<text text-anchor="middle" x="130" y="-221.5" font-family="Helvetica,sans-Serif" font-size="10.00" fill="#76b900">hybrid_threat</text>
</g>
<!-- C2&#45;&#45;hybrid_threat -->
<g id="edge4" class="edge">
<title>C2&#45;&#45;hybrid_threat</title>
<path fill="none" stroke="#555577" d="M170.69,-309.7C161.62,-290.83 147.21,-260.82 138.19,-242.05"/>
</g>
<!-- Computers_Data -->
<g id="node28" class="node">
<title>Computers_Data</title>
<polygon fill="#1a0a2a" stroke="black" points="628.5,-242 563.5,-242 563.5,-206 628.5,-206 628.5,-242"/>
<text text-anchor="middle" x="596" y="-227" font-family="Helvetica,sans-Serif" font-size="10.00" fill="#cc88ff">Computers</text>
<text text-anchor="middle" x="596" y="-216" font-family="Helvetica,sans-Serif" font-size="10.00" fill="#cc88ff">&amp; Data</text>
</g>
<!-- C2&#45;&#45;Computers_Data -->
<g id="edge29" class="edge">
<title>C2&#45;&#45;Computers_Data</title>
<path fill="none" stroke="#445555" stroke-dasharray="5,2" d="M206.12,-310.57C212.18,-307.38 218.68,-304.31 225,-302 345.44,-257.87 497.66,-236.29 563.36,-228.51"/>
<text text-anchor="middle" x="348" y="-273.8" font-family="Helvetica,sans-Serif" font-size="9.00" fill="#8899aa">C2 systems</text>
</g>
<!-- COIN -->
<g id="node6" class="node">
<title>COIN</title>
<polygon fill="#1a3a00" stroke="black" points="132,-147 78,-147 78,-111 132,-111 132,-147"/>
<text text-anchor="middle" x="105" y="-126.5" font-family="Helvetica,sans-Serif" font-size="10.00" fill="#76b900">COIN</text>
</g>
<!-- hybrid_threat&#45;&#45;COIN -->
<g id="edge5" class="edge">
<title>hybrid_threat&#45;&#45;COIN</title>
<path fill="none" stroke="#555577" d="M125.41,-205.94C120.93,-189.27 114.14,-164.01 109.64,-147.26"/>
</g>
<!-- COIN&#45;&#45;unconventional_warfare -->
<g id="edge6" class="edge">
<title>COIN&#45;&#45;unconventional_warfare</title>
<path fill="none" stroke="#555577" d="M100.6,-110.94C96.29,-94.27 89.78,-69.01 85.46,-52.26"/>
</g>
<!-- weapons -->
<g id="node9" class="node">
<title>weapons</title>
<polygon fill="#3a1000" stroke="black" points="847,-653 791,-653 791,-617 847,-617 847,-653"/>
<text text-anchor="middle" x="819" y="-632.5" font-family="Helvetica,sans-Serif" font-size="10.00" fill="#ff8866">weapons</text>
</g>
<!-- mines -->
<g id="node10" class="node">
<title>mines</title>
<polygon fill="#3a1000" stroke="black" points="940,-536 886,-536 886,-500 940,-500 940,-536"/>
<text text-anchor="middle" x="913" y="-515.5" font-family="Helvetica,sans-Serif" font-size="10.00" fill="#ff8866">mines</text>
</g>
<!-- weapons&#45;&#45;mines -->
<g id="edge8" class="edge">
<title>weapons&#45;&#45;mines</title>
<path fill="none" stroke="#555577" d="M833.28,-616.53C851.05,-594.79 881.21,-557.89 898.9,-536.25"/>
</g>
<!-- mortars -->
<g id="node11" class="node">
<title>mortars</title>
<polygon fill="#3a1000" stroke="black" points="752,-536 698,-536 698,-500 752,-500 752,-536"/>
<text text-anchor="middle" x="725" y="-515.5" font-family="Helvetica,sans-Serif" font-size="10.00" fill="#ff8866">mortars</text>
</g>
<!-- weapons&#45;&#45;mortars -->
<g id="edge9" class="edge">
<title>weapons&#45;&#45;mortars</title>
<path fill="none" stroke="#555577" d="M804.72,-616.53C786.95,-594.79 756.79,-557.89 739.1,-536.25"/>
</g>
<!-- energetics -->
<g id="node12" class="node">
<title>energetics</title>
<polygon fill="#3a1000" stroke="black" points="850,-536 788,-536 788,-500 850,-500 850,-536"/>
<text text-anchor="middle" x="819" y="-515.5" font-family="Helvetica,sans-Serif" font-size="10.00" fill="#ff8866">energetics</text>
</g>
<!-- weapons&#45;&#45;energetics -->
<g id="edge10" class="edge">
<title>weapons&#45;&#45;energetics</title>
<path fill="none" stroke="#555577" d="M808.98,-616.53C804.32,-594.79 804.34,-557.89 809.03,-536.25"/>
</g>
<!-- weapons&#45;&#45;energetics -->
<g id="edge31" class="edge">
<title>weapons&#45;&#45;energetics</title>
<path fill="none" stroke="#ff8866" d="M829.02,-616.53C833.68,-594.79 833.66,-557.89 828.97,-536.25"/>
</g>
<!-- improvised_weapons -->
<g id="node14" class="node">
<title>improvised_weapons</title>
<polygon fill="#3a1000" stroke="black" points="1040,-536 976,-536 976,-500 1040,-500 1040,-536"/>
<text text-anchor="middle" x="1008" y="-521" font-family="Helvetica,sans-Serif" font-size="10.00" fill="#ff8866">improvised</text>
<text text-anchor="middle" x="1008" y="-510" font-family="Helvetica,sans-Serif" font-size="10.00" fill="#ff8866">weapons</text>
</g>
<!-- weapons&#45;&#45;improvised_weapons -->
<g id="edge12" class="edge">
<title>weapons&#45;&#45;improvised_weapons</title>
<path fill="none" stroke="#555577" d="M847.23,-624.47C876.49,-613.82 922.81,-594.78 958,-570 971.59,-560.44 984.65,-546.91 994.01,-536.19"/>
</g>
<!-- chemical_weapons -->
<g id="node13" class="node">
<title>chemical_weapons</title>
<polygon fill="#3a1000" stroke="black" points="847,-441 791,-441 791,-405 847,-405 847,-441"/>
<text text-anchor="middle" x="819" y="-426" font-family="Helvetica,sans-Serif" font-size="10.00" fill="#ff8866">chemical</text>
<text text-anchor="middle" x="819" y="-415" font-family="Helvetica,sans-Serif" font-size="10.00" fill="#ff8866">weapons</text>
</g>
<!-- energetics&#45;&#45;chemical_weapons -->
<g id="edge11" class="edge">
<title>energetics&#45;&#45;chemical_weapons</title>
<path fill="none" stroke="#555577" d="M819,-499.94C819,-483.27 819,-458.01 819,-441.26"/>
</g>
<!-- INFOWAR -->
<g id="node15" class="node">
<title>INFOWAR</title>
<polygon fill="#0a1a3a" stroke="black" points="403,-536 339,-536 339,-500 403,-500 403,-536"/>
<text text-anchor="middle" x="371" y="-515.5" font-family="Helvetica,sans-Serif" font-size="10.00" fill="#6699ff">INFOWAR</text>
</g>
<!-- Psyop -->
<g id="node16" class="node">
<title>Psyop</title>
<polygon fill="#0a1a3a" stroke="black" points="398,-441 344,-441 344,-405 398,-405 398,-441"/>
<text text-anchor="middle" x="371" y="-420.5" font-family="Helvetica,sans-Serif" font-size="10.00" fill="#6699ff">Psyop</text>
</g>
<!-- INFOWAR&#45;&#45;Psyop -->
<g id="edge13" class="edge">
<title>INFOWAR&#45;&#45;Psyop</title>
<path fill="none" stroke="#555577" d="M360.27,-499.94C356.59,-483.27 356.58,-458.01 360.23,-441.26"/>
</g>
<!-- INFOWAR&#45;&#45;Psyop -->
<g id="edge30" class="edge">
<title>INFOWAR&#45;&#45;Psyop</title>
<path fill="none" stroke="#6699ff" d="M381.73,-499.94C385.41,-483.27 385.42,-458.01 381.77,-441.26"/>
</g>
<!-- Media_Affairs -->
<g id="node20" class="node">
<title>Media_Affairs</title>
<polygon fill="#0a1a3a" stroke="black" points="488,-441 434,-441 434,-405 488,-405 488,-441"/>
<text text-anchor="middle" x="461" y="-426" font-family="Helvetica,sans-Serif" font-size="10.00" fill="#6699ff">Media</text>
<text text-anchor="middle" x="461" y="-415" font-family="Helvetica,sans-Serif" font-size="10.00" fill="#6699ff">Affairs</text>
</g>
<!-- INFOWAR&#45;&#45;Media_Affairs -->
<g id="edge16" class="edge">
<title>INFOWAR&#45;&#45;Media_Affairs</title>
<path fill="none" stroke="#555577" d="M387.51,-499.94C403.64,-483.27 428.09,-458.01 444.29,-441.26"/>
</g>
<!-- deception_operations -->
<g id="node19" class="node">
<title>deception_operations</title>
<polygon fill="#0a1a3a" stroke="black" points="354,-346 292,-346 292,-310 354,-310 354,-346"/>
<text text-anchor="middle" x="323" y="-331" font-family="Helvetica,sans-Serif" font-size="10.00" fill="#6699ff">deception</text>
<text text-anchor="middle" x="323" y="-320" font-family="Helvetica,sans-Serif" font-size="10.00" fill="#6699ff">operations</text>
</g>
<!-- Psyop&#45;&#45;deception_operations -->
<g id="edge14" class="edge">
<title>Psyop&#45;&#45;deception_operations</title>
<path fill="none" stroke="#555577" d="M362.2,-404.94C353.59,-388.27 340.55,-363.01 331.91,-346.26"/>
</g>
<!-- intelligence -->
<g id="node18" class="node">
<title>intelligence</title>
<polygon fill="#0a1a3a" stroke="black" points="307.5,-441 242.5,-441 242.5,-405 307.5,-405 307.5,-441"/>
<text text-anchor="middle" x="275" y="-420.5" font-family="Helvetica,sans-Serif" font-size="10.00" fill="#6699ff">intelligence</text>
</g>
<!-- Intel&#45;&#45;intelligence -->
<g id="edge15" class="edge">
<title>Intel&#45;&#45;intelligence</title>
<path fill="none" stroke="#555577" d="M271.73,-499.94C272.45,-483.27 273.54,-458.01 274.26,-441.26"/>
</g>
<!-- intelligence&#45;&#45;deception_operations -->
<g id="edge17" class="edge">
<title>intelligence&#45;&#45;deception_operations</title>
<path fill="none" stroke="#555577" d="M283.8,-404.94C292.41,-388.27 305.45,-363.01 314.09,-346.26"/>
</g>
<!-- medical -->
<g id="node21" class="node">
<title>medical</title>
<polygon fill="#0a2a2a" stroke="black" points="1179,-653 1125,-653 1125,-617 1179,-617 1179,-653"/>
<text text-anchor="middle" x="1152" y="-632.5" font-family="Helvetica,sans-Serif" font-size="10.00" fill="#66eeee">medical</text>
</g>
<!-- Combat_Medicine -->
<g id="node22" class="node">
<title>Combat_Medicine</title>
<polygon fill="#0a2a2a" stroke="black" points="1132,-536 1076,-536 1076,-500 1132,-500 1132,-536"/>
<text text-anchor="middle" x="1104" y="-521" font-family="Helvetica,sans-Serif" font-size="10.00" fill="#66eeee">Combat</text>
<text text-anchor="middle" x="1104" y="-510" font-family="Helvetica,sans-Serif" font-size="10.00" fill="#66eeee">Medicine</text>
</g>
<!-- medical&#45;&#45;Combat_Medicine -->
<g id="edge18" class="edge">
<title>medical&#45;&#45;Combat_Medicine</title>
<path fill="none" stroke="#555577" d="M1144.71,-616.53C1135.64,-594.79 1120.23,-557.89 1111.2,-536.25"/>
</g>
<!-- physiology -->
<g id="node23" class="node">
<title>physiology</title>
<polygon fill="#0a2a2a" stroke="black" points="1231.5,-536 1168.5,-536 1168.5,-500 1231.5,-500 1231.5,-536"/>
<text text-anchor="middle" x="1200" y="-515.5" font-family="Helvetica,sans-Serif" font-size="10.00" fill="#66eeee">physiology</text>
</g>
<!-- medical&#45;&#45;physiology -->
<g id="edge19" class="edge">
<title>medical&#45;&#45;physiology</title>
<path fill="none" stroke="#555577" d="M1159.29,-616.53C1168.36,-594.79 1183.77,-557.89 1192.8,-536.25"/>
</g>
<!-- physical_training -->
<g id="node24" class="node">
<title>physical_training</title>
<polygon fill="#0a2a2a" stroke="black" points="1227,-441 1173,-441 1173,-405 1227,-405 1227,-441"/>
<text text-anchor="middle" x="1200" y="-426" font-family="Helvetica,sans-Serif" font-size="10.00" fill="#66eeee">physical</text>
<text text-anchor="middle" x="1200" y="-415" font-family="Helvetica,sans-Serif" font-size="10.00" fill="#66eeee">training</text>
</g>
<!-- physiology&#45;&#45;physical_training -->
<g id="edge20" class="edge">
<title>physiology&#45;&#45;physical_training</title>
<path fill="none" stroke="#555577" d="M1200,-499.94C1200,-483.27 1200,-458.01 1200,-441.26"/>
</g>
<!-- Robotics -->
<g id="node25" class="node">
<title>Robotics</title>
<polygon fill="#1a0a2a" stroke="black" points="579,-536 523,-536 523,-500 579,-500 579,-536"/>
<text text-anchor="middle" x="551" y="-515.5" font-family="Helvetica,sans-Serif" font-size="10.00" fill="#cc88ff">Robotics</text>
</g>
<!-- Drones -->
<g id="node26" class="node">
<title>Drones</title>
<polygon fill="#1a0a2a" stroke="black" points="578,-441 524,-441 524,-405 578,-405 578,-441"/>
<text text-anchor="middle" x="551" y="-420.5" font-family="Helvetica,sans-Serif" font-size="10.00" fill="#cc88ff">Drones</text>
</g>
<!-- Robotics&#45;&#45;Drones -->
<g id="edge21" class="edge">
<title>Robotics&#45;&#45;Drones</title>
<path fill="none" stroke="#555577" d="M551,-499.94C551,-483.27 551,-458.01 551,-441.26"/>
</g>
<!-- Artificial_Intelligence -->
<g id="node27" class="node">
<title>Artificial_Intelligence</title>
<polygon fill="#1a0a2a" stroke="black" points="674,-346 608,-346 608,-310 674,-310 674,-346"/>
<text text-anchor="middle" x="641" y="-331" font-family="Helvetica,sans-Serif" font-size="10.00" fill="#cc88ff">Artificial</text>
<text text-anchor="middle" x="641" y="-320" font-family="Helvetica,sans-Serif" font-size="10.00" fill="#cc88ff">Intelligence</text>
</g>
<!-- Drones&#45;&#45;Artificial_Intelligence -->
<g id="edge22" class="edge">
<title>Drones&#45;&#45;Artificial_Intelligence</title>
<path fill="none" stroke="#555577" d="M567.51,-404.94C583.64,-388.27 608.09,-363.01 624.29,-346.26"/>
</g>
<!-- Remote_Sensing -->
<g id="node29" class="node">
<title>Remote_Sensing</title>
<polygon fill="#1a0a2a" stroke="black" points="572,-346 518,-346 518,-310 572,-310 572,-346"/>
<text text-anchor="middle" x="545" y="-331" font-family="Helvetica,sans-Serif" font-size="10.00" fill="#cc88ff">Remote</text>
<text text-anchor="middle" x="545" y="-320" font-family="Helvetica,sans-Serif" font-size="10.00" fill="#cc88ff">Sensing</text>
</g>
<!-- Drones&#45;&#45;Remote_Sensing -->
<g id="edge34" class="edge">
<title>Drones&#45;&#45;Remote_Sensing</title>
<path fill="none" stroke="#cc88ff" d="M539.17,-404.94C534.41,-388.27 532.77,-363.01 535.34,-346.26"/>
</g>
<!-- Artificial_Intelligence&#45;&#45;Computers_Data -->
<g id="edge23" class="edge">
<title>Artificial_Intelligence&#45;&#45;Computers_Data</title>
<path fill="none" stroke="#555577" d="M633.37,-309.7C625.04,-290.83 611.8,-260.82 603.52,-242.05"/>
</g>
<!-- Remote_Sensing&#45;&#45;Drones -->
<g id="edge24" class="edge">
<title>Remote_Sensing&#45;&#45;Drones</title>
<path fill="none" stroke="#555577" d="M556.89,-346.26C561.62,-363.01 563.23,-388.27 560.63,-404.94"/>
</g>
<!-- geography -->
<g id="node30" class="node">
<title>geography</title>
<polygon fill="#2a2000" stroke="black" points="1326,-653 1264,-653 1264,-617 1326,-617 1326,-653"/>
<text text-anchor="middle" x="1295" y="-632.5" font-family="Helvetica,sans-Serif" font-size="10.00" fill="#ffee88">geography</text>
</g>
<!-- gis -->
<g id="node31" class="node">
<title>gis</title>
<polygon fill="#2a2000" stroke="black" points="1322,-536 1268,-536 1268,-500 1322,-500 1322,-536"/>
<text text-anchor="middle" x="1295" y="-515.5" font-family="Helvetica,sans-Serif" font-size="10.00" fill="#ffee88">gis</text>
</g>
<!-- geography&#45;&#45;gis -->
<g id="edge25" class="edge">
<title>geography&#45;&#45;gis</title>
<path fill="none" stroke="#555577" d="M1284.98,-616.53C1280.32,-594.79 1280.34,-557.89 1285.03,-536.25"/>
</g>
<!-- geography&#45;&#45;gis -->
<g id="edge32" class="edge">
<title>geography&#45;&#45;gis</title>
<path fill="none" stroke="#ffee88" d="M1305.02,-616.53C1309.68,-594.79 1309.66,-557.89 1304.97,-536.25"/>
</g>
<!-- Forest_hiking -->
<g id="node32" class="node">
<title>Forest_hiking</title>
<polygon fill="#2a2000" stroke="black" points="1322,-441 1268,-441 1268,-405 1322,-405 1322,-441"/>
<text text-anchor="middle" x="1295" y="-426" font-family="Helvetica,sans-Serif" font-size="10.00" fill="#ffee88">Forest</text>
<text text-anchor="middle" x="1295" y="-415" font-family="Helvetica,sans-Serif" font-size="10.00" fill="#ffee88">Hiking</text>
</g>
<!-- gis&#45;&#45;Forest_hiking -->
<g id="edge26" class="edge">
<title>gis&#45;&#45;Forest_hiking</title>
<path fill="none" stroke="#555577" d="M1295,-499.94C1295,-483.27 1295,-458.01 1295,-441.26"/>
</g>
<!-- jungle_operations -->
<g id="node33" class="node">
<title>jungle_operations</title>
<polygon fill="#2a2000" stroke="black" points="1326,-346 1264,-346 1264,-310 1326,-310 1326,-346"/>
<text text-anchor="middle" x="1295" y="-331" font-family="Helvetica,sans-Serif" font-size="10.00" fill="#ffee88">jungle</text>
<text text-anchor="middle" x="1295" y="-320" font-family="Helvetica,sans-Serif" font-size="10.00" fill="#ffee88">operations</text>
</g>
<!-- Forest_hiking&#45;&#45;jungle_operations -->
<g id="edge27" class="edge">
<title>Forest_hiking&#45;&#45;jungle_operations</title>
<path fill="none" stroke="#555577" d="M1284.27,-404.94C1280.59,-388.27 1280.58,-363.01 1284.23,-346.26"/>
</g>
<!-- jungle_operations&#45;&#45;Forest_hiking -->
<g id="edge33" class="edge">
<title>jungle_operations&#45;&#45;Forest_hiking</title>
<path fill="none" stroke="#ffee88" d="M1305.77,-346.26C1309.42,-363.01 1309.41,-388.27 1305.73,-404.94"/>
</g>
</g>
</svg>
