<?xml version="1.0" encoding="utf-8" standalone="no"?>
<!DOCTYPE svg PUBLIC "-//W3C//DTD SVG 1.1//EN"
  "http://www.w3.org/Graphics/SVG/1.1/DTD/svg11.dtd">
<svg xmlns:xlink="http://www.w3.org/1999/xlink" width="928.694531pt" height="397.975703pt" viewBox="0 0 928.694531 397.975703" xmlns="http://www.w3.org/2000/svg" version="1.1">
 <metadata>
  <rdf:RDF xmlns:dc="http://purl.org/dc/elements/1.1/" xmlns:cc="http://creativecommons.org/ns#" xmlns:rdf="http://www.w3.org/1999/02/22-rdf-syntax-ns#">
   <cc:Work>
    <dc:type rdf:resource="http://purl.org/dc/dcmitype/StillImage"/>
    <dc:date>2026-05-30T13:26:37.508925</dc:date>
    <dc:format>image/svg+xml</dc:format>
    <dc:creator>
     <cc:Agent>
      <dc:title>Matplotlib v3.10.9, https://matplotlib.org/</dc:title>
     </cc:Agent>
    </dc:creator>
   </cc:Work>
  </rdf:RDF>
 </metadata>
 <defs>
  <style type="text/css">*{stroke-linejoin: round; stroke-linecap: butt}</style>
 </defs>
 <g id="figure_1">
  <g id="patch_1">
   <path d="M 0 397.975703 
L 928.694531 397.975703 
L 928.694531 0 
L 0 0 
z
" style="fill: #1a1a2e"/>
  </g>
  <g id="axes_1">
   <g id="patch_2">
    <path d="M 36.054531 340.6 
L 304.694531 340.6 
L 304.694531 71.96 
L 36.054531 71.96 
z
" style="fill: #1a1a2e"/>
   </g>
   <g id="matplotlib.axis_1">
    <g id="xtick_1">
     <g id="line2d_1">
      <defs>
       <path id="mfc645e43d3" d="M 0 0 
L 0 3.5 
" style="stroke: #e0e0e0; stroke-width: 0.8"/>
      </defs>
      <g>
       <use xlink:href="#mfc645e43d3" x="74.431674" y="340.6" style="fill: #e0e0e0; stroke: #e0e0e0; stroke-width: 0.8"/>
      </g>
     </g>
     <g id="text_1">
      <!-- −1.0 -->
      <g style="fill: #e0e0e0" transform="translate(63.504408 354.438594) scale(0.09 -0.09)">
       <defs>
        <path id="DejaVuSans-2212" d="M 678 2272 
L 4684 2272 
L 4684 1741 
L 678 1741 
L 678 2272 
z
" transform="scale(0.015625)"/>
        <path id="DejaVuSans-31" d="M 794 531 
L 1825 531 
L 1825 4091 
L 703 3866 
L 703 4441 
L 1819 4666 
L 2450 4666 
L 2450 531 
L 3481 531 
L 3481 0 
L 794 0 
L 794 531 
z
" transform="scale(0.015625)"/>
        <path id="DejaVuSans-2e" d="M 684 794 
L 1344 794 
L 1344 0 
L 684 0 
L 684 794 
z
" transform="scale(0.015625)"/>
        <path id="DejaVuSans-30" d="M 2034 4250 
Q 1547 4250 1301 3770 
Q 1056 3291 1056 2328 
Q 1056 1369 1301 889 
Q 1547 409 2034 409 
Q 2525 409 2770 889 
Q 3016 1369 3016 2328 
Q 3016 3291 2770 3770 
Q 2525 4250 2034 4250 
z
M 2034 4750 
Q 2819 4750 3233 4129 
Q 3647 3509 3647 2328 
Q 3647 1150 3233 529 
Q 2819 -91 2034 -91 
Q 1250 -91 836 529 
Q 422 1150 422 2328 
Q 422 3509 836 4129 
Q 1250 4750 2034 4750 
z
" transform="scale(0.015625)"/>
       </defs>
       <use xlink:href="#DejaVuSans-2212"/>
       <use xlink:href="#DejaVuSans-31" transform="translate(83.789062 0)"/>
       <use xlink:href="#DejaVuSans-2e" transform="translate(147.412109 0)"/>
       <use xlink:href="#DejaVuSans-30" transform="translate(179.199219 0)"/>
      </g>
     </g>
    </g>
    <g id="xtick_2">
     <g id="line2d_2">
      <g>
       <use xlink:href="#mfc645e43d3" x="122.403103" y="340.6" style="fill: #e0e0e0; stroke: #e0e0e0; stroke-width: 0.8"/>
      </g>
     </g>
     <g id="text_2">
      <!-- −0.5 -->
      <g style="fill: #e0e0e0" transform="translate(111.475837 354.438594) scale(0.09 -0.09)">
       <defs>
        <path id="DejaVuSans-35" d="M 691 4666 
L 3169 4666 
L 3169 4134 
L 1269 4134 
L 1269 2991 
Q 1406 3038 1543 3061 
Q 1681 3084 1819 3084 
Q 2600 3084 3056 2656 
Q 3513 2228 3513 1497 
Q 3513 744 3044 326 
Q 2575 -91 1722 -91 
Q 1428 -91 1123 -41 
Q 819 9 494 109 
L 494 744 
Q 775 591 1075 516 
Q 1375 441 1709 441 
Q 2250 441 2565 725 
Q 2881 1009 2881 1497 
Q 2881 1984 2565 2268 
Q 2250 2553 1709 2553 
Q 1456 2553 1204 2497 
Q 953 2441 691 2322 
L 691 4666 
z
" transform="scale(0.015625)"/>
       </defs>
       <use xlink:href="#DejaVuSans-2212"/>
       <use xlink:href="#DejaVuSans-30" transform="translate(83.789062 0)"/>
       <use xlink:href="#DejaVuSans-2e" transform="translate(147.412109 0)"/>
       <use xlink:href="#DejaVuSans-35" transform="translate(179.199219 0)"/>
      </g>
     </g>
    </g>
    <g id="xtick_3">
     <g id="line2d_3">
      <g>
       <use xlink:href="#mfc645e43d3" x="170.374531" y="340.6" style="fill: #e0e0e0; stroke: #e0e0e0; stroke-width: 0.8"/>
      </g>
     </g>
     <g id="text_3">
      <!-- 0.0 -->
      <g style="fill: #e0e0e0" transform="translate(163.218125 354.438594) scale(0.09 -0.09)">
       <use xlink:href="#DejaVuSans-30"/>
       <use xlink:href="#DejaVuSans-2e" transform="translate(63.623047 0)"/>
       <use xlink:href="#DejaVuSans-30" transform="translate(95.410156 0)"/>
      </g>
     </g>
    </g>
    <g id="xtick_4">
     <g id="line2d_4">
      <g>
       <use xlink:href="#mfc645e43d3" x="218.34596" y="340.6" style="fill: #e0e0e0; stroke: #e0e0e0; stroke-width: 0.8"/>
      </g>
     </g>
     <g id="text_4">
      <!-- 0.5 -->
      <g style="fill: #e0e0e0" transform="translate(211.189554 354.438594) scale(0.09 -0.09)">
       <use xlink:href="#DejaVuSans-30"/>
       <use xlink:href="#DejaVuSans-2e" transform="translate(63.623047 0)"/>
       <use xlink:href="#DejaVuSans-35" transform="translate(95.410156 0)"/>
      </g>
     </g>
    </g>
    <g id="xtick_5">
     <g id="line2d_5">
      <g>
       <use xlink:href="#mfc645e43d3" x="266.317388" y="340.6" style="fill: #e0e0e0; stroke: #e0e0e0; stroke-width: 0.8"/>
      </g>
     </g>
     <g id="text_5">
      <!-- 1.0 -->
      <g style="fill: #e0e0e0" transform="translate(259.160982 354.438594) scale(0.09 -0.09)">
       <use xlink:href="#DejaVuSans-31"/>
       <use xlink:href="#DejaVuSans-2e" transform="translate(63.623047 0)"/>
       <use xlink:href="#DejaVuSans-30" transform="translate(95.410156 0)"/>
      </g>
     </g>
    </g>
   </g>
   <g id="matplotlib.axis_2">
    <g id="ytick_1">
     <g id="line2d_6">
      <defs>
       <path id="m6a052b746b" d="M 0 0 
L -3.5 0 
" style="stroke: #e0e0e0; stroke-width: 0.8"/>
      </defs>
      <g>
       <use xlink:href="#m6a052b746b" x="36.054531" y="302.222857" style="fill: #e0e0e0; stroke: #e0e0e0; stroke-width: 0.8"/>
      </g>
     </g>
     <g id="text_6">
      <!-- −1.0 -->
      <g style="fill: #e0e0e0" transform="translate(7.2 305.642154) scale(0.09 -0.09)">
       <use xlink:href="#DejaVuSans-2212"/>
       <use xlink:href="#DejaVuSans-31" transform="translate(83.789062 0)"/>
       <use xlink:href="#DejaVuSans-2e" transform="translate(147.412109 0)"/>
       <use xlink:href="#DejaVuSans-30" transform="translate(179.199219 0)"/>
      </g>
     </g>
    </g>
    <g id="ytick_2">
     <g id="line2d_7">
      <g>
       <use xlink:href="#m6a052b746b" x="36.054531" y="254.251429" style="fill: #e0e0e0; stroke: #e0e0e0; stroke-width: 0.8"/>
      </g>
     </g>
     <g id="text_7">
      <!-- −0.5 -->
      <g style="fill: #e0e0e0" transform="translate(7.2 257.670725) scale(0.09 -0.09)">
       <use xlink:href="#DejaVuSans-2212"/>
       <use xlink:href="#DejaVuSans-30" transform="translate(83.789062 0)"/>
       <use xlink:href="#DejaVuSans-2e" transform="translate(147.412109 0)"/>
       <use xlink:href="#DejaVuSans-35" transform="translate(179.199219 0)"/>
      </g>
     </g>
    </g>
    <g id="ytick_3">
     <g id="line2d_8">
      <g>
       <use xlink:href="#m6a052b746b" x="36.054531" y="206.28" style="fill: #e0e0e0; stroke: #e0e0e0; stroke-width: 0.8"/>
      </g>
     </g>
     <g id="text_8">
      <!-- 0.0 -->
      <g style="fill: #e0e0e0" transform="translate(14.741719 209.699297) scale(0.09 -0.09)">
       <use xlink:href="#DejaVuSans-30"/>
       <use xlink:href="#DejaVuSans-2e" transform="translate(63.623047 0)"/>
       <use xlink:href="#DejaVuSans-30" transform="translate(95.410156 0)"/>
      </g>
     </g>
    </g>
    <g id="ytick_4">
     <g id="line2d_9">
      <g>
       <use xlink:href="#m6a052b746b" x="36.054531" y="158.308571" style="fill: #e0e0e0; stroke: #e0e0e0; stroke-width: 0.8"/>
      </g>
     </g>
     <g id="text_9">
      <!-- 0.5 -->
      <g style="fill: #e0e0e0" transform="translate(14.741719 161.727868) scale(0.09 -0.09)">
       <use xlink:href="#DejaVuSans-30"/>
       <use xlink:href="#DejaVuSans-2e" transform="translate(63.623047 0)"/>
       <use xlink:href="#DejaVuSans-35" transform="translate(95.410156 0)"/>
      </g>
     </g>
    </g>
    <g id="ytick_5">
     <g id="line2d_10">
      <g>
       <use xlink:href="#m6a052b746b" x="36.054531" y="110.337143" style="fill: #e0e0e0; stroke: #e0e0e0; stroke-width: 0.8"/>
      </g>
     </g>
     <g id="text_10">
      <!-- 1.0 -->
      <g style="fill: #e0e0e0" transform="translate(14.741719 113.75644) scale(0.09 -0.09)">
       <use xlink:href="#DejaVuSans-31"/>
       <use xlink:href="#DejaVuSans-2e" transform="translate(63.623047 0)"/>
       <use xlink:href="#DejaVuSans-30" transform="translate(95.410156 0)"/>
      </g>
     </g>
    </g>
   </g>
   <g id="line2d_11">
    <path d="M 36.054531 206.28 
L 304.694531 206.28 
" clip-path="url(#pa3377932ac)" style="fill: none; stroke: #555577; stroke-width: 0.5; stroke-linecap: square"/>
   </g>
   <g id="line2d_12">
    <path d="M 170.374531 340.6 
L 170.374531 71.96 
" clip-path="url(#pa3377932ac)" style="fill: none; stroke: #555577; stroke-width: 0.5; stroke-linecap: square"/>
   </g>
   <g id="line2d_13">
    <path d="M 266.317388 206.28 
L 266.12616 200.225465 
L 265.553238 194.195066 
L 264.600905 188.212841 
L 263.272959 182.302636 
L 261.574692 176.488013 
L 259.512875 170.792149 
L 257.095726 165.23775 
L 254.33288 159.846957 
L 251.235353 154.641261 
L 247.81549 149.641411 
L 244.086925 144.86734 
L 240.064521 140.338077 
L 235.764311 136.071678 
L 231.20344 132.08515 
L 226.400086 128.394385 
L 221.373398 125.014094 
L 216.143413 121.957753 
L 210.73098 119.237546 
L 205.157675 116.864315 
L 199.445714 114.847521 
L 193.617867 113.195204 
L 187.697364 111.913951 
L 181.707808 111.008868 
L 175.673074 110.483563 
L 169.617219 110.340132 
L 163.564383 110.579145 
L 157.538693 111.199649 
L 151.564171 112.199172 
L 145.664633 113.573729 
L 139.863596 115.317839 
L 134.184184 117.424552 
L 128.649038 119.885469 
L 123.280221 122.690779 
L 118.099137 125.829301 
L 113.126437 129.288523 
L 108.381945 133.054655 
L 103.884574 137.112686 
L 99.652251 141.446437 
L 95.701848 146.038634 
L 92.049112 150.870971 
L 88.708604 155.924184 
L 85.693641 161.17813 
L 83.01624 166.611866 
L 80.687076 172.203731 
L 78.715431 177.931433 
L 77.109167 183.772141 
L 75.874686 189.702572 
L 75.016909 195.699086 
L 74.539256 201.737778 
L 74.44363 207.794577 
L 74.730412 213.845338 
L 75.398461 219.865942 
L 76.445111 225.832388 
L 77.866192 231.720893 
L 79.656038 237.507983 
L 81.807515 243.170588 
L 84.312046 248.686138 
L 87.159647 254.032643 
L 90.338968 259.188793 
L 93.837333 264.134033 
L 97.640798 268.848649 
L 101.734201 273.313849 
L 106.101225 277.511832 
L 110.724461 281.425864 
L 115.585479 285.040343 
L 120.664903 288.34086 
L 125.942484 291.314258 
L 131.397184 293.948685 
L 137.007259 296.233638 
L 142.750346 298.16001 
L 148.603551 299.720121 
L 154.543542 300.907753 
L 160.54664 301.71817 
L 166.588914 302.148144 
L 172.646279 302.195958 
L 178.694588 301.861423 
L 184.709731 301.145873 
L 190.66773 300.05216 
L 196.544834 298.584643 
L 202.317615 296.749173 
L 207.963062 294.553066 
L 213.45867 292.005077 
L 218.782533 289.115362 
L 223.913426 285.895442 
L 228.830898 282.358151 
L 233.515346 278.51759 
L 237.948095 274.389069 
L 242.111477 269.989045 
L 245.988894 265.335058 
L 249.564891 260.445661 
L 252.825211 255.340343 
L 255.756858 250.039456 
L 258.348147 244.564132 
L 260.588747 238.936195 
L 262.469727 233.178082 
L 263.983588 227.312744 
L 265.124296 221.363564 
L 265.887304 215.354257 
L 266.269569 209.308777 
L 266.317388 206.28 
L 266.317388 206.28 
" clip-path="url(#pa3377932ac)" style="fill: none; stroke: #555577; stroke-opacity: 0.5; stroke-width: 0.8; stroke-linecap: square"/>
   </g>
   <g id="line2d_14">
    <path d="M 201.076246 206.28 
L 201.07581 206.116522 
L 201.074505 205.953049 
L 201.072328 205.789586 
L 201.069282 205.626136 
L 201.065365 205.462704 
L 201.060578 205.299296 
L 201.054921 205.135916 
L 201.048394 204.972568 
L 201.040998 204.809257 
L 201.032732 204.645988 
L 201.023597 204.482765 
L 201.013592 204.319593 
L 201.002719 204.156477 
L 200.990978 203.993421 
L 200.978369 203.83043 
L 200.964892 203.667508 
L 200.950547 203.50466 
L 200.935336 203.341891 
L 200.919258 203.179206 
L 200.902314 203.016608 
L 200.884505 202.854103 
L 200.86583 202.691694 
L 200.846291 202.529388 
L 200.825889 202.367188 
L 200.804622 202.205099 
L 200.782493 202.043125 
L 200.759502 201.881272 
L 200.735649 201.719543 
L 200.710936 201.557944 
L 200.685362 201.396478 
L 200.658929 201.235151 
L 200.631638 201.073967 
L 200.603488 200.91293 
L 200.574481 200.752046 
L 200.544618 200.591319 
L 200.5139 200.430752 
L 200.482327 200.270352 
L 200.449901 200.110122 
L 200.416622 199.950067 
L 200.382491 199.790191 
L 200.347509 199.630499 
L 200.311678 199.470996 
L 200.274997 199.311686 
L 200.237469 199.152574 
L 200.199094 198.993663 
L 200.159874 198.83496 
L 200.119809 198.676467 
L 200.078901 198.51819 
L 200.03715 198.360133 
L 199.994559 198.2023 
L 199.951127 198.044697 
L 199.906858 197.887327 
L 199.86175 197.730195 
L 199.815807 197.573305 
L 199.769029 197.416662 
L 199.721418 197.260271 
L 199.672974 197.104135 
L 199.6237 196.94826 
L 199.573597 196.792649 
" clip-path="url(#pa3377932ac)" style="fill: none; stroke: #ffcc00; stroke-width: 1.5; stroke-linecap: square"/>
   </g>
   <g id="patch_3">
    <path d="M 36.054531 340.6 
L 36.054531 71.96 
" style="fill: none; stroke: #555577; stroke-width: 0.8; stroke-linejoin: miter; stroke-linecap: square"/>
   </g>
   <g id="patch_4">
    <path d="M 304.694531 340.6 
L 304.694531 71.96 
" style="fill: none; stroke: #555577; stroke-width: 0.8; stroke-linejoin: miter; stroke-linecap: square"/>
   </g>
   <g id="patch_5">
    <path d="M 36.054531 340.6 
L 304.694531 340.6 
" style="fill: none; stroke: #555577; stroke-width: 0.8; stroke-linejoin: miter; stroke-linecap: square"/>
   </g>
   <g id="patch_6">
    <path d="M 36.054531 71.96 
L 304.694531 71.96 
" style="fill: none; stroke: #555577; stroke-width: 0.8; stroke-linejoin: miter; stroke-linecap: square"/>
   </g>
   <g id="patch_7">
    <path d="M 172.374317 206.28 
Q 218.346733 206.28 261.524064 206.28 
" style="fill: none; stroke: #76b900; stroke-width: 2.5; stroke-linecap: round"/>
    <path d="M 257.524064 204.28 
L 261.524064 206.28 
L 257.524064 208.28 
" style="fill: none; stroke: #76b900; stroke-width: 2.5; stroke-linecap: round"/>
   </g>
   <g id="patch_8">
    <path d="M 172.27644 205.662032 
Q 215.998806 191.455774 257.062888 178.113245 
" style="fill: none; stroke: #44cccc; stroke-width: 2.5; stroke-linecap: round"/>
    <path d="M 252.640628 177.4472 
L 257.062888 178.113245 
L 253.876696 181.251426 
" style="fill: none; stroke: #44cccc; stroke-width: 2.5; stroke-linecap: round"/>
   </g>
   <g id="text_11">
    <!-- u -->
    <g style="fill: #76b900" transform="translate(271.114531 201.482857) scale(0.11 -0.11)">
     <defs>
      <path id="DejaVuSans-Bold-75" d="M 500 1363 
L 500 3500 
L 1625 3500 
L 1625 3150 
Q 1625 2866 1622 2436 
Q 1619 2006 1619 1863 
Q 1619 1441 1641 1255 
Q 1663 1069 1716 984 
Q 1784 875 1895 815 
Q 2006 756 2150 756 
Q 2500 756 2700 1025 
Q 2900 1294 2900 1772 
L 2900 3500 
L 4019 3500 
L 4019 0 
L 2900 0 
L 2900 506 
Q 2647 200 2364 54 
Q 2081 -91 1741 -91 
Q 1134 -91 817 281 
Q 500 653 500 1363 
z
" transform="scale(0.015625)"/>
     </defs>
     <use xlink:href="#DejaVuSans-Bold-75"/>
    </g>
   </g>
   <g id="text_12">
    <!-- v -->
    <g style="fill: #44cccc" transform="translate(266.418754 171.834884) scale(0.11 -0.11)">
     <defs>
      <path id="DejaVuSans-Bold-76" d="M 97 3500 
L 1216 3500 
L 2088 1081 
L 2956 3500 
L 4078 3500 
L 2700 0 
L 1472 0 
L 97 3500 
z
" transform="scale(0.015625)"/>
     </defs>
     <use xlink:href="#DejaVuSans-Bold-76"/>
    </g>
   </g>
   <g id="text_13">
    <!-- θ -->
    <g style="fill: #ffcc00" transform="translate(209.462434 199.556071) scale(0.11 -0.11)">
     <defs>
      <path id="DejaVuSans-3b8" d="M 2953 2219 
L 963 2219 
Q 1009 1284 1225 888 
Q 1494 400 1959 400 
Q 2428 400 2688 891 
Q 2916 1322 2953 2219 
z
M 2944 2750 
Q 2856 3638 2688 3950 
Q 2419 4444 1959 4444 
Q 1481 4444 1228 3956 
Q 1028 3563 969 2750 
L 2944 2750 
z
M 1959 4913 
Q 2709 4913 3138 4250 
Q 3566 3591 3566 2422 
Q 3566 1256 3138 594 
Q 2709 -72 1959 -72 
Q 1206 -72 781 594 
Q 353 1256 353 2422 
Q 353 3591 781 4250 
Q 1206 4913 1959 4913 
z
" transform="scale(0.015625)"/>
     </defs>
     <use xlink:href="#DejaVuSans-3b8"/>
    </g>
   </g>
   <g id="text_14">
    <!-- very similar -->
    <g style="fill: #76b900" transform="translate(143.913125 331.005714) scale(0.09 -0.09)">
     <defs>
      <path id="DejaVuSans-Oblique-76" d="M 459 3500 
L 1069 3500 
L 1581 525 
L 3256 3500 
L 3866 3500 
L 1875 0 
L 1100 0 
L 459 3500 
z
" transform="scale(0.015625)"/>
      <path id="DejaVuSans-Oblique-65" d="M 3078 2063 
Q 3088 2113 3092 2166 
Q 3097 2219 3097 2272 
Q 3097 2653 2873 2875 
Q 2650 3097 2266 3097 
Q 1838 3097 1509 2826 
Q 1181 2556 1013 2059 
L 3078 2063 
z
M 3578 1613 
L 903 1613 
Q 884 1494 878 1425 
Q 872 1356 872 1306 
Q 872 872 1139 634 
Q 1406 397 1894 397 
Q 2269 397 2603 481 
Q 2938 566 3225 728 
L 3116 159 
Q 2806 34 2476 -28 
Q 2147 -91 1806 -91 
Q 1078 -91 686 257 
Q 294 606 294 1247 
Q 294 1794 489 2264 
Q 684 2734 1063 3103 
Q 1306 3334 1642 3459 
Q 1978 3584 2356 3584 
Q 2950 3584 3301 3228 
Q 3653 2872 3653 2272 
Q 3653 2128 3634 1964 
Q 3616 1800 3578 1613 
z
" transform="scale(0.015625)"/>
      <path id="DejaVuSans-Oblique-72" d="M 2853 2969 
Q 2766 3016 2653 3041 
Q 2541 3066 2413 3066 
Q 1953 3066 1609 2717 
Q 1266 2369 1153 1784 
L 800 0 
L 225 0 
L 909 3500 
L 1484 3500 
L 1375 2956 
Q 1603 3259 1920 3421 
Q 2238 3584 2597 3584 
Q 2691 3584 2781 3573 
Q 2872 3563 2963 3538 
L 2853 2969 
z
" transform="scale(0.015625)"/>
      <path id="DejaVuSans-Oblique-79" d="M 1588 -325 
Q 1188 -997 936 -1164 
Q 684 -1331 294 -1331 
L -159 -1331 
L -63 -850 
L 269 -850 
Q 509 -850 678 -719 
Q 847 -588 1056 -206 
L 1234 128 
L 459 3500 
L 1069 3500 
L 1650 819 
L 3256 3500 
L 3859 3500 
L 1588 -325 
z
" transform="scale(0.015625)"/>
      <path id="DejaVuSans-Oblique-20" transform="scale(0.015625)"/>
      <path id="DejaVuSans-Oblique-73" d="M 3200 3397 
L 3091 2853 
Q 2863 2978 2609 3040 
Q 2356 3103 2088 3103 
Q 1634 3103 1373 2948 
Q 1113 2794 1113 2528 
Q 1113 2219 1719 2053 
Q 1766 2041 1788 2034 
L 1972 1978 
Q 2547 1819 2739 1644 
Q 2931 1469 2931 1166 
Q 2931 609 2489 259 
Q 2047 -91 1331 -91 
Q 1053 -91 747 -37 
Q 441 16 72 128 
L 184 722 
Q 500 559 806 475 
Q 1113 391 1394 391 
Q 1816 391 2080 572 
Q 2344 753 2344 1031 
Q 2344 1331 1650 1516 
L 1591 1531 
L 1394 1581 
Q 956 1697 753 1886 
Q 550 2075 550 2369 
Q 550 2928 970 3256 
Q 1391 3584 2113 3584 
Q 2397 3584 2667 3537 
Q 2938 3491 3200 3397 
z
" transform="scale(0.015625)"/>
      <path id="DejaVuSans-Oblique-69" d="M 1172 4863 
L 1747 4863 
L 1606 4134 
L 1031 4134 
L 1172 4863 
z
M 909 3500 
L 1484 3500 
L 800 0 
L 225 0 
L 909 3500 
z
" transform="scale(0.015625)"/>
      <path id="DejaVuSans-Oblique-6d" d="M 5747 2113 
L 5338 0 
L 4763 0 
L 5166 2094 
Q 5191 2228 5203 2325 
Q 5216 2422 5216 2491 
Q 5216 2772 5059 2928 
Q 4903 3084 4622 3084 
Q 4203 3084 3875 2770 
Q 3547 2456 3450 1953 
L 3066 0 
L 2491 0 
L 2900 2094 
Q 2925 2209 2937 2307 
Q 2950 2406 2950 2484 
Q 2950 2769 2794 2926 
Q 2638 3084 2363 3084 
Q 1938 3084 1609 2770 
Q 1281 2456 1184 1953 
L 800 0 
L 225 0 
L 909 3500 
L 1484 3500 
L 1375 2956 
Q 1609 3263 1923 3423 
Q 2238 3584 2597 3584 
Q 2978 3584 3223 3384 
Q 3469 3184 3519 2828 
Q 3781 3197 4126 3390 
Q 4472 3584 4856 3584 
Q 5306 3584 5551 3325 
Q 5797 3066 5797 2591 
Q 5797 2488 5784 2364 
Q 5772 2241 5747 2113 
z
" transform="scale(0.015625)"/>
      <path id="DejaVuSans-Oblique-6c" d="M 1172 4863 
L 1747 4863 
L 800 0 
L 225 0 
L 1172 4863 
z
" transform="scale(0.015625)"/>
      <path id="DejaVuSans-Oblique-61" d="M 3438 1997 
L 3047 0 
L 2472 0 
L 2578 531 
Q 2325 219 2001 64 
Q 1678 -91 1281 -91 
Q 834 -91 548 182 
Q 263 456 263 884 
Q 263 1497 752 1853 
Q 1241 2209 2100 2209 
L 2900 2209 
L 2931 2363 
Q 2938 2388 2941 2417 
Q 2944 2447 2944 2509 
Q 2944 2788 2717 2942 
Q 2491 3097 2081 3097 
Q 1800 3097 1504 3025 
Q 1209 2953 897 2809 
L 997 3341 
Q 1322 3463 1633 3523 
Q 1944 3584 2234 3584 
Q 2853 3584 3176 3315 
Q 3500 3047 3500 2534 
Q 3500 2431 3484 2292 
Q 3469 2153 3438 1997 
z
M 2816 1759 
L 2241 1759 
Q 1534 1759 1195 1570 
Q 856 1381 856 984 
Q 856 709 1029 553 
Q 1203 397 1509 397 
Q 1978 397 2328 733 
Q 2678 1069 2791 1631 
L 2816 1759 
z
" transform="scale(0.015625)"/>
     </defs>
     <use xlink:href="#DejaVuSans-Oblique-76"/>
     <use xlink:href="#DejaVuSans-Oblique-65" transform="translate(59.179688 0)"/>
     <use xlink:href="#DejaVuSans-Oblique-72" transform="translate(120.703125 0)"/>
     <use xlink:href="#DejaVuSans-Oblique-79" transform="translate(161.816406 0)"/>
     <use xlink:href="#DejaVuSans-Oblique-20" transform="translate(220.996094 0)"/>
     <use xlink:href="#DejaVuSans-Oblique-73" transform="translate(252.783203 0)"/>
     <use xlink:href="#DejaVuSans-Oblique-69" transform="translate(304.882812 0)"/>
     <use xlink:href="#DejaVuSans-Oblique-6d" transform="translate(332.666016 0)"/>
     <use xlink:href="#DejaVuSans-Oblique-69" transform="translate(430.078125 0)"/>
     <use xlink:href="#DejaVuSans-Oblique-6c" transform="translate(457.861328 0)"/>
     <use xlink:href="#DejaVuSans-Oblique-61" transform="translate(485.644531 0)"/>
     <use xlink:href="#DejaVuSans-Oblique-72" transform="translate(546.923828 0)"/>
    </g>
   </g>
   <g id="text_15">
    <!-- Nearly the same direction -->
    <g style="fill: #e0e0e0" transform="translate(99.113437 53.642406) scale(0.11 -0.11)">
     <defs>
      <path id="DejaVuSans-4e" d="M 628 4666 
L 1478 4666 
L 3547 763 
L 3547 4666 
L 4159 4666 
L 4159 0 
L 3309 0 
L 1241 3903 
L 1241 0 
L 628 0 
L 628 4666 
z
" transform="scale(0.015625)"/>
      <path id="DejaVuSans-65" d="M 3597 1894 
L 3597 1613 
L 953 1613 
Q 991 1019 1311 708 
Q 1631 397 2203 397 
Q 2534 397 2845 478 
Q 3156 559 3463 722 
L 3463 178 
Q 3153 47 2828 -22 
Q 2503 -91 2169 -91 
Q 1331 -91 842 396 
Q 353 884 353 1716 
Q 353 2575 817 3079 
Q 1281 3584 2069 3584 
Q 2775 3584 3186 3129 
Q 3597 2675 3597 1894 
z
M 3022 2063 
Q 3016 2534 2758 2815 
Q 2500 3097 2075 3097 
Q 1594 3097 1305 2825 
Q 1016 2553 972 2059 
L 3022 2063 
z
" transform="scale(0.015625)"/>
      <path id="DejaVuSans-61" d="M 2194 1759 
Q 1497 1759 1228 1600 
Q 959 1441 959 1056 
Q 959 750 1161 570 
Q 1363 391 1709 391 
Q 2188 391 2477 730 
Q 2766 1069 2766 1631 
L 2766 1759 
L 2194 1759 
z
M 3341 1997 
L 3341 0 
L 2766 0 
L 2766 531 
Q 2569 213 2275 61 
Q 1981 -91 1556 -91 
Q 1019 -91 701 211 
Q 384 513 384 1019 
Q 384 1609 779 1909 
Q 1175 2209 1959 2209 
L 2766 2209 
L 2766 2266 
Q 2766 2663 2505 2880 
Q 2244 3097 1772 3097 
Q 1472 3097 1187 3025 
Q 903 2953 641 2809 
L 641 3341 
Q 956 3463 1253 3523 
Q 1550 3584 1831 3584 
Q 2591 3584 2966 3190 
Q 3341 2797 3341 1997 
z
" transform="scale(0.015625)"/>
      <path id="DejaVuSans-72" d="M 2631 2963 
Q 2534 3019 2420 3045 
Q 2306 3072 2169 3072 
Q 1681 3072 1420 2755 
Q 1159 2438 1159 1844 
L 1159 0 
L 581 0 
L 581 3500 
L 1159 3500 
L 1159 2956 
Q 1341 3275 1631 3429 
Q 1922 3584 2338 3584 
Q 2397 3584 2469 3576 
Q 2541 3569 2628 3553 
L 2631 2963 
z
" transform="scale(0.015625)"/>
      <path id="DejaVuSans-6c" d="M 603 4863 
L 1178 4863 
L 1178 0 
L 603 0 
L 603 4863 
z
" transform="scale(0.015625)"/>
      <path id="DejaVuSans-79" d="M 2059 -325 
Q 1816 -950 1584 -1140 
Q 1353 -1331 966 -1331 
L 506 -1331 
L 506 -850 
L 844 -850 
Q 1081 -850 1212 -737 
Q 1344 -625 1503 -206 
L 1606 56 
L 191 3500 
L 800 3500 
L 1894 763 
L 2988 3500 
L 3597 3500 
L 2059 -325 
z
" transform="scale(0.015625)"/>
      <path id="DejaVuSans-20" transform="scale(0.015625)"/>
      <path id="DejaVuSans-74" d="M 1172 4494 
L 1172 3500 
L 2356 3500 
L 2356 3053 
L 1172 3053 
L 1172 1153 
Q 1172 725 1289 603 
Q 1406 481 1766 481 
L 2356 481 
L 2356 0 
L 1766 0 
Q 1100 0 847 248 
Q 594 497 594 1153 
L 594 3053 
L 172 3053 
L 172 3500 
L 594 3500 
L 594 4494 
L 1172 4494 
z
" transform="scale(0.015625)"/>
      <path id="DejaVuSans-68" d="M 3513 2113 
L 3513 0 
L 2938 0 
L 2938 2094 
Q 2938 2591 2744 2837 
Q 2550 3084 2163 3084 
Q 1697 3084 1428 2787 
Q 1159 2491 1159 1978 
L 1159 0 
L 581 0 
L 581 4863 
L 1159 4863 
L 1159 2956 
Q 1366 3272 1645 3428 
Q 1925 3584 2291 3584 
Q 2894 3584 3203 3211 
Q 3513 2838 3513 2113 
z
" transform="scale(0.015625)"/>
      <path id="DejaVuSans-73" d="M 2834 3397 
L 2834 2853 
Q 2591 2978 2328 3040 
Q 2066 3103 1784 3103 
Q 1356 3103 1142 2972 
Q 928 2841 928 2578 
Q 928 2378 1081 2264 
Q 1234 2150 1697 2047 
L 1894 2003 
Q 2506 1872 2764 1633 
Q 3022 1394 3022 966 
Q 3022 478 2636 193 
Q 2250 -91 1575 -91 
Q 1294 -91 989 -36 
Q 684 19 347 128 
L 347 722 
Q 666 556 975 473 
Q 1284 391 1588 391 
Q 1994 391 2212 530 
Q 2431 669 2431 922 
Q 2431 1156 2273 1281 
Q 2116 1406 1581 1522 
L 1381 1569 
Q 847 1681 609 1914 
Q 372 2147 372 2553 
Q 372 3047 722 3315 
Q 1072 3584 1716 3584 
Q 2034 3584 2315 3537 
Q 2597 3491 2834 3397 
z
" transform="scale(0.015625)"/>
      <path id="DejaVuSans-6d" d="M 3328 2828 
Q 3544 3216 3844 3400 
Q 4144 3584 4550 3584 
Q 5097 3584 5394 3201 
Q 5691 2819 5691 2113 
L 5691 0 
L 5113 0 
L 5113 2094 
Q 5113 2597 4934 2840 
Q 4756 3084 4391 3084 
Q 3944 3084 3684 2787 
Q 3425 2491 3425 1978 
L 3425 0 
L 2847 0 
L 2847 2094 
Q 2847 2600 2669 2842 
Q 2491 3084 2119 3084 
Q 1678 3084 1418 2786 
Q 1159 2488 1159 1978 
L 1159 0 
L 581 0 
L 581 3500 
L 1159 3500 
L 1159 2956 
Q 1356 3278 1631 3431 
Q 1906 3584 2284 3584 
Q 2666 3584 2933 3390 
Q 3200 3197 3328 2828 
z
" transform="scale(0.015625)"/>
      <path id="DejaVuSans-64" d="M 2906 2969 
L 2906 4863 
L 3481 4863 
L 3481 0 
L 2906 0 
L 2906 525 
Q 2725 213 2448 61 
Q 2172 -91 1784 -91 
Q 1150 -91 751 415 
Q 353 922 353 1747 
Q 353 2572 751 3078 
Q 1150 3584 1784 3584 
Q 2172 3584 2448 3432 
Q 2725 3281 2906 2969 
z
M 947 1747 
Q 947 1113 1208 752 
Q 1469 391 1925 391 
Q 2381 391 2643 752 
Q 2906 1113 2906 1747 
Q 2906 2381 2643 2742 
Q 2381 3103 1925 3103 
Q 1469 3103 1208 2742 
Q 947 2381 947 1747 
z
" transform="scale(0.015625)"/>
      <path id="DejaVuSans-69" d="M 603 3500 
L 1178 3500 
L 1178 0 
L 603 0 
L 603 3500 
z
M 603 4863 
L 1178 4863 
L 1178 4134 
L 603 4134 
L 603 4863 
z
" transform="scale(0.015625)"/>
      <path id="DejaVuSans-63" d="M 3122 3366 
L 3122 2828 
Q 2878 2963 2633 3030 
Q 2388 3097 2138 3097 
Q 1578 3097 1268 2742 
Q 959 2388 959 1747 
Q 959 1106 1268 751 
Q 1578 397 2138 397 
Q 2388 397 2633 464 
Q 2878 531 3122 666 
L 3122 134 
Q 2881 22 2623 -34 
Q 2366 -91 2075 -91 
Q 1284 -91 818 406 
Q 353 903 353 1747 
Q 353 2603 823 3093 
Q 1294 3584 2113 3584 
Q 2378 3584 2631 3529 
Q 2884 3475 3122 3366 
z
" transform="scale(0.015625)"/>
      <path id="DejaVuSans-6f" d="M 1959 3097 
Q 1497 3097 1228 2736 
Q 959 2375 959 1747 
Q 959 1119 1226 758 
Q 1494 397 1959 397 
Q 2419 397 2687 759 
Q 2956 1122 2956 1747 
Q 2956 2369 2687 2733 
Q 2419 3097 1959 3097 
z
M 1959 3584 
Q 2709 3584 3137 3096 
Q 3566 2609 3566 1747 
Q 3566 888 3137 398 
Q 2709 -91 1959 -91 
Q 1206 -91 779 398 
Q 353 888 353 1747 
Q 353 2609 779 3096 
Q 1206 3584 1959 3584 
z
" transform="scale(0.015625)"/>
      <path id="DejaVuSans-6e" d="M 3513 2113 
L 3513 0 
L 2938 0 
L 2938 2094 
Q 2938 2591 2744 2837 
Q 2550 3084 2163 3084 
Q 1697 3084 1428 2787 
Q 1159 2491 1159 1978 
L 1159 0 
L 581 0 
L 581 3500 
L 1159 3500 
L 1159 2956 
Q 1366 3272 1645 3428 
Q 1925 3584 2291 3584 
Q 2894 3584 3203 3211 
Q 3513 2838 3513 2113 
z
" transform="scale(0.015625)"/>
     </defs>
     <use xlink:href="#DejaVuSans-4e"/>
     <use xlink:href="#DejaVuSans-65" transform="translate(74.804688 0)"/>
     <use xlink:href="#DejaVuSans-61" transform="translate(136.328125 0)"/>
     <use xlink:href="#DejaVuSans-72" transform="translate(197.607422 0)"/>
     <use xlink:href="#DejaVuSans-6c" transform="translate(238.720703 0)"/>
     <use xlink:href="#DejaVuSans-79" transform="translate(266.503906 0)"/>
     <use xlink:href="#DejaVuSans-20" transform="translate(325.683594 0)"/>
     <use xlink:href="#DejaVuSans-74" transform="translate(357.470703 0)"/>
     <use xlink:href="#DejaVuSans-68" transform="translate(396.679688 0)"/>
     <use xlink:href="#DejaVuSans-65" transform="translate(460.058594 0)"/>
     <use xlink:href="#DejaVuSans-20" transform="translate(521.582031 0)"/>
     <use xlink:href="#DejaVuSans-73" transform="translate(553.369141 0)"/>
     <use xlink:href="#DejaVuSans-61" transform="translate(605.46875 0)"/>
     <use xlink:href="#DejaVuSans-6d" transform="translate(666.748047 0)"/>
     <use xlink:href="#DejaVuSans-65" transform="translate(764.160156 0)"/>
     <use xlink:href="#DejaVuSans-20" transform="translate(825.683594 0)"/>
     <use xlink:href="#DejaVuSans-64" transform="translate(857.470703 0)"/>
     <use xlink:href="#DejaVuSans-69" transform="translate(920.947266 0)"/>
     <use xlink:href="#DejaVuSans-72" transform="translate(948.730469 0)"/>
     <use xlink:href="#DejaVuSans-65" transform="translate(987.59375 0)"/>
     <use xlink:href="#DejaVuSans-63" transform="translate(1049.117188 0)"/>
     <use xlink:href="#DejaVuSans-74" transform="translate(1104.097656 0)"/>
     <use xlink:href="#DejaVuSans-69" transform="translate(1143.306641 0)"/>
     <use xlink:href="#DejaVuSans-6f" transform="translate(1171.089844 0)"/>
     <use xlink:href="#DejaVuSans-6e" transform="translate(1232.271484 0)"/>
    </g>
    <!-- cos θ = +0.95 -->
    <g style="fill: #e0e0e0" transform="translate(131.046953 65.96) scale(0.11 -0.11)">
     <defs>
      <path id="DejaVuSans-3d" d="M 678 2906 
L 4684 2906 
L 4684 2381 
L 678 2381 
L 678 2906 
z
M 678 1631 
L 4684 1631 
L 4684 1100 
L 678 1100 
L 678 1631 
z
" transform="scale(0.015625)"/>
      <path id="DejaVuSans-2b" d="M 2944 4013 
L 2944 2272 
L 4684 2272 
L 4684 1741 
L 2944 1741 
L 2944 0 
L 2419 0 
L 2419 1741 
L 678 1741 
L 678 2272 
L 2419 2272 
L 2419 4013 
L 2944 4013 
z
" transform="scale(0.015625)"/>
      <path id="DejaVuSans-39" d="M 703 97 
L 703 672 
Q 941 559 1184 500 
Q 1428 441 1663 441 
Q 2288 441 2617 861 
Q 2947 1281 2994 2138 
Q 2813 1869 2534 1725 
Q 2256 1581 1919 1581 
Q 1219 1581 811 2004 
Q 403 2428 403 3163 
Q 403 3881 828 4315 
Q 1253 4750 1959 4750 
Q 2769 4750 3195 4129 
Q 3622 3509 3622 2328 
Q 3622 1225 3098 567 
Q 2575 -91 1691 -91 
Q 1453 -91 1209 -44 
Q 966 3 703 97 
z
M 1959 2075 
Q 2384 2075 2632 2365 
Q 2881 2656 2881 3163 
Q 2881 3666 2632 3958 
Q 2384 4250 1959 4250 
Q 1534 4250 1286 3958 
Q 1038 3666 1038 3163 
Q 1038 2656 1286 2365 
Q 1534 2075 1959 2075 
z
" transform="scale(0.015625)"/>
     </defs>
     <use xlink:href="#DejaVuSans-63"/>
     <use xlink:href="#DejaVuSans-6f" transform="translate(54.980469 0)"/>
     <use xlink:href="#DejaVuSans-73" transform="translate(116.162109 0)"/>
     <use xlink:href="#DejaVuSans-20" transform="translate(168.261719 0)"/>
     <use xlink:href="#DejaVuSans-3b8" transform="translate(200.048828 0)"/>
     <use xlink:href="#DejaVuSans-20" transform="translate(261.230469 0)"/>
     <use xlink:href="#DejaVuSans-3d" transform="translate(293.017578 0)"/>
     <use xlink:href="#DejaVuSans-20" transform="translate(376.806641 0)"/>
     <use xlink:href="#DejaVuSans-2b" transform="translate(408.59375 0)"/>
     <use xlink:href="#DejaVuSans-30" transform="translate(492.382812 0)"/>
     <use xlink:href="#DejaVuSans-2e" transform="translate(556.005859 0)"/>
     <use xlink:href="#DejaVuSans-39" transform="translate(587.792969 0)"/>
     <use xlink:href="#DejaVuSans-35" transform="translate(651.416016 0)"/>
    </g>
   </g>
  </g>
  <g id="axes_2">
   <g id="patch_9">
    <path d="M 344.454531 340.6 
L 613.094531 340.6 
L 613.094531 71.96 
L 344.454531 71.96 
z
" style="fill: #1a1a2e"/>
   </g>
   <g id="matplotlib.axis_3">
    <g id="xtick_6">
     <g id="line2d_15">
      <g>
       <use xlink:href="#mfc645e43d3" x="382.831674" y="340.6" style="fill: #e0e0e0; stroke: #e0e0e0; stroke-width: 0.8"/>
      </g>
     </g>
     <g id="text_16">
      <!-- −1.0 -->
      <g style="fill: #e0e0e0" transform="translate(371.904408 354.438594) scale(0.09 -0.09)">
       <use xlink:href="#DejaVuSans-2212"/>
       <use xlink:href="#DejaVuSans-31" transform="translate(83.789062 0)"/>
       <use xlink:href="#DejaVuSans-2e" transform="translate(147.412109 0)"/>
       <use xlink:href="#DejaVuSans-30" transform="translate(179.199219 0)"/>
      </g>
     </g>
    </g>
    <g id="xtick_7">
     <g id="line2d_16">
      <g>
       <use xlink:href="#mfc645e43d3" x="430.803103" y="340.6" style="fill: #e0e0e0; stroke: #e0e0e0; stroke-width: 0.8"/>
      </g>
     </g>
     <g id="text_17">
      <!-- −0.5 -->
      <g style="fill: #e0e0e0" transform="translate(419.875837 354.438594) scale(0.09 -0.09)">
       <use xlink:href="#DejaVuSans-2212"/>
       <use xlink:href="#DejaVuSans-30" transform="translate(83.789062 0)"/>
       <use xlink:href="#DejaVuSans-2e" transform="translate(147.412109 0)"/>
       <use xlink:href="#DejaVuSans-35" transform="translate(179.199219 0)"/>
      </g>
     </g>
    </g>
    <g id="xtick_8">
     <g id="line2d_17">
      <g>
       <use xlink:href="#mfc645e43d3" x="478.774531" y="340.6" style="fill: #e0e0e0; stroke: #e0e0e0; stroke-width: 0.8"/>
      </g>
     </g>
     <g id="text_18">
      <!-- 0.0 -->
      <g style="fill: #e0e0e0" transform="translate(471.618125 354.438594) scale(0.09 -0.09)">
       <use xlink:href="#DejaVuSans-30"/>
       <use xlink:href="#DejaVuSans-2e" transform="translate(63.623047 0)"/>
       <use xlink:href="#DejaVuSans-30" transform="translate(95.410156 0)"/>
      </g>
     </g>
    </g>
    <g id="xtick_9">
     <g id="line2d_18">
      <g>
       <use xlink:href="#mfc645e43d3" x="526.74596" y="340.6" style="fill: #e0e0e0; stroke: #e0e0e0; stroke-width: 0.8"/>
      </g>
     </g>
     <g id="text_19">
      <!-- 0.5 -->
      <g style="fill: #e0e0e0" transform="translate(519.589554 354.438594) scale(0.09 -0.09)">
       <use xlink:href="#DejaVuSans-30"/>
       <use xlink:href="#DejaVuSans-2e" transform="translate(63.623047 0)"/>
       <use xlink:href="#DejaVuSans-35" transform="translate(95.410156 0)"/>
      </g>
     </g>
    </g>
    <g id="xtick_10">
     <g id="line2d_19">
      <g>
       <use xlink:href="#mfc645e43d3" x="574.717388" y="340.6" style="fill: #e0e0e0; stroke: #e0e0e0; stroke-width: 0.8"/>
      </g>
     </g>
     <g id="text_20">
      <!-- 1.0 -->
      <g style="fill: #e0e0e0" transform="translate(567.560982 354.438594) scale(0.09 -0.09)">
       <use xlink:href="#DejaVuSans-31"/>
       <use xlink:href="#DejaVuSans-2e" transform="translate(63.623047 0)"/>
       <use xlink:href="#DejaVuSans-30" transform="translate(95.410156 0)"/>
      </g>
     </g>
    </g>
   </g>
   <g id="matplotlib.axis_4">
    <g id="ytick_6">
     <g id="line2d_20">
      <g>
       <use xlink:href="#m6a052b746b" x="344.454531" y="302.222857" style="fill: #e0e0e0; stroke: #e0e0e0; stroke-width: 0.8"/>
      </g>
     </g>
     <g id="text_21">
      <!-- −1.0 -->
      <g style="fill: #e0e0e0" transform="translate(315.6 305.642154) scale(0.09 -0.09)">
       <use xlink:href="#DejaVuSans-2212"/>
       <use xlink:href="#DejaVuSans-31" transform="translate(83.789062 0)"/>
       <use xlink:href="#DejaVuSans-2e" transform="translate(147.412109 0)"/>
       <use xlink:href="#DejaVuSans-30" transform="translate(179.199219 0)"/>
      </g>
     </g>
    </g>
    <g id="ytick_7">
     <g id="line2d_21">
      <g>
       <use xlink:href="#m6a052b746b" x="344.454531" y="254.251429" style="fill: #e0e0e0; stroke: #e0e0e0; stroke-width: 0.8"/>
      </g>
     </g>
     <g id="text_22">
      <!-- −0.5 -->
      <g style="fill: #e0e0e0" transform="translate(315.6 257.670725) scale(0.09 -0.09)">
       <use xlink:href="#DejaVuSans-2212"/>
       <use xlink:href="#DejaVuSans-30" transform="translate(83.789062 0)"/>
       <use xlink:href="#DejaVuSans-2e" transform="translate(147.412109 0)"/>
       <use xlink:href="#DejaVuSans-35" transform="translate(179.199219 0)"/>
      </g>
     </g>
    </g>
    <g id="ytick_8">
     <g id="line2d_22">
      <g>
       <use xlink:href="#m6a052b746b" x="344.454531" y="206.28" style="fill: #e0e0e0; stroke: #e0e0e0; stroke-width: 0.8"/>
      </g>
     </g>
     <g id="text_23">
      <!-- 0.0 -->
      <g style="fill: #e0e0e0" transform="translate(323.141719 209.699297) scale(0.09 -0.09)">
       <use xlink:href="#DejaVuSans-30"/>
       <use xlink:href="#DejaVuSans-2e" transform="translate(63.623047 0)"/>
       <use xlink:href="#DejaVuSans-30" transform="translate(95.410156 0)"/>
      </g>
     </g>
    </g>
    <g id="ytick_9">
     <g id="line2d_23">
      <g>
       <use xlink:href="#m6a052b746b" x="344.454531" y="158.308571" style="fill: #e0e0e0; stroke: #e0e0e0; stroke-width: 0.8"/>
      </g>
     </g>
     <g id="text_24">
      <!-- 0.5 -->
      <g style="fill: #e0e0e0" transform="translate(323.141719 161.727868) scale(0.09 -0.09)">
       <use xlink:href="#DejaVuSans-30"/>
       <use xlink:href="#DejaVuSans-2e" transform="translate(63.623047 0)"/>
       <use xlink:href="#DejaVuSans-35" transform="translate(95.410156 0)"/>
      </g>
     </g>
    </g>
    <g id="ytick_10">
     <g id="line2d_24">
      <g>
       <use xlink:href="#m6a052b746b" x="344.454531" y="110.337143" style="fill: #e0e0e0; stroke: #e0e0e0; stroke-width: 0.8"/>
      </g>
     </g>
     <g id="text_25">
      <!-- 1.0 -->
      <g style="fill: #e0e0e0" transform="translate(323.141719 113.75644) scale(0.09 -0.09)">
       <use xlink:href="#DejaVuSans-31"/>
       <use xlink:href="#DejaVuSans-2e" transform="translate(63.623047 0)"/>
       <use xlink:href="#DejaVuSans-30" transform="translate(95.410156 0)"/>
      </g>
     </g>
    </g>
   </g>
   <g id="line2d_25">
    <path d="M 344.454531 206.28 
L 613.094531 206.28 
" clip-path="url(#pf3604108a9)" style="fill: none; stroke: #555577; stroke-width: 0.5; stroke-linecap: square"/>
   </g>
   <g id="line2d_26">
    <path d="M 478.774531 340.6 
L 478.774531 71.96 
" clip-path="url(#pf3604108a9)" style="fill: none; stroke: #555577; stroke-width: 0.5; stroke-linecap: square"/>
   </g>
   <g id="line2d_27">
    <path d="M 574.717388 206.28 
L 574.52616 200.225465 
L 573.953238 194.195066 
L 573.000905 188.212841 
L 571.672959 182.302636 
L 569.974692 176.488013 
L 567.912875 170.792149 
L 565.495726 165.23775 
L 562.73288 159.846957 
L 559.635353 154.641261 
L 556.21549 149.641411 
L 552.486925 144.86734 
L 548.464521 140.338077 
L 544.164311 136.071678 
L 539.60344 132.08515 
L 534.800086 128.394385 
L 529.773398 125.014094 
L 524.543413 121.957753 
L 519.13098 119.237546 
L 513.557675 116.864315 
L 507.845714 114.847521 
L 502.017867 113.195204 
L 496.097364 111.913951 
L 490.107808 111.008868 
L 484.073074 110.483563 
L 478.017219 110.340132 
L 471.964383 110.579145 
L 465.938693 111.199649 
L 459.964171 112.199172 
L 454.064633 113.573729 
L 448.263596 115.317839 
L 442.584184 117.424552 
L 437.049038 119.885469 
L 431.680221 122.690779 
L 426.499137 125.829301 
L 421.526437 129.288523 
L 416.781945 133.054655 
L 412.284574 137.112686 
L 408.052251 141.446437 
L 404.101848 146.038634 
L 400.449112 150.870971 
L 397.108604 155.924184 
L 394.093641 161.17813 
L 391.41624 166.611866 
L 389.087076 172.203731 
L 387.115431 177.931433 
L 385.509167 183.772141 
L 384.274686 189.702572 
L 383.416909 195.699086 
L 382.939256 201.737778 
L 382.84363 207.794577 
L 383.130412 213.845338 
L 383.798461 219.865942 
L 384.845111 225.832388 
L 386.266192 231.720893 
L 388.056038 237.507983 
L 390.207515 243.170588 
L 392.712046 248.686138 
L 395.559647 254.032643 
L 398.738968 259.188793 
L 402.237333 264.134033 
L 406.040798 268.848649 
L 410.134201 273.313849 
L 414.501225 277.511832 
L 419.124461 281.425864 
L 423.985479 285.040343 
L 429.064903 288.34086 
L 434.342484 291.314258 
L 439.797184 293.948685 
L 445.407259 296.233638 
L 451.150346 298.16001 
L 457.003551 299.720121 
L 462.943542 300.907753 
L 468.94664 301.71817 
L 474.988914 302.148144 
L 481.046279 302.195958 
L 487.094588 301.861423 
L 493.109731 301.145873 
L 499.06773 300.05216 
L 504.944834 298.584643 
L 510.717615 296.749173 
L 516.363062 294.553066 
L 521.85867 292.005077 
L 527.182533 289.115362 
L 532.313426 285.895442 
L 537.230898 282.358151 
L 541.915346 278.51759 
L 546.348095 274.389069 
L 550.511477 269.989045 
L 554.388894 265.335058 
L 557.964891 260.445661 
L 561.225211 255.340343 
L 564.156858 250.039456 
L 566.748147 244.564132 
L 568.988747 238.936195 
L 570.869727 233.178082 
L 572.383588 227.312744 
L 573.524296 221.363564 
L 574.287304 215.354257 
L 574.669569 209.308777 
L 574.717388 206.28 
L 574.717388 206.28 
" clip-path="url(#pf3604108a9)" style="fill: none; stroke: #555577; stroke-opacity: 0.5; stroke-width: 0.8; stroke-linecap: square"/>
   </g>
   <g id="line2d_28">
    <path d="M 509.476246 206.28 
L 509.465365 205.462704 
L 509.432732 204.645988 
L 509.378369 203.83043 
L 509.302314 203.016608 
L 509.204622 202.205099 
L 509.085362 201.396478 
L 508.944618 200.591319 
L 508.782491 199.790191 
L 508.599094 198.993663 
L 508.394559 198.2023 
L 508.169029 197.416662 
L 507.922665 196.637307 
L 507.655642 195.864785 
L 507.368148 195.099646 
L 507.060388 194.342431 
L 506.73258 193.593678 
L 506.384955 192.853916 
L 506.017761 192.12367 
L 505.631258 191.403458 
L 505.225718 190.69379 
L 504.801431 189.995169 
L 504.358697 189.30809 
L 503.897829 188.633041 
L 503.419155 187.9705 
L 502.923012 187.320936 
L 502.409754 186.684809 
L 501.879744 186.062572 
L 501.333357 185.454664 
L 500.770981 184.861516 
L 500.193015 184.28355 
L 499.599867 183.721174 
L 498.991959 183.174787 
L 498.369722 182.644777 
L 497.733596 182.131519 
L 497.084032 181.635377 
L 496.42149 181.156702 
L 495.746441 180.695834 
L 495.059362 180.2531 
L 494.360742 179.828813 
L 493.651074 179.423274 
L 492.930861 179.03677 
L 492.200616 178.669576 
L 491.460854 178.321951 
L 490.7121 177.994143 
L 489.954885 177.686383 
L 489.189746 177.398889 
L 488.417225 177.131866 
L 487.637869 176.885502 
L 486.852231 176.659973 
L 486.060868 176.455437 
L 485.26434 176.27204 
L 484.463213 176.109913 
L 483.658053 175.969169 
L 482.849432 175.849909 
L 482.037923 175.752217 
L 481.224101 175.676163 
L 480.408543 175.621799 
L 479.591827 175.589166 
L 478.774531 175.578286 
" clip-path="url(#pf3604108a9)" style="fill: none; stroke: #ffcc00; stroke-width: 1.5; stroke-linecap: square"/>
   </g>
   <g id="patch_10">
    <path d="M 344.454531 340.6 
L 344.454531 71.96 
" style="fill: none; stroke: #555577; stroke-width: 0.8; stroke-linejoin: miter; stroke-linecap: square"/>
   </g>
   <g id="patch_11">
    <path d="M 613.094531 340.6 
L 613.094531 71.96 
" style="fill: none; stroke: #555577; stroke-width: 0.8; stroke-linejoin: miter; stroke-linecap: square"/>
   </g>
   <g id="patch_12">
    <path d="M 344.454531 340.6 
L 613.094531 340.6 
" style="fill: none; stroke: #555577; stroke-width: 0.8; stroke-linejoin: miter; stroke-linecap: square"/>
   </g>
   <g id="patch_13">
    <path d="M 344.454531 71.96 
L 613.094531 71.96 
" style="fill: none; stroke: #555577; stroke-width: 0.8; stroke-linejoin: miter; stroke-linecap: square"/>
   </g>
   <g id="patch_14">
    <path d="M 480.774317 206.28 
Q 526.746733 206.28 569.924064 206.28 
" style="fill: none; stroke: #cc6622; stroke-width: 2.5; stroke-linecap: round"/>
    <path d="M 565.924064 204.28 
L 569.924064 206.28 
L 565.924064 208.28 
" style="fill: none; stroke: #cc6622; stroke-width: 2.5; stroke-linecap: round"/>
   </g>
   <g id="patch_15">
    <path d="M 478.774531 204.280214 
Q 478.774531 158.307799 478.774531 115.130468 
" style="fill: none; stroke: #4477ff; stroke-width: 2.5; stroke-linecap: round"/>
    <path d="M 476.774531 119.130468 
L 478.774531 115.130468 
L 480.774531 119.130468 
" style="fill: none; stroke: #4477ff; stroke-width: 2.5; stroke-linecap: round"/>
   </g>
   <g id="text_26">
    <!-- u -->
    <g style="fill: #cc6622" transform="translate(579.514531 201.482857) scale(0.11 -0.11)">
     <use xlink:href="#DejaVuSans-Bold-75"/>
    </g>
   </g>
   <g id="text_27">
    <!-- v -->
    <g style="fill: #4477ff" transform="translate(483.571674 105.54) scale(0.11 -0.11)">
     <use xlink:href="#DejaVuSans-Bold-76"/>
    </g>
   </g>
   <g id="text_28">
    <!-- θ -->
    <g style="fill: #ffcc00" transform="translate(505.802365 175.886853) scale(0.11 -0.11)">
     <use xlink:href="#DejaVuSans-3b8"/>
    </g>
   </g>
   <g id="text_29">
    <!-- unrelated -->
    <g style="fill: #e0e0e0" transform="translate(457.054297 331.005714) scale(0.09 -0.09)">
     <defs>
      <path id="DejaVuSans-Oblique-75" d="M 428 1388 
L 838 3500 
L 1416 3500 
L 1006 1409 
Q 975 1256 961 1147 
Q 947 1038 947 966 
Q 947 700 1109 554 
Q 1272 409 1569 409 
Q 2031 409 2368 721 
Q 2706 1034 2809 1563 
L 3194 3500 
L 3769 3500 
L 3091 0 
L 2516 0 
L 2631 550 
Q 2388 244 2052 76 
Q 1716 -91 1338 -91 
Q 878 -91 622 161 
Q 366 413 366 863 
Q 366 956 381 1097 
Q 397 1238 428 1388 
z
" transform="scale(0.015625)"/>
      <path id="DejaVuSans-Oblique-6e" d="M 3566 2113 
L 3156 0 
L 2578 0 
L 2988 2091 
Q 3016 2238 3031 2350 
Q 3047 2463 3047 2528 
Q 3047 2791 2881 2937 
Q 2716 3084 2419 3084 
Q 1956 3084 1622 2776 
Q 1288 2469 1184 1941 
L 800 0 
L 225 0 
L 903 3500 
L 1478 3500 
L 1363 2950 
Q 1603 3253 1940 3418 
Q 2278 3584 2650 3584 
Q 3113 3584 3367 3334 
Q 3622 3084 3622 2631 
Q 3622 2519 3608 2391 
Q 3594 2263 3566 2113 
z
" transform="scale(0.015625)"/>
      <path id="DejaVuSans-Oblique-74" d="M 2706 3500 
L 2619 3053 
L 1472 3053 
L 1100 1153 
Q 1081 1047 1072 975 
Q 1063 903 1063 863 
Q 1063 663 1183 572 
Q 1303 481 1569 481 
L 2150 481 
L 2053 0 
L 1503 0 
Q 991 0 739 200 
Q 488 400 488 806 
Q 488 878 497 964 
Q 506 1050 525 1153 
L 897 3053 
L 409 3053 
L 500 3500 
L 978 3500 
L 1172 4494 
L 1747 4494 
L 1556 3500 
L 2706 3500 
z
" transform="scale(0.015625)"/>
      <path id="DejaVuSans-Oblique-64" d="M 2675 525 
Q 2444 222 2128 65 
Q 1813 -91 1428 -91 
Q 903 -91 598 267 
Q 294 625 294 1247 
Q 294 1766 478 2236 
Q 663 2706 1013 3078 
Q 1244 3325 1534 3454 
Q 1825 3584 2144 3584 
Q 2481 3584 2739 3421 
Q 2997 3259 3138 2956 
L 3513 4863 
L 4091 4863 
L 3144 0 
L 2566 0 
L 2675 525 
z
M 891 1350 
Q 891 897 1095 644 
Q 1300 391 1663 391 
Q 1931 391 2161 520 
Q 2391 650 2566 903 
Q 2750 1166 2856 1509 
Q 2963 1853 2963 2188 
Q 2963 2622 2758 2865 
Q 2553 3109 2194 3109 
Q 1922 3109 1687 2981 
Q 1453 2853 1288 2613 
Q 1106 2353 998 2009 
Q 891 1666 891 1350 
z
" transform="scale(0.015625)"/>
     </defs>
     <use xlink:href="#DejaVuSans-Oblique-75"/>
     <use xlink:href="#DejaVuSans-Oblique-6e" transform="translate(63.378906 0)"/>
     <use xlink:href="#DejaVuSans-Oblique-72" transform="translate(126.757812 0)"/>
     <use xlink:href="#DejaVuSans-Oblique-65" transform="translate(167.871094 0)"/>
     <use xlink:href="#DejaVuSans-Oblique-6c" transform="translate(229.394531 0)"/>
     <use xlink:href="#DejaVuSans-Oblique-61" transform="translate(257.177734 0)"/>
     <use xlink:href="#DejaVuSans-Oblique-74" transform="translate(318.457031 0)"/>
     <use xlink:href="#DejaVuSans-Oblique-65" transform="translate(357.666016 0)"/>
     <use xlink:href="#DejaVuSans-Oblique-64" transform="translate(419.189453 0)"/>
    </g>
   </g>
   <g id="text_30">
    <!-- Perpendicular -->
    <g style="fill: #e0e0e0" transform="translate(440.962031 53.642406) scale(0.11 -0.11)">
     <defs>
      <path id="DejaVuSans-50" d="M 1259 4147 
L 1259 2394 
L 2053 2394 
Q 2494 2394 2734 2622 
Q 2975 2850 2975 3272 
Q 2975 3691 2734 3919 
Q 2494 4147 2053 4147 
L 1259 4147 
z
M 628 4666 
L 2053 4666 
Q 2838 4666 3239 4311 
Q 3641 3956 3641 3272 
Q 3641 2581 3239 2228 
Q 2838 1875 2053 1875 
L 1259 1875 
L 1259 0 
L 628 0 
L 628 4666 
z
" transform="scale(0.015625)"/>
      <path id="DejaVuSans-70" d="M 1159 525 
L 1159 -1331 
L 581 -1331 
L 581 3500 
L 1159 3500 
L 1159 2969 
Q 1341 3281 1617 3432 
Q 1894 3584 2278 3584 
Q 2916 3584 3314 3078 
Q 3713 2572 3713 1747 
Q 3713 922 3314 415 
Q 2916 -91 2278 -91 
Q 1894 -91 1617 61 
Q 1341 213 1159 525 
z
M 3116 1747 
Q 3116 2381 2855 2742 
Q 2594 3103 2138 3103 
Q 1681 3103 1420 2742 
Q 1159 2381 1159 1747 
Q 1159 1113 1420 752 
Q 1681 391 2138 391 
Q 2594 391 2855 752 
Q 3116 1113 3116 1747 
z
" transform="scale(0.015625)"/>
      <path id="DejaVuSans-75" d="M 544 1381 
L 544 3500 
L 1119 3500 
L 1119 1403 
Q 1119 906 1312 657 
Q 1506 409 1894 409 
Q 2359 409 2629 706 
Q 2900 1003 2900 1516 
L 2900 3500 
L 3475 3500 
L 3475 0 
L 2900 0 
L 2900 538 
Q 2691 219 2414 64 
Q 2138 -91 1772 -91 
Q 1169 -91 856 284 
Q 544 659 544 1381 
z
M 1991 3584 
L 1991 3584 
z
" transform="scale(0.015625)"/>
     </defs>
     <use xlink:href="#DejaVuSans-50"/>
     <use xlink:href="#DejaVuSans-65" transform="translate(56.677734 0)"/>
     <use xlink:href="#DejaVuSans-72" transform="translate(118.201172 0)"/>
     <use xlink:href="#DejaVuSans-70" transform="translate(159.314453 0)"/>
     <use xlink:href="#DejaVuSans-65" transform="translate(222.791016 0)"/>
     <use xlink:href="#DejaVuSans-6e" transform="translate(284.314453 0)"/>
     <use xlink:href="#DejaVuSans-64" transform="translate(347.693359 0)"/>
     <use xlink:href="#DejaVuSans-69" transform="translate(411.169922 0)"/>
     <use xlink:href="#DejaVuSans-63" transform="translate(438.953125 0)"/>
     <use xlink:href="#DejaVuSans-75" transform="translate(493.933594 0)"/>
     <use xlink:href="#DejaVuSans-6c" transform="translate(557.3125 0)"/>
     <use xlink:href="#DejaVuSans-61" transform="translate(585.095703 0)"/>
     <use xlink:href="#DejaVuSans-72" transform="translate(646.375 0)"/>
    </g>
    <!-- cos θ = +0.00 -->
    <g style="fill: #e0e0e0" transform="translate(439.446953 65.96) scale(0.11 -0.11)">
     <use xlink:href="#DejaVuSans-63"/>
     <use xlink:href="#DejaVuSans-6f" transform="translate(54.980469 0)"/>
     <use xlink:href="#DejaVuSans-73" transform="translate(116.162109 0)"/>
     <use xlink:href="#DejaVuSans-20" transform="translate(168.261719 0)"/>
     <use xlink:href="#DejaVuSans-3b8" transform="translate(200.048828 0)"/>
     <use xlink:href="#DejaVuSans-20" transform="translate(261.230469 0)"/>
     <use xlink:href="#DejaVuSans-3d" transform="translate(293.017578 0)"/>
     <use xlink:href="#DejaVuSans-20" transform="translate(376.806641 0)"/>
     <use xlink:href="#DejaVuSans-2b" transform="translate(408.59375 0)"/>
     <use xlink:href="#DejaVuSans-30" transform="translate(492.382812 0)"/>
     <use xlink:href="#DejaVuSans-2e" transform="translate(556.005859 0)"/>
     <use xlink:href="#DejaVuSans-30" transform="translate(587.792969 0)"/>
     <use xlink:href="#DejaVuSans-30" transform="translate(651.416016 0)"/>
    </g>
   </g>
  </g>
  <g id="axes_3">
   <g id="patch_16">
    <path d="M 652.854531 340.6 
L 921.494531 340.6 
L 921.494531 71.96 
L 652.854531 71.96 
z
" style="fill: #1a1a2e"/>
   </g>
   <g id="matplotlib.axis_5">
    <g id="xtick_11">
     <g id="line2d_29">
      <g>
       <use xlink:href="#mfc645e43d3" x="691.231674" y="340.6" style="fill: #e0e0e0; stroke: #e0e0e0; stroke-width: 0.8"/>
      </g>
     </g>
     <g id="text_31">
      <!-- −1.0 -->
      <g style="fill: #e0e0e0" transform="translate(680.304408 354.438594) scale(0.09 -0.09)">
       <use xlink:href="#DejaVuSans-2212"/>
       <use xlink:href="#DejaVuSans-31" transform="translate(83.789062 0)"/>
       <use xlink:href="#DejaVuSans-2e" transform="translate(147.412109 0)"/>
       <use xlink:href="#DejaVuSans-30" transform="translate(179.199219 0)"/>
      </g>
     </g>
    </g>
    <g id="xtick_12">
     <g id="line2d_30">
      <g>
       <use xlink:href="#mfc645e43d3" x="739.203103" y="340.6" style="fill: #e0e0e0; stroke: #e0e0e0; stroke-width: 0.8"/>
      </g>
     </g>
     <g id="text_32">
      <!-- −0.5 -->
      <g style="fill: #e0e0e0" transform="translate(728.275837 354.438594) scale(0.09 -0.09)">
       <use xlink:href="#DejaVuSans-2212"/>
       <use xlink:href="#DejaVuSans-30" transform="translate(83.789062 0)"/>
       <use xlink:href="#DejaVuSans-2e" transform="translate(147.412109 0)"/>
       <use xlink:href="#DejaVuSans-35" transform="translate(179.199219 0)"/>
      </g>
     </g>
    </g>
    <g id="xtick_13">
     <g id="line2d_31">
      <g>
       <use xlink:href="#mfc645e43d3" x="787.174531" y="340.6" style="fill: #e0e0e0; stroke: #e0e0e0; stroke-width: 0.8"/>
      </g>
     </g>
     <g id="text_33">
      <!-- 0.0 -->
      <g style="fill: #e0e0e0" transform="translate(780.018125 354.438594) scale(0.09 -0.09)">
       <use xlink:href="#DejaVuSans-30"/>
       <use xlink:href="#DejaVuSans-2e" transform="translate(63.623047 0)"/>
       <use xlink:href="#DejaVuSans-30" transform="translate(95.410156 0)"/>
      </g>
     </g>
    </g>
    <g id="xtick_14">
     <g id="line2d_32">
      <g>
       <use xlink:href="#mfc645e43d3" x="835.14596" y="340.6" style="fill: #e0e0e0; stroke: #e0e0e0; stroke-width: 0.8"/>
      </g>
     </g>
     <g id="text_34">
      <!-- 0.5 -->
      <g style="fill: #e0e0e0" transform="translate(827.989554 354.438594) scale(0.09 -0.09)">
       <use xlink:href="#DejaVuSans-30"/>
       <use xlink:href="#DejaVuSans-2e" transform="translate(63.623047 0)"/>
       <use xlink:href="#DejaVuSans-35" transform="translate(95.410156 0)"/>
      </g>
     </g>
    </g>
    <g id="xtick_15">
     <g id="line2d_33">
      <g>
       <use xlink:href="#mfc645e43d3" x="883.117388" y="340.6" style="fill: #e0e0e0; stroke: #e0e0e0; stroke-width: 0.8"/>
      </g>
     </g>
     <g id="text_35">
      <!-- 1.0 -->
      <g style="fill: #e0e0e0" transform="translate(875.960982 354.438594) scale(0.09 -0.09)">
       <use xlink:href="#DejaVuSans-31"/>
       <use xlink:href="#DejaVuSans-2e" transform="translate(63.623047 0)"/>
       <use xlink:href="#DejaVuSans-30" transform="translate(95.410156 0)"/>
      </g>
     </g>
    </g>
   </g>
   <g id="matplotlib.axis_6">
    <g id="ytick_11">
     <g id="line2d_34">
      <g>
       <use xlink:href="#m6a052b746b" x="652.854531" y="302.222857" style="fill: #e0e0e0; stroke: #e0e0e0; stroke-width: 0.8"/>
      </g>
     </g>
     <g id="text_36">
      <!-- −1.0 -->
      <g style="fill: #e0e0e0" transform="translate(624 305.642154) scale(0.09 -0.09)">
       <use xlink:href="#DejaVuSans-2212"/>
       <use xlink:href="#DejaVuSans-31" transform="translate(83.789062 0)"/>
       <use xlink:href="#DejaVuSans-2e" transform="translate(147.412109 0)"/>
       <use xlink:href="#DejaVuSans-30" transform="translate(179.199219 0)"/>
      </g>
     </g>
    </g>
    <g id="ytick_12">
     <g id="line2d_35">
      <g>
       <use xlink:href="#m6a052b746b" x="652.854531" y="254.251429" style="fill: #e0e0e0; stroke: #e0e0e0; stroke-width: 0.8"/>
      </g>
     </g>
     <g id="text_37">
      <!-- −0.5 -->
      <g style="fill: #e0e0e0" transform="translate(624 257.670725) scale(0.09 -0.09)">
       <use xlink:href="#DejaVuSans-2212"/>
       <use xlink:href="#DejaVuSans-30" transform="translate(83.789062 0)"/>
       <use xlink:href="#DejaVuSans-2e" transform="translate(147.412109 0)"/>
       <use xlink:href="#DejaVuSans-35" transform="translate(179.199219 0)"/>
      </g>
     </g>
    </g>
    <g id="ytick_13">
     <g id="line2d_36">
      <g>
       <use xlink:href="#m6a052b746b" x="652.854531" y="206.28" style="fill: #e0e0e0; stroke: #e0e0e0; stroke-width: 0.8"/>
      </g>
     </g>
     <g id="text_38">
      <!-- 0.0 -->
      <g style="fill: #e0e0e0" transform="translate(631.541719 209.699297) scale(0.09 -0.09)">
       <use xlink:href="#DejaVuSans-30"/>
       <use xlink:href="#DejaVuSans-2e" transform="translate(63.623047 0)"/>
       <use xlink:href="#DejaVuSans-30" transform="translate(95.410156 0)"/>
      </g>
     </g>
    </g>
    <g id="ytick_14">
     <g id="line2d_37">
      <g>
       <use xlink:href="#m6a052b746b" x="652.854531" y="158.308571" style="fill: #e0e0e0; stroke: #e0e0e0; stroke-width: 0.8"/>
      </g>
     </g>
     <g id="text_39">
      <!-- 0.5 -->
      <g style="fill: #e0e0e0" transform="translate(631.541719 161.727868) scale(0.09 -0.09)">
       <use xlink:href="#DejaVuSans-30"/>
       <use xlink:href="#DejaVuSans-2e" transform="translate(63.623047 0)"/>
       <use xlink:href="#DejaVuSans-35" transform="translate(95.410156 0)"/>
      </g>
     </g>
    </g>
    <g id="ytick_15">
     <g id="line2d_38">
      <g>
       <use xlink:href="#m6a052b746b" x="652.854531" y="110.337143" style="fill: #e0e0e0; stroke: #e0e0e0; stroke-width: 0.8"/>
      </g>
     </g>
     <g id="text_40">
      <!-- 1.0 -->
      <g style="fill: #e0e0e0" transform="translate(631.541719 113.75644) scale(0.09 -0.09)">
       <use xlink:href="#DejaVuSans-31"/>
       <use xlink:href="#DejaVuSans-2e" transform="translate(63.623047 0)"/>
       <use xlink:href="#DejaVuSans-30" transform="translate(95.410156 0)"/>
      </g>
     </g>
    </g>
   </g>
   <g id="line2d_39">
    <path d="M 652.854531 206.28 
L 921.494531 206.28 
" clip-path="url(#pce8e5b6b73)" style="fill: none; stroke: #555577; stroke-width: 0.5; stroke-linecap: square"/>
   </g>
   <g id="line2d_40">
    <path d="M 787.174531 340.6 
L 787.174531 71.96 
" clip-path="url(#pce8e5b6b73)" style="fill: none; stroke: #555577; stroke-width: 0.5; stroke-linecap: square"/>
   </g>
   <g id="line2d_41">
    <path d="M 883.117388 206.28 
L 882.92616 200.225465 
L 882.353238 194.195066 
L 881.400905 188.212841 
L 880.072959 182.302636 
L 878.374692 176.488013 
L 876.312875 170.792149 
L 873.895726 165.23775 
L 871.13288 159.846957 
L 868.035353 154.641261 
L 864.61549 149.641411 
L 860.886925 144.86734 
L 856.864521 140.338077 
L 852.564311 136.071678 
L 848.00344 132.08515 
L 843.200086 128.394385 
L 838.173398 125.014094 
L 832.943413 121.957753 
L 827.53098 119.237546 
L 821.957675 116.864315 
L 816.245714 114.847521 
L 810.417867 113.195204 
L 804.497364 111.913951 
L 798.507808 111.008868 
L 792.473074 110.483563 
L 786.417219 110.340132 
L 780.364383 110.579145 
L 774.338693 111.199649 
L 768.364171 112.199172 
L 762.464633 113.573729 
L 756.663596 115.317839 
L 750.984184 117.424552 
L 745.449038 119.885469 
L 740.080221 122.690779 
L 734.899137 125.829301 
L 729.926437 129.288523 
L 725.181945 133.054655 
L 720.684574 137.112686 
L 716.452251 141.446437 
L 712.501848 146.038634 
L 708.849112 150.870971 
L 705.508604 155.924184 
L 702.493641 161.17813 
L 699.81624 166.611866 
L 697.487076 172.203731 
L 695.515431 177.931433 
L 693.909167 183.772141 
L 692.674686 189.702572 
L 691.816909 195.699086 
L 691.339256 201.737778 
L 691.24363 207.794577 
L 691.530412 213.845338 
L 692.198461 219.865942 
L 693.245111 225.832388 
L 694.666192 231.720893 
L 696.456038 237.507983 
L 698.607515 243.170588 
L 701.112046 248.686138 
L 703.959647 254.032643 
L 707.138968 259.188793 
L 710.637333 264.134033 
L 714.440798 268.848649 
L 718.534201 273.313849 
L 722.901225 277.511832 
L 727.524461 281.425864 
L 732.385479 285.040343 
L 737.464903 288.34086 
L 742.742484 291.314258 
L 748.197184 293.948685 
L 753.807259 296.233638 
L 759.550346 298.16001 
L 765.403551 299.720121 
L 771.343542 300.907753 
L 777.34664 301.71817 
L 783.388914 302.148144 
L 789.446279 302.195958 
L 795.494588 301.861423 
L 801.509731 301.145873 
L 807.46773 300.05216 
L 813.344834 298.584643 
L 819.117615 296.749173 
L 824.763062 294.553066 
L 830.25867 292.005077 
L 835.582533 289.115362 
L 840.713426 285.895442 
L 845.630898 282.358151 
L 850.315346 278.51759 
L 854.748095 274.389069 
L 858.911477 269.989045 
L 862.788894 265.335058 
L 866.364891 260.445661 
L 869.625211 255.340343 
L 872.556858 250.039456 
L 875.148147 244.564132 
L 877.388747 238.936195 
L 879.269727 233.178082 
L 880.783588 227.312744 
L 881.924296 221.363564 
L 882.687304 215.354257 
L 883.069569 209.308777 
L 883.117388 206.28 
L 883.117388 206.28 
" clip-path="url(#pce8e5b6b73)" style="fill: none; stroke: #555577; stroke-opacity: 0.5; stroke-width: 0.8; stroke-linecap: square"/>
   </g>
   <g id="line2d_42">
    <path d="M 817.876246 206.28 
L 817.840998 204.809257 
L 817.735336 203.341891 
L 817.559502 201.881272 
L 817.3139 200.430752 
L 816.999094 198.993663 
L 816.615807 197.573305 
L 816.164919 196.172938 
L 815.647465 194.795779 
L 815.064633 193.444989 
L 814.417761 192.12367 
L 813.708336 190.834855 
L 812.937985 189.581505 
L 812.108478 188.366497 
L 811.221719 187.192621 
L 810.279744 186.062572 
L 809.284717 184.978945 
L 808.238921 183.944228 
L 807.144759 182.960797 
L 806.004743 182.03091 
L 804.82149 181.156702 
L 803.597717 180.340181 
L 802.336234 179.583221 
L 801.039938 178.88756 
L 799.711805 178.254797 
L 798.354885 177.686383 
L 796.972293 177.183624 
L 795.567204 176.747674 
L 794.142845 176.379534 
L 792.702485 176.08005 
L 791.249432 175.849909 
L 789.787023 175.68964 
L 788.318615 175.59961 
L 786.847581 175.580027 
L 785.377296 175.630935 
L 783.911139 175.752217 
L 782.452475 175.943595 
L 781.004653 176.20463 
L 779.570998 176.534722 
L 778.154802 176.933114 
L 776.759317 177.398889 
L 775.387746 177.93098 
L 774.043239 178.528164 
L 772.728883 179.189069 
L 771.447697 179.91218 
L 770.202622 180.695834 
L 768.996516 181.538233 
L 767.83215 182.437443 
L 766.712196 183.391398 
L 765.639227 184.397909 
L 764.615705 185.454664 
L 763.643982 186.559237 
L 762.726288 187.709091 
L 761.864731 188.901586 
L 761.061288 190.133985 
L 760.317805 191.403458 
L 759.635989 192.707088 
L 759.017404 194.041885 
L 758.463473 195.404781 
L 757.975466 196.792649 
" clip-path="url(#pce8e5b6b73)" style="fill: none; stroke: #ffcc00; stroke-width: 1.5; stroke-linecap: square"/>
   </g>
   <g id="patch_17">
    <path d="M 652.854531 340.6 
L 652.854531 71.96 
" style="fill: none; stroke: #555577; stroke-width: 0.8; stroke-linejoin: miter; stroke-linecap: square"/>
   </g>
   <g id="patch_18">
    <path d="M 921.494531 340.6 
L 921.494531 71.96 
" style="fill: none; stroke: #555577; stroke-width: 0.8; stroke-linejoin: miter; stroke-linecap: square"/>
   </g>
   <g id="patch_19">
    <path d="M 652.854531 340.6 
L 921.494531 340.6 
" style="fill: none; stroke: #555577; stroke-width: 0.8; stroke-linejoin: miter; stroke-linecap: square"/>
   </g>
   <g id="patch_20">
    <path d="M 652.854531 71.96 
L 921.494531 71.96 
" style="fill: none; stroke: #555577; stroke-width: 0.8; stroke-linejoin: miter; stroke-linecap: square"/>
   </g>
   <g id="patch_21">
    <path d="M 789.174317 206.28 
Q 835.146733 206.28 878.324064 206.28 
" style="fill: none; stroke: #cc2244; stroke-width: 2.5; stroke-linecap: round"/>
    <path d="M 874.324064 204.28 
L 878.324064 206.28 
L 874.324064 208.28 
" style="fill: none; stroke: #cc2244; stroke-width: 2.5; stroke-linecap: round"/>
   </g>
   <g id="patch_22">
    <path d="M 785.272622 205.662032 
Q 741.550256 191.455774 700.486175 178.113245 
" style="fill: none; stroke: #ffcc00; stroke-width: 2.5; stroke-linecap: round"/>
    <path d="M 703.672367 181.251426 
L 700.486175 178.113245 
L 704.908435 177.4472 
" style="fill: none; stroke: #ffcc00; stroke-width: 2.5; stroke-linecap: round"/>
   </g>
   <g id="text_41">
    <!-- u -->
    <g style="fill: #cc2244" transform="translate(887.914531 201.482857) scale(0.11 -0.11)">
     <use xlink:href="#DejaVuSans-Bold-75"/>
    </g>
   </g>
   <g id="text_42">
    <!-- v -->
    <g style="fill: #ffcc00" transform="translate(700.724595 171.834884) scale(0.11 -0.11)">
     <use xlink:href="#DejaVuSans-Bold-76"/>
    </g>
   </g>
   <g id="text_43">
    <!-- θ -->
    <g style="fill: #ffcc00" transform="translate(790.533148 163.826785) scale(0.11 -0.11)">
     <use xlink:href="#DejaVuSans-3b8"/>
    </g>
   </g>
   <g id="text_44">
    <!-- opposite meaning -->
    <g style="fill: #cc2244" transform="translate(746.675938 331.005714) scale(0.09 -0.09)">
     <defs>
      <path id="DejaVuSans-Oblique-6f" d="M 1625 -91 
Q 1009 -91 651 289 
Q 294 669 294 1325 
Q 294 1706 417 2101 
Q 541 2497 738 2766 
Q 1047 3184 1428 3384 
Q 1809 3584 2291 3584 
Q 2888 3584 3255 3212 
Q 3622 2841 3622 2241 
Q 3622 1825 3500 1412 
Q 3378 1000 3181 728 
Q 2875 309 2494 109 
Q 2113 -91 1625 -91 
z
M 891 1344 
Q 891 869 1089 633 
Q 1288 397 1691 397 
Q 2269 397 2648 901 
Q 3028 1406 3028 2181 
Q 3028 2634 2825 2865 
Q 2622 3097 2228 3097 
Q 1903 3097 1650 2945 
Q 1397 2794 1197 2484 
Q 1050 2253 970 1956 
Q 891 1659 891 1344 
z
" transform="scale(0.015625)"/>
      <path id="DejaVuSans-Oblique-70" d="M 3175 2156 
Q 3175 2616 2975 2859 
Q 2775 3103 2400 3103 
Q 2144 3103 1911 2972 
Q 1678 2841 1497 2591 
Q 1319 2344 1212 1994 
Q 1106 1644 1106 1300 
Q 1106 863 1306 627 
Q 1506 391 1875 391 
Q 2147 391 2380 519 
Q 2613 647 2778 891 
Q 2956 1147 3065 1494 
Q 3175 1841 3175 2156 
z
M 1394 2969 
Q 1625 3272 1939 3428 
Q 2253 3584 2638 3584 
Q 3175 3584 3472 3232 
Q 3769 2881 3769 2247 
Q 3769 1728 3584 1258 
Q 3400 788 3053 416 
Q 2822 169 2531 39 
Q 2241 -91 1919 -91 
Q 1547 -91 1294 64 
Q 1041 219 916 525 
L 556 -1331 
L -19 -1331 
L 922 3500 
L 1497 3500 
L 1394 2969 
z
" transform="scale(0.015625)"/>
      <path id="DejaVuSans-Oblique-67" d="M 3816 3500 
L 3219 434 
Q 3047 -456 2561 -893 
Q 2075 -1331 1253 -1331 
Q 950 -1331 690 -1286 
Q 431 -1241 206 -1147 
L 313 -588 
Q 525 -725 762 -790 
Q 1000 -856 1269 -856 
Q 1816 -856 2167 -557 
Q 2519 -259 2631 300 
L 2681 563 
Q 2441 288 2122 144 
Q 1803 0 1434 0 
Q 903 0 598 351 
Q 294 703 294 1319 
Q 294 1803 478 2267 
Q 663 2731 997 3091 
Q 1219 3328 1514 3456 
Q 1809 3584 2131 3584 
Q 2484 3584 2746 3420 
Q 3009 3256 3138 2956 
L 3238 3500 
L 3816 3500 
z
M 2950 2216 
Q 2950 2641 2750 2872 
Q 2550 3103 2181 3103 
Q 1953 3103 1747 3012 
Q 1541 2922 1394 2759 
Q 1156 2491 1023 2127 
Q 891 1763 891 1375 
Q 891 944 1092 712 
Q 1294 481 1672 481 
Q 2219 481 2584 976 
Q 2950 1472 2950 2216 
z
" transform="scale(0.015625)"/>
     </defs>
     <use xlink:href="#DejaVuSans-Oblique-6f"/>
     <use xlink:href="#DejaVuSans-Oblique-70" transform="translate(61.181641 0)"/>
     <use xlink:href="#DejaVuSans-Oblique-70" transform="translate(124.658203 0)"/>
     <use xlink:href="#DejaVuSans-Oblique-6f" transform="translate(188.134766 0)"/>
     <use xlink:href="#DejaVuSans-Oblique-73" transform="translate(249.316406 0)"/>
     <use xlink:href="#DejaVuSans-Oblique-69" transform="translate(301.416016 0)"/>
     <use xlink:href="#DejaVuSans-Oblique-74" transform="translate(329.199219 0)"/>
     <use xlink:href="#DejaVuSans-Oblique-65" transform="translate(368.408203 0)"/>
     <use xlink:href="#DejaVuSans-Oblique-20" transform="translate(429.931641 0)"/>
     <use xlink:href="#DejaVuSans-Oblique-6d" transform="translate(461.71875 0)"/>
     <use xlink:href="#DejaVuSans-Oblique-65" transform="translate(559.130859 0)"/>
     <use xlink:href="#DejaVuSans-Oblique-61" transform="translate(620.654297 0)"/>
     <use xlink:href="#DejaVuSans-Oblique-6e" transform="translate(681.933594 0)"/>
     <use xlink:href="#DejaVuSans-Oblique-69" transform="translate(745.3125 0)"/>
     <use xlink:href="#DejaVuSans-Oblique-6e" transform="translate(773.095703 0)"/>
     <use xlink:href="#DejaVuSans-Oblique-67" transform="translate(836.474609 0)"/>
    </g>
   </g>
   <g id="text_45">
    <!-- Opposite directions -->
    <g style="fill: #e0e0e0" transform="translate(733.849453 53.642406) scale(0.11 -0.11)">
     <defs>
      <path id="DejaVuSans-4f" d="M 2522 4238 
Q 1834 4238 1429 3725 
Q 1025 3213 1025 2328 
Q 1025 1447 1429 934 
Q 1834 422 2522 422 
Q 3209 422 3611 934 
Q 4013 1447 4013 2328 
Q 4013 3213 3611 3725 
Q 3209 4238 2522 4238 
z
M 2522 4750 
Q 3503 4750 4090 4092 
Q 4678 3434 4678 2328 
Q 4678 1225 4090 567 
Q 3503 -91 2522 -91 
Q 1538 -91 948 565 
Q 359 1222 359 2328 
Q 359 3434 948 4092 
Q 1538 4750 2522 4750 
z
" transform="scale(0.015625)"/>
     </defs>
     <use xlink:href="#DejaVuSans-4f"/>
     <use xlink:href="#DejaVuSans-70" transform="translate(78.710938 0)"/>
     <use xlink:href="#DejaVuSans-70" transform="translate(142.1875 0)"/>
     <use xlink:href="#DejaVuSans-6f" transform="translate(205.664062 0)"/>
     <use xlink:href="#DejaVuSans-73" transform="translate(266.845703 0)"/>
     <use xlink:href="#DejaVuSans-69" transform="translate(318.945312 0)"/>
     <use xlink:href="#DejaVuSans-74" transform="translate(346.728516 0)"/>
     <use xlink:href="#DejaVuSans-65" transform="translate(385.9375 0)"/>
     <use xlink:href="#DejaVuSans-20" transform="translate(447.460938 0)"/>
     <use xlink:href="#DejaVuSans-64" transform="translate(479.248047 0)"/>
     <use xlink:href="#DejaVuSans-69" transform="translate(542.724609 0)"/>
     <use xlink:href="#DejaVuSans-72" transform="translate(570.507812 0)"/>
     <use xlink:href="#DejaVuSans-65" transform="translate(609.371094 0)"/>
     <use xlink:href="#DejaVuSans-63" transform="translate(670.894531 0)"/>
     <use xlink:href="#DejaVuSans-74" transform="translate(725.875 0)"/>
     <use xlink:href="#DejaVuSans-69" transform="translate(765.083984 0)"/>
     <use xlink:href="#DejaVuSans-6f" transform="translate(792.867188 0)"/>
     <use xlink:href="#DejaVuSans-6e" transform="translate(854.048828 0)"/>
     <use xlink:href="#DejaVuSans-73" transform="translate(917.427734 0)"/>
    </g>
    <!-- cos θ = -0.95 -->
    <g style="fill: #e0e0e0" transform="translate(750.471484 65.96) scale(0.11 -0.11)">
     <defs>
      <path id="DejaVuSans-2d" d="M 313 2009 
L 1997 2009 
L 1997 1497 
L 313 1497 
L 313 2009 
z
" transform="scale(0.015625)"/>
     </defs>
     <use xlink:href="#DejaVuSans-63"/>
     <use xlink:href="#DejaVuSans-6f" transform="translate(54.980469 0)"/>
     <use xlink:href="#DejaVuSans-73" transform="translate(116.162109 0)"/>
     <use xlink:href="#DejaVuSans-20" transform="translate(168.261719 0)"/>
     <use xlink:href="#DejaVuSans-3b8" transform="translate(200.048828 0)"/>
     <use xlink:href="#DejaVuSans-20" transform="translate(261.230469 0)"/>
     <use xlink:href="#DejaVuSans-3d" transform="translate(293.017578 0)"/>
     <use xlink:href="#DejaVuSans-20" transform="translate(376.806641 0)"/>
     <use xlink:href="#DejaVuSans-2d" transform="translate(408.59375 0)"/>
     <use xlink:href="#DejaVuSans-30" transform="translate(444.677734 0)"/>
     <use xlink:href="#DejaVuSans-2e" transform="translate(508.300781 0)"/>
     <use xlink:href="#DejaVuSans-39" transform="translate(540.087891 0)"/>
     <use xlink:href="#DejaVuSans-35" transform="translate(603.710938 0)"/>
    </g>
   </g>
  </g>
  <g id="text_46">
   <!-- Cosine Similarity — Angle Between Embedding Vectors = Semantic Distance -->
   <g style="fill: #e0e0e0" transform="translate(214.379687 17.077969) scale(0.13 -0.13)">
    <defs>
     <path id="DejaVuSans-43" d="M 4122 4306 
L 4122 3641 
Q 3803 3938 3442 4084 
Q 3081 4231 2675 4231 
Q 1875 4231 1450 3742 
Q 1025 3253 1025 2328 
Q 1025 1406 1450 917 
Q 1875 428 2675 428 
Q 3081 428 3442 575 
Q 3803 722 4122 1019 
L 4122 359 
Q 3791 134 3420 21 
Q 3050 -91 2638 -91 
Q 1578 -91 968 557 
Q 359 1206 359 2328 
Q 359 3453 968 4101 
Q 1578 4750 2638 4750 
Q 3056 4750 3426 4639 
Q 3797 4528 4122 4306 
z
" transform="scale(0.015625)"/>
     <path id="DejaVuSans-53" d="M 3425 4513 
L 3425 3897 
Q 3066 4069 2747 4153 
Q 2428 4238 2131 4238 
Q 1616 4238 1336 4038 
Q 1056 3838 1056 3469 
Q 1056 3159 1242 3001 
Q 1428 2844 1947 2747 
L 2328 2669 
Q 3034 2534 3370 2195 
Q 3706 1856 3706 1288 
Q 3706 609 3251 259 
Q 2797 -91 1919 -91 
Q 1588 -91 1214 -16 
Q 841 59 441 206 
L 441 856 
Q 825 641 1194 531 
Q 1563 422 1919 422 
Q 2459 422 2753 634 
Q 3047 847 3047 1241 
Q 3047 1584 2836 1778 
Q 2625 1972 2144 2069 
L 1759 2144 
Q 1053 2284 737 2584 
Q 422 2884 422 3419 
Q 422 4038 858 4394 
Q 1294 4750 2059 4750 
Q 2388 4750 2728 4690 
Q 3069 4631 3425 4513 
z
" transform="scale(0.015625)"/>
     <path id="DejaVuSans-2014" d="M 313 1978 
L 6088 1978 
L 6088 1528 
L 313 1528 
L 313 1978 
z
" transform="scale(0.015625)"/>
     <path id="DejaVuSans-41" d="M 2188 4044 
L 1331 1722 
L 3047 1722 
L 2188 4044 
z
M 1831 4666 
L 2547 4666 
L 4325 0 
L 3669 0 
L 3244 1197 
L 1141 1197 
L 716 0 
L 50 0 
L 1831 4666 
z
" transform="scale(0.015625)"/>
     <path id="DejaVuSans-67" d="M 2906 1791 
Q 2906 2416 2648 2759 
Q 2391 3103 1925 3103 
Q 1463 3103 1205 2759 
Q 947 2416 947 1791 
Q 947 1169 1205 825 
Q 1463 481 1925 481 
Q 2391 481 2648 825 
Q 2906 1169 2906 1791 
z
M 3481 434 
Q 3481 -459 3084 -895 
Q 2688 -1331 1869 -1331 
Q 1566 -1331 1297 -1286 
Q 1028 -1241 775 -1147 
L 775 -588 
Q 1028 -725 1275 -790 
Q 1522 -856 1778 -856 
Q 2344 -856 2625 -561 
Q 2906 -266 2906 331 
L 2906 616 
Q 2728 306 2450 153 
Q 2172 0 1784 0 
Q 1141 0 747 490 
Q 353 981 353 1791 
Q 353 2603 747 3093 
Q 1141 3584 1784 3584 
Q 2172 3584 2450 3431 
Q 2728 3278 2906 2969 
L 2906 3500 
L 3481 3500 
L 3481 434 
z
" transform="scale(0.015625)"/>
     <path id="DejaVuSans-42" d="M 1259 2228 
L 1259 519 
L 2272 519 
Q 2781 519 3026 730 
Q 3272 941 3272 1375 
Q 3272 1813 3026 2020 
Q 2781 2228 2272 2228 
L 1259 2228 
z
M 1259 4147 
L 1259 2741 
L 2194 2741 
Q 2656 2741 2882 2914 
Q 3109 3088 3109 3444 
Q 3109 3797 2882 3972 
Q 2656 4147 2194 4147 
L 1259 4147 
z
M 628 4666 
L 2241 4666 
Q 2963 4666 3353 4366 
Q 3744 4066 3744 3513 
Q 3744 3084 3544 2831 
Q 3344 2578 2956 2516 
Q 3422 2416 3680 2098 
Q 3938 1781 3938 1306 
Q 3938 681 3513 340 
Q 3088 0 2303 0 
L 628 0 
L 628 4666 
z
" transform="scale(0.015625)"/>
     <path id="DejaVuSans-77" d="M 269 3500 
L 844 3500 
L 1563 769 
L 2278 3500 
L 2956 3500 
L 3675 769 
L 4391 3500 
L 4966 3500 
L 4050 0 
L 3372 0 
L 2619 2869 
L 1863 0 
L 1184 0 
L 269 3500 
z
" transform="scale(0.015625)"/>
     <path id="DejaVuSans-45" d="M 628 4666 
L 3578 4666 
L 3578 4134 
L 1259 4134 
L 1259 2753 
L 3481 2753 
L 3481 2222 
L 1259 2222 
L 1259 531 
L 3634 531 
L 3634 0 
L 628 0 
L 628 4666 
z
" transform="scale(0.015625)"/>
     <path id="DejaVuSans-62" d="M 3116 1747 
Q 3116 2381 2855 2742 
Q 2594 3103 2138 3103 
Q 1681 3103 1420 2742 
Q 1159 2381 1159 1747 
Q 1159 1113 1420 752 
Q 1681 391 2138 391 
Q 2594 391 2855 752 
Q 3116 1113 3116 1747 
z
M 1159 2969 
Q 1341 3281 1617 3432 
Q 1894 3584 2278 3584 
Q 2916 3584 3314 3078 
Q 3713 2572 3713 1747 
Q 3713 922 3314 415 
Q 2916 -91 2278 -91 
Q 1894 -91 1617 61 
Q 1341 213 1159 525 
L 1159 0 
L 581 0 
L 581 4863 
L 1159 4863 
L 1159 2969 
z
" transform="scale(0.015625)"/>
     <path id="DejaVuSans-56" d="M 1831 0 
L 50 4666 
L 709 4666 
L 2188 738 
L 3669 4666 
L 4325 4666 
L 2547 0 
L 1831 0 
z
" transform="scale(0.015625)"/>
     <path id="DejaVuSans-44" d="M 1259 4147 
L 1259 519 
L 2022 519 
Q 2988 519 3436 956 
Q 3884 1394 3884 2338 
Q 3884 3275 3436 3711 
Q 2988 4147 2022 4147 
L 1259 4147 
z
M 628 4666 
L 1925 4666 
Q 3281 4666 3915 4102 
Q 4550 3538 4550 2338 
Q 4550 1131 3912 565 
Q 3275 0 1925 0 
L 628 0 
L 628 4666 
z
" transform="scale(0.015625)"/>
    </defs>
    <use xlink:href="#DejaVuSans-43"/>
    <use xlink:href="#DejaVuSans-6f" transform="translate(69.824219 0)"/>
    <use xlink:href="#DejaVuSans-73" transform="translate(131.005859 0)"/>
    <use xlink:href="#DejaVuSans-69" transform="translate(183.105469 0)"/>
    <use xlink:href="#DejaVuSans-6e" transform="translate(210.888672 0)"/>
    <use xlink:href="#DejaVuSans-65" transform="translate(274.267578 0)"/>
    <use xlink:href="#DejaVuSans-20" transform="translate(335.791016 0)"/>
    <use xlink:href="#DejaVuSans-53" transform="translate(367.578125 0)"/>
    <use xlink:href="#DejaVuSans-69" transform="translate(431.054688 0)"/>
    <use xlink:href="#DejaVuSans-6d" transform="translate(458.837891 0)"/>
    <use xlink:href="#DejaVuSans-69" transform="translate(556.25 0)"/>
    <use xlink:href="#DejaVuSans-6c" transform="translate(584.033203 0)"/>
    <use xlink:href="#DejaVuSans-61" transform="translate(611.816406 0)"/>
    <use xlink:href="#DejaVuSans-72" transform="translate(673.095703 0)"/>
    <use xlink:href="#DejaVuSans-69" transform="translate(714.208984 0)"/>
    <use xlink:href="#DejaVuSans-74" transform="translate(741.992188 0)"/>
    <use xlink:href="#DejaVuSans-79" transform="translate(781.201172 0)"/>
    <use xlink:href="#DejaVuSans-20" transform="translate(840.380859 0)"/>
    <use xlink:href="#DejaVuSans-2014" transform="translate(872.167969 0)"/>
    <use xlink:href="#DejaVuSans-20" transform="translate(972.167969 0)"/>
    <use xlink:href="#DejaVuSans-41" transform="translate(1003.955078 0)"/>
    <use xlink:href="#DejaVuSans-6e" transform="translate(1072.363281 0)"/>
    <use xlink:href="#DejaVuSans-67" transform="translate(1135.742188 0)"/>
    <use xlink:href="#DejaVuSans-6c" transform="translate(1199.21875 0)"/>
    <use xlink:href="#DejaVuSans-65" transform="translate(1227.001953 0)"/>
    <use xlink:href="#DejaVuSans-20" transform="translate(1288.525391 0)"/>
    <use xlink:href="#DejaVuSans-42" transform="translate(1320.3125 0)"/>
    <use xlink:href="#DejaVuSans-65" transform="translate(1388.916016 0)"/>
    <use xlink:href="#DejaVuSans-74" transform="translate(1450.439453 0)"/>
    <use xlink:href="#DejaVuSans-77" transform="translate(1489.648438 0)"/>
    <use xlink:href="#DejaVuSans-65" transform="translate(1571.435547 0)"/>
    <use xlink:href="#DejaVuSans-65" transform="translate(1632.958984 0)"/>
    <use xlink:href="#DejaVuSans-6e" transform="translate(1694.482422 0)"/>
    <use xlink:href="#DejaVuSans-20" transform="translate(1757.861328 0)"/>
    <use xlink:href="#DejaVuSans-45" transform="translate(1789.648438 0)"/>
    <use xlink:href="#DejaVuSans-6d" transform="translate(1852.832031 0)"/>
    <use xlink:href="#DejaVuSans-62" transform="translate(1950.244141 0)"/>
    <use xlink:href="#DejaVuSans-65" transform="translate(2013.720703 0)"/>
    <use xlink:href="#DejaVuSans-64" transform="translate(2075.244141 0)"/>
    <use xlink:href="#DejaVuSans-64" transform="translate(2138.720703 0)"/>
    <use xlink:href="#DejaVuSans-69" transform="translate(2202.197266 0)"/>
    <use xlink:href="#DejaVuSans-6e" transform="translate(2229.980469 0)"/>
    <use xlink:href="#DejaVuSans-67" transform="translate(2293.359375 0)"/>
    <use xlink:href="#DejaVuSans-20" transform="translate(2356.835938 0)"/>
    <use xlink:href="#DejaVuSans-56" transform="translate(2388.623047 0)"/>
    <use xlink:href="#DejaVuSans-65" transform="translate(2449.28125 0)"/>
    <use xlink:href="#DejaVuSans-63" transform="translate(2510.804688 0)"/>
    <use xlink:href="#DejaVuSans-74" transform="translate(2565.785156 0)"/>
    <use xlink:href="#DejaVuSans-6f" transform="translate(2604.994141 0)"/>
    <use xlink:href="#DejaVuSans-72" transform="translate(2666.175781 0)"/>
    <use xlink:href="#DejaVuSans-73" transform="translate(2707.289062 0)"/>
    <use xlink:href="#DejaVuSans-20" transform="translate(2759.388672 0)"/>
    <use xlink:href="#DejaVuSans-3d" transform="translate(2791.175781 0)"/>
    <use xlink:href="#DejaVuSans-20" transform="translate(2874.964844 0)"/>
    <use xlink:href="#DejaVuSans-53" transform="translate(2906.751953 0)"/>
    <use xlink:href="#DejaVuSans-65" transform="translate(2970.228516 0)"/>
    <use xlink:href="#DejaVuSans-6d" transform="translate(3031.751953 0)"/>
    <use xlink:href="#DejaVuSans-61" transform="translate(3129.164062 0)"/>
    <use xlink:href="#DejaVuSans-6e" transform="translate(3190.443359 0)"/>
    <use xlink:href="#DejaVuSans-74" transform="translate(3253.822266 0)"/>
    <use xlink:href="#DejaVuSans-69" transform="translate(3293.03125 0)"/>
    <use xlink:href="#DejaVuSans-63" transform="translate(3320.814453 0)"/>
    <use xlink:href="#DejaVuSans-20" transform="translate(3375.794922 0)"/>
    <use xlink:href="#DejaVuSans-44" transform="translate(3407.582031 0)"/>
    <use xlink:href="#DejaVuSans-69" transform="translate(3484.583984 0)"/>
    <use xlink:href="#DejaVuSans-73" transform="translate(3512.367188 0)"/>
    <use xlink:href="#DejaVuSans-74" transform="translate(3564.466797 0)"/>
    <use xlink:href="#DejaVuSans-61" transform="translate(3603.675781 0)"/>
    <use xlink:href="#DejaVuSans-6e" transform="translate(3664.955078 0)"/>
    <use xlink:href="#DejaVuSans-63" transform="translate(3728.333984 0)"/>
    <use xlink:href="#DejaVuSans-65" transform="translate(3783.314453 0)"/>
   </g>
  </g>
  <g id="text_47">
   <!-- Formula:  cos(θ) = u · v  (dot product of unit vectors) -->
   <g style="fill: #e0e0e0; opacity: 0.85" transform="translate(338.377969 378.162078) scale(0.095 -0.095)">
    <defs>
     <path id="DejaVuSans-46" d="M 628 4666 
L 3309 4666 
L 3309 4134 
L 1259 4134 
L 1259 2759 
L 3109 2759 
L 3109 2228 
L 1259 2228 
L 1259 0 
L 628 0 
L 628 4666 
z
" transform="scale(0.015625)"/>
     <path id="DejaVuSans-3a" d="M 750 794 
L 1409 794 
L 1409 0 
L 750 0 
L 750 794 
z
M 750 3309 
L 1409 3309 
L 1409 2516 
L 750 2516 
L 750 3309 
z
" transform="scale(0.015625)"/>
     <path id="DejaVuSans-28" d="M 1984 4856 
Q 1566 4138 1362 3434 
Q 1159 2731 1159 2009 
Q 1159 1288 1364 580 
Q 1569 -128 1984 -844 
L 1484 -844 
Q 1016 -109 783 600 
Q 550 1309 550 2009 
Q 550 2706 781 3412 
Q 1013 4119 1484 4856 
L 1984 4856 
z
" transform="scale(0.015625)"/>
     <path id="DejaVuSans-29" d="M 513 4856 
L 1013 4856 
Q 1481 4119 1714 3412 
Q 1947 2706 1947 2009 
Q 1947 1309 1714 600 
Q 1481 -109 1013 -844 
L 513 -844 
Q 928 -128 1133 580 
Q 1338 1288 1338 2009 
Q 1338 2731 1133 3434 
Q 928 4138 513 4856 
z
" transform="scale(0.015625)"/>
     <path id="DejaVuSans-b7" d="M 684 2619 
L 1344 2619 
L 1344 1825 
L 684 1825 
L 684 2619 
z
" transform="scale(0.015625)"/>
     <path id="DejaVuSans-76" d="M 191 3500 
L 800 3500 
L 1894 563 
L 2988 3500 
L 3597 3500 
L 2284 0 
L 1503 0 
L 191 3500 
z
" transform="scale(0.015625)"/>
     <path id="DejaVuSans-66" d="M 2375 4863 
L 2375 4384 
L 1825 4384 
Q 1516 4384 1395 4259 
Q 1275 4134 1275 3809 
L 1275 3500 
L 2222 3500 
L 2222 3053 
L 1275 3053 
L 1275 0 
L 697 0 
L 697 3053 
L 147 3053 
L 147 3500 
L 697 3500 
L 697 3744 
Q 697 4328 969 4595 
Q 1241 4863 1831 4863 
L 2375 4863 
z
" transform="scale(0.015625)"/>
    </defs>
    <use xlink:href="#DejaVuSans-46"/>
    <use xlink:href="#DejaVuSans-6f" transform="translate(53.894531 0)"/>
    <use xlink:href="#DejaVuSans-72" transform="translate(115.076172 0)"/>
    <use xlink:href="#DejaVuSans-6d" transform="translate(154.439453 0)"/>
    <use xlink:href="#DejaVuSans-75" transform="translate(251.851562 0)"/>
    <use xlink:href="#DejaVuSans-6c" transform="translate(315.230469 0)"/>
    <use xlink:href="#DejaVuSans-61" transform="translate(343.013672 0)"/>
    <use xlink:href="#DejaVuSans-3a" transform="translate(404.292969 0)"/>
    <use xlink:href="#DejaVuSans-20" transform="translate(437.984375 0)"/>
    <use xlink:href="#DejaVuSans-20" transform="translate(469.771484 0)"/>
    <use xlink:href="#DejaVuSans-63" transform="translate(501.558594 0)"/>
    <use xlink:href="#DejaVuSans-6f" transform="translate(556.539062 0)"/>
    <use xlink:href="#DejaVuSans-73" transform="translate(617.720703 0)"/>
    <use xlink:href="#DejaVuSans-28" transform="translate(669.820312 0)"/>
    <use xlink:href="#DejaVuSans-3b8" transform="translate(708.833984 0)"/>
    <use xlink:href="#DejaVuSans-29" transform="translate(770.015625 0)"/>
    <use xlink:href="#DejaVuSans-20" transform="translate(809.029297 0)"/>
    <use xlink:href="#DejaVuSans-3d" transform="translate(840.816406 0)"/>
    <use xlink:href="#DejaVuSans-20" transform="translate(924.605469 0)"/>
    <use xlink:href="#DejaVuSans-75" transform="translate(956.392578 0)"/>
    <use xlink:href="#DejaVuSans-20" transform="translate(1019.771484 0)"/>
    <use xlink:href="#DejaVuSans-b7" transform="translate(1051.558594 0)"/>
    <use xlink:href="#DejaVuSans-20" transform="translate(1083.345703 0)"/>
    <use xlink:href="#DejaVuSans-76" transform="translate(1115.132812 0)"/>
    <use xlink:href="#DejaVuSans-20" transform="translate(1174.3125 0)"/>
    <use xlink:href="#DejaVuSans-20" transform="translate(1206.099609 0)"/>
    <use xlink:href="#DejaVuSans-28" transform="translate(1237.886719 0)"/>
    <use xlink:href="#DejaVuSans-64" transform="translate(1276.900391 0)"/>
    <use xlink:href="#DejaVuSans-6f" transform="translate(1340.376953 0)"/>
    <use xlink:href="#DejaVuSans-74" transform="translate(1401.558594 0)"/>
    <use xlink:href="#DejaVuSans-20" transform="translate(1440.767578 0)"/>
    <use xlink:href="#DejaVuSans-70" transform="translate(1472.554688 0)"/>
    <use xlink:href="#DejaVuSans-72" transform="translate(1536.03125 0)"/>
    <use xlink:href="#DejaVuSans-6f" transform="translate(1574.894531 0)"/>
    <use xlink:href="#DejaVuSans-64" transform="translate(1636.076172 0)"/>
    <use xlink:href="#DejaVuSans-75" transform="translate(1699.552734 0)"/>
    <use xlink:href="#DejaVuSans-63" transform="translate(1762.931641 0)"/>
    <use xlink:href="#DejaVuSans-74" transform="translate(1817.912109 0)"/>
    <use xlink:href="#DejaVuSans-20" transform="translate(1857.121094 0)"/>
    <use xlink:href="#DejaVuSans-6f" transform="translate(1888.908203 0)"/>
    <use xlink:href="#DejaVuSans-66" transform="translate(1950.089844 0)"/>
    <use xlink:href="#DejaVuSans-20" transform="translate(1985.294922 0)"/>
    <use xlink:href="#DejaVuSans-75" transform="translate(2017.082031 0)"/>
    <use xlink:href="#DejaVuSans-6e" transform="translate(2080.460938 0)"/>
    <use xlink:href="#DejaVuSans-69" transform="translate(2143.839844 0)"/>
    <use xlink:href="#DejaVuSans-74" transform="translate(2171.623047 0)"/>
    <use xlink:href="#DejaVuSans-20" transform="translate(2210.832031 0)"/>
    <use xlink:href="#DejaVuSans-76" transform="translate(2242.619141 0)"/>
    <use xlink:href="#DejaVuSans-65" transform="translate(2301.798828 0)"/>
    <use xlink:href="#DejaVuSans-63" transform="translate(2363.322266 0)"/>
    <use xlink:href="#DejaVuSans-74" transform="translate(2418.302734 0)"/>
    <use xlink:href="#DejaVuSans-6f" transform="translate(2457.511719 0)"/>
    <use xlink:href="#DejaVuSans-72" transform="translate(2518.693359 0)"/>
    <use xlink:href="#DejaVuSans-73" transform="translate(2559.806641 0)"/>
    <use xlink:href="#DejaVuSans-29" transform="translate(2611.90625 0)"/>
   </g>
   <!-- bge-m3 encodes documents into unit vectors — angle between them = how different they are. -->
   <g style="fill: #e0e0e0; opacity: 0.85" transform="translate(237.984492 388.8) scale(0.095 -0.095)">
    <defs>
     <path id="DejaVuSans-33" d="M 2597 2516 
Q 3050 2419 3304 2112 
Q 3559 1806 3559 1356 
Q 3559 666 3084 287 
Q 2609 -91 1734 -91 
Q 1441 -91 1130 -33 
Q 819 25 488 141 
L 488 750 
Q 750 597 1062 519 
Q 1375 441 1716 441 
Q 2309 441 2620 675 
Q 2931 909 2931 1356 
Q 2931 1769 2642 2001 
Q 2353 2234 1838 2234 
L 1294 2234 
L 1294 2753 
L 1863 2753 
Q 2328 2753 2575 2939 
Q 2822 3125 2822 3475 
Q 2822 3834 2567 4026 
Q 2313 4219 1838 4219 
Q 1578 4219 1281 4162 
Q 984 4106 628 3988 
L 628 4550 
Q 988 4650 1302 4700 
Q 1616 4750 1894 4750 
Q 2613 4750 3031 4423 
Q 3450 4097 3450 3541 
Q 3450 3153 3228 2886 
Q 3006 2619 2597 2516 
z
" transform="scale(0.015625)"/>
    </defs>
    <use xlink:href="#DejaVuSans-62"/>
    <use xlink:href="#DejaVuSans-67" transform="translate(63.476562 0)"/>
    <use xlink:href="#DejaVuSans-65" transform="translate(126.953125 0)"/>
    <use xlink:href="#DejaVuSans-2d" transform="translate(188.476562 0)"/>
    <use xlink:href="#DejaVuSans-6d" transform="translate(224.560547 0)"/>
    <use xlink:href="#DejaVuSans-33" transform="translate(321.972656 0)"/>
    <use xlink:href="#DejaVuSans-20" transform="translate(385.595703 0)"/>
    <use xlink:href="#DejaVuSans-65" transform="translate(417.382812 0)"/>
    <use xlink:href="#DejaVuSans-6e" transform="translate(478.90625 0)"/>
    <use xlink:href="#DejaVuSans-63" transform="translate(542.285156 0)"/>
    <use xlink:href="#DejaVuSans-6f" transform="translate(597.265625 0)"/>
    <use xlink:href="#DejaVuSans-64" transform="translate(658.447266 0)"/>
    <use xlink:href="#DejaVuSans-65" transform="translate(721.923828 0)"/>
    <use xlink:href="#DejaVuSans-73" transform="translate(783.447266 0)"/>
    <use xlink:href="#DejaVuSans-20" transform="translate(835.546875 0)"/>
    <use xlink:href="#DejaVuSans-64" transform="translate(867.333984 0)"/>
    <use xlink:href="#DejaVuSans-6f" transform="translate(930.810547 0)"/>
    <use xlink:href="#DejaVuSans-63" transform="translate(991.992188 0)"/>
    <use xlink:href="#DejaVuSans-75" transform="translate(1046.972656 0)"/>
    <use xlink:href="#DejaVuSans-6d" transform="translate(1110.351562 0)"/>
    <use xlink:href="#DejaVuSans-65" transform="translate(1207.763672 0)"/>
    <use xlink:href="#DejaVuSans-6e" transform="translate(1269.287109 0)"/>
    <use xlink:href="#DejaVuSans-74" transform="translate(1332.666016 0)"/>
    <use xlink:href="#DejaVuSans-73" transform="translate(1371.875 0)"/>
    <use xlink:href="#DejaVuSans-20" transform="translate(1423.974609 0)"/>
    <use xlink:href="#DejaVuSans-69" transform="translate(1455.761719 0)"/>
    <use xlink:href="#DejaVuSans-6e" transform="translate(1483.544922 0)"/>
    <use xlink:href="#DejaVuSans-74" transform="translate(1546.923828 0)"/>
    <use xlink:href="#DejaVuSans-6f" transform="translate(1586.132812 0)"/>
    <use xlink:href="#DejaVuSans-20" transform="translate(1647.314453 0)"/>
    <use xlink:href="#DejaVuSans-75" transform="translate(1679.101562 0)"/>
    <use xlink:href="#DejaVuSans-6e" transform="translate(1742.480469 0)"/>
    <use xlink:href="#DejaVuSans-69" transform="translate(1805.859375 0)"/>
    <use xlink:href="#DejaVuSans-74" transform="translate(1833.642578 0)"/>
    <use xlink:href="#DejaVuSans-20" transform="translate(1872.851562 0)"/>
    <use xlink:href="#DejaVuSans-76" transform="translate(1904.638672 0)"/>
    <use xlink:href="#DejaVuSans-65" transform="translate(1963.818359 0)"/>
    <use xlink:href="#DejaVuSans-63" transform="translate(2025.341797 0)"/>
    <use xlink:href="#DejaVuSans-74" transform="translate(2080.322266 0)"/>
    <use xlink:href="#DejaVuSans-6f" transform="translate(2119.53125 0)"/>
    <use xlink:href="#DejaVuSans-72" transform="translate(2180.712891 0)"/>
    <use xlink:href="#DejaVuSans-73" transform="translate(2221.826172 0)"/>
    <use xlink:href="#DejaVuSans-20" transform="translate(2273.925781 0)"/>
    <use xlink:href="#DejaVuSans-2014" transform="translate(2305.712891 0)"/>
    <use xlink:href="#DejaVuSans-20" transform="translate(2405.712891 0)"/>
    <use xlink:href="#DejaVuSans-61" transform="translate(2437.5 0)"/>
    <use xlink:href="#DejaVuSans-6e" transform="translate(2498.779297 0)"/>
    <use xlink:href="#DejaVuSans-67" transform="translate(2562.158203 0)"/>
    <use xlink:href="#DejaVuSans-6c" transform="translate(2625.634766 0)"/>
    <use xlink:href="#DejaVuSans-65" transform="translate(2653.417969 0)"/>
    <use xlink:href="#DejaVuSans-20" transform="translate(2714.941406 0)"/>
    <use xlink:href="#DejaVuSans-62" transform="translate(2746.728516 0)"/>
    <use xlink:href="#DejaVuSans-65" transform="translate(2810.205078 0)"/>
    <use xlink:href="#DejaVuSans-74" transform="translate(2871.728516 0)"/>
    <use xlink:href="#DejaVuSans-77" transform="translate(2910.9375 0)"/>
    <use xlink:href="#DejaVuSans-65" transform="translate(2992.724609 0)"/>
    <use xlink:href="#DejaVuSans-65" transform="translate(3054.248047 0)"/>
    <use xlink:href="#DejaVuSans-6e" transform="translate(3115.771484 0)"/>
    <use xlink:href="#DejaVuSans-20" transform="translate(3179.150391 0)"/>
    <use xlink:href="#DejaVuSans-74" transform="translate(3210.9375 0)"/>
    <use xlink:href="#DejaVuSans-68" transform="translate(3250.146484 0)"/>
    <use xlink:href="#DejaVuSans-65" transform="translate(3313.525391 0)"/>
    <use xlink:href="#DejaVuSans-6d" transform="translate(3375.048828 0)"/>
    <use xlink:href="#DejaVuSans-20" transform="translate(3472.460938 0)"/>
    <use xlink:href="#DejaVuSans-3d" transform="translate(3504.248047 0)"/>
    <use xlink:href="#DejaVuSans-20" transform="translate(3588.037109 0)"/>
    <use xlink:href="#DejaVuSans-68" transform="translate(3619.824219 0)"/>
    <use xlink:href="#DejaVuSans-6f" transform="translate(3683.203125 0)"/>
    <use xlink:href="#DejaVuSans-77" transform="translate(3744.384766 0)"/>
    <use xlink:href="#DejaVuSans-20" transform="translate(3826.171875 0)"/>
    <use xlink:href="#DejaVuSans-64" transform="translate(3857.958984 0)"/>
    <use xlink:href="#DejaVuSans-69" transform="translate(3921.435547 0)"/>
    <use xlink:href="#DejaVuSans-66" transform="translate(3949.21875 0)"/>
    <use xlink:href="#DejaVuSans-66" transform="translate(3984.423828 0)"/>
    <use xlink:href="#DejaVuSans-65" transform="translate(4019.628906 0)"/>
    <use xlink:href="#DejaVuSans-72" transform="translate(4081.152344 0)"/>
    <use xlink:href="#DejaVuSans-65" transform="translate(4120.015625 0)"/>
    <use xlink:href="#DejaVuSans-6e" transform="translate(4181.539062 0)"/>
    <use xlink:href="#DejaVuSans-74" transform="translate(4244.917969 0)"/>
    <use xlink:href="#DejaVuSans-20" transform="translate(4284.126953 0)"/>
    <use xlink:href="#DejaVuSans-74" transform="translate(4315.914062 0)"/>
    <use xlink:href="#DejaVuSans-68" transform="translate(4355.123047 0)"/>
    <use xlink:href="#DejaVuSans-65" transform="translate(4418.501953 0)"/>
    <use xlink:href="#DejaVuSans-79" transform="translate(4480.025391 0)"/>
    <use xlink:href="#DejaVuSans-20" transform="translate(4539.205078 0)"/>
    <use xlink:href="#DejaVuSans-61" transform="translate(4570.992188 0)"/>
    <use xlink:href="#DejaVuSans-72" transform="translate(4632.271484 0)"/>
    <use xlink:href="#DejaVuSans-65" transform="translate(4671.134766 0)"/>
    <use xlink:href="#DejaVuSans-2e" transform="translate(4732.658203 0)"/>
   </g>
  </g>
 </g>
 <defs>
  <clipPath id="pa3377932ac">
   <rect x="36.054531" y="71.96" width="268.64" height="268.64"/>
  </clipPath>
  <clipPath id="pf3604108a9">
   <rect x="344.454531" y="71.96" width="268.64" height="268.64"/>
  </clipPath>
  <clipPath id="pce8e5b6b73">
   <rect x="652.854531" y="71.96" width="268.64" height="268.64"/>
  </clipPath>
 </defs>
</svg>
