<?xml version="1.0" encoding="utf-8" standalone="no"?>
<!DOCTYPE svg PUBLIC "-//W3C//DTD SVG 1.1//EN"
  "http://www.w3.org/Graphics/SVG/1.1/DTD/svg11.dtd">
<svg xmlns:xlink="http://www.w3.org/1999/xlink" width="762.328332pt" height="403.188494pt" viewBox="0 0 762.328332 403.188494" xmlns="http://www.w3.org/2000/svg" version="1.1">
 <metadata>
  <rdf:RDF xmlns:dc="http://purl.org/dc/elements/1.1/" xmlns:cc="http://creativecommons.org/ns#" xmlns:rdf="http://www.w3.org/1999/02/22-rdf-syntax-ns#">
   <cc:Work>
    <dc:type rdf:resource="http://purl.org/dc/dcmitype/StillImage"/>
    <dc:date>2026-05-30T13:26:36.841440</dc:date>
    <dc:format>image/svg+xml</dc:format>
    <dc:creator>
     <cc:Agent>
      <dc:title>Matplotlib v3.10.9, https://matplotlib.org/</dc:title>
     </cc:Agent>
    </dc:creator>
   </cc:Work>
  </rdf:RDF>
 </metadata>
 <defs>
  <style type="text/css">*{stroke-linejoin: round; stroke-linecap: butt}</style>
 </defs>
 <g id="figure_1">
  <g id="patch_1">
   <path d="M 0 403.188494 
L 762.328332 403.188494 
L 762.328332 0 
L 0 0 
z
" style="fill: #1a1a2e"/>
  </g>
  <g id="axes_1">
   <g id="patch_2">
    <path d="M 27.467969 380.278182 
L 328.528332 380.278182 
L 328.528332 79.217818 
L 27.467969 79.217818 
z
" style="fill: #1a1a2e"/>
   </g>
   <g id="line2d_1">
    <path d="M 27.467969 229.748 
L 328.528332 229.748 
" clip-path="url(#pd8c9d3c136)" style="fill: none; stroke: #555577; stroke-width: 0.8; stroke-linecap: square"/>
   </g>
   <g id="line2d_2">
    <path d="M 177.998151 380.278182 
L 177.998151 79.217818 
" clip-path="url(#pd8c9d3c136)" style="fill: none; stroke: #555577; stroke-width: 0.8; stroke-linecap: square"/>
   </g>
   <g id="matplotlib.axis_1">
    <g id="xtick_1">
     <g id="line2d_3">
      <defs>
       <path id="mfc1f4209f0" d="M 0 0 
L 0 3.5 
" style="stroke: #e0e0e0; stroke-width: 0.8"/>
      </defs>
      <g>
       <use xlink:href="#mfc1f4209f0" x="70.476592" y="380.278182" style="fill: #e0e0e0; stroke: #e0e0e0; stroke-width: 0.8"/>
      </g>
     </g>
     <g id="text_1">
      <!-- −2 -->
      <g style="fill: #e0e0e0" transform="translate(63.842608 394.116776) scale(0.09 -0.09)">
       <defs>
        <path id="DejaVuSans-2212" d="M 678 2272 
L 4684 2272 
L 4684 1741 
L 678 1741 
L 678 2272 
z
" transform="scale(0.015625)"/>
        <path id="DejaVuSans-32" d="M 1228 531 
L 3431 531 
L 3431 0 
L 469 0 
L 469 531 
Q 828 903 1448 1529 
Q 2069 2156 2228 2338 
Q 2531 2678 2651 2914 
Q 2772 3150 2772 3378 
Q 2772 3750 2511 3984 
Q 2250 4219 1831 4219 
Q 1534 4219 1204 4116 
Q 875 4013 500 3803 
L 500 4441 
Q 881 4594 1212 4672 
Q 1544 4750 1819 4750 
Q 2544 4750 2975 4387 
Q 3406 4025 3406 3419 
Q 3406 3131 3298 2873 
Q 3191 2616 2906 2266 
Q 2828 2175 2409 1742 
Q 1991 1309 1228 531 
z
" transform="scale(0.015625)"/>
       </defs>
       <use xlink:href="#DejaVuSans-2212"/>
       <use xlink:href="#DejaVuSans-32" transform="translate(83.789062 0)"/>
      </g>
     </g>
    </g>
    <g id="xtick_2">
     <g id="line2d_4">
      <g>
       <use xlink:href="#mfc1f4209f0" x="124.237371" y="380.278182" style="fill: #e0e0e0; stroke: #e0e0e0; stroke-width: 0.8"/>
      </g>
     </g>
     <g id="text_2">
      <!-- −1 -->
      <g style="fill: #e0e0e0" transform="translate(117.603387 394.116776) scale(0.09 -0.09)">
       <defs>
        <path id="DejaVuSans-31" d="M 794 531 
L 1825 531 
L 1825 4091 
L 703 3866 
L 703 4441 
L 1819 4666 
L 2450 4666 
L 2450 531 
L 3481 531 
L 3481 0 
L 794 0 
L 794 531 
z
" transform="scale(0.015625)"/>
       </defs>
       <use xlink:href="#DejaVuSans-2212"/>
       <use xlink:href="#DejaVuSans-31" transform="translate(83.789062 0)"/>
      </g>
     </g>
    </g>
    <g id="xtick_3">
     <g id="line2d_5">
      <g>
       <use xlink:href="#mfc1f4209f0" x="177.998151" y="380.278182" style="fill: #e0e0e0; stroke: #e0e0e0; stroke-width: 0.8"/>
      </g>
     </g>
     <g id="text_3">
      <!-- 0 -->
      <g style="fill: #e0e0e0" transform="translate(175.135026 394.116776) scale(0.09 -0.09)">
       <defs>
        <path id="DejaVuSans-30" d="M 2034 4250 
Q 1547 4250 1301 3770 
Q 1056 3291 1056 2328 
Q 1056 1369 1301 889 
Q 1547 409 2034 409 
Q 2525 409 2770 889 
Q 3016 1369 3016 2328 
Q 3016 3291 2770 3770 
Q 2525 4250 2034 4250 
z
M 2034 4750 
Q 2819 4750 3233 4129 
Q 3647 3509 3647 2328 
Q 3647 1150 3233 529 
Q 2819 -91 2034 -91 
Q 1250 -91 836 529 
Q 422 1150 422 2328 
Q 422 3509 836 4129 
Q 1250 4750 2034 4750 
z
" transform="scale(0.015625)"/>
       </defs>
       <use xlink:href="#DejaVuSans-30"/>
      </g>
     </g>
    </g>
    <g id="xtick_4">
     <g id="line2d_6">
      <g>
       <use xlink:href="#mfc1f4209f0" x="231.75893" y="380.278182" style="fill: #e0e0e0; stroke: #e0e0e0; stroke-width: 0.8"/>
      </g>
     </g>
     <g id="text_4">
      <!-- 1 -->
      <g style="fill: #e0e0e0" transform="translate(228.895805 394.116776) scale(0.09 -0.09)">
       <use xlink:href="#DejaVuSans-31"/>
      </g>
     </g>
    </g>
    <g id="xtick_5">
     <g id="line2d_7">
      <g>
       <use xlink:href="#mfc1f4209f0" x="285.519709" y="380.278182" style="fill: #e0e0e0; stroke: #e0e0e0; stroke-width: 0.8"/>
      </g>
     </g>
     <g id="text_5">
      <!-- 2 -->
      <g style="fill: #e0e0e0" transform="translate(282.656584 394.116776) scale(0.09 -0.09)">
       <use xlink:href="#DejaVuSans-32"/>
      </g>
     </g>
    </g>
   </g>
   <g id="matplotlib.axis_2">
    <g id="ytick_1">
     <g id="line2d_8">
      <defs>
       <path id="m279d6e3ecf" d="M 0 0 
L -3.5 0 
" style="stroke: #e0e0e0; stroke-width: 0.8"/>
      </defs>
      <g>
       <use xlink:href="#m279d6e3ecf" x="27.467969" y="337.269558" style="fill: #e0e0e0; stroke: #e0e0e0; stroke-width: 0.8"/>
      </g>
     </g>
     <g id="text_6">
      <!-- −2 -->
      <g style="fill: #e0e0e0" transform="translate(7.2 340.688855) scale(0.09 -0.09)">
       <use xlink:href="#DejaVuSans-2212"/>
       <use xlink:href="#DejaVuSans-32" transform="translate(83.789062 0)"/>
      </g>
     </g>
    </g>
    <g id="ytick_2">
     <g id="line2d_9">
      <g>
       <use xlink:href="#m279d6e3ecf" x="27.467969" y="283.508779" style="fill: #e0e0e0; stroke: #e0e0e0; stroke-width: 0.8"/>
      </g>
     </g>
     <g id="text_7">
      <!-- −1 -->
      <g style="fill: #e0e0e0" transform="translate(7.2 286.928076) scale(0.09 -0.09)">
       <use xlink:href="#DejaVuSans-2212"/>
       <use xlink:href="#DejaVuSans-31" transform="translate(83.789062 0)"/>
      </g>
     </g>
    </g>
    <g id="ytick_3">
     <g id="line2d_10">
      <g>
       <use xlink:href="#m279d6e3ecf" x="27.467969" y="229.748" style="fill: #e0e0e0; stroke: #e0e0e0; stroke-width: 0.8"/>
      </g>
     </g>
     <g id="text_8">
      <!-- 0 -->
      <g style="fill: #e0e0e0" transform="translate(14.741719 233.167297) scale(0.09 -0.09)">
       <use xlink:href="#DejaVuSans-30"/>
      </g>
     </g>
    </g>
    <g id="ytick_4">
     <g id="line2d_11">
      <g>
       <use xlink:href="#m279d6e3ecf" x="27.467969" y="175.987221" style="fill: #e0e0e0; stroke: #e0e0e0; stroke-width: 0.8"/>
      </g>
     </g>
     <g id="text_9">
      <!-- 1 -->
      <g style="fill: #e0e0e0" transform="translate(14.741719 179.406518) scale(0.09 -0.09)">
       <use xlink:href="#DejaVuSans-31"/>
      </g>
     </g>
    </g>
    <g id="ytick_5">
     <g id="line2d_12">
      <g>
       <use xlink:href="#m279d6e3ecf" x="27.467969" y="122.226442" style="fill: #e0e0e0; stroke: #e0e0e0; stroke-width: 0.8"/>
      </g>
     </g>
     <g id="text_10">
      <!-- 2 -->
      <g style="fill: #e0e0e0" transform="translate(14.741719 125.645738) scale(0.09 -0.09)">
       <use xlink:href="#DejaVuSans-32"/>
      </g>
     </g>
    </g>
   </g>
   <g id="patch_3">
    <path d="M 27.467969 380.278182 
L 27.467969 79.217818 
" style="fill: none; stroke: #555577; stroke-width: 0.8; stroke-linejoin: miter; stroke-linecap: square"/>
   </g>
   <g id="patch_4">
    <path d="M 328.528332 380.278182 
L 328.528332 79.217818 
" style="fill: none; stroke: #555577; stroke-width: 0.8; stroke-linejoin: miter; stroke-linecap: square"/>
   </g>
   <g id="patch_5">
    <path d="M 27.467969 380.278182 
L 328.528332 380.278182 
" style="fill: none; stroke: #555577; stroke-width: 0.8; stroke-linejoin: miter; stroke-linecap: square"/>
   </g>
   <g id="patch_6">
    <path d="M 27.467969 79.217818 
L 328.528332 79.217818 
" style="fill: none; stroke: #555577; stroke-width: 0.8; stroke-linejoin: miter; stroke-linecap: square"/>
   </g>
   <g id="patch_7">
    <path d="M 179.599555 228.546947 
Q 223.157865 195.878214 264.748435 164.685287 
" style="fill: none; stroke: #76b900; stroke-width: 2.2; stroke-linecap: round"/>
    <path d="M 260.348435 165.485287 
L 264.748435 164.685287 
L 262.748435 168.685287 
" style="fill: none; stroke: #76b900; stroke-width: 2.2; stroke-linecap: round"/>
   </g>
   <g id="text_11">
    <!-- d1 -->
    <g style="fill: #76b900" transform="translate(269.821787 159.073769) scale(0.09 -0.09)">
     <defs>
      <path id="DejaVuSans-64" d="M 2906 2969 
L 2906 4863 
L 3481 4863 
L 3481 0 
L 2906 0 
L 2906 525 
Q 2725 213 2448 61 
Q 2172 -91 1784 -91 
Q 1150 -91 751 415 
Q 353 922 353 1747 
Q 353 2572 751 3078 
Q 1150 3584 1784 3584 
Q 2172 3584 2448 3432 
Q 2725 3281 2906 2969 
z
M 947 1747 
Q 947 1113 1208 752 
Q 1469 391 1925 391 
Q 2381 391 2643 752 
Q 2906 1113 2906 1747 
Q 2906 2381 2643 2742 
Q 2381 3103 1925 3103 
Q 1469 3103 1208 2742 
Q 947 2381 947 1747 
z
" transform="scale(0.015625)"/>
     </defs>
     <use xlink:href="#DejaVuSans-64"/>
     <use xlink:href="#DejaVuSans-31" transform="translate(63.476562 0)"/>
    </g>
   </g>
   <g id="patch_8">
    <path d="M 178.6004 227.840877 
Q 189.287898 193.997134 199.23471 162.498895 
" style="fill: none; stroke: #4477ff; stroke-width: 2.2; stroke-linecap: round"/>
    <path d="M 196.123019 165.710963 
L 199.23471 162.498895 
L 199.93735 166.915488 
" style="fill: none; stroke: #4477ff; stroke-width: 2.2; stroke-linecap: round"/>
   </g>
   <g id="text_12">
    <!-- d2 -->
    <g style="fill: #4477ff" transform="translate(196.664118 155.009454) scale(0.09 -0.09)">
     <use xlink:href="#DejaVuSans-64"/>
     <use xlink:href="#DejaVuSans-32" transform="translate(63.476562 0)"/>
    </g>
   </g>
   <g id="patch_9">
    <path d="M 177.001456 228.013752 
Q 153.805657 187.653062 131.835475 149.424944 
" style="fill: none; stroke: #cc6622; stroke-width: 2.2; stroke-linecap: round"/>
    <path d="M 132.094582 153.889568 
L 131.835475 149.424944 
L 135.562638 151.896432 
" style="fill: none; stroke: #cc6622; stroke-width: 2.2; stroke-linecap: round"/>
   </g>
   <g id="text_13">
    <!-- d3 -->
    <g style="fill: #cc6622" transform="translate(120.022751 141.306907) scale(0.09 -0.09)">
     <defs>
      <path id="DejaVuSans-33" d="M 2597 2516 
Q 3050 2419 3304 2112 
Q 3559 1806 3559 1356 
Q 3559 666 3084 287 
Q 2609 -91 1734 -91 
Q 1441 -91 1130 -33 
Q 819 25 488 141 
L 488 750 
Q 750 597 1062 519 
Q 1375 441 1716 441 
Q 2309 441 2620 675 
Q 2931 909 2931 1356 
Q 2931 1769 2642 2001 
Q 2353 2234 1838 2234 
L 1294 2234 
L 1294 2753 
L 1863 2753 
Q 2328 2753 2575 2939 
Q 2822 3125 2822 3475 
Q 2822 3834 2567 4026 
Q 2313 4219 1838 4219 
Q 1578 4219 1281 4162 
Q 984 4106 628 3988 
L 628 4550 
Q 988 4650 1302 4700 
Q 1616 4750 1894 4750 
Q 2613 4750 3031 4423 
Q 3450 4097 3450 3541 
Q 3450 3153 3228 2886 
Q 3006 2619 2597 2516 
z
" transform="scale(0.015625)"/>
     </defs>
     <use xlink:href="#DejaVuSans-64"/>
     <use xlink:href="#DejaVuSans-33" transform="translate(63.476562 0)"/>
    </g>
   </g>
   <g id="patch_10">
    <path d="M 176.099756 229.128524 
Q 160.12601 223.916038 146.490592 219.466586 
" style="fill: none; stroke: #44cccc; stroke-width: 2.2; stroke-linecap: round"/>
    <path d="M 149.67282 222.608786 
L 146.490592 219.466586 
L 150.913689 218.806124 
" style="fill: none; stroke: #44cccc; stroke-width: 2.2; stroke-linecap: round"/>
   </g>
   <g id="text_14">
    <!-- d4 -->
    <g style="fill: #44cccc" transform="translate(133.667237 219.632061) scale(0.09 -0.09)">
     <defs>
      <path id="DejaVuSans-34" d="M 2419 4116 
L 825 1625 
L 2419 1625 
L 2419 4116 
z
M 2253 4666 
L 3047 4666 
L 3047 1625 
L 3713 1625 
L 3713 1100 
L 3047 1100 
L 3047 0 
L 2419 0 
L 2419 1100 
L 313 1100 
L 313 1709 
L 2253 4666 
z
" transform="scale(0.015625)"/>
     </defs>
     <use xlink:href="#DejaVuSans-64"/>
     <use xlink:href="#DejaVuSans-34" transform="translate(63.476562 0)"/>
    </g>
   </g>
   <g id="patch_11">
    <path d="M 176.594165 231.172042 
Q 130.958306 277.459842 87.049321 321.996099 
" style="fill: none; stroke: #ffcc00; stroke-width: 2.2; stroke-linecap: round"/>
    <path d="M 91.281825 320.551832 
L 87.049321 321.996099 
L 88.43341 317.743535 
" style="fill: none; stroke: #ffcc00; stroke-width: 2.2; stroke-linecap: round"/>
   </g>
   <g id="text_15">
    <!-- d5 -->
    <g style="fill: #ffcc00" transform="translate(70.670356 335.290851) scale(0.09 -0.09)">
     <defs>
      <path id="DejaVuSans-35" d="M 691 4666 
L 3169 4666 
L 3169 4134 
L 1269 4134 
L 1269 2991 
Q 1406 3038 1543 3061 
Q 1681 3084 1819 3084 
Q 2600 3084 3056 2656 
Q 3513 2228 3513 1497 
Q 3513 744 3044 326 
Q 2575 -91 1722 -91 
Q 1428 -91 1123 -41 
Q 819 9 494 109 
L 494 744 
Q 775 591 1075 516 
Q 1375 441 1709 441 
Q 2250 441 2565 725 
Q 2881 1009 2881 1497 
Q 2881 1984 2565 2268 
Q 2250 2553 1709 2553 
Q 1456 2553 1204 2497 
Q 953 2441 691 2322 
L 691 4666 
z
" transform="scale(0.015625)"/>
     </defs>
     <use xlink:href="#DejaVuSans-64"/>
     <use xlink:href="#DejaVuSans-35" transform="translate(63.476562 0)"/>
    </g>
   </g>
   <g id="patch_12">
    <path d="M 179.20009 231.350586 
Q 195.740735 253.404779 210.805574 273.491232 
" style="fill: none; stroke: #aa44ff; stroke-width: 2.2; stroke-linecap: round"/>
    <path d="M 210.005574 269.091232 
L 210.805574 273.491232 
L 206.805574 271.491232 
" style="fill: none; stroke: #aa44ff; stroke-width: 2.2; stroke-linecap: round"/>
   </g>
   <g id="text_16">
    <!-- d6 -->
    <g style="fill: #aa44ff" transform="translate(210.598912 283.325682) scale(0.09 -0.09)">
     <defs>
      <path id="DejaVuSans-36" d="M 2113 2584 
Q 1688 2584 1439 2293 
Q 1191 2003 1191 1497 
Q 1191 994 1439 701 
Q 1688 409 2113 409 
Q 2538 409 2786 701 
Q 3034 994 3034 1497 
Q 3034 2003 2786 2293 
Q 2538 2584 2113 2584 
z
M 3366 4563 
L 3366 3988 
Q 3128 4100 2886 4159 
Q 2644 4219 2406 4219 
Q 1781 4219 1451 3797 
Q 1122 3375 1075 2522 
Q 1259 2794 1537 2939 
Q 1816 3084 2150 3084 
Q 2853 3084 3261 2657 
Q 3669 2231 3669 1497 
Q 3669 778 3244 343 
Q 2819 -91 2113 -91 
Q 1303 -91 875 529 
Q 447 1150 447 2328 
Q 447 3434 972 4092 
Q 1497 4750 2381 4750 
Q 2619 4750 2861 4703 
Q 3103 4656 3366 4563 
z
" transform="scale(0.015625)"/>
     </defs>
     <use xlink:href="#DejaVuSans-64"/>
     <use xlink:href="#DejaVuSans-36" transform="translate(63.476562 0)"/>
    </g>
   </g>
   <g id="text_17">
    <!-- |v|=2.1 -->
    <g style="fill: #76b900; opacity: 0.8" transform="translate(223.157205 203.942826) scale(0.075 -0.075)">
     <defs>
      <path id="DejaVuSans-7c" d="M 1344 4891 
L 1344 -1509 
L 813 -1509 
L 813 4891 
L 1344 4891 
z
" transform="scale(0.015625)"/>
      <path id="DejaVuSans-76" d="M 191 3500 
L 800 3500 
L 1894 563 
L 2988 3500 
L 3597 3500 
L 2284 0 
L 1503 0 
L 191 3500 
z
" transform="scale(0.015625)"/>
      <path id="DejaVuSans-3d" d="M 678 2906 
L 4684 2906 
L 4684 2381 
L 678 2381 
L 678 2906 
z
M 678 1631 
L 4684 1631 
L 4684 1100 
L 678 1100 
L 678 1631 
z
" transform="scale(0.015625)"/>
      <path id="DejaVuSans-2e" d="M 684 794 
L 1344 794 
L 1344 0 
L 684 0 
L 684 794 
z
" transform="scale(0.015625)"/>
     </defs>
     <use xlink:href="#DejaVuSans-7c"/>
     <use xlink:href="#DejaVuSans-76" transform="translate(33.691406 0)"/>
     <use xlink:href="#DejaVuSans-7c" transform="translate(92.871094 0)"/>
     <use xlink:href="#DejaVuSans-3d" transform="translate(126.5625 0)"/>
     <use xlink:href="#DejaVuSans-32" transform="translate(210.351562 0)"/>
     <use xlink:href="#DejaVuSans-2e" transform="translate(273.974609 0)"/>
     <use xlink:href="#DejaVuSans-31" transform="translate(305.761719 0)"/>
    </g>
   </g>
   <g id="text_18">
    <!-- |v|=1.4 -->
    <g style="fill: #4477ff; opacity: 0.8" transform="translate(189.287914 202.061199) scale(0.075 -0.075)">
     <use xlink:href="#DejaVuSans-7c"/>
     <use xlink:href="#DejaVuSans-76" transform="translate(33.691406 0)"/>
     <use xlink:href="#DejaVuSans-7c" transform="translate(92.871094 0)"/>
     <use xlink:href="#DejaVuSans-3d" transform="translate(126.5625 0)"/>
     <use xlink:href="#DejaVuSans-31" transform="translate(210.351562 0)"/>
     <use xlink:href="#DejaVuSans-2e" transform="translate(273.974609 0)"/>
     <use xlink:href="#DejaVuSans-34" transform="translate(305.761719 0)"/>
    </g>
   </g>
   <g id="text_19">
    <!-- |v|=1.8 -->
    <g style="fill: #cc6622; opacity: 0.8" transform="translate(153.8058 195.717427) scale(0.075 -0.075)">
     <defs>
      <path id="DejaVuSans-38" d="M 2034 2216 
Q 1584 2216 1326 1975 
Q 1069 1734 1069 1313 
Q 1069 891 1326 650 
Q 1584 409 2034 409 
Q 2484 409 2743 651 
Q 3003 894 3003 1313 
Q 3003 1734 2745 1975 
Q 2488 2216 2034 2216 
z
M 1403 2484 
Q 997 2584 770 2862 
Q 544 3141 544 3541 
Q 544 4100 942 4425 
Q 1341 4750 2034 4750 
Q 2731 4750 3128 4425 
Q 3525 4100 3525 3541 
Q 3525 3141 3298 2862 
Q 3072 2584 2669 2484 
Q 3125 2378 3379 2068 
Q 3634 1759 3634 1313 
Q 3634 634 3220 271 
Q 2806 -91 2034 -91 
Q 1263 -91 848 271 
Q 434 634 434 1313 
Q 434 1759 690 2068 
Q 947 2378 1403 2484 
z
M 1172 3481 
Q 1172 3119 1398 2916 
Q 1625 2713 2034 2713 
Q 2441 2713 2670 2916 
Q 2900 3119 2900 3481 
Q 2900 3844 2670 4047 
Q 2441 4250 2034 4250 
Q 1625 4250 1398 4047 
Q 1172 3844 1172 3481 
z
" transform="scale(0.015625)"/>
     </defs>
     <use xlink:href="#DejaVuSans-7c"/>
     <use xlink:href="#DejaVuSans-76" transform="translate(33.691406 0)"/>
     <use xlink:href="#DejaVuSans-7c" transform="translate(92.871094 0)"/>
     <use xlink:href="#DejaVuSans-3d" transform="translate(126.5625 0)"/>
     <use xlink:href="#DejaVuSans-31" transform="translate(210.351562 0)"/>
     <use xlink:href="#DejaVuSans-2e" transform="translate(273.974609 0)"/>
     <use xlink:href="#DejaVuSans-38" transform="translate(305.761719 0)"/>
    </g>
   </g>
   <g id="text_20">
    <!-- |v|=0.7 -->
    <g style="fill: #44cccc; opacity: 0.8" transform="translate(160.122691 231.979072) scale(0.075 -0.075)">
     <defs>
      <path id="DejaVuSans-37" d="M 525 4666 
L 3525 4666 
L 3525 4397 
L 1831 0 
L 1172 0 
L 2766 4134 
L 525 4134 
L 525 4666 
z
" transform="scale(0.015625)"/>
     </defs>
     <use xlink:href="#DejaVuSans-7c"/>
     <use xlink:href="#DejaVuSans-76" transform="translate(33.691406 0)"/>
     <use xlink:href="#DejaVuSans-7c" transform="translate(92.871094 0)"/>
     <use xlink:href="#DejaVuSans-3d" transform="translate(126.5625 0)"/>
     <use xlink:href="#DejaVuSans-30" transform="translate(210.351562 0)"/>
     <use xlink:href="#DejaVuSans-2e" transform="translate(273.974609 0)"/>
     <use xlink:href="#DejaVuSans-37" transform="translate(305.761719 0)"/>
    </g>
   </g>
   <g id="text_21">
    <!-- |v|=2.5 -->
    <g style="fill: #ffcc00; opacity: 0.8" transform="translate(130.957469 285.524808) scale(0.075 -0.075)">
     <use xlink:href="#DejaVuSans-7c"/>
     <use xlink:href="#DejaVuSans-76" transform="translate(33.691406 0)"/>
     <use xlink:href="#DejaVuSans-7c" transform="translate(92.871094 0)"/>
     <use xlink:href="#DejaVuSans-3d" transform="translate(126.5625 0)"/>
     <use xlink:href="#DejaVuSans-32" transform="translate(210.351562 0)"/>
     <use xlink:href="#DejaVuSans-2e" transform="translate(273.974609 0)"/>
     <use xlink:href="#DejaVuSans-35" transform="translate(305.761719 0)"/>
    </g>
   </g>
   <g id="text_22">
    <!-- |v|=1.1 -->
    <g style="fill: #aa44ff; opacity: 0.8" transform="translate(195.739208 261.46686) scale(0.075 -0.075)">
     <use xlink:href="#DejaVuSans-7c"/>
     <use xlink:href="#DejaVuSans-76" transform="translate(33.691406 0)"/>
     <use xlink:href="#DejaVuSans-7c" transform="translate(92.871094 0)"/>
     <use xlink:href="#DejaVuSans-3d" transform="translate(126.5625 0)"/>
     <use xlink:href="#DejaVuSans-31" transform="translate(210.351562 0)"/>
     <use xlink:href="#DejaVuSans-2e" transform="translate(273.974609 0)"/>
     <use xlink:href="#DejaVuSans-31" transform="translate(305.761719 0)"/>
    </g>
   </g>
   <g id="text_23">
    <!-- Docs of different lengths land at -->
    <g style="fill: #e0e0e0; opacity: 0.8" transform="translate(105.368854 356.759956) scale(0.09 -0.09)">
     <defs>
      <path id="DejaVuSans-44" d="M 1259 4147 
L 1259 519 
L 2022 519 
Q 2988 519 3436 956 
Q 3884 1394 3884 2338 
Q 3884 3275 3436 3711 
Q 2988 4147 2022 4147 
L 1259 4147 
z
M 628 4666 
L 1925 4666 
Q 3281 4666 3915 4102 
Q 4550 3538 4550 2338 
Q 4550 1131 3912 565 
Q 3275 0 1925 0 
L 628 0 
L 628 4666 
z
" transform="scale(0.015625)"/>
      <path id="DejaVuSans-6f" d="M 1959 3097 
Q 1497 3097 1228 2736 
Q 959 2375 959 1747 
Q 959 1119 1226 758 
Q 1494 397 1959 397 
Q 2419 397 2687 759 
Q 2956 1122 2956 1747 
Q 2956 2369 2687 2733 
Q 2419 3097 1959 3097 
z
M 1959 3584 
Q 2709 3584 3137 3096 
Q 3566 2609 3566 1747 
Q 3566 888 3137 398 
Q 2709 -91 1959 -91 
Q 1206 -91 779 398 
Q 353 888 353 1747 
Q 353 2609 779 3096 
Q 1206 3584 1959 3584 
z
" transform="scale(0.015625)"/>
      <path id="DejaVuSans-63" d="M 3122 3366 
L 3122 2828 
Q 2878 2963 2633 3030 
Q 2388 3097 2138 3097 
Q 1578 3097 1268 2742 
Q 959 2388 959 1747 
Q 959 1106 1268 751 
Q 1578 397 2138 397 
Q 2388 397 2633 464 
Q 2878 531 3122 666 
L 3122 134 
Q 2881 22 2623 -34 
Q 2366 -91 2075 -91 
Q 1284 -91 818 406 
Q 353 903 353 1747 
Q 353 2603 823 3093 
Q 1294 3584 2113 3584 
Q 2378 3584 2631 3529 
Q 2884 3475 3122 3366 
z
" transform="scale(0.015625)"/>
      <path id="DejaVuSans-73" d="M 2834 3397 
L 2834 2853 
Q 2591 2978 2328 3040 
Q 2066 3103 1784 3103 
Q 1356 3103 1142 2972 
Q 928 2841 928 2578 
Q 928 2378 1081 2264 
Q 1234 2150 1697 2047 
L 1894 2003 
Q 2506 1872 2764 1633 
Q 3022 1394 3022 966 
Q 3022 478 2636 193 
Q 2250 -91 1575 -91 
Q 1294 -91 989 -36 
Q 684 19 347 128 
L 347 722 
Q 666 556 975 473 
Q 1284 391 1588 391 
Q 1994 391 2212 530 
Q 2431 669 2431 922 
Q 2431 1156 2273 1281 
Q 2116 1406 1581 1522 
L 1381 1569 
Q 847 1681 609 1914 
Q 372 2147 372 2553 
Q 372 3047 722 3315 
Q 1072 3584 1716 3584 
Q 2034 3584 2315 3537 
Q 2597 3491 2834 3397 
z
" transform="scale(0.015625)"/>
      <path id="DejaVuSans-20" transform="scale(0.015625)"/>
      <path id="DejaVuSans-66" d="M 2375 4863 
L 2375 4384 
L 1825 4384 
Q 1516 4384 1395 4259 
Q 1275 4134 1275 3809 
L 1275 3500 
L 2222 3500 
L 2222 3053 
L 1275 3053 
L 1275 0 
L 697 0 
L 697 3053 
L 147 3053 
L 147 3500 
L 697 3500 
L 697 3744 
Q 697 4328 969 4595 
Q 1241 4863 1831 4863 
L 2375 4863 
z
" transform="scale(0.015625)"/>
      <path id="DejaVuSans-69" d="M 603 3500 
L 1178 3500 
L 1178 0 
L 603 0 
L 603 3500 
z
M 603 4863 
L 1178 4863 
L 1178 4134 
L 603 4134 
L 603 4863 
z
" transform="scale(0.015625)"/>
      <path id="DejaVuSans-65" d="M 3597 1894 
L 3597 1613 
L 953 1613 
Q 991 1019 1311 708 
Q 1631 397 2203 397 
Q 2534 397 2845 478 
Q 3156 559 3463 722 
L 3463 178 
Q 3153 47 2828 -22 
Q 2503 -91 2169 -91 
Q 1331 -91 842 396 
Q 353 884 353 1716 
Q 353 2575 817 3079 
Q 1281 3584 2069 3584 
Q 2775 3584 3186 3129 
Q 3597 2675 3597 1894 
z
M 3022 2063 
Q 3016 2534 2758 2815 
Q 2500 3097 2075 3097 
Q 1594 3097 1305 2825 
Q 1016 2553 972 2059 
L 3022 2063 
z
" transform="scale(0.015625)"/>
      <path id="DejaVuSans-72" d="M 2631 2963 
Q 2534 3019 2420 3045 
Q 2306 3072 2169 3072 
Q 1681 3072 1420 2755 
Q 1159 2438 1159 1844 
L 1159 0 
L 581 0 
L 581 3500 
L 1159 3500 
L 1159 2956 
Q 1341 3275 1631 3429 
Q 1922 3584 2338 3584 
Q 2397 3584 2469 3576 
Q 2541 3569 2628 3553 
L 2631 2963 
z
" transform="scale(0.015625)"/>
      <path id="DejaVuSans-6e" d="M 3513 2113 
L 3513 0 
L 2938 0 
L 2938 2094 
Q 2938 2591 2744 2837 
Q 2550 3084 2163 3084 
Q 1697 3084 1428 2787 
Q 1159 2491 1159 1978 
L 1159 0 
L 581 0 
L 581 3500 
L 1159 3500 
L 1159 2956 
Q 1366 3272 1645 3428 
Q 1925 3584 2291 3584 
Q 2894 3584 3203 3211 
Q 3513 2838 3513 2113 
z
" transform="scale(0.015625)"/>
      <path id="DejaVuSans-74" d="M 1172 4494 
L 1172 3500 
L 2356 3500 
L 2356 3053 
L 1172 3053 
L 1172 1153 
Q 1172 725 1289 603 
Q 1406 481 1766 481 
L 2356 481 
L 2356 0 
L 1766 0 
Q 1100 0 847 248 
Q 594 497 594 1153 
L 594 3053 
L 172 3053 
L 172 3500 
L 594 3500 
L 594 4494 
L 1172 4494 
z
" transform="scale(0.015625)"/>
      <path id="DejaVuSans-6c" d="M 603 4863 
L 1178 4863 
L 1178 0 
L 603 0 
L 603 4863 
z
" transform="scale(0.015625)"/>
      <path id="DejaVuSans-67" d="M 2906 1791 
Q 2906 2416 2648 2759 
Q 2391 3103 1925 3103 
Q 1463 3103 1205 2759 
Q 947 2416 947 1791 
Q 947 1169 1205 825 
Q 1463 481 1925 481 
Q 2391 481 2648 825 
Q 2906 1169 2906 1791 
z
M 3481 434 
Q 3481 -459 3084 -895 
Q 2688 -1331 1869 -1331 
Q 1566 -1331 1297 -1286 
Q 1028 -1241 775 -1147 
L 775 -588 
Q 1028 -725 1275 -790 
Q 1522 -856 1778 -856 
Q 2344 -856 2625 -561 
Q 2906 -266 2906 331 
L 2906 616 
Q 2728 306 2450 153 
Q 2172 0 1784 0 
Q 1141 0 747 490 
Q 353 981 353 1791 
Q 353 2603 747 3093 
Q 1141 3584 1784 3584 
Q 2172 3584 2450 3431 
Q 2728 3278 2906 2969 
L 2906 3500 
L 3481 3500 
L 3481 434 
z
" transform="scale(0.015625)"/>
      <path id="DejaVuSans-68" d="M 3513 2113 
L 3513 0 
L 2938 0 
L 2938 2094 
Q 2938 2591 2744 2837 
Q 2550 3084 2163 3084 
Q 1697 3084 1428 2787 
Q 1159 2491 1159 1978 
L 1159 0 
L 581 0 
L 581 4863 
L 1159 4863 
L 1159 2956 
Q 1366 3272 1645 3428 
Q 1925 3584 2291 3584 
Q 2894 3584 3203 3211 
Q 3513 2838 3513 2113 
z
" transform="scale(0.015625)"/>
      <path id="DejaVuSans-61" d="M 2194 1759 
Q 1497 1759 1228 1600 
Q 959 1441 959 1056 
Q 959 750 1161 570 
Q 1363 391 1709 391 
Q 2188 391 2477 730 
Q 2766 1069 2766 1631 
L 2766 1759 
L 2194 1759 
z
M 3341 1997 
L 3341 0 
L 2766 0 
L 2766 531 
Q 2569 213 2275 61 
Q 1981 -91 1556 -91 
Q 1019 -91 701 211 
Q 384 513 384 1019 
Q 384 1609 779 1909 
Q 1175 2209 1959 2209 
L 2766 2209 
L 2766 2266 
Q 2766 2663 2505 2880 
Q 2244 3097 1772 3097 
Q 1472 3097 1187 3025 
Q 903 2953 641 2809 
L 641 3341 
Q 956 3463 1253 3523 
Q 1550 3584 1831 3584 
Q 2591 3584 2966 3190 
Q 3341 2797 3341 1997 
z
" transform="scale(0.015625)"/>
     </defs>
     <use xlink:href="#DejaVuSans-44"/>
     <use xlink:href="#DejaVuSans-6f" transform="translate(77.001953 0)"/>
     <use xlink:href="#DejaVuSans-63" transform="translate(138.183594 0)"/>
     <use xlink:href="#DejaVuSans-73" transform="translate(193.164062 0)"/>
     <use xlink:href="#DejaVuSans-20" transform="translate(245.263672 0)"/>
     <use xlink:href="#DejaVuSans-6f" transform="translate(277.050781 0)"/>
     <use xlink:href="#DejaVuSans-66" transform="translate(338.232422 0)"/>
     <use xlink:href="#DejaVuSans-20" transform="translate(373.4375 0)"/>
     <use xlink:href="#DejaVuSans-64" transform="translate(405.224609 0)"/>
     <use xlink:href="#DejaVuSans-69" transform="translate(468.701172 0)"/>
     <use xlink:href="#DejaVuSans-66" transform="translate(496.484375 0)"/>
     <use xlink:href="#DejaVuSans-66" transform="translate(531.689453 0)"/>
     <use xlink:href="#DejaVuSans-65" transform="translate(566.894531 0)"/>
     <use xlink:href="#DejaVuSans-72" transform="translate(628.417969 0)"/>
     <use xlink:href="#DejaVuSans-65" transform="translate(667.28125 0)"/>
     <use xlink:href="#DejaVuSans-6e" transform="translate(728.804688 0)"/>
     <use xlink:href="#DejaVuSans-74" transform="translate(792.183594 0)"/>
     <use xlink:href="#DejaVuSans-20" transform="translate(831.392578 0)"/>
     <use xlink:href="#DejaVuSans-6c" transform="translate(863.179688 0)"/>
     <use xlink:href="#DejaVuSans-65" transform="translate(890.962891 0)"/>
     <use xlink:href="#DejaVuSans-6e" transform="translate(952.486328 0)"/>
     <use xlink:href="#DejaVuSans-67" transform="translate(1015.865234 0)"/>
     <use xlink:href="#DejaVuSans-74" transform="translate(1079.341797 0)"/>
     <use xlink:href="#DejaVuSans-68" transform="translate(1118.550781 0)"/>
     <use xlink:href="#DejaVuSans-73" transform="translate(1181.929688 0)"/>
     <use xlink:href="#DejaVuSans-20" transform="translate(1234.029297 0)"/>
     <use xlink:href="#DejaVuSans-6c" transform="translate(1265.816406 0)"/>
     <use xlink:href="#DejaVuSans-61" transform="translate(1293.599609 0)"/>
     <use xlink:href="#DejaVuSans-6e" transform="translate(1354.878906 0)"/>
     <use xlink:href="#DejaVuSans-64" transform="translate(1418.257812 0)"/>
     <use xlink:href="#DejaVuSans-20" transform="translate(1481.734375 0)"/>
     <use xlink:href="#DejaVuSans-61" transform="translate(1513.521484 0)"/>
     <use xlink:href="#DejaVuSans-74" transform="translate(1574.800781 0)"/>
    </g>
    <!-- different distances from origin -->
    <g style="fill: #e0e0e0; opacity: 0.8" transform="translate(109.835807 366.837987) scale(0.09 -0.09)">
     <defs>
      <path id="DejaVuSans-6d" d="M 3328 2828 
Q 3544 3216 3844 3400 
Q 4144 3584 4550 3584 
Q 5097 3584 5394 3201 
Q 5691 2819 5691 2113 
L 5691 0 
L 5113 0 
L 5113 2094 
Q 5113 2597 4934 2840 
Q 4756 3084 4391 3084 
Q 3944 3084 3684 2787 
Q 3425 2491 3425 1978 
L 3425 0 
L 2847 0 
L 2847 2094 
Q 2847 2600 2669 2842 
Q 2491 3084 2119 3084 
Q 1678 3084 1418 2786 
Q 1159 2488 1159 1978 
L 1159 0 
L 581 0 
L 581 3500 
L 1159 3500 
L 1159 2956 
Q 1356 3278 1631 3431 
Q 1906 3584 2284 3584 
Q 2666 3584 2933 3390 
Q 3200 3197 3328 2828 
z
" transform="scale(0.015625)"/>
     </defs>
     <use xlink:href="#DejaVuSans-64"/>
     <use xlink:href="#DejaVuSans-69" transform="translate(63.476562 0)"/>
     <use xlink:href="#DejaVuSans-66" transform="translate(91.259766 0)"/>
     <use xlink:href="#DejaVuSans-66" transform="translate(126.464844 0)"/>
     <use xlink:href="#DejaVuSans-65" transform="translate(161.669922 0)"/>
     <use xlink:href="#DejaVuSans-72" transform="translate(223.193359 0)"/>
     <use xlink:href="#DejaVuSans-65" transform="translate(262.056641 0)"/>
     <use xlink:href="#DejaVuSans-6e" transform="translate(323.580078 0)"/>
     <use xlink:href="#DejaVuSans-74" transform="translate(386.958984 0)"/>
     <use xlink:href="#DejaVuSans-20" transform="translate(426.167969 0)"/>
     <use xlink:href="#DejaVuSans-64" transform="translate(457.955078 0)"/>
     <use xlink:href="#DejaVuSans-69" transform="translate(521.431641 0)"/>
     <use xlink:href="#DejaVuSans-73" transform="translate(549.214844 0)"/>
     <use xlink:href="#DejaVuSans-74" transform="translate(601.314453 0)"/>
     <use xlink:href="#DejaVuSans-61" transform="translate(640.523438 0)"/>
     <use xlink:href="#DejaVuSans-6e" transform="translate(701.802734 0)"/>
     <use xlink:href="#DejaVuSans-63" transform="translate(765.181641 0)"/>
     <use xlink:href="#DejaVuSans-65" transform="translate(820.162109 0)"/>
     <use xlink:href="#DejaVuSans-73" transform="translate(881.685547 0)"/>
     <use xlink:href="#DejaVuSans-20" transform="translate(933.785156 0)"/>
     <use xlink:href="#DejaVuSans-66" transform="translate(965.572266 0)"/>
     <use xlink:href="#DejaVuSans-72" transform="translate(1000.777344 0)"/>
     <use xlink:href="#DejaVuSans-6f" transform="translate(1039.640625 0)"/>
     <use xlink:href="#DejaVuSans-6d" transform="translate(1100.822266 0)"/>
     <use xlink:href="#DejaVuSans-20" transform="translate(1198.234375 0)"/>
     <use xlink:href="#DejaVuSans-6f" transform="translate(1230.021484 0)"/>
     <use xlink:href="#DejaVuSans-72" transform="translate(1291.203125 0)"/>
     <use xlink:href="#DejaVuSans-69" transform="translate(1332.316406 0)"/>
     <use xlink:href="#DejaVuSans-67" transform="translate(1360.099609 0)"/>
     <use xlink:href="#DejaVuSans-69" transform="translate(1423.576172 0)"/>
     <use xlink:href="#DejaVuSans-6e" transform="translate(1451.359375 0)"/>
    </g>
   </g>
   <g id="text_24">
    <!-- Raw embedding vectors -->
    <g style="fill: #e0e0e0" transform="translate(105.475026 57.780443) scale(0.12 -0.12)">
     <defs>
      <path id="DejaVuSans-52" d="M 2841 2188 
Q 3044 2119 3236 1894 
Q 3428 1669 3622 1275 
L 4263 0 
L 3584 0 
L 2988 1197 
Q 2756 1666 2539 1819 
Q 2322 1972 1947 1972 
L 1259 1972 
L 1259 0 
L 628 0 
L 628 4666 
L 2053 4666 
Q 2853 4666 3247 4331 
Q 3641 3997 3641 3322 
Q 3641 2881 3436 2590 
Q 3231 2300 2841 2188 
z
M 1259 4147 
L 1259 2491 
L 2053 2491 
Q 2509 2491 2742 2702 
Q 2975 2913 2975 3322 
Q 2975 3731 2742 3939 
Q 2509 4147 2053 4147 
L 1259 4147 
z
" transform="scale(0.015625)"/>
      <path id="DejaVuSans-77" d="M 269 3500 
L 844 3500 
L 1563 769 
L 2278 3500 
L 2956 3500 
L 3675 769 
L 4391 3500 
L 4966 3500 
L 4050 0 
L 3372 0 
L 2619 2869 
L 1863 0 
L 1184 0 
L 269 3500 
z
" transform="scale(0.015625)"/>
      <path id="DejaVuSans-62" d="M 3116 1747 
Q 3116 2381 2855 2742 
Q 2594 3103 2138 3103 
Q 1681 3103 1420 2742 
Q 1159 2381 1159 1747 
Q 1159 1113 1420 752 
Q 1681 391 2138 391 
Q 2594 391 2855 752 
Q 3116 1113 3116 1747 
z
M 1159 2969 
Q 1341 3281 1617 3432 
Q 1894 3584 2278 3584 
Q 2916 3584 3314 3078 
Q 3713 2572 3713 1747 
Q 3713 922 3314 415 
Q 2916 -91 2278 -91 
Q 1894 -91 1617 61 
Q 1341 213 1159 525 
L 1159 0 
L 581 0 
L 581 4863 
L 1159 4863 
L 1159 2969 
z
" transform="scale(0.015625)"/>
     </defs>
     <use xlink:href="#DejaVuSans-52"/>
     <use xlink:href="#DejaVuSans-61" transform="translate(67.232422 0)"/>
     <use xlink:href="#DejaVuSans-77" transform="translate(128.511719 0)"/>
     <use xlink:href="#DejaVuSans-20" transform="translate(210.298828 0)"/>
     <use xlink:href="#DejaVuSans-65" transform="translate(242.085938 0)"/>
     <use xlink:href="#DejaVuSans-6d" transform="translate(303.609375 0)"/>
     <use xlink:href="#DejaVuSans-62" transform="translate(401.021484 0)"/>
     <use xlink:href="#DejaVuSans-65" transform="translate(464.498047 0)"/>
     <use xlink:href="#DejaVuSans-64" transform="translate(526.021484 0)"/>
     <use xlink:href="#DejaVuSans-64" transform="translate(589.498047 0)"/>
     <use xlink:href="#DejaVuSans-69" transform="translate(652.974609 0)"/>
     <use xlink:href="#DejaVuSans-6e" transform="translate(680.757812 0)"/>
     <use xlink:href="#DejaVuSans-67" transform="translate(744.136719 0)"/>
     <use xlink:href="#DejaVuSans-20" transform="translate(807.613281 0)"/>
     <use xlink:href="#DejaVuSans-76" transform="translate(839.400391 0)"/>
     <use xlink:href="#DejaVuSans-65" transform="translate(898.580078 0)"/>
     <use xlink:href="#DejaVuSans-63" transform="translate(960.103516 0)"/>
     <use xlink:href="#DejaVuSans-74" transform="translate(1015.083984 0)"/>
     <use xlink:href="#DejaVuSans-6f" transform="translate(1054.292969 0)"/>
     <use xlink:href="#DejaVuSans-72" transform="translate(1115.474609 0)"/>
     <use xlink:href="#DejaVuSans-73" transform="translate(1156.587891 0)"/>
    </g>
    <!-- (different magnitudes) -->
    <g style="fill: #e0e0e0" transform="translate(110.258151 71.217818) scale(0.12 -0.12)">
     <defs>
      <path id="DejaVuSans-28" d="M 1984 4856 
Q 1566 4138 1362 3434 
Q 1159 2731 1159 2009 
Q 1159 1288 1364 580 
Q 1569 -128 1984 -844 
L 1484 -844 
Q 1016 -109 783 600 
Q 550 1309 550 2009 
Q 550 2706 781 3412 
Q 1013 4119 1484 4856 
L 1984 4856 
z
" transform="scale(0.015625)"/>
      <path id="DejaVuSans-75" d="M 544 1381 
L 544 3500 
L 1119 3500 
L 1119 1403 
Q 1119 906 1312 657 
Q 1506 409 1894 409 
Q 2359 409 2629 706 
Q 2900 1003 2900 1516 
L 2900 3500 
L 3475 3500 
L 3475 0 
L 2900 0 
L 2900 538 
Q 2691 219 2414 64 
Q 2138 -91 1772 -91 
Q 1169 -91 856 284 
Q 544 659 544 1381 
z
M 1991 3584 
L 1991 3584 
z
" transform="scale(0.015625)"/>
      <path id="DejaVuSans-29" d="M 513 4856 
L 1013 4856 
Q 1481 4119 1714 3412 
Q 1947 2706 1947 2009 
Q 1947 1309 1714 600 
Q 1481 -109 1013 -844 
L 513 -844 
Q 928 -128 1133 580 
Q 1338 1288 1338 2009 
Q 1338 2731 1133 3434 
Q 928 4138 513 4856 
z
" transform="scale(0.015625)"/>
     </defs>
     <use xlink:href="#DejaVuSans-28"/>
     <use xlink:href="#DejaVuSans-64" transform="translate(39.013672 0)"/>
     <use xlink:href="#DejaVuSans-69" transform="translate(102.490234 0)"/>
     <use xlink:href="#DejaVuSans-66" transform="translate(130.273438 0)"/>
     <use xlink:href="#DejaVuSans-66" transform="translate(165.478516 0)"/>
     <use xlink:href="#DejaVuSans-65" transform="translate(200.683594 0)"/>
     <use xlink:href="#DejaVuSans-72" transform="translate(262.207031 0)"/>
     <use xlink:href="#DejaVuSans-65" transform="translate(301.070312 0)"/>
     <use xlink:href="#DejaVuSans-6e" transform="translate(362.59375 0)"/>
     <use xlink:href="#DejaVuSans-74" transform="translate(425.972656 0)"/>
     <use xlink:href="#DejaVuSans-20" transform="translate(465.181641 0)"/>
     <use xlink:href="#DejaVuSans-6d" transform="translate(496.96875 0)"/>
     <use xlink:href="#DejaVuSans-61" transform="translate(594.380859 0)"/>
     <use xlink:href="#DejaVuSans-67" transform="translate(655.660156 0)"/>
     <use xlink:href="#DejaVuSans-6e" transform="translate(719.136719 0)"/>
     <use xlink:href="#DejaVuSans-69" transform="translate(782.515625 0)"/>
     <use xlink:href="#DejaVuSans-74" transform="translate(810.298828 0)"/>
     <use xlink:href="#DejaVuSans-75" transform="translate(849.507812 0)"/>
     <use xlink:href="#DejaVuSans-64" transform="translate(912.886719 0)"/>
     <use xlink:href="#DejaVuSans-65" transform="translate(976.363281 0)"/>
     <use xlink:href="#DejaVuSans-73" transform="translate(1037.886719 0)"/>
     <use xlink:href="#DejaVuSans-29" transform="translate(1089.986328 0)"/>
    </g>
   </g>
   <g id="PathCollection_1">
    <defs>
     <path id="mff47fe912b" d="M 0 3.872983 
C 1.027127 3.872983 2.012324 3.464901 2.738613 2.738613 
C 3.464901 2.012324 3.872983 1.027127 3.872983 0 
C 3.872983 -1.027127 3.464901 -2.012324 2.738613 -2.738613 
C 2.012324 -3.464901 1.027127 -3.872983 0 -3.872983 
C -1.027127 -3.872983 -2.012324 -3.464901 -2.738613 -2.738613 
C -3.464901 -2.012324 -3.872983 -1.027127 -3.872983 0 
C -3.872983 1.027127 -3.464901 2.012324 -2.738613 2.738613 
C -2.012324 3.464901 -1.027127 3.872983 0 3.872983 
z
" style="stroke: #76b900"/>
    </defs>
    <g clip-path="url(#pd8c9d3c136)">
     <use xlink:href="#mff47fe912b" x="268.31626" y="162.009418" style="fill: #76b900; stroke: #76b900"/>
    </g>
   </g>
   <g id="PathCollection_2">
    <defs>
     <path id="m3edbe2585b" d="M 0 3.872983 
C 1.027127 3.872983 2.012324 3.464901 2.738613 2.738613 
C 3.464901 2.012324 3.872983 1.027127 3.872983 0 
C 3.872983 -1.027127 3.464901 -2.012324 2.738613 -2.738613 
C 2.012324 -3.464901 1.027127 -3.872983 0 -3.872983 
C -1.027127 -3.872983 -2.012324 -3.464901 -2.738613 -2.738613 
C -3.464901 -2.012324 -3.872983 -1.027127 -3.872983 0 
C -3.872983 1.027127 -3.464901 2.012324 -2.738613 2.738613 
C -2.012324 3.464901 -1.027127 3.872983 0 3.872983 
z
" style="stroke: #4477ff"/>
    </defs>
    <g clip-path="url(#pd8c9d3c136)">
     <use xlink:href="#m3edbe2585b" x="200.577678" y="158.246164" style="fill: #4477ff; stroke: #4477ff"/>
    </g>
   </g>
   <g id="PathCollection_3">
    <defs>
     <path id="ma637e16d12" d="M 0 3.872983 
C 1.027127 3.872983 2.012324 3.464901 2.738613 2.738613 
C 3.464901 2.012324 3.872983 1.027127 3.872983 0 
C 3.872983 -1.027127 3.464901 -2.012324 2.738613 -2.738613 
C 2.012324 -3.464901 1.027127 -3.872983 0 -3.872983 
C -1.027127 -3.872983 -2.012324 -3.464901 -2.738613 -2.738613 
C -3.464901 -2.012324 -3.872983 -1.027127 -3.872983 0 
C -3.872983 1.027127 -3.464901 2.012324 -2.738613 2.738613 
C -2.012324 3.464901 -1.027127 3.872983 0 3.872983 
z
" style="stroke: #cc6622"/>
    </defs>
    <g clip-path="url(#pd8c9d3c136)">
     <use xlink:href="#ma637e16d12" x="129.613449" y="145.55862" style="fill: #cc6622; stroke: #cc6622"/>
    </g>
   </g>
   <g id="PathCollection_4">
    <defs>
     <path id="m40281d17c5" d="M 0 3.872983 
C 1.027127 3.872983 2.012324 3.464901 2.738613 2.738613 
C 3.464901 2.012324 3.872983 1.027127 3.872983 0 
C 3.872983 -1.027127 3.464901 -2.012324 2.738613 -2.738613 
C 2.012324 -3.464901 1.027127 -3.872983 0 -3.872983 
C -1.027127 -3.872983 -2.012324 -3.464901 -2.738613 -2.738613 
C -3.464901 -2.012324 -3.872983 -1.027127 -3.872983 0 
C -3.872983 1.027127 -3.464901 2.012324 -2.738613 2.738613 
C -2.012324 3.464901 -1.027127 3.872983 0 3.872983 
z
" style="stroke: #44cccc"/>
    </defs>
    <g clip-path="url(#pd8c9d3c136)">
     <use xlink:href="#m40281d17c5" x="142.247232" y="218.081911" style="fill: #44cccc; stroke: #44cccc"/>
    </g>
   </g>
   <g id="PathCollection_5">
    <defs>
     <path id="m0796b221aa" d="M 0 3.872983 
C 1.027127 3.872983 2.012324 3.464901 2.738613 2.738613 
C 3.464901 2.012324 3.872983 1.027127 3.872983 0 
C 3.872983 -1.027127 3.464901 -2.012324 2.738613 -2.738613 
C 2.012324 -3.464901 1.027127 -3.872983 0 -3.872983 
C -1.027127 -3.872983 -2.012324 -3.464901 -2.738613 -2.738613 
C -3.464901 -2.012324 -3.872983 -1.027127 -3.872983 0 
C -3.872983 1.027127 -3.464901 2.012324 -2.738613 2.738613 
C -2.012324 3.464901 -1.027127 3.872983 0 3.872983 
z
" style="stroke: #ffcc00"/>
    </defs>
    <g clip-path="url(#pd8c9d3c136)">
     <use xlink:href="#m0796b221aa" x="83.916787" y="325.173383" style="fill: #ffcc00; stroke: #ffcc00"/>
    </g>
   </g>
   <g id="PathCollection_6">
    <defs>
     <path id="m2306fd9883" d="M 0 3.872983 
C 1.027127 3.872983 2.012324 3.464901 2.738613 2.738613 
C 3.464901 2.012324 3.872983 1.027127 3.872983 0 
C 3.872983 -1.027127 3.464901 -2.012324 2.738613 -2.738613 
C 2.012324 -3.464901 1.027127 -3.872983 0 -3.872983 
C -1.027127 -3.872983 -2.012324 -3.464901 -2.738613 -2.738613 
C -3.464901 -2.012324 -3.872983 -1.027127 -3.872983 0 
C -3.872983 1.027127 -3.464901 2.012324 -2.738613 2.738613 
C -2.012324 3.464901 -1.027127 3.872983 0 3.872983 
z
" style="stroke: #aa44ff"/>
    </defs>
    <g clip-path="url(#pd8c9d3c136)">
     <use xlink:href="#m2306fd9883" x="213.480265" y="277.057486" style="fill: #aa44ff; stroke: #aa44ff"/>
    </g>
   </g>
  </g>
  <g id="axes_2">
   <g id="patch_13">
    <path d="M 454.067969 380.278182 
L 755.128332 380.278182 
L 755.128332 79.217818 
L 454.067969 79.217818 
z
" style="fill: #1a1a2e"/>
   </g>
   <g id="line2d_13">
    <path d="M 454.067969 229.748 
L 755.128332 229.748 
" clip-path="url(#pbde794e6ac)" style="fill: none; stroke: #555577; stroke-width: 0.8; stroke-linecap: square"/>
   </g>
   <g id="line2d_14">
    <path d="M 604.598151 380.278182 
L 604.598151 79.217818 
" clip-path="url(#pbde794e6ac)" style="fill: none; stroke: #555577; stroke-width: 0.8; stroke-linecap: square"/>
   </g>
   <g id="matplotlib.axis_3">
    <g id="xtick_6">
     <g id="line2d_15">
      <g>
       <use xlink:href="#mfc1f4209f0" x="497.076592" y="380.278182" style="fill: #e0e0e0; stroke: #e0e0e0; stroke-width: 0.8"/>
      </g>
     </g>
     <g id="text_25">
      <!-- −2 -->
      <g style="fill: #e0e0e0" transform="translate(490.442608 394.116776) scale(0.09 -0.09)">
       <use xlink:href="#DejaVuSans-2212"/>
       <use xlink:href="#DejaVuSans-32" transform="translate(83.789062 0)"/>
      </g>
     </g>
    </g>
    <g id="xtick_7">
     <g id="line2d_16">
      <g>
       <use xlink:href="#mfc1f4209f0" x="550.837371" y="380.278182" style="fill: #e0e0e0; stroke: #e0e0e0; stroke-width: 0.8"/>
      </g>
     </g>
     <g id="text_26">
      <!-- −1 -->
      <g style="fill: #e0e0e0" transform="translate(544.203387 394.116776) scale(0.09 -0.09)">
       <use xlink:href="#DejaVuSans-2212"/>
       <use xlink:href="#DejaVuSans-31" transform="translate(83.789062 0)"/>
      </g>
     </g>
    </g>
    <g id="xtick_8">
     <g id="line2d_17">
      <g>
       <use xlink:href="#mfc1f4209f0" x="604.598151" y="380.278182" style="fill: #e0e0e0; stroke: #e0e0e0; stroke-width: 0.8"/>
      </g>
     </g>
     <g id="text_27">
      <!-- 0 -->
      <g style="fill: #e0e0e0" transform="translate(601.735026 394.116776) scale(0.09 -0.09)">
       <use xlink:href="#DejaVuSans-30"/>
      </g>
     </g>
    </g>
    <g id="xtick_9">
     <g id="line2d_18">
      <g>
       <use xlink:href="#mfc1f4209f0" x="658.35893" y="380.278182" style="fill: #e0e0e0; stroke: #e0e0e0; stroke-width: 0.8"/>
      </g>
     </g>
     <g id="text_28">
      <!-- 1 -->
      <g style="fill: #e0e0e0" transform="translate(655.495805 394.116776) scale(0.09 -0.09)">
       <use xlink:href="#DejaVuSans-31"/>
      </g>
     </g>
    </g>
    <g id="xtick_10">
     <g id="line2d_19">
      <g>
       <use xlink:href="#mfc1f4209f0" x="712.119709" y="380.278182" style="fill: #e0e0e0; stroke: #e0e0e0; stroke-width: 0.8"/>
      </g>
     </g>
     <g id="text_29">
      <!-- 2 -->
      <g style="fill: #e0e0e0" transform="translate(709.256584 394.116776) scale(0.09 -0.09)">
       <use xlink:href="#DejaVuSans-32"/>
      </g>
     </g>
    </g>
   </g>
   <g id="matplotlib.axis_4">
    <g id="ytick_6">
     <g id="line2d_20">
      <g>
       <use xlink:href="#m279d6e3ecf" x="454.067969" y="337.269558" style="fill: #e0e0e0; stroke: #e0e0e0; stroke-width: 0.8"/>
      </g>
     </g>
     <g id="text_30">
      <!-- −2 -->
      <g style="fill: #e0e0e0" transform="translate(433.8 340.688855) scale(0.09 -0.09)">
       <use xlink:href="#DejaVuSans-2212"/>
       <use xlink:href="#DejaVuSans-32" transform="translate(83.789062 0)"/>
      </g>
     </g>
    </g>
    <g id="ytick_7">
     <g id="line2d_21">
      <g>
       <use xlink:href="#m279d6e3ecf" x="454.067969" y="283.508779" style="fill: #e0e0e0; stroke: #e0e0e0; stroke-width: 0.8"/>
      </g>
     </g>
     <g id="text_31">
      <!-- −1 -->
      <g style="fill: #e0e0e0" transform="translate(433.8 286.928076) scale(0.09 -0.09)">
       <use xlink:href="#DejaVuSans-2212"/>
       <use xlink:href="#DejaVuSans-31" transform="translate(83.789062 0)"/>
      </g>
     </g>
    </g>
    <g id="ytick_8">
     <g id="line2d_22">
      <g>
       <use xlink:href="#m279d6e3ecf" x="454.067969" y="229.748" style="fill: #e0e0e0; stroke: #e0e0e0; stroke-width: 0.8"/>
      </g>
     </g>
     <g id="text_32">
      <!-- 0 -->
      <g style="fill: #e0e0e0" transform="translate(441.341719 233.167297) scale(0.09 -0.09)">
       <use xlink:href="#DejaVuSans-30"/>
      </g>
     </g>
    </g>
    <g id="ytick_9">
     <g id="line2d_23">
      <g>
       <use xlink:href="#m279d6e3ecf" x="454.067969" y="175.987221" style="fill: #e0e0e0; stroke: #e0e0e0; stroke-width: 0.8"/>
      </g>
     </g>
     <g id="text_33">
      <!-- 1 -->
      <g style="fill: #e0e0e0" transform="translate(441.341719 179.406518) scale(0.09 -0.09)">
       <use xlink:href="#DejaVuSans-31"/>
      </g>
     </g>
    </g>
    <g id="ytick_10">
     <g id="line2d_24">
      <g>
       <use xlink:href="#m279d6e3ecf" x="454.067969" y="122.226442" style="fill: #e0e0e0; stroke: #e0e0e0; stroke-width: 0.8"/>
      </g>
     </g>
     <g id="text_34">
      <!-- 2 -->
      <g style="fill: #e0e0e0" transform="translate(441.341719 125.645738) scale(0.09 -0.09)">
       <use xlink:href="#DejaVuSans-32"/>
      </g>
     </g>
    </g>
   </g>
   <g id="line2d_25">
    <path d="M 658.35893 229.748 
L 658.252135 226.361058 
L 657.932173 222.987572 
L 657.400317 219.640945 
L 656.65868 216.334473 
L 655.710206 213.081293 
L 654.558666 209.894329 
L 653.208634 206.786244 
L 651.665474 203.769385 
L 649.935316 200.855738 
L 648.025035 198.05688 
L 645.94222 195.383929 
L 643.695145 192.847507 
L 641.292739 190.457689 
L 638.744547 188.223971 
L 636.060692 186.155227 
L 633.251836 184.259675 
L 630.32914 182.544848 
L 627.304216 181.017558 
L 624.189081 179.683873 
L 620.996112 178.549091 
L 617.737994 177.617722 
L 614.427671 176.893465 
L 611.078296 176.379197 
L 607.703176 176.076963 
L 604.31572 175.987963 
L 600.929385 176.11255 
L 597.557627 176.450229 
L 594.21384 176.999659 
L 590.91131 177.758657 
L 587.663158 178.724208 
L 584.482287 179.892474 
L 581.381337 181.258816 
L 578.372627 182.817804 
L 575.46811 184.563245 
L 572.679326 186.488204 
L 570.017354 188.585032 
L 567.492772 190.845401 
L 565.115608 193.260328 
L 562.895307 195.82022 
L 560.840691 198.514907 
L 558.959922 201.333682 
L 557.260473 204.265346 
L 555.749095 207.298252 
L 554.431794 210.420351 
L 553.313802 213.619237 
L 552.399562 216.882203 
L 551.692705 220.196285 
L 551.196041 223.548315 
L 550.911542 226.924977 
L 550.840339 230.312854 
L 550.982714 233.698487 
L 551.338102 237.068425 
L 551.905091 240.409279 
L 552.681429 243.707776 
L 553.66403 246.950811 
L 554.848991 250.1255 
L 556.231605 253.21923 
L 557.806378 256.219709 
L 559.567053 259.115016 
L 561.506636 261.893649 
L 563.61742 264.544568 
L 565.89102 267.057241 
L 568.318403 269.421685 
L 570.889924 271.628507 
L 573.595367 273.668938 
L 576.423984 275.534873 
L 579.364535 277.218897 
L 582.40534 278.71432 
L 585.534316 280.015202 
L 588.739032 281.116373 
L 592.006756 282.013459 
L 595.324505 282.702895 
L 598.679098 283.181942 
L 602.057208 283.448698 
L 605.445412 283.502102 
L 608.830251 283.341943 
L 612.198275 282.968856 
L 615.536104 282.384323 
L 618.830477 281.590668 
L 622.068306 280.591043 
L 625.236726 279.38942 
L 628.323149 277.990573 
L 631.315313 276.400059 
L 634.201331 274.624197 
L 636.969736 272.670044 
L 639.609529 270.545362 
L 642.110223 268.258593 
L 644.461883 265.818822 
L 646.655165 263.235743 
L 648.681355 260.519618 
L 650.532404 257.681238 
L 652.200956 254.73188 
L 653.680385 251.683261 
L 654.96481 248.547494 
L 656.04913 245.337038 
L 656.929036 242.064646 
L 657.601033 238.743321 
L 658.062451 235.386257 
L 658.311457 232.006793 
L 658.35893 229.748 
L 658.35893 229.748 
" clip-path="url(#pbde794e6ac)" style="fill: none; stroke-dasharray: 5.55,2.4; stroke-dashoffset: 0; stroke: #76b900; stroke-opacity: 0.7; stroke-width: 1.5"/>
   </g>
   <g id="patch_14">
    <path d="M 454.067969 380.278182 
L 454.067969 79.217818 
" style="fill: none; stroke: #555577; stroke-width: 0.8; stroke-linejoin: miter; stroke-linecap: square"/>
   </g>
   <g id="patch_15">
    <path d="M 755.128332 380.278182 
L 755.128332 79.217818 
" style="fill: none; stroke: #555577; stroke-width: 0.8; stroke-linejoin: miter; stroke-linecap: square"/>
   </g>
   <g id="patch_16">
    <path d="M 454.067969 380.278182 
L 755.128332 380.278182 
" style="fill: none; stroke: #555577; stroke-width: 0.8; stroke-linejoin: miter; stroke-linecap: square"/>
   </g>
   <g id="patch_17">
    <path d="M 454.067969 79.217818 
L 755.128332 79.217818 
" style="fill: none; stroke: #555577; stroke-width: 0.8; stroke-linejoin: miter; stroke-linecap: square"/>
   </g>
   <g id="text_35">
    <!-- r=1 -->
    <g style="fill: #76b900" transform="translate(661.046969 227.059961) scale(0.09 -0.09)">
     <use xlink:href="#DejaVuSans-72"/>
     <use xlink:href="#DejaVuSans-3d" transform="translate(41.113281 0)"/>
     <use xlink:href="#DejaVuSans-31" transform="translate(124.902344 0)"/>
    </g>
   </g>
   <g id="patch_18">
    <path d="M 606.196799 228.549014 
Q 626.101844 213.62023 644.039149 200.167251 
" style="fill: none; stroke: #76b900; stroke-width: 2.2; stroke-linecap: round"/>
    <path d="M 639.639149 200.967251 
L 644.039149 200.167251 
L 642.039149 204.167251 
" style="fill: none; stroke: #76b900; stroke-width: 2.2; stroke-linecap: round"/>
   </g>
   <g id="text_36">
    <!-- d1 -->
    <g style="fill: #76b900" transform="translate(645.327542 197.394453) scale(0.09 -0.09)">
     <use xlink:href="#DejaVuSans-64"/>
     <use xlink:href="#DejaVuSans-31" transform="translate(63.476562 0)"/>
    </g>
   </g>
   <g id="patch_19">
    <path d="M 605.199612 227.843371 
Q 612.66211 204.212127 619.383923 182.926387 
" style="fill: none; stroke: #4477ff; stroke-width: 2.2; stroke-linecap: round"/>
    <path d="M 616.272232 186.138455 
L 619.383923 182.926387 
L 620.086563 187.342981 
" style="fill: none; stroke: #4477ff; stroke-width: 2.2; stroke-linecap: round"/>
   </g>
   <g id="text_37">
    <!-- d2 -->
    <g style="fill: #4477ff" transform="translate(616.296721 177.072878) scale(0.09 -0.09)">
     <use xlink:href="#DejaVuSans-64"/>
     <use xlink:href="#DejaVuSans-32" transform="translate(63.476562 0)"/>
    </g>
   </g>
   <g id="patch_20">
    <path d="M 603.602277 228.01518 
Q 591.158466 206.36295 579.940272 186.843292 
" style="fill: none; stroke: #cc6622; stroke-width: 2.2; stroke-linecap: round"/>
    <path d="M 580.19938 191.307915 
L 579.940272 186.843292 
L 583.667436 189.31478 
" style="fill: none; stroke: #cc6622; stroke-width: 2.2; stroke-linecap: round"/>
   </g>
   <g id="text_38">
    <!-- d3 -->
    <g style="fill: #cc6622" transform="translate(569.847408 181.717809) scale(0.09 -0.09)">
     <use xlink:href="#DejaVuSans-64"/>
     <use xlink:href="#DejaVuSans-33" transform="translate(63.476562 0)"/>
    </g>
   </g>
   <g id="patch_21">
    <path d="M 602.699756 229.128524 
Q 579.062515 221.415319 557.763602 214.465147 
" style="fill: none; stroke: #44cccc; stroke-width: 2.2; stroke-linecap: round"/>
    <path d="M 560.94583 217.607348 
L 557.763602 214.465147 
L 562.186699 213.804685 
" style="fill: none; stroke: #44cccc; stroke-width: 2.2; stroke-linecap: round"/>
   </g>
   <g id="text_39">
    <!-- d4 -->
    <g style="fill: #44cccc" transform="translate(543.719669 214.232329) scale(0.09 -0.09)">
     <use xlink:href="#DejaVuSans-64"/>
     <use xlink:href="#DejaVuSans-34" transform="translate(63.476562 0)"/>
    </g>
   </g>
   <g id="patch_22">
    <path d="M 603.19474 231.17146 
Q 585.782245 248.832705 570.096624 264.742406 
" style="fill: none; stroke: #ffcc00; stroke-width: 2.2; stroke-linecap: round"/>
    <path d="M 574.329128 263.298139 
L 570.096624 264.742406 
L 571.480713 260.489842 
" style="fill: none; stroke: #ffcc00; stroke-width: 2.2; stroke-linecap: round"/>
   </g>
   <g id="text_40">
    <!-- d5 -->
    <g style="fill: #ffcc00" transform="translate(558.23508 273.455203) scale(0.09 -0.09)">
     <use xlink:href="#DejaVuSans-64"/>
     <use xlink:href="#DejaVuSans-35" transform="translate(63.476562 0)"/>
    </g>
   </g>
   <g id="patch_23">
    <path d="M 605.797137 231.346648 
Q 620.725921 251.251693 634.1789 269.188999 
" style="fill: none; stroke: #aa44ff; stroke-width: 2.2; stroke-linecap: round"/>
    <path d="M 633.3789 264.788999 
L 634.1789 269.188999 
L 630.1789 267.188999 
" style="fill: none; stroke: #aa44ff; stroke-width: 2.2; stroke-linecap: round"/>
   </g>
   <g id="text_41">
    <!-- d6 -->
    <g style="fill: #aa44ff" transform="translate(633.715214 278.680751) scale(0.09 -0.09)">
     <use xlink:href="#DejaVuSans-64"/>
     <use xlink:href="#DejaVuSans-36" transform="translate(63.476562 0)"/>
    </g>
   </g>
   <g id="text_42">
    <!-- All tips sit on the unit circle. -->
    <g style="fill: #76b900" transform="translate(541.759869 356.759956) scale(0.09 -0.09)">
     <defs>
      <path id="DejaVuSans-41" d="M 2188 4044 
L 1331 1722 
L 3047 1722 
L 2188 4044 
z
M 1831 4666 
L 2547 4666 
L 4325 0 
L 3669 0 
L 3244 1197 
L 1141 1197 
L 716 0 
L 50 0 
L 1831 4666 
z
" transform="scale(0.015625)"/>
      <path id="DejaVuSans-70" d="M 1159 525 
L 1159 -1331 
L 581 -1331 
L 581 3500 
L 1159 3500 
L 1159 2969 
Q 1341 3281 1617 3432 
Q 1894 3584 2278 3584 
Q 2916 3584 3314 3078 
Q 3713 2572 3713 1747 
Q 3713 922 3314 415 
Q 2916 -91 2278 -91 
Q 1894 -91 1617 61 
Q 1341 213 1159 525 
z
M 3116 1747 
Q 3116 2381 2855 2742 
Q 2594 3103 2138 3103 
Q 1681 3103 1420 2742 
Q 1159 2381 1159 1747 
Q 1159 1113 1420 752 
Q 1681 391 2138 391 
Q 2594 391 2855 752 
Q 3116 1113 3116 1747 
z
" transform="scale(0.015625)"/>
     </defs>
     <use xlink:href="#DejaVuSans-41"/>
     <use xlink:href="#DejaVuSans-6c" transform="translate(68.408203 0)"/>
     <use xlink:href="#DejaVuSans-6c" transform="translate(96.191406 0)"/>
     <use xlink:href="#DejaVuSans-20" transform="translate(123.974609 0)"/>
     <use xlink:href="#DejaVuSans-74" transform="translate(155.761719 0)"/>
     <use xlink:href="#DejaVuSans-69" transform="translate(194.970703 0)"/>
     <use xlink:href="#DejaVuSans-70" transform="translate(222.753906 0)"/>
     <use xlink:href="#DejaVuSans-73" transform="translate(286.230469 0)"/>
     <use xlink:href="#DejaVuSans-20" transform="translate(338.330078 0)"/>
     <use xlink:href="#DejaVuSans-73" transform="translate(370.117188 0)"/>
     <use xlink:href="#DejaVuSans-69" transform="translate(422.216797 0)"/>
     <use xlink:href="#DejaVuSans-74" transform="translate(450 0)"/>
     <use xlink:href="#DejaVuSans-20" transform="translate(489.208984 0)"/>
     <use xlink:href="#DejaVuSans-6f" transform="translate(520.996094 0)"/>
     <use xlink:href="#DejaVuSans-6e" transform="translate(582.177734 0)"/>
     <use xlink:href="#DejaVuSans-20" transform="translate(645.556641 0)"/>
     <use xlink:href="#DejaVuSans-74" transform="translate(677.34375 0)"/>
     <use xlink:href="#DejaVuSans-68" transform="translate(716.552734 0)"/>
     <use xlink:href="#DejaVuSans-65" transform="translate(779.931641 0)"/>
     <use xlink:href="#DejaVuSans-20" transform="translate(841.455078 0)"/>
     <use xlink:href="#DejaVuSans-75" transform="translate(873.242188 0)"/>
     <use xlink:href="#DejaVuSans-6e" transform="translate(936.621094 0)"/>
     <use xlink:href="#DejaVuSans-69" transform="translate(1000 0)"/>
     <use xlink:href="#DejaVuSans-74" transform="translate(1027.783203 0)"/>
     <use xlink:href="#DejaVuSans-20" transform="translate(1066.992188 0)"/>
     <use xlink:href="#DejaVuSans-63" transform="translate(1098.779297 0)"/>
     <use xlink:href="#DejaVuSans-69" transform="translate(1153.759766 0)"/>
     <use xlink:href="#DejaVuSans-72" transform="translate(1181.542969 0)"/>
     <use xlink:href="#DejaVuSans-63" transform="translate(1220.40625 0)"/>
     <use xlink:href="#DejaVuSans-6c" transform="translate(1275.386719 0)"/>
     <use xlink:href="#DejaVuSans-65" transform="translate(1303.169922 0)"/>
     <use xlink:href="#DejaVuSans-2e" transform="translate(1364.693359 0)"/>
    </g>
    <!-- Angle between vectors = semantic distance. -->
    <g style="fill: #76b900" transform="translate(503.699713 366.837987) scale(0.09 -0.09)">
     <use xlink:href="#DejaVuSans-41"/>
     <use xlink:href="#DejaVuSans-6e" transform="translate(68.408203 0)"/>
     <use xlink:href="#DejaVuSans-67" transform="translate(131.787109 0)"/>
     <use xlink:href="#DejaVuSans-6c" transform="translate(195.263672 0)"/>
     <use xlink:href="#DejaVuSans-65" transform="translate(223.046875 0)"/>
     <use xlink:href="#DejaVuSans-20" transform="translate(284.570312 0)"/>
     <use xlink:href="#DejaVuSans-62" transform="translate(316.357422 0)"/>
     <use xlink:href="#DejaVuSans-65" transform="translate(379.833984 0)"/>
     <use xlink:href="#DejaVuSans-74" transform="translate(441.357422 0)"/>
     <use xlink:href="#DejaVuSans-77" transform="translate(480.566406 0)"/>
     <use xlink:href="#DejaVuSans-65" transform="translate(562.353516 0)"/>
     <use xlink:href="#DejaVuSans-65" transform="translate(623.876953 0)"/>
     <use xlink:href="#DejaVuSans-6e" transform="translate(685.400391 0)"/>
     <use xlink:href="#DejaVuSans-20" transform="translate(748.779297 0)"/>
     <use xlink:href="#DejaVuSans-76" transform="translate(780.566406 0)"/>
     <use xlink:href="#DejaVuSans-65" transform="translate(839.746094 0)"/>
     <use xlink:href="#DejaVuSans-63" transform="translate(901.269531 0)"/>
     <use xlink:href="#DejaVuSans-74" transform="translate(956.25 0)"/>
     <use xlink:href="#DejaVuSans-6f" transform="translate(995.458984 0)"/>
     <use xlink:href="#DejaVuSans-72" transform="translate(1056.640625 0)"/>
     <use xlink:href="#DejaVuSans-73" transform="translate(1097.753906 0)"/>
     <use xlink:href="#DejaVuSans-20" transform="translate(1149.853516 0)"/>
     <use xlink:href="#DejaVuSans-3d" transform="translate(1181.640625 0)"/>
     <use xlink:href="#DejaVuSans-20" transform="translate(1265.429688 0)"/>
     <use xlink:href="#DejaVuSans-73" transform="translate(1297.216797 0)"/>
     <use xlink:href="#DejaVuSans-65" transform="translate(1349.316406 0)"/>
     <use xlink:href="#DejaVuSans-6d" transform="translate(1410.839844 0)"/>
     <use xlink:href="#DejaVuSans-61" transform="translate(1508.251953 0)"/>
     <use xlink:href="#DejaVuSans-6e" transform="translate(1569.53125 0)"/>
     <use xlink:href="#DejaVuSans-74" transform="translate(1632.910156 0)"/>
     <use xlink:href="#DejaVuSans-69" transform="translate(1672.119141 0)"/>
     <use xlink:href="#DejaVuSans-63" transform="translate(1699.902344 0)"/>
     <use xlink:href="#DejaVuSans-20" transform="translate(1754.882812 0)"/>
     <use xlink:href="#DejaVuSans-64" transform="translate(1786.669922 0)"/>
     <use xlink:href="#DejaVuSans-69" transform="translate(1850.146484 0)"/>
     <use xlink:href="#DejaVuSans-73" transform="translate(1877.929688 0)"/>
     <use xlink:href="#DejaVuSans-74" transform="translate(1930.029297 0)"/>
     <use xlink:href="#DejaVuSans-61" transform="translate(1969.238281 0)"/>
     <use xlink:href="#DejaVuSans-6e" transform="translate(2030.517578 0)"/>
     <use xlink:href="#DejaVuSans-63" transform="translate(2093.896484 0)"/>
     <use xlink:href="#DejaVuSans-65" transform="translate(2148.876953 0)"/>
     <use xlink:href="#DejaVuSans-2e" transform="translate(2210.400391 0)"/>
    </g>
   </g>
   <g id="text_43">
    <!-- After L2 normalization -->
    <g style="fill: #e0e0e0" transform="translate(538.210026 57.780443) scale(0.12 -0.12)">
     <defs>
      <path id="DejaVuSans-4c" d="M 628 4666 
L 1259 4666 
L 1259 531 
L 3531 531 
L 3531 0 
L 628 0 
L 628 4666 
z
" transform="scale(0.015625)"/>
      <path id="DejaVuSans-7a" d="M 353 3500 
L 3084 3500 
L 3084 2975 
L 922 459 
L 3084 459 
L 3084 0 
L 275 0 
L 275 525 
L 2438 3041 
L 353 3041 
L 353 3500 
z
" transform="scale(0.015625)"/>
     </defs>
     <use xlink:href="#DejaVuSans-41"/>
     <use xlink:href="#DejaVuSans-66" transform="translate(64.783203 0)"/>
     <use xlink:href="#DejaVuSans-74" transform="translate(98.238281 0)"/>
     <use xlink:href="#DejaVuSans-65" transform="translate(137.447266 0)"/>
     <use xlink:href="#DejaVuSans-72" transform="translate(198.970703 0)"/>
     <use xlink:href="#DejaVuSans-20" transform="translate(240.083984 0)"/>
     <use xlink:href="#DejaVuSans-4c" transform="translate(271.871094 0)"/>
     <use xlink:href="#DejaVuSans-32" transform="translate(327.583984 0)"/>
     <use xlink:href="#DejaVuSans-20" transform="translate(391.207031 0)"/>
     <use xlink:href="#DejaVuSans-6e" transform="translate(422.994141 0)"/>
     <use xlink:href="#DejaVuSans-6f" transform="translate(486.373047 0)"/>
     <use xlink:href="#DejaVuSans-72" transform="translate(547.554688 0)"/>
     <use xlink:href="#DejaVuSans-6d" transform="translate(586.917969 0)"/>
     <use xlink:href="#DejaVuSans-61" transform="translate(684.330078 0)"/>
     <use xlink:href="#DejaVuSans-6c" transform="translate(745.609375 0)"/>
     <use xlink:href="#DejaVuSans-69" transform="translate(773.392578 0)"/>
     <use xlink:href="#DejaVuSans-7a" transform="translate(801.175781 0)"/>
     <use xlink:href="#DejaVuSans-61" transform="translate(853.666016 0)"/>
     <use xlink:href="#DejaVuSans-74" transform="translate(914.945312 0)"/>
     <use xlink:href="#DejaVuSans-69" transform="translate(954.154297 0)"/>
     <use xlink:href="#DejaVuSans-6f" transform="translate(981.9375 0)"/>
     <use xlink:href="#DejaVuSans-6e" transform="translate(1043.119141 0)"/>
    </g>
    <!-- (all on unit circle) -->
    <g style="fill: #e0e0e0" transform="translate(552.131901 71.217818) scale(0.12 -0.12)">
     <use xlink:href="#DejaVuSans-28"/>
     <use xlink:href="#DejaVuSans-61" transform="translate(39.013672 0)"/>
     <use xlink:href="#DejaVuSans-6c" transform="translate(100.292969 0)"/>
     <use xlink:href="#DejaVuSans-6c" transform="translate(128.076172 0)"/>
     <use xlink:href="#DejaVuSans-20" transform="translate(155.859375 0)"/>
     <use xlink:href="#DejaVuSans-6f" transform="translate(187.646484 0)"/>
     <use xlink:href="#DejaVuSans-6e" transform="translate(248.828125 0)"/>
     <use xlink:href="#DejaVuSans-20" transform="translate(312.207031 0)"/>
     <use xlink:href="#DejaVuSans-75" transform="translate(343.994141 0)"/>
     <use xlink:href="#DejaVuSans-6e" transform="translate(407.373047 0)"/>
     <use xlink:href="#DejaVuSans-69" transform="translate(470.751953 0)"/>
     <use xlink:href="#DejaVuSans-74" transform="translate(498.535156 0)"/>
     <use xlink:href="#DejaVuSans-20" transform="translate(537.744141 0)"/>
     <use xlink:href="#DejaVuSans-63" transform="translate(569.53125 0)"/>
     <use xlink:href="#DejaVuSans-69" transform="translate(624.511719 0)"/>
     <use xlink:href="#DejaVuSans-72" transform="translate(652.294922 0)"/>
     <use xlink:href="#DejaVuSans-63" transform="translate(691.158203 0)"/>
     <use xlink:href="#DejaVuSans-6c" transform="translate(746.138672 0)"/>
     <use xlink:href="#DejaVuSans-65" transform="translate(773.921875 0)"/>
     <use xlink:href="#DejaVuSans-29" transform="translate(835.445312 0)"/>
    </g>
   </g>
   <g id="PathCollection_7">
    <g clip-path="url(#pbde794e6ac)">
     <use xlink:href="#mff47fe912b" x="647.606774" y="197.491532" style="fill: #76b900; stroke: #76b900"/>
    </g>
   </g>
   <g id="PathCollection_8">
    <g clip-path="url(#pbde794e6ac)">
     <use xlink:href="#m3edbe2585b" x="620.726384" y="178.67526" style="fill: #4477ff; stroke: #4477ff"/>
    </g>
   </g>
   <g id="PathCollection_9">
    <g clip-path="url(#pbde794e6ac)">
     <use xlink:href="#ma637e16d12" x="577.717761" y="182.976122" style="fill: #cc6622; stroke: #cc6622"/>
    </g>
   </g>
   <g id="PathCollection_10">
    <g clip-path="url(#pbde794e6ac)">
     <use xlink:href="#m40281d17c5" x="553.52541" y="213.082158" style="fill: #44cccc; stroke: #44cccc"/>
    </g>
   </g>
   <g id="PathCollection_11">
    <g clip-path="url(#pbde794e6ac)">
     <use xlink:href="#m0796b221aa" x="566.965605" y="267.918153" style="fill: #ffcc00; stroke: #ffcc00"/>
    </g>
   </g>
   <g id="PathCollection_12">
    <g clip-path="url(#pbde794e6ac)">
     <use xlink:href="#m2306fd9883" x="636.854618" y="272.756623" style="fill: #aa44ff; stroke: #aa44ff"/>
    </g>
   </g>
   <g id="legend_1">
    <g id="patch_24">
     <path d="M 675.798957 375.778182 
L 748.828332 375.778182 
Q 750.628332 375.778182 750.628332 373.978182 
L 750.628332 361.667869 
Q 750.628332 359.867869 748.828332 359.867869 
L 675.798957 359.867869 
Q 673.998957 359.867869 673.998957 361.667869 
L 673.998957 373.978182 
Q 673.998957 375.778182 675.798957 375.778182 
z
" style="fill: #1a1a2e; opacity: 0.8; stroke: #cccccc; stroke-linejoin: miter"/>
    </g>
    <g id="line2d_26">
     <path d="M 677.598957 367.156463 
L 686.598957 367.156463 
L 695.598957 367.156463 
" style="fill: none; stroke-dasharray: 5.55,2.4; stroke-dashoffset: 0; stroke: #76b900; stroke-opacity: 0.7; stroke-width: 1.5"/>
    </g>
    <g id="text_44">
     <!-- unit circle -->
     <g style="fill: #e0e0e0" transform="translate(702.798957 370.306463) scale(0.09 -0.09)">
      <use xlink:href="#DejaVuSans-75"/>
      <use xlink:href="#DejaVuSans-6e" transform="translate(63.378906 0)"/>
      <use xlink:href="#DejaVuSans-69" transform="translate(126.757812 0)"/>
      <use xlink:href="#DejaVuSans-74" transform="translate(154.541016 0)"/>
      <use xlink:href="#DejaVuSans-20" transform="translate(193.75 0)"/>
      <use xlink:href="#DejaVuSans-63" transform="translate(225.537109 0)"/>
      <use xlink:href="#DejaVuSans-69" transform="translate(280.517578 0)"/>
      <use xlink:href="#DejaVuSans-72" transform="translate(308.300781 0)"/>
      <use xlink:href="#DejaVuSans-63" transform="translate(347.164062 0)"/>
      <use xlink:href="#DejaVuSans-6c" transform="translate(402.144531 0)"/>
      <use xlink:href="#DejaVuSans-65" transform="translate(429.927734 0)"/>
     </g>
    </g>
   </g>
  </g>
  <g id="text_45">
   <!-- L2 Normalization: Direction Preserved, Magnitude Discarded -->
   <g style="fill: #e0e0e0" transform="translate(169.852057 17.837812) scale(0.14 -0.14)">
    <defs>
     <path id="DejaVuSans-4e" d="M 628 4666 
L 1478 4666 
L 3547 763 
L 3547 4666 
L 4159 4666 
L 4159 0 
L 3309 0 
L 1241 3903 
L 1241 0 
L 628 0 
L 628 4666 
z
" transform="scale(0.015625)"/>
     <path id="DejaVuSans-3a" d="M 750 794 
L 1409 794 
L 1409 0 
L 750 0 
L 750 794 
z
M 750 3309 
L 1409 3309 
L 1409 2516 
L 750 2516 
L 750 3309 
z
" transform="scale(0.015625)"/>
     <path id="DejaVuSans-50" d="M 1259 4147 
L 1259 2394 
L 2053 2394 
Q 2494 2394 2734 2622 
Q 2975 2850 2975 3272 
Q 2975 3691 2734 3919 
Q 2494 4147 2053 4147 
L 1259 4147 
z
M 628 4666 
L 2053 4666 
Q 2838 4666 3239 4311 
Q 3641 3956 3641 3272 
Q 3641 2581 3239 2228 
Q 2838 1875 2053 1875 
L 1259 1875 
L 1259 0 
L 628 0 
L 628 4666 
z
" transform="scale(0.015625)"/>
     <path id="DejaVuSans-2c" d="M 750 794 
L 1409 794 
L 1409 256 
L 897 -744 
L 494 -744 
L 750 256 
L 750 794 
z
" transform="scale(0.015625)"/>
     <path id="DejaVuSans-4d" d="M 628 4666 
L 1569 4666 
L 2759 1491 
L 3956 4666 
L 4897 4666 
L 4897 0 
L 4281 0 
L 4281 4097 
L 3078 897 
L 2444 897 
L 1241 4097 
L 1241 0 
L 628 0 
L 628 4666 
z
" transform="scale(0.015625)"/>
    </defs>
    <use xlink:href="#DejaVuSans-4c"/>
    <use xlink:href="#DejaVuSans-32" transform="translate(55.712891 0)"/>
    <use xlink:href="#DejaVuSans-20" transform="translate(119.335938 0)"/>
    <use xlink:href="#DejaVuSans-4e" transform="translate(151.123047 0)"/>
    <use xlink:href="#DejaVuSans-6f" transform="translate(225.927734 0)"/>
    <use xlink:href="#DejaVuSans-72" transform="translate(287.109375 0)"/>
    <use xlink:href="#DejaVuSans-6d" transform="translate(326.472656 0)"/>
    <use xlink:href="#DejaVuSans-61" transform="translate(423.884766 0)"/>
    <use xlink:href="#DejaVuSans-6c" transform="translate(485.164062 0)"/>
    <use xlink:href="#DejaVuSans-69" transform="translate(512.947266 0)"/>
    <use xlink:href="#DejaVuSans-7a" transform="translate(540.730469 0)"/>
    <use xlink:href="#DejaVuSans-61" transform="translate(593.220703 0)"/>
    <use xlink:href="#DejaVuSans-74" transform="translate(654.5 0)"/>
    <use xlink:href="#DejaVuSans-69" transform="translate(693.708984 0)"/>
    <use xlink:href="#DejaVuSans-6f" transform="translate(721.492188 0)"/>
    <use xlink:href="#DejaVuSans-6e" transform="translate(782.673828 0)"/>
    <use xlink:href="#DejaVuSans-3a" transform="translate(846.052734 0)"/>
    <use xlink:href="#DejaVuSans-20" transform="translate(879.744141 0)"/>
    <use xlink:href="#DejaVuSans-44" transform="translate(911.53125 0)"/>
    <use xlink:href="#DejaVuSans-69" transform="translate(988.533203 0)"/>
    <use xlink:href="#DejaVuSans-72" transform="translate(1016.316406 0)"/>
    <use xlink:href="#DejaVuSans-65" transform="translate(1055.179688 0)"/>
    <use xlink:href="#DejaVuSans-63" transform="translate(1116.703125 0)"/>
    <use xlink:href="#DejaVuSans-74" transform="translate(1171.683594 0)"/>
    <use xlink:href="#DejaVuSans-69" transform="translate(1210.892578 0)"/>
    <use xlink:href="#DejaVuSans-6f" transform="translate(1238.675781 0)"/>
    <use xlink:href="#DejaVuSans-6e" transform="translate(1299.857422 0)"/>
    <use xlink:href="#DejaVuSans-20" transform="translate(1363.236328 0)"/>
    <use xlink:href="#DejaVuSans-50" transform="translate(1395.023438 0)"/>
    <use xlink:href="#DejaVuSans-72" transform="translate(1453.576172 0)"/>
    <use xlink:href="#DejaVuSans-65" transform="translate(1492.439453 0)"/>
    <use xlink:href="#DejaVuSans-73" transform="translate(1553.962891 0)"/>
    <use xlink:href="#DejaVuSans-65" transform="translate(1606.0625 0)"/>
    <use xlink:href="#DejaVuSans-72" transform="translate(1667.585938 0)"/>
    <use xlink:href="#DejaVuSans-76" transform="translate(1708.699219 0)"/>
    <use xlink:href="#DejaVuSans-65" transform="translate(1767.878906 0)"/>
    <use xlink:href="#DejaVuSans-64" transform="translate(1829.402344 0)"/>
    <use xlink:href="#DejaVuSans-2c" transform="translate(1892.878906 0)"/>
    <use xlink:href="#DejaVuSans-20" transform="translate(1924.666016 0)"/>
    <use xlink:href="#DejaVuSans-4d" transform="translate(1956.453125 0)"/>
    <use xlink:href="#DejaVuSans-61" transform="translate(2042.732422 0)"/>
    <use xlink:href="#DejaVuSans-67" transform="translate(2104.011719 0)"/>
    <use xlink:href="#DejaVuSans-6e" transform="translate(2167.488281 0)"/>
    <use xlink:href="#DejaVuSans-69" transform="translate(2230.867188 0)"/>
    <use xlink:href="#DejaVuSans-74" transform="translate(2258.650391 0)"/>
    <use xlink:href="#DejaVuSans-75" transform="translate(2297.859375 0)"/>
    <use xlink:href="#DejaVuSans-64" transform="translate(2361.238281 0)"/>
    <use xlink:href="#DejaVuSans-65" transform="translate(2424.714844 0)"/>
    <use xlink:href="#DejaVuSans-20" transform="translate(2486.238281 0)"/>
    <use xlink:href="#DejaVuSans-44" transform="translate(2518.025391 0)"/>
    <use xlink:href="#DejaVuSans-69" transform="translate(2595.027344 0)"/>
    <use xlink:href="#DejaVuSans-73" transform="translate(2622.810547 0)"/>
    <use xlink:href="#DejaVuSans-63" transform="translate(2674.910156 0)"/>
    <use xlink:href="#DejaVuSans-61" transform="translate(2729.890625 0)"/>
    <use xlink:href="#DejaVuSans-72" transform="translate(2791.169922 0)"/>
    <use xlink:href="#DejaVuSans-64" transform="translate(2830.533203 0)"/>
    <use xlink:href="#DejaVuSans-65" transform="translate(2894.009766 0)"/>
    <use xlink:href="#DejaVuSans-64" transform="translate(2955.533203 0)"/>
   </g>
  </g>
 </g>
 <defs>
  <clipPath id="pd8c9d3c136">
   <rect x="27.467969" y="79.217818" width="301.060364" height="301.060364"/>
  </clipPath>
  <clipPath id="pbde794e6ac">
   <rect x="454.067969" y="79.217818" width="301.060364" height="301.060364"/>
  </clipPath>
 </defs>
</svg>
