<?xml version="1.0" encoding="UTF-8" standalone="no"?>
<!DOCTYPE svg PUBLIC "-//W3C//DTD SVG 1.1//EN"
 "http://www.w3.org/Graphics/SVG/1.1/DTD/svg11.dtd">
<!-- Generated by graphviz version 2.43.0 (0)
 -->
<!-- Title: Arch3_GPU_Model_Stack Pages: 1 -->
<svg width="900pt" height="970pt"
 viewBox="0.00 0.00 900.40 970.40" xmlns="http://www.w3.org/2000/svg" xmlns:xlink="http://www.w3.org/1999/xlink">
<g id="graph0" class="graph" transform="scale(1 1) rotate(0) translate(43.2 927.2)">
<title>Arch3_GPU_Model_Stack</title>
<polygon fill="#1a1a2e" stroke="transparent" points="-43.2,43.2 -43.2,-927.2 857.2,-927.2 857.2,43.2 -43.2,43.2"/>
<text text-anchor="middle" x="407" y="-867.2" font-family="Helvetica,sans-Serif" font-size="16.00" fill="#e0e0e0">GPU 0 Model Stack — RTX 5080 (Blackwell sm_120, 16 GB)</text>
<g id="clust1" class="cluster">
<title>cluster_hw</title>
<polygon fill="#1a1a2e" stroke="#553355" stroke-dasharray="5,2" points="8,-641 8,-850 210,-850 210,-641 8,-641"/>
<text text-anchor="middle" x="109" y="-835.6" font-family="Helvetica,sans-Serif" font-size="13.00" fill="#e0e0e0">Hardware — NVIDIA RTX 5080</text>
</g>
<g id="clust2" class="cluster">
<title>cluster_cuda</title>
<polygon fill="#111128" stroke="#444477" points="218,-512 218,-724 400,-724 400,-512 218,-512"/>
<text text-anchor="middle" x="309" y="-710.4" font-family="Helvetica,sans-Serif" font-size="12.00" fill="#e0e0e0">CUDA Runtime</text>
</g>
<g id="clust3" class="cluster">
<title>cluster_models</title>
<polygon fill="#101520" stroke="#224466" points="419,-381 419,-601 593,-601 593,-381 419,-381"/>
<text text-anchor="middle" x="506" y="-587.4" font-family="Helvetica,sans-Serif" font-size="12.00" fill="#e0e0e0">Models in VRAM</text>
</g>
<g id="clust4" class="cluster">
<title>cluster_ops</title>
<polygon fill="#1a1a2e" stroke="#225544" stroke-dasharray="5,2" points="449,-8 449,-335 619,-335 619,-8 449,-8"/>
<text text-anchor="middle" x="534" y="-321.4" font-family="Helvetica,sans-Serif" font-size="12.00" fill="#e0e0e0">GPU Operations</text>
</g>
<g id="clust5" class="cluster">
<title>cluster_pipeline</title>
<polygon fill="#1a1a2e" stroke="#444433" stroke-dasharray="5,2" points="634,-236 634,-341 806,-341 806,-236 634,-236"/>
<text text-anchor="middle" x="720" y="-327.4" font-family="Helvetica,sans-Serif" font-size="12.00" fill="#e0e0e0">Per&#45;Class Interleave</text>
</g>
<!-- gpu -->
<g id="node1" class="node">
<title>gpu</title>
<polygon fill="#3a1a4a" stroke="black" points="202,-820 60,-820 56,-816 56,-764 198,-764 202,-768 202,-820"/>
<polyline fill="none" stroke="black" points="198,-816 56,-816 "/>
<polyline fill="none" stroke="black" points="198,-816 198,-764 "/>
<polyline fill="none" stroke="black" points="198,-816 202,-820 "/>
<text text-anchor="middle" x="129" y="-807.2" font-family="Helvetica,sans-Serif" font-size="11.00" fill="white">RTX 5080</text>
<text text-anchor="middle" x="129" y="-795.2" font-family="Helvetica,sans-Serif" font-size="11.00" fill="white">Blackwell / sm_120</text>
<text text-anchor="middle" x="129" y="-783.2" font-family="Helvetica,sans-Serif" font-size="11.00" fill="white">16 GB GDDR7</text>
<text text-anchor="middle" x="129" y="-771.2" font-family="Helvetica,sans-Serif" font-size="11.00" fill="white">CUDA 13.0 (cu130 nightly)</text>
</g>
<!-- vram -->
<g id="node2" class="node">
<title>vram</title>
<polygon fill="#2a1a3a" stroke="black" points="173.5,-705 78.5,-705 78.5,-649 179.5,-649 179.5,-699 173.5,-705"/>
<polyline fill="none" stroke="black" points="173.5,-705 173.5,-699 "/>
<polyline fill="none" stroke="black" points="179.5,-699 173.5,-699 "/>
<text text-anchor="middle" x="129" y="-692.2" font-family="Helvetica,sans-Serif" font-size="11.00" fill="white">VRAM Budget</text>
<text text-anchor="middle" x="129" y="-680.2" font-family="Helvetica,sans-Serif" font-size="11.00" fill="white">total: 16,303 MiB</text>
<text text-anchor="middle" x="129" y="-668.2" font-family="Helvetica,sans-Serif" font-size="11.00" fill="white">used: ~9,400 MiB</text>
<text text-anchor="middle" x="129" y="-656.2" font-family="Helvetica,sans-Serif" font-size="11.00" fill="white">free: ~6,900 MiB</text>
</g>
<!-- gpu&#45;&gt;vram -->
<!-- torch -->
<g id="node3" class="node">
<title>torch</title>
<polygon fill="#222255" stroke="black" points="386.5,-695 241.5,-695 241.5,-659 386.5,-659 386.5,-695"/>
<text text-anchor="middle" x="314" y="-680.2" font-family="Helvetica,sans-Serif" font-size="11.00" fill="white">PyTorch 2.13.0.dev+cu130</text>
<text text-anchor="middle" x="314" y="-668.2" font-family="Helvetica,sans-Serif" font-size="11.00" fill="white">Blackwell sm_120 kernels</text>
</g>
<!-- gpu&#45;&gt;torch -->
<g id="edge5" class="edge">
<title>gpu&#45;&gt;torch</title>
<path fill="none" stroke="#aaaaaa" d="M173.31,-763.93C205.09,-744.53 247.39,-718.69 277.28,-700.43"/>
<polygon fill="#aaaaaa" stroke="#aaaaaa" points="279.43,-703.22 286.13,-695.02 275.78,-697.25 279.43,-703.22"/>
</g>
<!-- ctx -->
<g id="node4" class="node">
<title>ctx</title>
<polygon fill="#1a1a44" stroke="black" points="391.5,-556 226.5,-556 226.5,-520 391.5,-520 391.5,-556"/>
<text text-anchor="middle" x="309" y="-541.2" font-family="Helvetica,sans-Serif" font-size="11.00" fill="white">CUDA context</text>
<text text-anchor="middle" x="309" y="-529.2" font-family="Helvetica,sans-Serif" font-size="11.00" fill="white">CUDA_VISIBLE_DEVICES=0</text>
</g>
<!-- torch&#45;&gt;ctx -->
<!-- bge -->
<g id="node5" class="node">
<title>bge</title>
<polygon fill="#1a2a55" stroke="black" points="584.5,-572 427.5,-572 427.5,-504 584.5,-504 584.5,-572"/>
<text text-anchor="middle" x="506" y="-559.2" font-family="Helvetica,sans-Serif" font-size="11.00" fill="white">BAAI/bge&#45;m3</text>
<text text-anchor="middle" x="506" y="-547.2" font-family="Helvetica,sans-Serif" font-size="11.00" fill="white">SentenceTransformer</text>
<text text-anchor="middle" x="506" y="-535.2" font-family="Helvetica,sans-Serif" font-size="11.00" fill="white">~2,200 MiB</text>
<text text-anchor="middle" x="506" y="-523.2" font-family="Helvetica,sans-Serif" font-size="11.00" fill="white">8192&#45;token context</text>
<text text-anchor="middle" x="506" y="-511.2" font-family="Helvetica,sans-Serif" font-size="11.00" fill="white">normalize_embeddings=True</text>
</g>
<!-- torch&#45;&gt;bge -->
<g id="edge6" class="edge">
<title>torch&#45;&gt;bge</title>
<path fill="none" stroke="#aaaaaa" d="M337.93,-658.93C366.15,-638.79 413.96,-604.67 451.39,-577.97"/>
<polygon fill="#aaaaaa" stroke="#aaaaaa" points="453.59,-580.7 459.69,-572.04 449.52,-575 453.59,-580.7"/>
<text text-anchor="middle" x="422.5" y="-612" font-family="Helvetica,sans-Serif" font-size="10.00" fill="#cccccc">~2.2 GB</text>
</g>
<!-- easyocr_m -->
<g id="node6" class="node">
<title>easyocr_m</title>
<polygon fill="#1a3055" stroke="black" points="585,-445 469,-445 469,-389 585,-389 585,-445"/>
<text text-anchor="middle" x="527" y="-432.2" font-family="Helvetica,sans-Serif" font-size="11.00" fill="white">EasyOCR (en)</text>
<text text-anchor="middle" x="527" y="-420.2" font-family="Helvetica,sans-Serif" font-size="11.00" fill="white">~200 MiB</text>
<text text-anchor="middle" x="527" y="-408.2" font-family="Helvetica,sans-Serif" font-size="11.00" fill="white">CRAFT text detector</text>
<text text-anchor="middle" x="527" y="-396.2" font-family="Helvetica,sans-Serif" font-size="11.00" fill="white">+ CRNN recognizer</text>
</g>
<!-- torch&#45;&gt;easyocr_m -->
<g id="edge7" class="edge">
<title>torch&#45;&gt;easyocr_m</title>
<path fill="none" stroke="#aaaaaa" d="M379.58,-658.98C464.85,-636.85 603,-601 603,-601 603,-601 603,-504 603,-504 603,-504 578.83,-476.65 557.75,-452.79"/>
<polygon fill="#aaaaaa" stroke="#aaaaaa" points="560.29,-450.39 551.05,-445.21 555.05,-455.02 560.29,-450.39"/>
<text text-anchor="middle" x="623" y="-535.5" font-family="Helvetica,sans-Serif" font-size="10.00" fill="#cccccc">~200 MB</text>
</g>
<!-- bge&#45;&gt;easyocr_m -->
<!-- encode_op -->
<g id="node7" class="node">
<title>encode_op</title>
<polygon fill="#1a3a2a" stroke="black" points="601,-175 467,-175 467,-119 601,-119 601,-175"/>
<text text-anchor="middle" x="534" y="-162.2" font-family="Helvetica,sans-Serif" font-size="11.00" fill="white">encoder.encode(chunks)</text>
<text text-anchor="middle" x="534" y="-150.2" font-family="Helvetica,sans-Serif" font-size="11.00" fill="white">batch_size=32</text>
<text text-anchor="middle" x="534" y="-138.2" font-family="Helvetica,sans-Serif" font-size="11.00" fill="white">returns float32 ndarray</text>
<text text-anchor="middle" x="534" y="-126.2" font-family="Helvetica,sans-Serif" font-size="11.00" fill="white">1024&#45;dim per chunk</text>
</g>
<!-- bge&#45;&gt;encode_op -->
<g id="edge8" class="edge">
<title>bge&#45;&gt;encode_op</title>
<path fill="none" stroke="#aaaaaa" d="M486.14,-503.79C470.39,-477.43 451,-445 451,-445 451,-445 444,-341 444,-341 444,-341 444,-236 444,-236 444,-236 473.49,-207.17 498.71,-182.51"/>
<polygon fill="#aaaaaa" stroke="#aaaaaa" points="501.31,-184.86 506.02,-175.36 496.42,-179.85 501.31,-184.86"/>
<text text-anchor="middle" x="465" y="-352" font-family="Helvetica,sans-Serif" font-size="10.00" fill="#cccccc">inference</text>
</g>
<!-- ocr_op -->
<g id="node8" class="node">
<title>ocr_op</title>
<polygon fill="#1a2a3a" stroke="black" points="606,-306 462,-306 462,-250 606,-250 606,-306"/>
<text text-anchor="middle" x="534" y="-293.2" font-family="Helvetica,sans-Serif" font-size="11.00" fill="white">ocr_reader.readtext(img)</text>
<text text-anchor="middle" x="534" y="-281.2" font-family="Helvetica,sans-Serif" font-size="11.00" fill="white">PyMuPDF 2x render →</text>
<text text-anchor="middle" x="534" y="-269.2" font-family="Helvetica,sans-Serif" font-size="11.00" fill="white">numpy uint8 array → GPU</text>
<text text-anchor="middle" x="534" y="-257.2" font-family="Helvetica,sans-Serif" font-size="11.00" fill="white">returns text strings</text>
</g>
<!-- easyocr_m&#45;&gt;ocr_op -->
<g id="edge9" class="edge">
<title>easyocr_m&#45;&gt;ocr_op</title>
<path fill="none" stroke="#aaaaaa" d="M528.38,-388.93C529.45,-368.11 530.93,-339.09 532.1,-316.1"/>
<polygon fill="#aaaaaa" stroke="#aaaaaa" points="535.6,-316.18 532.62,-306.01 528.61,-315.82 535.6,-316.18"/>
<text text-anchor="middle" x="550" y="-352" font-family="Helvetica,sans-Serif" font-size="10.00" fill="#cccccc">inference</text>
</g>
<!-- meanpool -->
<g id="node9" class="node">
<title>meanpool</title>
<polygon fill="#2a3a2a" stroke="black" points="611,-60 457,-60 457,-16 611,-16 611,-60"/>
<text text-anchor="middle" x="534" y="-47.2" font-family="Helvetica,sans-Serif" font-size="11.00" fill="white">CPU: mean&#45;pool chunk vecs</text>
<text text-anchor="middle" x="534" y="-35.2" font-family="Helvetica,sans-Serif" font-size="11.00" fill="white">per document</text>
<text text-anchor="middle" x="534" y="-23.2" font-family="Helvetica,sans-Serif" font-size="11.00" fill="white">→ 1024&#45;dim doc vector</text>
</g>
<!-- encode_op&#45;&gt;meanpool -->
<g id="edge4" class="edge">
<title>encode_op&#45;&gt;meanpool</title>
<path fill="none" stroke="#aaaaaa" d="M522.1,-119C520.16,-104.21 519.98,-85.81 521.58,-70.38"/>
<polygon fill="#aaaaaa" stroke="#aaaaaa" points="525.08,-70.64 522.97,-60.26 518.14,-69.69 525.08,-70.64"/>
</g>
<!-- encode_op&#45;&gt;meanpool -->
<g id="edge10" class="edge">
<title>encode_op&#45;&gt;meanpool</title>
<path fill="none" stroke="#aaaaaa" d="M545.9,-119C547.84,-104.21 548.02,-85.81 546.42,-70.38"/>
<polygon fill="#aaaaaa" stroke="#aaaaaa" points="549.86,-69.69 545.03,-60.26 542.92,-70.64 549.86,-69.69"/>
</g>
<!-- ocr_op&#45;&gt;encode_op -->
<g id="edge11" class="edge">
<title>ocr_op&#45;&gt;encode_op</title>
<path fill="none" stroke="#aaaaaa" d="M534,-249.96C534,-231.12 534,-205.77 534,-185.05"/>
<polygon fill="#aaaaaa" stroke="#aaaaaa" points="537.5,-185.01 534,-175.01 530.5,-185.01 537.5,-185.01"/>
<text text-anchor="middle" x="566" y="-207" font-family="Helvetica,sans-Serif" font-size="10.00" fill="#cccccc">text → chunks</text>
</g>
<!-- seq -->
<g id="node10" class="node">
<title>seq</title>
<polygon fill="#3a3a22" stroke="black" points="791.5,-312 642.5,-312 642.5,-244 797.5,-244 797.5,-306 791.5,-312"/>
<polyline fill="none" stroke="black" points="791.5,-312 791.5,-306 "/>
<polyline fill="none" stroke="black" points="797.5,-306 791.5,-306 "/>
<text text-anchor="middle" x="720" y="-299.2" font-family="Helvetica,sans-Serif" font-size="11.00" fill="white">for each class:</text>
<text text-anchor="middle" x="720" y="-287.2" font-family="Helvetica,sans-Serif" font-size="11.00" fill="white">1. CPU workers extract text</text>
<text text-anchor="middle" x="720" y="-275.2" font-family="Helvetica,sans-Serif" font-size="11.00" fill="white">2. GPU OCR image files</text>
<text text-anchor="middle" x="720" y="-263.2" font-family="Helvetica,sans-Serif" font-size="11.00" fill="white">3. GPU embed all class docs</text>
<text text-anchor="middle" x="720" y="-251.2" font-family="Helvetica,sans-Serif" font-size="11.00" fill="white">→ accumulate embeddings</text>
</g>
<!-- seq&#45;&gt;encode_op -->
</g>
</svg>
