<?xml version="1.0" encoding="UTF-8" standalone="no"?>
<!DOCTYPE svg PUBLIC "-//W3C//DTD SVG 1.1//EN"
 "http://www.w3.org/Graphics/SVG/1.1/DTD/svg11.dtd">
<!-- Generated by graphviz version 2.43.0 (0)
 -->
<!-- Title: Arch2_Extraction_Worker_Pool Pages: 1 -->
<svg width="693pt" height="1452pt"
 viewBox="0.00 0.00 693.40 1451.91" xmlns="http://www.w3.org/2000/svg" xmlns:xlink="http://www.w3.org/1999/xlink">
<g id="graph0" class="graph" transform="scale(1 1) rotate(0) translate(43.2 1408.71)">
<title>Arch2_Extraction_Worker_Pool</title>
<polygon fill="#1a1a2e" stroke="transparent" points="-43.2,43.2 -43.2,-1408.71 650.2,-1408.71 650.2,43.2 -43.2,43.2"/>
<text text-anchor="middle" x="303.5" y="-1348.71" font-family="Helvetica,sans-Serif" font-size="16.00" fill="#e0e0e0">Extraction Worker Pool — _extract_class() Three&#45;Phase Design</text>
<g id="clust1" class="cluster">
<title>cluster_phaseA</title>
<polygon fill="#111a11" stroke="#335533" points="8,-544.25 8,-1252.25 599,-1252.25 599,-544.25 8,-544.25"/>
<text text-anchor="middle" x="303.5" y="-1238.65" font-family="Helvetica,sans-Serif" font-size="12.00" fill="#e0e0e0">Phase A — Parallel CPU Extraction</text>
</g>
<g id="clust2" class="cluster">
<title>cluster_workers</title>
<polygon fill="#1a1a2e" stroke="#224422" stroke-dasharray="5,2" points="16,-798.25 16,-1113.25 291,-1113.25 291,-798.25 16,-798.25"/>
<text text-anchor="middle" x="153.5" y="-1099.65" font-family="Helvetica,sans-Serif" font-size="12.00" fill="#cccccc">Worker Processes (separate Python interpreters)</text>
</g>
<g id="clust3" class="cluster">
<title>cluster_phaseB</title>
<polygon fill="#1a1000" stroke="#664400" points="276,-324.25 276,-510.25 561,-510.25 561,-324.25 276,-324.25"/>
<text text-anchor="middle" x="418.5" y="-496.65" font-family="Helvetica,sans-Serif" font-size="12.00" fill="#e0e0e0">Phase B — Sequential CPU Fallback</text>
</g>
<g id="clust4" class="cluster">
<title>cluster_phaseC</title>
<polygon fill="#10101a" stroke="#334466" points="157,-104.25 157,-290.25 401,-290.25 401,-104.25 157,-104.25"/>
<text text-anchor="middle" x="279" y="-276.65" font-family="Helvetica,sans-Serif" font-size="12.00" fill="#e0e0e0">Phase C — Sequential GPU OCR</text>
</g>
<!-- entry -->
<g id="node1" class="node">
<title>entry</title>
<ellipse fill="#2a2a5a" stroke="black" cx="232" cy="-1316.88" rx="70.01" ry="22.76"/>
<text text-anchor="middle" x="232" y="-1320.08" font-family="Helvetica,sans-Serif" font-size="11.00" fill="white">label_dir</text>
<text text-anchor="middle" x="232" y="-1308.08" font-family="Helvetica,sans-Serif" font-size="11.00" fill="white">(one class folder)</text>
</g>
<!-- ppe_ctx -->
<g id="node2" class="node">
<title>ppe_ctx</title>
<polygon fill="#2a4a2a" stroke="black" points="292,-1223.25 172,-1223.25 172,-1187.25 292,-1187.25 292,-1223.25"/>
<text text-anchor="middle" x="232" y="-1208.45" font-family="Helvetica,sans-Serif" font-size="11.00" fill="white">ProcessPoolExecutor</text>
<text text-anchor="middle" x="232" y="-1196.45" font-family="Helvetica,sans-Serif" font-size="11.00" fill="white">max_workers=14</text>
</g>
<!-- entry&#45;&gt;ppe_ctx -->
<g id="edge17" class="edge">
<title>entry&#45;&gt;ppe_ctx</title>
<path fill="none" stroke="#aaaaaa" d="M232,-1294.02C232,-1294.02 232,-1233.3 232,-1233.3"/>
<polygon fill="#aaaaaa" stroke="#aaaaaa" points="235.5,-1233.3 232,-1223.3 228.5,-1233.3 235.5,-1233.3"/>
</g>
<!-- w0 -->
<g id="node3" class="node">
<title>w0</title>
<polygon fill="#1e3a1e" stroke="black" points="165.5,-1084.25 58.5,-1084.25 58.5,-1048.25 165.5,-1048.25 165.5,-1084.25"/>
<text text-anchor="middle" x="112" y="-1069.45" font-family="Helvetica,sans-Serif" font-size="11.00" fill="white">Worker 0</text>
<text text-anchor="middle" x="112" y="-1057.45" font-family="Helvetica,sans-Serif" font-size="11.00" fill="white">_extract_cpu(path)</text>
</g>
<!-- ppe_ctx&#45;&gt;w0 -->
<g id="edge3" class="edge">
<title>ppe_ctx&#45;&gt;w0</title>
<path fill="none" stroke="#aaaaaa" d="M184.83,-1187.05C184.83,-1149.3 184.83,-1066 184.83,-1066 184.83,-1066 175.7,-1066 175.7,-1066"/>
<polygon fill="#aaaaaa" stroke="#aaaaaa" points="175.7,-1062.5 165.7,-1066 175.7,-1069.5 175.7,-1062.5"/>
</g>
<!-- w1 -->
<g id="node4" class="node">
<title>w1</title>
<polygon fill="#1e3a1e" stroke="black" points="210.5,-955.25 103.5,-955.25 103.5,-919.25 210.5,-919.25 210.5,-955.25"/>
<text text-anchor="middle" x="157" y="-940.45" font-family="Helvetica,sans-Serif" font-size="11.00" fill="white">Worker 1</text>
<text text-anchor="middle" x="157" y="-928.45" font-family="Helvetica,sans-Serif" font-size="11.00" fill="white">_extract_cpu(path)</text>
</g>
<!-- ppe_ctx&#45;&gt;w1 -->
<g id="edge4" class="edge">
<title>ppe_ctx&#45;&gt;w1</title>
<path fill="none" stroke="#aaaaaa" d="M197.67,-1187.25C197.67,-1187.25 197.67,-965.53 197.67,-965.53"/>
<polygon fill="#aaaaaa" stroke="#aaaaaa" points="201.17,-965.53 197.67,-955.53 194.17,-965.53 201.17,-965.53"/>
</g>
<!-- wn -->
<g id="node5" class="node">
<title>wn</title>
<polygon fill="#1e3a1e" stroke="black" points="283.5,-842.25 176.5,-842.25 176.5,-806.25 283.5,-806.25 283.5,-842.25"/>
<text text-anchor="middle" x="230" y="-827.45" font-family="Helvetica,sans-Serif" font-size="11.00" fill="white">Worker N&#45;1</text>
<text text-anchor="middle" x="230" y="-815.45" font-family="Helvetica,sans-Serif" font-size="11.00" fill="white">_extract_cpu(path)</text>
</g>
<!-- ppe_ctx&#45;&gt;wn -->
<g id="edge5" class="edge">
<title>ppe_ctx&#45;&gt;wn</title>
<path fill="none" stroke="#aaaaaa" d="M234.83,-1187.13C234.83,-1187.13 234.83,-852.49 234.83,-852.49"/>
<polygon fill="#aaaaaa" stroke="#aaaaaa" points="238.33,-852.49 234.83,-842.49 231.33,-852.49 238.33,-852.49"/>
</g>
<!-- bpp -->
<g id="node10" class="node">
<title>bpp</title>
<polygon fill="#6a2200" stroke="black" points="445,-1110.25 299,-1066.25 445,-1022.25 591,-1066.25 445,-1110.25"/>
<text text-anchor="middle" x="445" y="-1075.45" font-family="Helvetica,sans-Serif" font-size="11.00" fill="white">except BrokenProcessPool</text>
<text text-anchor="middle" x="445" y="-1063.45" font-family="Helvetica,sans-Serif" font-size="11.00" fill="white">unfinished files →</text>
<text text-anchor="middle" x="445" y="-1051.45" font-family="Helvetica,sans-Serif" font-size="11.00" fill="white">needs_sequential[]</text>
</g>
<!-- ppe_ctx&#45;&gt;bpp -->
<g id="edge12" class="edge">
<title>ppe_ctx&#45;&gt;bpp</title>
<path fill="none" stroke="#ff4400" stroke-dasharray="5,2" d="M259.17,-1186.89C259.17,-1156.01 259.17,-1097 259.17,-1097 259.17,-1097 390.96,-1097 390.96,-1097"/>
<polygon fill="#ff4400" stroke="#ff4400" points="390.96,-1100.5 400.96,-1097 390.96,-1093.5 390.96,-1100.5"/>
<text text-anchor="middle" x="394" y="-1146.25" font-family="Helvetica,sans-Serif" font-size="10.00" fill="#cccccc">pool dies</text>
</g>
<!-- w0&#45;&gt;w1 -->
<!-- as_completed -->
<g id="node6" class="node">
<title>as_completed</title>
<polygon fill="#2a4a2a" stroke="black" points="164,-729.25 40,-697.25 164,-665.25 288,-697.25 164,-729.25"/>
<text text-anchor="middle" x="164" y="-700.45" font-family="Helvetica,sans-Serif" font-size="11.00" fill="white">as_completed(futures)</text>
<text text-anchor="middle" x="164" y="-688.45" font-family="Helvetica,sans-Serif" font-size="11.00" fill="white">per&#45;future try/except</text>
</g>
<!-- w0&#45;&gt;as_completed -->
<g id="edge6" class="edge">
<title>w0&#45;&gt;as_completed</title>
<path fill="none" stroke="#aaaaaa" d="M81,-1048.21C81,-1048.21 81,-717.89 81,-717.89"/>
<polygon fill="#aaaaaa" stroke="#aaaaaa" points="84.5,-717.89 81,-707.89 77.5,-717.89 84.5,-717.89"/>
<text text-anchor="middle" x="71.5" y="-878.25" font-family="Helvetica,sans-Serif" font-size="10.00" fill="#cccccc">future</text>
</g>
<!-- w1&#45;&gt;wn -->
<!-- w1&#45;&gt;as_completed -->
<g id="edge7" class="edge">
<title>w1&#45;&gt;as_completed</title>
<path fill="none" stroke="#aaaaaa" d="M140,-919.22C140,-919.22 140,-733.32 140,-733.32"/>
<polygon fill="#aaaaaa" stroke="#aaaaaa" points="143.5,-733.32 140,-723.32 136.5,-733.32 143.5,-733.32"/>
<text text-anchor="middle" x="120.5" y="-821.75" font-family="Helvetica,sans-Serif" font-size="10.00" fill="#cccccc">future</text>
</g>
<!-- wn&#45;&gt;as_completed -->
<g id="edge8" class="edge">
<title>wn&#45;&gt;as_completed</title>
<path fill="none" stroke="#aaaaaa" d="M230,-806.06C230,-806.06 230,-722.24 230,-722.24"/>
<polygon fill="#aaaaaa" stroke="#aaaaaa" points="233.5,-722.24 230,-712.24 226.5,-722.24 233.5,-722.24"/>
<text text-anchor="middle" x="221.5" y="-765.25" font-family="Helvetica,sans-Serif" font-size="10.00" fill="#cccccc">future</text>
</g>
<!-- fut_ok -->
<g id="node7" class="node">
<title>fut_ok</title>
<polygon fill="#224422" stroke="black" points="119.5,-588.25 16.5,-588.25 16.5,-552.25 119.5,-552.25 119.5,-588.25"/>
<text text-anchor="middle" x="68" y="-567.45" font-family="Helvetica,sans-Serif" font-size="11.00" fill="white">text → cpu_texts[]</text>
</g>
<!-- as_completed&#45;&gt;fut_ok -->
<g id="edge9" class="edge">
<title>as_completed&#45;&gt;fut_ok</title>
<path fill="none" stroke="#aaaaaa" d="M79.75,-686.86C79.75,-686.86 79.75,-598.45 79.75,-598.45"/>
<polygon fill="#aaaaaa" stroke="#aaaaaa" points="83.25,-598.45 79.75,-588.45 76.25,-598.45 83.25,-598.45"/>
<text text-anchor="middle" x="104" y="-624.25" font-family="Helvetica,sans-Serif" font-size="10.00" fill="#cccccc">has text</text>
</g>
<!-- fut_empty -->
<g id="node8" class="node">
<title>fut_empty</title>
<polygon fill="#3a3322" stroke="black" points="285,-588.25 163,-588.25 163,-552.25 285,-552.25 285,-588.25"/>
<text text-anchor="middle" x="224" y="-567.45" font-family="Helvetica,sans-Serif" font-size="11.00" fill="white">no text → needs_ocr[]</text>
</g>
<!-- as_completed&#45;&gt;fut_empty -->
<g id="edge10" class="edge">
<title>as_completed&#45;&gt;fut_empty</title>
<path fill="none" stroke="#aaaaaa" d="M224,-680.65C224,-680.65 224,-598.51 224,-598.51"/>
<polygon fill="#aaaaaa" stroke="#aaaaaa" points="227.5,-598.51 224,-588.51 220.5,-598.51 227.5,-598.51"/>
<text text-anchor="middle" x="202" y="-624.25" font-family="Helvetica,sans-Serif" font-size="10.00" fill="#cccccc">empty</text>
</g>
<!-- fut_err -->
<g id="node9" class="node">
<title>fut_err</title>
<polygon fill="#5a2a00" stroke="black" points="441.5,-588.25 328.5,-588.25 328.5,-552.25 441.5,-552.25 441.5,-588.25"/>
<text text-anchor="middle" x="385" y="-573.45" font-family="Helvetica,sans-Serif" font-size="11.00" fill="white">worker exception →</text>
<text text-anchor="middle" x="385" y="-561.45" font-family="Helvetica,sans-Serif" font-size="11.00" fill="white">needs_sequential[]</text>
</g>
<!-- as_completed&#45;&gt;fut_err -->
<g id="edge11" class="edge">
<title>as_completed&#45;&gt;fut_err</title>
<path fill="none" stroke="#cc6600" d="M287.1,-697C337.85,-697 385,-697 385,-697 385,-697 385,-598.41 385,-598.41"/>
<polygon fill="#cc6600" stroke="#cc6600" points="388.5,-598.41 385,-588.41 381.5,-598.41 388.5,-598.41"/>
<text text-anchor="middle" x="346.5" y="-624.25" font-family="Helvetica,sans-Serif" font-size="10.00" fill="#cccccc">exception</text>
</g>
<!-- result -->
<g id="node17" class="node">
<title>result</title>
<ellipse fill="#2a2a6a" stroke="black" cx="216" cy="-22.63" rx="91.85" ry="22.76"/>
<text text-anchor="middle" x="216" y="-25.83" font-family="Helvetica,sans-Serif" font-size="11.00" fill="white">cpu_texts + ocr_texts</text>
<text text-anchor="middle" x="216" y="-13.83" font-family="Helvetica,sans-Serif" font-size="11.00" fill="white">→ embed_documents()</text>
</g>
<!-- fut_ok&#45;&gt;result -->
<g id="edge22" class="edge">
<title>fut_ok&#45;&gt;result</title>
<path fill="none" stroke="#aaaaaa" d="M119.64,-570C132.92,-570 143.54,-570 143.54,-570 143.54,-570 143.54,-46.71 143.54,-46.71"/>
<polygon fill="#aaaaaa" stroke="#aaaaaa" points="147.04,-46.71 143.54,-36.71 140.04,-46.71 147.04,-46.71"/>
</g>
<!-- ocr_loop -->
<g id="node14" class="node">
<title>ocr_loop</title>
<polygon fill="#223355" stroke="black" points="311,-261.25 171,-261.25 171,-225.25 311,-225.25 311,-261.25"/>
<text text-anchor="middle" x="241" y="-246.45" font-family="Helvetica,sans-Serif" font-size="11.00" fill="white">for f in sorted(needs_ocr):</text>
<text text-anchor="middle" x="241" y="-234.45" font-family="Helvetica,sans-Serif" font-size="11.00" fill="white"> &#160;EasyOCR + PyMuPDF</text>
</g>
<!-- fut_empty&#45;&gt;ocr_loop -->
<g id="edge20" class="edge">
<title>fut_empty&#45;&gt;ocr_loop</title>
<path fill="none" stroke="#aaaaaa" d="M227.5,-552.21C227.5,-552.21 227.5,-271.65 227.5,-271.65"/>
<polygon fill="#aaaaaa" stroke="#aaaaaa" points="231,-271.65 227.5,-261.65 224,-271.65 231,-271.65"/>
</g>
<!-- seq_loop -->
<g id="node11" class="node">
<title>seq_loop</title>
<polygon fill="#3a2200" stroke="black" points="532,-481.25 352,-481.25 352,-445.25 532,-445.25 532,-481.25"/>
<text text-anchor="middle" x="442" y="-466.45" font-family="Helvetica,sans-Serif" font-size="11.00" fill="white">for f in needs_sequential:</text>
<text text-anchor="middle" x="442" y="-454.45" font-family="Helvetica,sans-Serif" font-size="11.00" fill="white"> &#160;extract_text(f, ocr_reader=None)</text>
</g>
<!-- fut_err&#45;&gt;seq_loop -->
<g id="edge18" class="edge">
<title>fut_err&#45;&gt;seq_loop</title>
<path fill="none" stroke="#cc6600" d="M396.75,-552.1C396.75,-552.1 396.75,-491.49 396.75,-491.49"/>
<polygon fill="#cc6600" stroke="#cc6600" points="400.25,-491.49 396.75,-481.49 393.25,-491.5 400.25,-491.49"/>
</g>
<!-- bpp&#45;&gt;seq_loop -->
<g id="edge19" class="edge">
<title>bpp&#45;&gt;seq_loop</title>
<path fill="none" stroke="#ff4400" d="M486.75,-1034.68C486.75,-1034.68 486.75,-491.28 486.75,-491.28"/>
<polygon fill="#ff4400" stroke="#ff4400" points="490.25,-491.28 486.75,-481.28 483.25,-491.28 490.25,-491.28"/>
</g>
<!-- seq_ok -->
<g id="node12" class="node">
<title>seq_ok</title>
<polygon fill="#3a2200" stroke="black" points="552.5,-368.25 449.5,-368.25 449.5,-332.25 552.5,-332.25 552.5,-368.25"/>
<text text-anchor="middle" x="501" y="-347.45" font-family="Helvetica,sans-Serif" font-size="11.00" fill="white">text → cpu_texts[]</text>
</g>
<!-- seq_loop&#45;&gt;seq_ok -->
<g id="edge13" class="edge">
<title>seq_loop&#45;&gt;seq_ok</title>
<path fill="none" stroke="#aaaaaa" d="M490.75,-445.1C490.75,-445.1 490.75,-378.37 490.75,-378.37"/>
<polygon fill="#aaaaaa" stroke="#aaaaaa" points="494.25,-378.37 490.75,-368.37 487.25,-378.37 494.25,-378.37"/>
<text text-anchor="middle" x="499" y="-404.25" font-family="Helvetica,sans-Serif" font-size="10.00" fill="#cccccc">has text</text>
</g>
<!-- seq_empty -->
<g id="node13" class="node">
<title>seq_empty</title>
<polygon fill="#3a2200" stroke="black" points="406,-368.25 284,-368.25 284,-332.25 406,-332.25 406,-368.25"/>
<text text-anchor="middle" x="345" y="-347.45" font-family="Helvetica,sans-Serif" font-size="11.00" fill="white">no text → needs_ocr[]</text>
</g>
<!-- seq_loop&#45;&gt;seq_empty -->
<g id="edge14" class="edge">
<title>seq_loop&#45;&gt;seq_empty</title>
<path fill="none" stroke="#aaaaaa" d="M379,-445.1C379,-445.1 379,-378.37 379,-378.37"/>
<polygon fill="#aaaaaa" stroke="#aaaaaa" points="382.5,-378.37 379,-368.37 375.5,-378.37 382.5,-378.37"/>
<text text-anchor="middle" x="379" y="-404.25" font-family="Helvetica,sans-Serif" font-size="10.00" fill="#cccccc">empty</text>
</g>
<!-- seq_ok&#45;&gt;result -->
<g id="edge23" class="edge">
<title>seq_ok&#45;&gt;result</title>
<path fill="none" stroke="#aaaaaa" d="M501,-332.14C501,-263.32 501,-22 501,-22 501,-22 318.14,-22 318.14,-22"/>
<polygon fill="#aaaaaa" stroke="#aaaaaa" points="318.14,-18.5 308.14,-22 318.14,-25.5 318.14,-18.5"/>
</g>
<!-- seq_empty&#45;&gt;ocr_loop -->
<g id="edge21" class="edge">
<title>seq_empty&#45;&gt;ocr_loop</title>
<path fill="none" stroke="#aaaaaa" d="M297.5,-332.1C297.5,-332.1 297.5,-271.49 297.5,-271.49"/>
<polygon fill="#aaaaaa" stroke="#aaaaaa" points="301,-271.49 297.5,-261.49 294,-271.5 301,-271.49"/>
</g>
<!-- ocr_ok -->
<g id="node15" class="node">
<title>ocr_ok</title>
<polygon fill="#223355" stroke="black" points="266.5,-148.25 165.5,-148.25 165.5,-112.25 266.5,-112.25 266.5,-148.25"/>
<text text-anchor="middle" x="216" y="-127.45" font-family="Helvetica,sans-Serif" font-size="11.00" fill="white">text → ocr_texts[]</text>
</g>
<!-- ocr_loop&#45;&gt;ocr_ok -->
<g id="edge15" class="edge">
<title>ocr_loop&#45;&gt;ocr_ok</title>
<path fill="none" stroke="#aaaaaa" d="M218.75,-225.1C218.75,-225.1 218.75,-158.37 218.75,-158.37"/>
<polygon fill="#aaaaaa" stroke="#aaaaaa" points="222.25,-158.37 218.75,-148.37 215.25,-158.37 222.25,-158.37"/>
<text text-anchor="middle" x="246" y="-184.25" font-family="Helvetica,sans-Serif" font-size="10.00" fill="#cccccc">has text</text>
</g>
<!-- ocr_skip -->
<g id="node16" class="node">
<title>ocr_skip</title>
<polygon fill="#2a2a3a" stroke="black" points="392.5,-148.25 309.5,-148.25 309.5,-112.25 392.5,-112.25 392.5,-148.25"/>
<text text-anchor="middle" x="351" y="-133.45" font-family="Helvetica,sans-Serif" font-size="11.00" fill="#aaaaaa">(skipped)</text>
<text text-anchor="middle" x="351" y="-121.45" font-family="Helvetica,sans-Serif" font-size="11.00" fill="#aaaaaa">no legible text</text>
</g>
<!-- ocr_loop&#45;&gt;ocr_skip -->
<g id="edge16" class="edge">
<title>ocr_loop&#45;&gt;ocr_skip</title>
<path fill="none" stroke="#aaaaaa" d="M287.21,-225.06C287.21,-193.04 287.21,-130 287.21,-130 287.21,-130 299.16,-130 299.16,-130"/>
<polygon fill="#aaaaaa" stroke="#aaaaaa" points="299.16,-133.5 309.16,-130 299.16,-126.5 299.16,-133.5"/>
<text text-anchor="middle" x="351" y="-184.25" font-family="Helvetica,sans-Serif" font-size="10.00" fill="#cccccc">empty</text>
</g>
<!-- ocr_ok&#45;&gt;result -->
<g id="edge24" class="edge">
<title>ocr_ok&#45;&gt;result</title>
<path fill="none" stroke="#aaaaaa" d="M216,-112C216,-112 216,-55.48 216,-55.48"/>
<polygon fill="#aaaaaa" stroke="#aaaaaa" points="219.5,-55.48 216,-45.48 212.5,-55.48 219.5,-55.48"/>
</g>
</g>
</svg>
