<?xml version="1.0" encoding="UTF-8" standalone="no"?>
<!DOCTYPE svg PUBLIC "-//W3C//DTD SVG 1.1//EN"
 "http://www.w3.org/Graphics/SVG/1.1/DTD/svg11.dtd">
<!-- Generated by graphviz version 2.43.0 (0)
 -->
<!-- Title: Arch1_Training_Pipeline Pages: 1 -->
<svg width="2946pt" height="347pt"
 viewBox="0.00 0.00 2946.40 347.40" xmlns="http://www.w3.org/2000/svg" xmlns:xlink="http://www.w3.org/1999/xlink">
<g id="graph0" class="graph" transform="scale(1 1) rotate(0) translate(43.2 304.2)">
<title>Arch1_Training_Pipeline</title>
<polygon fill="#1a1a2e" stroke="transparent" points="-43.2,43.2 -43.2,-304.2 2903.2,-304.2 2903.2,43.2 -43.2,43.2"/>
<text text-anchor="middle" x="1430" y="-244.2" font-family="Helvetica,sans-Serif" font-size="16.00" fill="#e0e0e0">doc_classifier_gpu — Full Training Pipeline</text>
<g id="clust1" class="cluster">
<title>cluster_corpus</title>
<polygon fill="#1a1a2e" stroke="#444466" stroke-dasharray="5,2" points="8,-64 8,-161 376,-161 376,-64 8,-64"/>
<text text-anchor="middle" x="192" y="-147.4" font-family="Helvetica,sans-Serif" font-size="12.00" fill="#e0e0e0">Training Corpus</text>
</g>
<g id="clust2" class="cluster">
<title>cluster_extract</title>
<polygon fill="#1a1a2e" stroke="#335533" stroke-dasharray="5,2" points="441,-56 441,-219 1512,-219 1512,-56 441,-56"/>
<text text-anchor="middle" x="976.5" y="-205.4" font-family="Helvetica,sans-Serif" font-size="12.00" fill="#e0e0e0">Per&#45;Class Extraction &#160;(_extract_class)</text>
</g>
<g id="clust3" class="cluster">
<title>cluster_embed</title>
<polygon fill="#1a1a2e" stroke="#444488" stroke-dasharray="5,2" points="1619,-55 1619,-148 2168,-148 2168,-55 1619,-55"/>
<text text-anchor="middle" x="1893.5" y="-134.4" font-family="Helvetica,sans-Serif" font-size="12.00" fill="#e0e0e0">Per&#45;Class Embedding &#160;(embed_documents)</text>
</g>
<g id="clust4" class="cluster">
<title>cluster_train</title>
<polygon fill="#1a1a2e" stroke="#553333" stroke-dasharray="5,2" points="2233,-58 2233,-227 2852,-227 2852,-58 2233,-58"/>
<text text-anchor="middle" x="2542.5" y="-213.4" font-family="Helvetica,sans-Serif" font-size="12.00" fill="#e0e0e0">Classifier Training</text>
</g>
<!-- corpus -->
<g id="node1" class="node">
<title>corpus</title>
<path fill="#2a2a5a" stroke="black" d="M150,-126.96C150,-130.02 119.97,-132.5 83,-132.5 46.03,-132.5 16,-130.02 16,-126.96 16,-126.96 16,-77.04 16,-77.04 16,-73.98 46.03,-71.5 83,-71.5 119.97,-71.5 150,-73.98 150,-77.04 150,-77.04 150,-126.96 150,-126.96"/>
<path fill="none" stroke="black" d="M150,-126.96C150,-123.9 119.97,-121.41 83,-121.41 46.03,-121.41 16,-123.9 16,-126.96"/>
<text text-anchor="middle" x="83" y="-111.2" font-family="Helvetica,sans-Serif" font-size="11.00" fill="white">2026&#45;05&#45;28_militia&#45;copy/</text>
<text text-anchor="middle" x="83" y="-99.2" font-family="Helvetica,sans-Serif" font-size="11.00" fill="white">69 class sub&#45;folders</text>
<text text-anchor="middle" x="83" y="-87.2" font-family="Helvetica,sans-Serif" font-size="11.00" fill="white">~1887 PDFs + images</text>
</g>
<!-- classes -->
<g id="node2" class="node">
<title>classes</title>
<polygon fill="#333366" stroke="black" points="368,-126 261,-126 261,-90 368,-90 368,-126"/>
<text text-anchor="middle" x="314.5" y="-111.2" font-family="Helvetica,sans-Serif" font-size="11.00" fill="white">class_dir[0..68]</text>
<text text-anchor="middle" x="314.5" y="-99.2" font-family="Helvetica,sans-Serif" font-size="11.00" fill="white">(sub&#45;folder = label)</text>
</g>
<!-- corpus&#45;&gt;classes -->
<g id="edge1" class="edge">
<title>corpus&#45;&gt;classes</title>
<path fill="none" stroke="#aaaaaa" d="M150.27,-108C150.27,-108 250.66,-108 250.66,-108"/>
<polygon fill="#aaaaaa" stroke="#aaaaaa" points="250.66,-111.5 260.66,-108 250.66,-104.5 250.66,-111.5"/>
<text text-anchor="middle" x="205.5" y="-111" font-family="Helvetica,sans-Serif" font-size="10.00" fill="#cccccc">iterdir()</text>
</g>
<!-- ppe -->
<g id="node3" class="node">
<title>ppe</title>
<polygon fill="#2a4a2a" stroke="black" points="569,-130 449,-130 449,-86 569,-86 569,-130"/>
<text text-anchor="middle" x="509" y="-117.2" font-family="Helvetica,sans-Serif" font-size="11.00" fill="white">ProcessPoolExecutor</text>
<text text-anchor="middle" x="509" y="-105.2" font-family="Helvetica,sans-Serif" font-size="11.00" fill="white">14 workers</text>
<text text-anchor="middle" x="509" y="-93.2" font-family="Helvetica,sans-Serif" font-size="11.00" fill="white">_extract_cpu(path)</text>
</g>
<!-- classes&#45;&gt;ppe -->
<g id="edge11" class="edge">
<title>classes&#45;&gt;ppe</title>
<path fill="none" stroke="#aaaaaa" d="M368.16,-108C368.16,-108 438.66,-108 438.66,-108"/>
<polygon fill="#aaaaaa" stroke="#aaaaaa" points="438.66,-111.5 448.66,-108 438.66,-104.5 438.66,-111.5"/>
</g>
<!-- bpp -->
<g id="node4" class="node">
<title>bpp</title>
<polygon fill="#6a3a00" stroke="black" points="812,-152 700,-108 812,-64 924,-108 812,-152"/>
<text text-anchor="middle" x="812" y="-117.2" font-family="Helvetica,sans-Serif" font-size="11.00" fill="white">BrokenProcessPool</text>
<text text-anchor="middle" x="812" y="-105.2" font-family="Helvetica,sans-Serif" font-size="11.00" fill="white">catch → sequential</text>
<text text-anchor="middle" x="812" y="-93.2" font-family="Helvetica,sans-Serif" font-size="11.00" fill="white">fallback</text>
</g>
<!-- ppe&#45;&gt;bpp -->
<g id="edge2" class="edge">
<title>ppe&#45;&gt;bpp</title>
<path fill="none" stroke="#cc6600" stroke-dasharray="5,2" d="M569.23,-108C569.23,-108 689.77,-108 689.77,-108"/>
<polygon fill="#cc6600" stroke="#cc6600" points="689.77,-111.5 699.77,-108 689.77,-104.5 689.77,-111.5"/>
<text text-anchor="middle" x="634.5" y="-111" font-family="Helvetica,sans-Serif" font-size="10.00" fill="#cccccc">worker dies</text>
</g>
<!-- ocr -->
<g id="node6" class="node">
<title>ocr</title>
<polygon fill="#2a3a5a" stroke="black" points="1504,-182 1366,-182 1366,-138 1504,-138 1504,-182"/>
<text text-anchor="middle" x="1435" y="-169.2" font-family="Helvetica,sans-Serif" font-size="11.00" fill="white">EasyOCR + PyMuPDF</text>
<text text-anchor="middle" x="1435" y="-157.2" font-family="Helvetica,sans-Serif" font-size="11.00" fill="white">GPU OCR</text>
<text text-anchor="middle" x="1435" y="-145.2" font-family="Helvetica,sans-Serif" font-size="11.00" fill="white">(image PDFs + .jpg/.png)</text>
</g>
<!-- ppe&#45;&gt;ocr -->
<g id="edge4" class="edge">
<title>ppe&#45;&gt;ocr</title>
<path fill="none" stroke="#aaaaaa" stroke-dasharray="5,2" d="M509,-130.31C509,-147.01 509,-167 509,-167 509,-167 1355.78,-167 1355.78,-167"/>
<polygon fill="#aaaaaa" stroke="#aaaaaa" points="1355.78,-170.5 1365.78,-167 1355.78,-163.5 1355.78,-170.5"/>
<text text-anchor="middle" x="994.5" y="-182" font-family="Helvetica,sans-Serif" font-size="10.00" fill="#cccccc">empty text</text>
<text text-anchor="middle" x="994.5" y="-171" font-family="Helvetica,sans-Serif" font-size="10.00" fill="#cccccc">(no text layer)</text>
</g>
<!-- chunk -->
<g id="node7" class="node">
<title>chunk</title>
<polygon fill="#333366" stroke="black" points="1729,-113 1627,-113 1627,-69 1729,-69 1729,-113"/>
<text text-anchor="middle" x="1678" y="-100.2" font-family="Helvetica,sans-Serif" font-size="11.00" fill="white">chunk_text()</text>
<text text-anchor="middle" x="1678" y="-88.2" font-family="Helvetica,sans-Serif" font-size="11.00" fill="white">4000&#45;char chunks</text>
<text text-anchor="middle" x="1678" y="-76.2" font-family="Helvetica,sans-Serif" font-size="11.00" fill="white">200&#45;char overlap</text>
</g>
<!-- ppe&#45;&gt;chunk -->
<g id="edge12" class="edge">
<title>ppe&#45;&gt;chunk</title>
<path fill="none" stroke="#aaaaaa" d="M509,-85.97C509,-67.8 509,-45 509,-45 509,-45 1678,-45 1678,-45 1678,-45 1678,-58.81 1678,-58.81"/>
<polygon fill="#aaaaaa" stroke="#aaaaaa" points="1674.5,-58.81 1678,-68.81 1681.5,-58.81 1674.5,-58.81"/>
<text text-anchor="middle" x="1152" y="-3" font-family="Helvetica,sans-Serif" font-size="10.00" fill="#cccccc">texts[]</text>
</g>
<!-- cpu_seq -->
<g id="node5" class="node">
<title>cpu_seq</title>
<polygon fill="#3a2a00" stroke="black" points="1239,-126 1065,-126 1065,-90 1239,-90 1239,-126"/>
<text text-anchor="middle" x="1152" y="-111.2" font-family="Helvetica,sans-Serif" font-size="11.00" fill="white">Sequential CPU fallback</text>
<text text-anchor="middle" x="1152" y="-99.2" font-family="Helvetica,sans-Serif" font-size="11.00" fill="white">extract_text(f, ocr_reader=None)</text>
</g>
<!-- bpp&#45;&gt;cpu_seq -->
<g id="edge3" class="edge">
<title>bpp&#45;&gt;cpu_seq</title>
<path fill="none" stroke="#cc6600" d="M924.27,-108C924.27,-108 1054.89,-108 1054.89,-108"/>
<polygon fill="#cc6600" stroke="#cc6600" points="1054.89,-111.5 1064.89,-108 1054.89,-104.5 1054.89,-111.5"/>
</g>
<!-- cpu_seq&#45;&gt;ocr -->
<g id="edge5" class="edge">
<title>cpu_seq&#45;&gt;ocr</title>
<path fill="none" stroke="#aaaaaa" stroke-dasharray="5,2" d="M1239.22,-122.5C1322.37,-122.5 1435,-122.5 1435,-122.5 1435,-122.5 1435,-127.75 1435,-127.75"/>
<polygon fill="#aaaaaa" stroke="#aaaaaa" points="1431.5,-127.75 1435,-137.75 1438.5,-127.75 1431.5,-127.75"/>
<text text-anchor="middle" x="1302.5" y="-154" font-family="Helvetica,sans-Serif" font-size="10.00" fill="#cccccc">empty text</text>
</g>
<!-- cpu_seq&#45;&gt;chunk -->
<g id="edge14" class="edge">
<title>cpu_seq&#45;&gt;chunk</title>
<path fill="none" stroke="#aaaaaa" d="M1239.15,-101.5C1239.15,-101.5 1616.95,-101.5 1616.95,-101.5"/>
<polygon fill="#aaaaaa" stroke="#aaaaaa" points="1616.95,-105 1626.95,-101.5 1616.95,-98 1616.95,-105"/>
<text text-anchor="middle" x="1435" y="-94" font-family="Helvetica,sans-Serif" font-size="10.00" fill="#cccccc">text</text>
</g>
<!-- ocr&#45;&gt;chunk -->
<g id="edge13" class="edge">
<title>ocr&#45;&gt;chunk</title>
<path fill="none" stroke="#aaaaaa" d="M1504.31,-160C1576.13,-160 1678,-160 1678,-160 1678,-160 1678,-123.21 1678,-123.21"/>
<polygon fill="#aaaaaa" stroke="#aaaaaa" points="1681.5,-123.21 1678,-113.21 1674.5,-123.21 1681.5,-123.21"/>
<text text-anchor="middle" x="1565.5" y="-158" font-family="Helvetica,sans-Serif" font-size="10.00" fill="#cccccc">OCR text</text>
</g>
<!-- encode -->
<g id="node8" class="node">
<title>encode</title>
<polygon fill="#1a1a6a" stroke="black" points="1971,-119 1810,-119 1810,-63 1971,-63 1971,-119"/>
<text text-anchor="middle" x="1890.5" y="-106.2" font-family="Helvetica,sans-Serif" font-size="11.00" fill="white">bge&#45;m3 SentenceTransformer</text>
<text text-anchor="middle" x="1890.5" y="-94.2" font-family="Helvetica,sans-Serif" font-size="11.00" fill="white">GPU 0 (RTX 5080)</text>
<text text-anchor="middle" x="1890.5" y="-82.2" font-family="Helvetica,sans-Serif" font-size="11.00" fill="white">batch_size=32</text>
<text text-anchor="middle" x="1890.5" y="-70.2" font-family="Helvetica,sans-Serif" font-size="11.00" fill="white">normalize_embeddings=True</text>
</g>
<!-- chunk&#45;&gt;encode -->
<g id="edge6" class="edge">
<title>chunk&#45;&gt;encode</title>
<path fill="none" stroke="#aaaaaa" d="M1729.17,-91C1729.17,-91 1799.91,-91 1799.91,-91"/>
<polygon fill="#aaaaaa" stroke="#aaaaaa" points="1799.91,-94.5 1809.91,-91 1799.91,-87.5 1799.91,-94.5"/>
</g>
<!-- pool -->
<g id="node9" class="node">
<title>pool</title>
<polygon fill="#333366" stroke="black" points="2160,-113 2052,-113 2052,-69 2160,-69 2160,-113"/>
<text text-anchor="middle" x="2106" y="-100.2" font-family="Helvetica,sans-Serif" font-size="11.00" fill="white">mean&#45;pool chunks</text>
<text text-anchor="middle" x="2106" y="-88.2" font-family="Helvetica,sans-Serif" font-size="11.00" fill="white">per document</text>
<text text-anchor="middle" x="2106" y="-76.2" font-family="Helvetica,sans-Serif" font-size="11.00" fill="white">→ 1024&#45;dim vector</text>
</g>
<!-- encode&#45;&gt;pool -->
<g id="edge7" class="edge">
<title>encode&#45;&gt;pool</title>
<path fill="none" stroke="#aaaaaa" d="M1971.05,-91C1971.05,-91 2041.68,-91 2041.68,-91"/>
<polygon fill="#aaaaaa" stroke="#aaaaaa" points="2041.68,-94.5 2051.68,-91 2041.68,-87.5 2041.68,-94.5"/>
</g>
<!-- stack -->
<g id="node10" class="node">
<title>stack</title>
<polygon fill="#3a2222" stroke="black" points="2349,-113 2241,-113 2241,-69 2349,-69 2349,-113"/>
<text text-anchor="middle" x="2295" y="-100.2" font-family="Helvetica,sans-Serif" font-size="11.00" fill="white">np.vstack(all_X)</text>
<text text-anchor="middle" x="2295" y="-88.2" font-family="Helvetica,sans-Serif" font-size="11.00" fill="white">collect embeddings</text>
<text text-anchor="middle" x="2295" y="-76.2" font-family="Helvetica,sans-Serif" font-size="11.00" fill="white">across all classes</text>
</g>
<!-- pool&#45;&gt;stack -->
<g id="edge15" class="edge">
<title>pool&#45;&gt;stack</title>
<path fill="none" stroke="#aaaaaa" d="M2160.16,-91C2160.16,-91 2230.83,-91 2230.83,-91"/>
<polygon fill="#aaaaaa" stroke="#aaaaaa" points="2230.83,-94.5 2240.83,-91 2230.83,-87.5 2230.83,-94.5"/>
</g>
<!-- lr -->
<g id="node11" class="node">
<title>lr</title>
<polygon fill="#5a2222" stroke="black" points="2600,-113 2430,-113 2430,-69 2600,-69 2600,-113"/>
<text text-anchor="middle" x="2515" y="-100.2" font-family="Helvetica,sans-Serif" font-size="11.00" fill="white">LogisticRegression</text>
<text text-anchor="middle" x="2515" y="-88.2" font-family="Helvetica,sans-Serif" font-size="11.00" fill="white">C=10.0 &#160;class_weight=balanced</text>
<text text-anchor="middle" x="2515" y="-76.2" font-family="Helvetica,sans-Serif" font-size="11.00" fill="white">max_iter=5000</text>
</g>
<!-- stack&#45;&gt;lr -->
<g id="edge8" class="edge">
<title>stack&#45;&gt;lr</title>
<path fill="none" stroke="#aaaaaa" d="M2349.1,-83.67C2349.1,-83.67 2419.79,-83.67 2419.79,-83.67"/>
<polygon fill="#aaaaaa" stroke="#aaaaaa" points="2419.79,-87.17 2429.79,-83.67 2419.79,-80.17 2419.79,-87.17"/>
</g>
<!-- stack&#45;&gt;lr -->
<g id="edge16" class="edge">
<title>stack&#45;&gt;lr</title>
<path fill="none" stroke="#aaaaaa" d="M2349.1,-98.33C2349.1,-98.33 2419.79,-98.33 2419.79,-98.33"/>
<polygon fill="#aaaaaa" stroke="#aaaaaa" points="2419.79,-101.83 2429.79,-98.33 2419.79,-94.83 2419.79,-101.83"/>
</g>
<!-- cv -->
<g id="node12" class="node">
<title>cv</title>
<polygon fill="#3a2222" stroke="black" points="2834.5,-102 2745.5,-102 2745.5,-66 2834.5,-66 2834.5,-102"/>
<text text-anchor="middle" x="2790" y="-87.2" font-family="Helvetica,sans-Serif" font-size="11.00" fill="white">k&#45;fold CV</text>
<text text-anchor="middle" x="2790" y="-75.2" font-family="Helvetica,sans-Serif" font-size="11.00" fill="white">accuracy score</text>
</g>
<!-- lr&#45;&gt;cv -->
<g id="edge9" class="edge">
<title>lr&#45;&gt;cv</title>
<path fill="none" stroke="#aaaaaa" d="M2600.13,-85.5C2600.13,-85.5 2735.19,-85.5 2735.19,-85.5"/>
<polygon fill="#aaaaaa" stroke="#aaaaaa" points="2735.19,-89 2745.19,-85.5 2735.19,-82 2735.19,-89"/>
</g>
<!-- model -->
<g id="node13" class="node">
<title>model</title>
<path fill="#6a1a1a" stroke="black" d="M2844,-192.96C2844,-196.02 2819.8,-198.5 2790,-198.5 2760.2,-198.5 2736,-196.02 2736,-192.96 2736,-192.96 2736,-143.04 2736,-143.04 2736,-139.98 2760.2,-137.5 2790,-137.5 2819.8,-137.5 2844,-139.98 2844,-143.04 2844,-143.04 2844,-192.96 2844,-192.96"/>
<path fill="none" stroke="black" d="M2844,-192.96C2844,-189.9 2819.8,-187.41 2790,-187.41 2760.2,-187.41 2736,-189.9 2736,-192.96"/>
<text text-anchor="middle" x="2790" y="-177.2" font-family="Helvetica,sans-Serif" font-size="11.00" fill="white">militia.joblib</text>
<text text-anchor="middle" x="2790" y="-165.2" font-family="Helvetica,sans-Serif" font-size="11.00" fill="white">{clf, embed_model,</text>
<text text-anchor="middle" x="2790" y="-153.2" font-family="Helvetica,sans-Serif" font-size="11.00" fill="white">chunk_chars}</text>
</g>
<!-- lr&#45;&gt;model -->
<g id="edge10" class="edge">
<title>lr&#45;&gt;model</title>
<path fill="none" stroke="#aaaaaa" d="M2600.12,-107.5C2664.18,-107.5 2741,-107.5 2741,-107.5 2741,-107.5 2741,-129.17 2741,-129.17"/>
<polygon fill="#aaaaaa" stroke="#aaaaaa" points="2737.5,-129.17 2741,-139.17 2744.5,-129.17 2737.5,-129.17"/>
<text text-anchor="middle" x="2668" y="-153" font-family="Helvetica,sans-Serif" font-size="10.00" fill="#cccccc">joblib.dump()</text>
</g>
</g>
</svg>
