<?xml version="1.0" encoding="UTF-8" standalone="no"?>
<!DOCTYPE svg PUBLIC "-//W3C//DTD SVG 1.1//EN"
 "http://www.w3.org/Graphics/SVG/1.1/DTD/svg11.dtd">
<!-- Generated by graphviz version 2.43.0 (0)
 -->
<!-- Title: Concurrency3_Memory_At_Fork Pages: 1 -->
<svg width="1305pt" height="1557pt"
 viewBox="0.00 0.00 1305.32 1556.80" xmlns="http://www.w3.org/2000/svg" xmlns:xlink="http://www.w3.org/1999/xlink">
<g id="graph0" class="graph" transform="scale(1 1) rotate(0) translate(50.4 1506.4)">
<title>Concurrency3_Memory_At_Fork</title>
<polygon fill="#1a1a2e" stroke="transparent" points="-50.4,50.4 -50.4,-1506.4 1254.92,-1506.4 1254.92,50.4 -50.4,50.4"/>
<text text-anchor="middle" x="602.26" y="-1440.8" font-family="Helvetica,sans-Serif" font-size="14.00" fill="#e0e0e0">What fork() Inherits: Memory, Threads, File Descriptors, Lock States</text>
<g id="clust1" class="cluster">
<title>cluster_parent</title>
<polygon fill="#0e1a0e" stroke="#334433" points="38.5,-575 38.5,-1129 697.18,-1129 697.18,-575 38.5,-575"/>
<text text-anchor="middle" x="367.84" y="-1114.6" font-family="Helvetica,sans-Serif" font-size="13.00" fill="#88cc88">Parent Process</text>
</g>
<g id="clust2" class="cluster">
<title>cluster_p_threads</title>
<polygon fill="#1a1a2e" stroke="#445544" stroke-dasharray="5,2" points="58.5,-950 58.5,-1099 175.5,-1099 175.5,-950 58.5,-950"/>
<text text-anchor="middle" x="117" y="-1087" font-family="Helvetica,sans-Serif" font-size="10.00" fill="#cccccc">Thread Table</text>
</g>
<g id="clust3" class="cluster">
<title>cluster_p_mem</title>
<polygon fill="#1a1a2e" stroke="#445544" stroke-dasharray="5,2" points="407,-692 407,-1099 689.18,-1099 689.18,-692 407,-692"/>
<text text-anchor="middle" x="548.09" y="-1087" font-family="Helvetica,sans-Serif" font-size="10.00" fill="#cccccc">Virtual Memory</text>
</g>
<g id="clust4" class="cluster">
<title>cluster_p_fds</title>
<polygon fill="#1a1a2e" stroke="#445544" stroke-dasharray="5,2" points="46.5,-583 46.5,-942 187.5,-942 187.5,-583 46.5,-583"/>
<text text-anchor="middle" x="117" y="-930" font-family="Helvetica,sans-Serif" font-size="10.00" fill="#cccccc">File Descriptor Table</text>
</g>
<g id="clust5" class="cluster">
<title>cluster_fork_legend</title>
<polygon fill="#1a1a2e" stroke="#445544" stroke-dasharray="5,2" points="8,-1137 8,-1425 226,-1425 226,-1137 8,-1137"/>
<text text-anchor="middle" x="117" y="-1412.2" font-family="Helvetica,sans-Serif" font-size="11.00" fill="#cccccc">fork() semantics</text>
</g>
<g id="clust6" class="cluster">
<title>cluster_child</title>
<polygon fill="#1a0e0e" stroke="#4a1a1a" points="422.59,-8 422.59,-567 1196.52,-567 1196.52,-8 422.59,-8"/>
<text text-anchor="middle" x="809.55" y="-552.6" font-family="Helvetica,sans-Serif" font-size="13.00" fill="#cc8888">Child Process (immediately after fork)</text>
</g>
<g id="clust9" class="cluster">
<title>cluster_c_fds</title>
<polygon fill="#1a1a2e" stroke="#334433" stroke-dasharray="5,2" points="430.59,-16 430.59,-375 666.59,-375 666.59,-16 430.59,-16"/>
<text text-anchor="middle" x="548.59" y="-363" font-family="Helvetica,sans-Serif" font-size="10.00" fill="#88cc88">File Descriptor Table &#160;— DUPLICATED (fork&#45;safe)</text>
</g>
<g id="clust7" class="cluster">
<title>cluster_c_threads</title>
<polygon fill="#1a1a2e" stroke="#663333" stroke-dasharray="5,2" points="459.09,-383 459.09,-537 638.09,-537 638.09,-383 459.09,-383"/>
<text text-anchor="middle" x="548.59" y="-525" font-family="Helvetica,sans-Serif" font-size="10.00" fill="#ff8866">Thread Table &#160;— ONLY calling thread</text>
</g>
<g id="clust8" class="cluster">
<title>cluster_c_mem</title>
<polygon fill="#1a1a2e" stroke="#663333" stroke-dasharray="5,2" points="898.18,-74 898.18,-537 1188.52,-537 1188.52,-74 898.18,-74"/>
<text text-anchor="middle" x="1043.35" y="-525" font-family="Helvetica,sans-Serif" font-size="10.00" fill="#ff8866">Virtual Memory &#160;— COW copy of parent</text>
</g>
<!-- p_t1 -->
<g id="node1" class="node">
<title>p_t1</title>
<polygon fill="#2a4a2a" stroke="black" points="164.5,-994 69.5,-994 69.5,-958 164.5,-958 164.5,-994"/>
<text text-anchor="middle" x="117" y="-979" font-family="Helvetica,sans-Serif" font-size="10.00" fill="white">tid=1 &#160;main thread</text>
<text text-anchor="middle" x="117" y="-968" font-family="Helvetica,sans-Serif" font-size="10.00" fill="white">state: running</text>
</g>
<!-- p_s1 -->
<g id="node5" class="node">
<title>p_s1</title>
<polygon fill="#2a3a4a" stroke="black" points="580.59,-736 515.59,-736 515.59,-700 580.59,-700 580.59,-736"/>
<text text-anchor="middle" x="548.09" y="-715.5" font-family="Helvetica,sans-Serif" font-size="10.00" fill="white">stack tid=1</text>
</g>
<!-- p_t1&#45;&gt;p_s1 -->
<g id="edge3" class="edge">
<title>p_t1&#45;&gt;p_s1</title>
<path fill="none" stroke="#aaaaaa" d="M164.56,-984C184.67,-984 203.52,-984 203.52,-984 203.52,-984 203.52,-717.5 203.52,-717.5 203.52,-717.5 505.36,-717.5 505.36,-717.5"/>
<polygon fill="#aaaaaa" stroke="#aaaaaa" points="505.36,-721 515.36,-717.5 505.36,-714 505.36,-721"/>
</g>
<!-- c_t1 -->
<g id="node17" class="node">
<title>c_t1</title>
<polygon fill="#3a2a2a" stroke="black" points="597.09,-432.5 499.09,-432.5 499.09,-391.5 597.09,-391.5 597.09,-432.5"/>
<text text-anchor="middle" x="548.09" y="-420.5" font-family="Helvetica,sans-Serif" font-size="10.00" fill="white">tid=1 &#160;main thread</text>
<text text-anchor="middle" x="548.09" y="-409.5" font-family="Helvetica,sans-Serif" font-size="10.00" fill="white">state: just returned</text>
<text text-anchor="middle" x="548.09" y="-398.5" font-family="Helvetica,sans-Serif" font-size="10.00" fill="white">from fork()</text>
</g>
<!-- p_t1&#45;&gt;c_t1 -->
<g id="edge8" class="edge">
<title>p_t1&#45;&gt;c_t1</title>
<path fill="none" stroke="#44aa44" d="M164.82,-974C177.4,-974 187.52,-974 187.52,-974 187.52,-974 187.52,-412 187.52,-412 187.52,-412 489.09,-412 489.09,-412"/>
<polygon fill="#44aa44" stroke="#44aa44" points="489.09,-415.5 499.09,-412 489.09,-408.5 489.09,-415.5"/>
<text text-anchor="middle" x="316.5" y="-427.8" font-family="Helvetica,sans-Serif" font-size="9.00" fill="#cccccc">survives fork</text>
</g>
<!-- p_t2 -->
<g id="node2" class="node">
<title>p_t2</title>
<polygon fill="#3a5a2a" stroke="black" points="167.5,-1071.5 66.5,-1071.5 66.5,-1030.5 167.5,-1030.5 167.5,-1071.5"/>
<text text-anchor="middle" x="117" y="-1059.5" font-family="Helvetica,sans-Serif" font-size="10.00" fill="white">tid=2 &#160;feeder thread</text>
<text text-anchor="middle" x="117" y="-1048.5" font-family="Helvetica,sans-Serif" font-size="10.00" fill="white">state: running</text>
<text text-anchor="middle" x="117" y="-1037.5" font-family="Helvetica,sans-Serif" font-size="10.00" fill="white">holds Mutex M</text>
</g>
<!-- p_s2 -->
<g id="node6" class="node">
<title>p_s2</title>
<polygon fill="#2a3a4a" stroke="black" points="580.59,-808 515.59,-808 515.59,-772 580.59,-772 580.59,-808"/>
<text text-anchor="middle" x="548.09" y="-787.5" font-family="Helvetica,sans-Serif" font-size="10.00" fill="white">stack tid=2</text>
</g>
<!-- p_t2&#45;&gt;p_s2 -->
<g id="edge2" class="edge">
<title>p_t2&#45;&gt;p_s2</title>
<path fill="none" stroke="#aaaaaa" d="M167.59,-1053.75C189.63,-1053.75 210.52,-1053.75 210.52,-1053.75 210.52,-1053.75 210.52,-789.5 210.52,-789.5 210.52,-789.5 505.41,-789.5 505.41,-789.5"/>
<polygon fill="#aaaaaa" stroke="#aaaaaa" points="505.41,-793 515.41,-789.5 505.41,-786 505.41,-793"/>
</g>
<!-- p_mutex -->
<g id="node7" class="node">
<title>p_mutex</title>
<polygon fill="#6a3300" stroke="black" points="681.27,-886 614.68,-928.42 481.5,-928.42 414.91,-886 481.5,-843.58 614.68,-843.58 681.27,-886"/>
<text text-anchor="middle" x="548.09" y="-900" font-family="Helvetica,sans-Serif" font-size="10.00" fill="white">Mutex M &#160;(in heap)</text>
<text text-anchor="middle" x="548.09" y="-889" font-family="Helvetica,sans-Serif" font-size="10.00" fill="white">futex word = 1 &#160;(LOCKED)</text>
<text text-anchor="middle" x="548.09" y="-878" font-family="Helvetica,sans-Serif" font-size="10.00" fill="white">no explicit owner field</text>
<text text-anchor="middle" x="548.09" y="-867" font-family="Helvetica,sans-Serif" font-size="10.00" fill="white">[PTHREAD_MUTEX_DEFAULT]</text>
</g>
<!-- p_t2&#45;&gt;p_mutex -->
<g id="edge1" class="edge">
<title>p_t2&#45;&gt;p_mutex</title>
<path fill="none" stroke="#ff8800" d="M167.81,-1062.62C261.39,-1062.62 451.52,-1062.62 451.52,-1062.62 451.52,-1062.62 451.52,-919.45 451.52,-919.45"/>
<polygon fill="#ff8800" stroke="#ff8800" points="455.02,-919.45 451.52,-909.45 448.02,-919.45 455.02,-919.45"/>
<text text-anchor="middle" x="316.5" y="-970.8" font-family="Helvetica,sans-Serif" font-size="9.00" fill="#ff8800">holds</text>
</g>
<!-- c_t2_gone -->
<g id="node18" class="node">
<title>c_t2_gone</title>
<polygon fill="none" stroke="#663333" stroke-dasharray="5,2" points="594.09,-509.5 502.09,-509.5 502.09,-468.5 594.09,-468.5 594.09,-509.5"/>
<text text-anchor="middle" x="548.09" y="-497.5" font-family="Helvetica,sans-Serif" font-size="10.00" fill="#888888">tid=2 &#160;ABSENT</text>
<text text-anchor="middle" x="548.09" y="-486.5" font-family="Helvetica,sans-Serif" font-size="10.00" fill="#888888">(threads are NOT</text>
<text text-anchor="middle" x="548.09" y="-475.5" font-family="Helvetica,sans-Serif" font-size="10.00" fill="#888888">copied by fork)</text>
</g>
<!-- p_t2&#45;&gt;c_t2_gone -->
<g id="edge9" class="edge">
<title>p_t2&#45;&gt;c_t2_gone</title>
<path fill="none" stroke="#ff4444" stroke-dasharray="5,2" d="M167.62,-1044.88C182.81,-1044.88 195.52,-1044.88 195.52,-1044.88 195.52,-1044.88 195.52,-489 195.52,-489 195.52,-489 492,-489 492,-489"/>
<polygon fill="#ff4444" stroke="#ff4444" points="492,-492.5 502,-489 492,-485.5 492,-492.5"/>
<text text-anchor="middle" x="316.5" y="-630.8" font-family="Helvetica,sans-Serif" font-size="9.00" fill="#cccccc">LOST at fork</text>
</g>
<!-- p_heap -->
<g id="node3" class="node">
<title>p_heap</title>
<polygon fill="#2a2a4a" stroke="black" points="610.09,-1072 486.09,-1072 486.09,-1036 610.09,-1036 610.09,-1072"/>
<text text-anchor="middle" x="548.09" y="-1057" font-family="Helvetica,sans-Serif" font-size="10.00" fill="white">heap</text>
<text text-anchor="middle" x="548.09" y="-1046" font-family="Helvetica,sans-Serif" font-size="10.00" fill="white">(Python objects, buffers)</text>
</g>
<!-- c_heap -->
<g id="node19" class="node">
<title>c_heap</title>
<polygon fill="#2a1a2a" stroke="black" points="1140.35,-510 946.35,-510 946.35,-474 1140.35,-474 1140.35,-510"/>
<text text-anchor="middle" x="1043.35" y="-489.5" font-family="Helvetica,sans-Serif" font-size="10.00" fill="#aaaaaa">heap &#160;(COW — shared pages until write)</text>
</g>
<!-- p_heap&#45;&gt;c_heap -->
<g id="edge5" class="edge">
<title>p_heap&#45;&gt;c_heap</title>
<path fill="none" stroke="#888844" stroke-dasharray="5,2" d="M610.33,-1054C743.4,-1054 1043.52,-1054 1043.52,-1054 1043.52,-1054 1043.52,-520.06 1043.52,-520.06"/>
<polygon fill="#888844" stroke="#888844" points="1047.02,-520.06 1043.52,-510.06 1040.02,-520.06 1047.02,-520.06"/>
<text text-anchor="middle" x="793.68" y="-773.8" font-family="Helvetica,sans-Serif" font-size="9.00" fill="#cccccc">COW copy</text>
</g>
<!-- p_code -->
<g id="node4" class="node">
<title>p_code</title>
<polygon fill="#2a3a4a" stroke="black" points="596.09,-1000 500.09,-1000 500.09,-964 596.09,-964 596.09,-1000"/>
<text text-anchor="middle" x="548.09" y="-985" font-family="Helvetica,sans-Serif" font-size="10.00" fill="white">code segment</text>
<text text-anchor="middle" x="548.09" y="-974" font-family="Helvetica,sans-Serif" font-size="10.00" fill="white">(read&#45;only, shared)</text>
</g>
<!-- c_mutex -->
<g id="node23" class="node">
<title>c_mutex</title>
<polygon fill="#880000" stroke="black" stroke-width="2" points="1180.69,-152 1112.02,-222.44 974.68,-222.44 906.01,-152 974.68,-81.56 1112.02,-81.56 1180.69,-152"/>
<text text-anchor="middle" x="1043.35" y="-183" font-family="Helvetica,sans-Serif" font-size="10.00" fill="#ffcccc">Mutex M &#160;(INHERITED COPY)</text>
<text text-anchor="middle" x="1043.35" y="-172" font-family="Helvetica,sans-Serif" font-size="10.00" fill="#ffcccc">futex word = 1 &#160;← STILL LOCKED</text>
<text text-anchor="middle" x="1043.35" y="-149" font-family="Helvetica,sans-Serif" font-size="10.00" fill="#ffcccc">No thread holds it.</text>
<text text-anchor="middle" x="1043.35" y="-138" font-family="Helvetica,sans-Serif" font-size="10.00" fill="#ffcccc">No thread CAN release it.</text>
<text text-anchor="middle" x="1043.35" y="-127" font-family="Helvetica,sans-Serif" font-size="10.00" fill="#ffcccc">Any acquire() → futex(WAIT)</text>
<text text-anchor="middle" x="1043.35" y="-116" font-family="Helvetica,sans-Serif" font-size="10.00" fill="#ffcccc">→ DEADLOCK</text>
</g>
<!-- p_mutex&#45;&gt;c_mutex -->
<g id="edge6" class="edge">
<title>p_mutex&#45;&gt;c_mutex</title>
<path fill="none" stroke="#ff8800" stroke-width="2" d="M652.52,-867.65C652.52,-759.81 652.52,-213.11 652.52,-213.11 652.52,-213.11 955.2,-213.11 955.2,-213.11"/>
<polygon fill="#ff8800" stroke="#ff8800" stroke-width="2" points="955.2,-216.61 965.2,-213.11 955.2,-209.61 955.2,-216.61"/>
<text text-anchor="middle" x="793.68" y="-618.8" font-family="Helvetica,sans-Serif" font-size="9.00" fill="#ffaa44">COPIED</text>
<text text-anchor="middle" x="793.68" y="-608.8" font-family="Helvetica,sans-Serif" font-size="9.00" fill="#ffaa44">(word=1 preserved)</text>
</g>
<!-- p_fd0 -->
<g id="node8" class="node">
<title>p_fd0</title>
<polygon fill="#2a2a3a" stroke="black" points="177.5,-915 56.5,-915 56.5,-879 177.5,-879 177.5,-915"/>
<text text-anchor="middle" x="117" y="-894.5" font-family="Helvetica,sans-Serif" font-size="10.00" fill="white">fd 0 → stdin (kernel obj)</text>
</g>
<!-- p_fd1 -->
<g id="node9" class="node">
<title>p_fd1</title>
<polygon fill="#2a2a3a" stroke="black" points="155,-843 79,-843 79,-807 155,-807 155,-843"/>
<text text-anchor="middle" x="117" y="-822.5" font-family="Helvetica,sans-Serif" font-size="10.00" fill="white">fd 1 → stdout</text>
</g>
<!-- p_fd2 -->
<g id="node10" class="node">
<title>p_fd2</title>
<polygon fill="#2a2a3a" stroke="black" points="154,-771 80,-771 80,-735 154,-735 154,-771"/>
<text text-anchor="middle" x="117" y="-750.5" font-family="Helvetica,sans-Serif" font-size="10.00" fill="white">fd 2 → stderr</text>
</g>
<!-- p_fd3 -->
<g id="node11" class="node">
<title>p_fd3</title>
<polygon fill="#2a3a4a" stroke="black" points="163.5,-699 70.5,-699 70.5,-663 163.5,-663 163.5,-699"/>
<text text-anchor="middle" x="117" y="-678.5" font-family="Helvetica,sans-Serif" font-size="10.00" fill="white">fd 3 → pipe_write</text>
</g>
<!-- p_fd4 -->
<g id="node12" class="node">
<title>p_fd4</title>
<polygon fill="#2a3a4a" stroke="black" points="179.5,-627 54.5,-627 54.5,-591 179.5,-591 179.5,-627"/>
<text text-anchor="middle" x="117" y="-606.5" font-family="Helvetica,sans-Serif" font-size="10.00" fill="white">fd 4 → socket (Manager)</text>
</g>
<!-- c_fd4 -->
<g id="node28" class="node">
<title>c_fd4</title>
<polygon fill="#1a3a2a" stroke="black" points="617.59,-60 478.59,-60 478.59,-24 617.59,-24 617.59,-60"/>
<text text-anchor="middle" x="548.09" y="-39.5" font-family="Helvetica,sans-Serif" font-size="10.00" fill="#88ee88">fd 4 → socket (Manager) &#160;✓</text>
</g>
<!-- p_fd4&#45;&gt;c_fd4 -->
<g id="edge7" class="edge">
<title>p_fd4&#45;&gt;c_fd4</title>
<path fill="none" stroke="#44aa44" d="M117.52,-590.78C117.52,-493.73 117.52,-42 117.52,-42 117.52,-42 468.43,-42 468.43,-42"/>
<polygon fill="#44aa44" stroke="#44aa44" points="468.43,-45.5 478.43,-42 468.43,-38.5 468.43,-45.5"/>
<text text-anchor="middle" x="316.5" y="-222.8" font-family="Helvetica,sans-Serif" font-size="9.00" fill="#cccccc">duplicated fd</text>
<text text-anchor="middle" x="316.5" y="-212.8" font-family="Helvetica,sans-Serif" font-size="9.00" fill="#cccccc">(fork&#45;safe)</text>
</g>
<!-- fl1 -->
<g id="node13" class="node">
<title>fl1</title>
<polygon fill="#1a3a1a" stroke="black" points="204,-1397 30,-1397 30,-1361 204,-1361 204,-1397"/>
<text text-anchor="middle" x="117" y="-1382" font-family="Helvetica,sans-Serif" font-size="10.00" fill="#88ee88">✓ COPIED (COW): &#160;virtual memory</text>
<text text-anchor="middle" x="117" y="-1371" font-family="Helvetica,sans-Serif" font-size="10.00" fill="#88ee88"> &#160;&#160;&#160;heap, stacks, mutex state</text>
</g>
<!-- fl2 -->
<g id="node14" class="node">
<title>fl2</title>
<polygon fill="#1a2a3a" stroke="black" points="216,-1325 18,-1325 18,-1289 216,-1289 216,-1325"/>
<text text-anchor="middle" x="117" y="-1310" font-family="Helvetica,sans-Serif" font-size="10.00" fill="#88aaee">✓ DUPLICATED: &#160;fd table</text>
<text text-anchor="middle" x="117" y="-1299" font-family="Helvetica,sans-Serif" font-size="10.00" fill="#88aaee"> &#160;&#160;&#160;same fd numbers, same kernel objects</text>
</g>
<!-- fl3 -->
<g id="node15" class="node">
<title>fl3</title>
<polygon fill="#3a1a1a" stroke="black" points="199,-1253 35,-1253 35,-1217 199,-1217 199,-1253"/>
<text text-anchor="middle" x="117" y="-1238" font-family="Helvetica,sans-Serif" font-size="10.00" fill="#ee8888">✗ NOT COPIED: &#160;threads</text>
<text text-anchor="middle" x="117" y="-1227" font-family="Helvetica,sans-Serif" font-size="10.00" fill="#ee8888"> &#160;&#160;&#160;only the calling thread survives</text>
</g>
<!-- fl4 -->
<g id="node16" class="node">
<title>fl4</title>
<polygon fill="#3a2200" stroke="black" points="218,-1181 16,-1181 16,-1145 218,-1145 218,-1181"/>
<text text-anchor="middle" x="117" y="-1166" font-family="Helvetica,sans-Serif" font-size="10.00" fill="#ffaa44">⚠ INHERITED STATE: &#160;mutex lock bits</text>
<text text-anchor="middle" x="117" y="-1155" font-family="Helvetica,sans-Serif" font-size="10.00" fill="#ffaa44"> &#160;&#160;&#160;word=1 in child, but owning thread gone</text>
</g>
<!-- c_t1&#45;&gt;c_mutex -->
<g id="edge4" class="edge">
<title>c_t1&#45;&gt;c_mutex</title>
<path fill="none" stroke="#ff4444" stroke-width="2" d="M597.17,-396.75C699.57,-396.75 926.52,-396.75 926.52,-396.75 926.52,-396.75 926.52,-183.29 926.52,-183.29"/>
<polygon fill="#ff4444" stroke="#ff4444" stroke-width="2" points="930.02,-183.29 926.52,-173.29 923.02,-183.29 930.02,-183.29"/>
<text text-anchor="middle" x="793.68" y="-226.8" font-family="Helvetica,sans-Serif" font-size="9.00" fill="#ff6666">any pool operation</text>
<text text-anchor="middle" x="793.68" y="-216.8" font-family="Helvetica,sans-Serif" font-size="9.00" fill="#ff6666">→ tries acquire(M)</text>
<text text-anchor="middle" x="793.68" y="-206.8" font-family="Helvetica,sans-Serif" font-size="9.00" fill="#ff6666">→ DEADLOCK</text>
</g>
<!-- c_code -->
<g id="node20" class="node">
<title>c_code</title>
<polygon fill="#2a1a2a" stroke="black" points="1125.85,-438 960.85,-438 960.85,-402 1125.85,-402 1125.85,-438"/>
<text text-anchor="middle" x="1043.35" y="-417.5" font-family="Helvetica,sans-Serif" font-size="10.00" fill="#aaaaaa">code segment &#160;(shared, read&#45;only)</text>
</g>
<!-- c_s1 -->
<g id="node21" class="node">
<title>c_s1</title>
<polygon fill="#2a2a3a" stroke="black" points="1108.85,-366 977.85,-366 977.85,-330 1108.85,-330 1108.85,-366"/>
<text text-anchor="middle" x="1043.35" y="-345.5" font-family="Helvetica,sans-Serif" font-size="10.00" fill="white">stack tid=1 &#160;(private copy)</text>
</g>
<!-- c_s2_gone -->
<g id="node22" class="node">
<title>c_s2_gone</title>
<polygon fill="none" stroke="black" stroke-dasharray="5,2" points="1098.85,-294 987.85,-294 987.85,-258 1098.85,-258 1098.85,-294"/>
<text text-anchor="middle" x="1043.35" y="-273.5" font-family="Helvetica,sans-Serif" font-size="10.00" fill="#666666">stack tid=2 &#160;ABSENT</text>
</g>
<!-- c_fd0 -->
<g id="node24" class="node">
<title>c_fd0</title>
<polygon fill="#1a2a1a" stroke="black" points="623.59,-348 472.59,-348 472.59,-312 623.59,-312 623.59,-348"/>
<text text-anchor="middle" x="548.09" y="-327.5" font-family="Helvetica,sans-Serif" font-size="10.00" fill="white">fd 0 → stdin &#160;(same kernel obj)</text>
</g>
<!-- c_fd1 -->
<g id="node25" class="node">
<title>c_fd1</title>
<polygon fill="#1a2a1a" stroke="black" points="586.09,-276 510.09,-276 510.09,-240 586.09,-240 586.09,-276"/>
<text text-anchor="middle" x="548.09" y="-255.5" font-family="Helvetica,sans-Serif" font-size="10.00" fill="white">fd 1 → stdout</text>
</g>
<!-- c_fd2 -->
<g id="node26" class="node">
<title>c_fd2</title>
<polygon fill="#1a2a1a" stroke="black" points="585.09,-204 511.09,-204 511.09,-168 585.09,-168 585.09,-204"/>
<text text-anchor="middle" x="548.09" y="-183.5" font-family="Helvetica,sans-Serif" font-size="10.00" fill="white">fd 2 → stderr</text>
</g>
<!-- c_fd3 -->
<g id="node27" class="node">
<title>c_fd3</title>
<polygon fill="#1a3a2a" stroke="black" points="610.09,-132 486.09,-132 486.09,-96 610.09,-96 610.09,-132"/>
<text text-anchor="middle" x="548.09" y="-111.5" font-family="Helvetica,sans-Serif" font-size="10.00" fill="white">fd 3 → pipe_write &#160;(safe)</text>
</g>
</g>
</svg>
