<?xml version="1.0" encoding="UTF-8" standalone="no"?>
<!DOCTYPE svg PUBLIC "-//W3C//DTD SVG 1.1//EN"
 "http://www.w3.org/Graphics/SVG/1.1/DTD/svg11.dtd">
<!-- Generated by graphviz version 2.43.0 (0)
 -->
<!-- Title: Concurrency1_Fork_Feeder_Deadlock Pages: 1 -->
<svg width="2409pt" height="618pt"
 viewBox="0.00 0.00 2408.92 617.80" xmlns="http://www.w3.org/2000/svg" xmlns:xlink="http://www.w3.org/1999/xlink">
<g id="graph0" class="graph" transform="scale(1 1) rotate(0) translate(50.4 567.4)">
<title>Concurrency1_Fork_Feeder_Deadlock</title>
<polygon fill="#1a1a2e" stroke="transparent" points="-50.4,50.4 -50.4,-567.4 2358.52,-567.4 2358.52,50.4 -50.4,50.4"/>
<text text-anchor="middle" x="1154.06" y="-501" font-family="Helvetica,sans-Serif" font-size="15.00" fill="#e0e0e0">Fork&#45;After&#45;Threads: How a Locked Feeder Mutex Deadlocks Child Workers</text>
<g id="clust1" class="cluster">
<title>cluster_before</title>
<polygon fill="#0e1a0e" stroke="#334433" points="8,-177 8,-484 462.8,-484 462.8,-177 8,-177"/>
<text text-anchor="middle" x="235.4" y="-470.4" font-family="Helvetica,sans-Serif" font-size="12.00" fill="#88cc88">Parent Process &#160;(before fork)</text>
</g>
<g id="clust2" class="cluster">
<title>cluster_threads_before</title>
<polygon fill="#1a1a2e" stroke="#445544" stroke-dasharray="5,2" points="16,-202 16,-356 122,-356 122,-202 16,-202"/>
<text text-anchor="middle" x="69" y="-344" font-family="Helvetica,sans-Serif" font-size="10.00" fill="#cccccc">Thread Table</text>
</g>
<g id="clust3" class="cluster">
<title>cluster_mem_before</title>
<polygon fill="#1a1a2e" stroke="#445544" stroke-dasharray="5,2" points="251.01,-185 251.01,-376 454.8,-376 454.8,-185 251.01,-185"/>
<text text-anchor="middle" x="352.91" y="-364" font-family="Helvetica,sans-Serif" font-size="10.00" fill="#cccccc">Process Memory</text>
</g>
<g id="clust4" class="cluster">
<title>cluster_fd_before</title>
<polygon fill="#1a1a2e" stroke="#445544" stroke-dasharray="5,2" points="298.41,-384 298.41,-455 407.41,-455 407.41,-384 298.41,-384"/>
<text text-anchor="middle" x="352.91" y="-443" font-family="Helvetica,sans-Serif" font-size="10.00" fill="#cccccc">File Descriptor Table</text>
</g>
<g id="clust5" class="cluster">
<title>cluster_parent_after</title>
<polygon fill="#0e1a0e" stroke="#334433" points="651.81,-249 651.81,-350 809.81,-350 809.81,-249 651.81,-249"/>
<text text-anchor="middle" x="730.81" y="-336.4" font-family="Helvetica,sans-Serif" font-size="12.00" fill="#88cc88">Parent &#160;(after fork)</text>
</g>
<g id="clust6" class="cluster">
<title>cluster_child</title>
<polygon fill="#1a0e0e" stroke="#4a1a1a" points="606.81,-8 606.81,-241 2300.12,-241 2300.12,-8 606.81,-8"/>
<text text-anchor="middle" x="1453.46" y="-227.4" font-family="Helvetica,sans-Serif" font-size="12.00" fill="#cc6666">Child Process &#160;(after fork)</text>
</g>
<g id="clust7" class="cluster">
<title>cluster_child_threads</title>
<polygon fill="#1a1a2e" stroke="#663333" stroke-dasharray="5,2" points="1067.81,-49 1067.81,-198 1276.81,-198 1276.81,-49 1067.81,-49"/>
<text text-anchor="middle" x="1172.31" y="-186" font-family="Helvetica,sans-Serif" font-size="10.00" fill="#ff8866">Thread Table — ONLY main thread survived</text>
</g>
<g id="clust8" class="cluster">
<title>cluster_child_mem</title>
<polygon fill="#1a1a2e" stroke="#663333" stroke-dasharray="5,2" points="1431.81,-16 1431.81,-207 1740.12,-207 1740.12,-16 1431.81,-16"/>
<text text-anchor="middle" x="1585.96" y="-195" font-family="Helvetica,sans-Serif" font-size="10.00" fill="#ff8866">Process Memory — COPY of parent at fork instant</text>
</g>
<g id="clust9" class="cluster">
<title>cluster_child_fd</title>
<polygon fill="#1a1a2e" stroke="#334433" stroke-dasharray="5,2" points="614.81,-141 614.81,-212 847.81,-212 847.81,-141 614.81,-141"/>
<text text-anchor="middle" x="731.31" y="-200" font-family="Helvetica,sans-Serif" font-size="10.00" fill="#88cc88">File Descriptor Table — DUPLICATED (fork&#45;safe)</text>
</g>
<!-- main_t -->
<g id="node1" class="node">
<title>main_t</title>
<polygon fill="#2a4a2a" stroke="black" points="104.5,-251.5 33.5,-251.5 33.5,-210.5 104.5,-210.5 104.5,-251.5"/>
<text text-anchor="middle" x="69" y="-239.5" font-family="Helvetica,sans-Serif" font-size="10.00" fill="white">Main Thread</text>
<text text-anchor="middle" x="69" y="-228.5" font-family="Helvetica,sans-Serif" font-size="10.00" fill="white">tid=1</text>
<text text-anchor="middle" x="69" y="-217.5" font-family="Helvetica,sans-Serif" font-size="10.00" fill="white">(running)</text>
</g>
<!-- fork_event -->
<g id="node6" class="node">
<title>fork_event</title>
<polygon fill="#445500" stroke="black" points="447.72,-108.98 447.72,-137.02 392.18,-156.85 313.63,-156.85 258.09,-137.02 258.09,-108.98 313.63,-89.15 392.18,-89.15 447.72,-108.98"/>
<text text-anchor="middle" x="352.91" y="-132.2" font-family="Helvetica,sans-Serif" font-size="11.00" fill="white">fork()</text>
<text text-anchor="middle" x="352.91" y="-120.2" font-family="Helvetica,sans-Serif" font-size="11.00" fill="white">COPY memory</text>
<text text-anchor="middle" x="352.91" y="-108.2" font-family="Helvetica,sans-Serif" font-size="11.00" fill="white">DO NOT copy threads</text>
</g>
<!-- main_t&#45;&gt;fork_event -->
<g id="edge7" class="edge">
<title>main_t&#45;&gt;fork_event</title>
<path fill="none" stroke="#88cc88" d="M69.12,-210.43C69.12,-179.1 69.12,-123 69.12,-123 69.12,-123 248.01,-123 248.01,-123"/>
<polygon fill="#88cc88" stroke="#88cc88" points="248.01,-126.5 258.01,-123 248.01,-119.5 248.01,-126.5"/>
</g>
<!-- feeder_t -->
<g id="node2" class="node">
<title>feeder_t</title>
<polygon fill="#3a5a2a" stroke="black" points="114,-328.5 24,-328.5 24,-287.5 114,-287.5 114,-328.5"/>
<text text-anchor="middle" x="69" y="-316.5" font-family="Helvetica,sans-Serif" font-size="10.00" fill="white">Feeder Thread</text>
<text text-anchor="middle" x="69" y="-305.5" font-family="Helvetica,sans-Serif" font-size="10.00" fill="white">tid=2</text>
<text text-anchor="middle" x="69" y="-294.5" font-family="Helvetica,sans-Serif" font-size="10.00" fill="white">→ writing to pipe</text>
</g>
<!-- mutex_m -->
<g id="node3" class="node">
<title>mutex_m</title>
<polygon fill="#6a3300" stroke="black" points="446.7,-235 399.8,-277.42 306.01,-277.42 259.11,-235 306.01,-192.58 399.8,-192.58 446.7,-235"/>
<text text-anchor="middle" x="352.91" y="-249" font-family="Helvetica,sans-Serif" font-size="10.00" fill="white">Mutex M</text>
<text text-anchor="middle" x="352.91" y="-238" font-family="Helvetica,sans-Serif" font-size="10.00" fill="white">futex word = 1</text>
<text text-anchor="middle" x="352.91" y="-227" font-family="Helvetica,sans-Serif" font-size="10.00" fill="white">(LOCKED, no waiters)</text>
<text text-anchor="middle" x="352.91" y="-216" font-family="Helvetica,sans-Serif" font-size="10.00" fill="white">owner: tid=2</text>
</g>
<!-- feeder_t&#45;&gt;mutex_m -->
<g id="edge1" class="edge">
<title>feeder_t&#45;&gt;mutex_m</title>
<path fill="none" stroke="#ff8800" stroke-width="2" d="M110.12,-287.26C110.12,-276.05 110.12,-264.48 110.12,-264.48 110.12,-264.48 281.64,-264.48 281.64,-264.48"/>
<polygon fill="#ff8800" stroke="#ff8800" stroke-width="2" points="281.64,-267.98 291.64,-264.48 281.64,-260.98 281.64,-267.98"/>
<text text-anchor="middle" x="186" y="-252.8" font-family="Helvetica,sans-Serif" font-size="9.00" fill="#ff8800">holds lock</text>
</g>
<!-- pipe_buf -->
<g id="node4" class="node">
<title>pipe_buf</title>
<polygon fill="#2a3a5a" stroke="black" points="396.91,-349 308.91,-349 308.91,-313 396.91,-313 396.91,-349"/>
<text text-anchor="middle" x="352.91" y="-334" font-family="Helvetica,sans-Serif" font-size="10.00" fill="white">Pipe write buffer</text>
<text text-anchor="middle" x="352.91" y="-323" font-family="Helvetica,sans-Serif" font-size="10.00" fill="white">(in&#45;flight data)</text>
</g>
<!-- feeder_t&#45;&gt;pipe_buf -->
<g id="edge2" class="edge">
<title>feeder_t&#45;&gt;pipe_buf</title>
<path fill="none" stroke="#44aa44" d="M114.3,-320.75C114.3,-320.75 298.7,-320.75 298.7,-320.75"/>
<polygon fill="#44aa44" stroke="#44aa44" points="298.7,-324.25 308.7,-320.75 298.7,-317.25 298.7,-324.25"/>
<text text-anchor="middle" x="186" y="-318.8" font-family="Helvetica,sans-Serif" font-size="9.00" fill="#cccccc">writing</text>
</g>
<!-- fd_pipe -->
<g id="node5" class="node">
<title>fd_pipe</title>
<polygon fill="#2a2a4a" stroke="black" points="399.41,-428 306.41,-428 306.41,-392 399.41,-392 399.41,-428"/>
<text text-anchor="middle" x="352.91" y="-413" font-family="Helvetica,sans-Serif" font-size="10.00" fill="white">fd 3 → pipe_write</text>
<text text-anchor="middle" x="352.91" y="-402" font-family="Helvetica,sans-Serif" font-size="10.00" fill="white">fd 4 → socket</text>
</g>
<!-- feeder_t&#45;&gt;fd_pipe -->
<g id="edge3" class="edge">
<title>feeder_t&#45;&gt;fd_pipe</title>
<path fill="none" stroke="#aaaaaa" stroke-dasharray="5,2" d="M69.12,-328.64C69.12,-358.45 69.12,-410 69.12,-410 69.12,-410 296.36,-410 296.36,-410"/>
<polygon fill="#aaaaaa" stroke="#aaaaaa" points="296.36,-413.5 306.36,-410 296.36,-406.5 296.36,-413.5"/>
<text text-anchor="middle" x="186" y="-403.8" font-family="Helvetica,sans-Serif" font-size="9.00" fill="#cccccc">uses</text>
</g>
<!-- pm -->
<g id="node7" class="node">
<title>pm</title>
<polygon fill="#2a4a2a" stroke="black" points="801.81,-321 659.81,-321 659.81,-257 801.81,-257 801.81,-321"/>
<text text-anchor="middle" x="730.81" y="-309" font-family="Helvetica,sans-Serif" font-size="10.00" fill="white">Main Thread (tid=1)</text>
<text text-anchor="middle" x="730.81" y="-298" font-family="Helvetica,sans-Serif" font-size="10.00" fill="white">Feeder Thread (tid=2)</text>
<text text-anchor="middle" x="730.81" y="-275" font-family="Helvetica,sans-Serif" font-size="10.00" fill="white">feeder eventually releases M</text>
<text text-anchor="middle" x="730.81" y="-264" font-family="Helvetica,sans-Serif" font-size="10.00" fill="white">futex word → 0</text>
</g>
<!-- fork_event&#45;&gt;pm -->
<g id="edge8" class="edge">
<title>fork_event&#45;&gt;pm</title>
<path fill="none" stroke="#88cc88" d="M400.17,-154.12C457.37,-154.12 546.12,-154.12 546.12,-154.12 546.12,-154.12 546.12,-267.23 546.12,-267.23 546.12,-267.23 649.67,-267.23 649.67,-267.23"/>
<polygon fill="#88cc88" stroke="#88cc88" points="649.67,-270.73 659.67,-267.23 649.67,-263.73 649.67,-270.73"/>
<text text-anchor="middle" x="535.31" y="-257.8" font-family="Helvetica,sans-Serif" font-size="9.00" fill="#cccccc">parent continues</text>
</g>
<!-- child_main -->
<g id="node8" class="node">
<title>child_main</title>
<polygon fill="#3a2a2a" stroke="black" points="1207.81,-170.5 1136.81,-170.5 1136.81,-129.5 1207.81,-129.5 1207.81,-170.5"/>
<text text-anchor="middle" x="1172.31" y="-158.5" font-family="Helvetica,sans-Serif" font-size="10.00" fill="white">Main Thread</text>
<text text-anchor="middle" x="1172.31" y="-147.5" font-family="Helvetica,sans-Serif" font-size="10.00" fill="white">tid=1</text>
<text text-anchor="middle" x="1172.31" y="-136.5" font-family="Helvetica,sans-Serif" font-size="10.00" fill="white">(running)</text>
</g>
<!-- fork_event&#45;&gt;child_main -->
<g id="edge9" class="edge">
<title>fork_event&#45;&gt;child_main</title>
<path fill="none" stroke="#cc6666" d="M441.77,-139.25C441.77,-139.25 1126.65,-139.25 1126.65,-139.25"/>
<polygon fill="#cc6666" stroke="#cc6666" points="1126.65,-142.75 1136.65,-139.25 1126.65,-135.75 1126.65,-142.75"/>
<text text-anchor="middle" x="730.81" y="-105.8" font-family="Helvetica,sans-Serif" font-size="9.00" fill="#cccccc">child gets</text>
<text text-anchor="middle" x="730.81" y="-95.8" font-family="Helvetica,sans-Serif" font-size="9.00" fill="#cccccc">only this thread</text>
</g>
<!-- child_mutex -->
<g id="node10" class="node">
<title>child_mutex</title>
<polygon fill="#881a00" stroke="black" points="1732.27,-138 1659.12,-180.42 1512.81,-180.42 1439.66,-138 1512.81,-95.58 1659.12,-95.58 1732.27,-138"/>
<text text-anchor="middle" x="1585.96" y="-152" font-family="Helvetica,sans-Serif" font-size="10.00" fill="white">Mutex M &#160;(INHERITED COPY)</text>
<text text-anchor="middle" x="1585.96" y="-141" font-family="Helvetica,sans-Serif" font-size="10.00" fill="white">futex word = 1</text>
<text text-anchor="middle" x="1585.96" y="-130" font-family="Helvetica,sans-Serif" font-size="10.00" fill="white">(LOCKED — inherited value)</text>
<text text-anchor="middle" x="1585.96" y="-119" font-family="Helvetica,sans-Serif" font-size="10.00" fill="white">owner: tid=2 &#160;← tid=2 does not exist!</text>
</g>
<!-- fork_event&#45;&gt;child_mutex -->
<g id="edge10" class="edge">
<title>fork_event&#45;&gt;child_mutex</title>
<path fill="none" stroke="#ff8800" d="M447.87,-112.52C447.87,-112.52 1473.24,-112.52 1473.24,-112.52"/>
<polygon fill="#ff8800" stroke="#ff8800" points="1473.24,-116.02 1483.24,-112.52 1473.24,-109.02 1473.24,-116.02"/>
<text text-anchor="middle" x="957.81" y="-14.8" font-family="Helvetica,sans-Serif" font-size="9.00" fill="#ff8800">memory COPIED</text>
<text text-anchor="middle" x="957.81" y="-4.8" font-family="Helvetica,sans-Serif" font-size="9.00" fill="#ff8800">(including locked futex word)</text>
</g>
<!-- child_fd -->
<g id="node12" class="node">
<title>child_fd</title>
<polygon fill="#2a3a2a" stroke="black" points="818.81,-185 642.81,-185 642.81,-149 818.81,-149 818.81,-185"/>
<text text-anchor="middle" x="730.81" y="-170" font-family="Helvetica,sans-Serif" font-size="10.00" fill="white">fd 3 → pipe_write (shared kernel obj)</text>
<text text-anchor="middle" x="730.81" y="-159" font-family="Helvetica,sans-Serif" font-size="10.00" fill="white">fd 4 → socket &#160;(shared kernel obj)</text>
</g>
<!-- fork_event&#45;&gt;child_fd -->
<g id="edge11" class="edge">
<title>fork_event&#45;&gt;child_fd</title>
<path fill="none" stroke="#44aa44" d="M407.05,-151.56C407.05,-151.56 632.47,-151.56 632.47,-151.56"/>
<polygon fill="#44aa44" stroke="#44aa44" points="632.47,-155.06 642.47,-151.56 632.47,-148.06 632.47,-155.06"/>
<text text-anchor="middle" x="535.31" y="-172.8" font-family="Helvetica,sans-Serif" font-size="9.00" fill="#cccccc">fds DUPLICATED</text>
<text text-anchor="middle" x="535.31" y="-162.8" font-family="Helvetica,sans-Serif" font-size="9.00" fill="#cccccc">(fork&#45;safe)</text>
</g>
<!-- child_main&#45;&gt;child_mutex -->
<g id="edge4" class="edge">
<title>child_main&#45;&gt;child_mutex</title>
<path fill="none" stroke="#ff4444" stroke-width="2" d="M1207.94,-150C1207.94,-150 1450.03,-150 1450.03,-150"/>
<polygon fill="#ff4444" stroke="#ff4444" stroke-width="2" points="1450.03,-153.5 1460.03,-150 1450.03,-146.5 1450.03,-153.5"/>
<text text-anchor="middle" x="1358.31" y="-146.8" font-family="Helvetica,sans-Serif" font-size="9.00" fill="#cccccc">tries to acquire</text>
</g>
<!-- no_feeder -->
<g id="node9" class="node">
<title>no_feeder</title>
<polygon fill="none" stroke="black" stroke-dasharray="5,2" points="1241.81,-93 1102.81,-93 1102.81,-57 1241.81,-57 1241.81,-93"/>
<text text-anchor="middle" x="1172.31" y="-78" font-family="Helvetica,sans-Serif" font-size="10.00" fill="#888888">tid=2 &#160;DOES NOT EXIST</text>
<text text-anchor="middle" x="1172.31" y="-67" font-family="Helvetica,sans-Serif" font-size="10.00" fill="#888888">(fork does not copy threads)</text>
</g>
<!-- deadlock -->
<g id="node13" class="node">
<title>deadlock</title>
<polygon fill="#660000" stroke="black" points="2110.12,-212 1928.12,-114 2110.12,-16 2292.12,-114 2110.12,-212"/>
<text text-anchor="middle" x="2110.12" y="-151.8" font-family="Helvetica,sans-Serif" font-size="9.00" fill="#ffcccc">Pool worker tries Pool.imap_unordered()</text>
<text text-anchor="middle" x="2110.12" y="-141.8" font-family="Helvetica,sans-Serif" font-size="9.00" fill="#ffcccc">→ internal lock acquire</text>
<text text-anchor="middle" x="2110.12" y="-131.8" font-family="Helvetica,sans-Serif" font-size="9.00" fill="#ffcccc">→ futex(WAIT) on Mutex M</text>
<text text-anchor="middle" x="2110.12" y="-121.8" font-family="Helvetica,sans-Serif" font-size="9.00" fill="#ffcccc">→ kernel waits for word=0</text>
<text text-anchor="middle" x="2110.12" y="-111.8" font-family="Helvetica,sans-Serif" font-size="9.00" fill="#ffcccc">→ NOBODY WILL WRITE 0</text>
<text text-anchor="middle" x="2110.12" y="-101.8" font-family="Helvetica,sans-Serif" font-size="9.00" fill="#ffcccc">→ DEADLOCK FOREVER</text>
<text text-anchor="middle" x="2110.12" y="-81.8" font-family="Helvetica,sans-Serif" font-size="9.00" fill="#ffcccc">ps wchan: futex_</text>
<text text-anchor="middle" x="2110.12" y="-71.8" font-family="Helvetica,sans-Serif" font-size="9.00" fill="#ffcccc">CPU: 0%, &#160;GPU: 0%</text>
</g>
<!-- child_mutex&#45;&gt;deadlock -->
<g id="edge5" class="edge">
<title>child_mutex&#45;&gt;deadlock</title>
<path fill="none" stroke="#ff4444" stroke-width="2" d="M1732.32,-138C1732.32,-138 1962.28,-138 1962.28,-138"/>
<polygon fill="#ff4444" stroke="#ff4444" stroke-width="2" points="1962.28,-141.5 1972.28,-138 1962.28,-134.5 1962.28,-141.5"/>
<text text-anchor="middle" x="1830.12" y="-128.8" font-family="Helvetica,sans-Serif" font-size="9.00" fill="#cccccc">word=1 → kernel WAIT</text>
</g>
<!-- child_pipe -->
<g id="node11" class="node">
<title>child_pipe</title>
<polygon fill="#2a1a2a" stroke="black" points="1638.46,-60 1533.46,-60 1533.46,-24 1638.46,-24 1638.46,-60"/>
<text text-anchor="middle" x="1585.96" y="-45" font-family="Helvetica,sans-Serif" font-size="10.00" fill="#888888">Pipe write buffer</text>
<text text-anchor="middle" x="1585.96" y="-34" font-family="Helvetica,sans-Serif" font-size="10.00" fill="#888888">(copy — not shared)</text>
</g>
<!-- child_fd&#45;&gt;child_main -->
<g id="edge6" class="edge">
<title>child_fd&#45;&gt;child_main</title>
<path fill="none" stroke="#44aa44" stroke-dasharray="5,2" d="M818.83,-159.75C818.83,-159.75 1126.8,-159.75 1126.8,-159.75"/>
<polygon fill="#44aa44" stroke="#44aa44" points="1126.8,-163.25 1136.8,-159.75 1126.8,-156.25 1126.8,-163.25"/>
<text text-anchor="middle" x="957.81" y="-162.8" font-family="Helvetica,sans-Serif" font-size="9.00" fill="#cccccc">socket fd (safe)</text>
</g>
</g>
</svg>
