<?xml version="1.0" encoding="UTF-8" standalone="no"?>
<!DOCTYPE svg PUBLIC "-//W3C//DTD SVG 1.1//EN"
 "http://www.w3.org/Graphics/SVG/1.1/DTD/svg11.dtd">
<!-- Generated by graphviz version 2.43.0 (0)
 -->
<!-- Title: Concurrency4_Queue_Type_Comparison Pages: 1 -->
<svg width="2068pt" height="717pt"
 viewBox="0.00 0.00 2067.80 716.80" xmlns="http://www.w3.org/2000/svg" xmlns:xlink="http://www.w3.org/1999/xlink">
<g id="graph0" class="graph" transform="scale(1 1) rotate(0) translate(50.4 666.4)">
<title>Concurrency4_Queue_Type_Comparison</title>
<polygon fill="#1a1a2e" stroke="transparent" points="-50.4,50.4 -50.4,-666.4 2017.4,-666.4 2017.4,50.4 -50.4,50.4"/>
<text text-anchor="middle" x="983.5" y="-600.8" font-family="Helvetica,sans-Serif" font-size="14.00" fill="#e0e0e0">ctx.Queue() vs Manager().Queue() — IPC Fork Safety Comparison</text>
<g id="clust1" class="cluster">
<title>cluster_broken</title>
<polygon fill="#12080a" stroke="#4a1a1a" points="8,-8 8,-585 948,-585 948,-8 8,-8"/>
<text text-anchor="middle" x="478" y="-570.6" font-family="Helvetica,sans-Serif" font-size="13.00" fill="#ff6666">BROKEN &#160;— &#160;ctx.Queue() &#160;(what we had before fix)</text>
</g>
<g id="clust2" class="cluster">
<title>cluster_b_main</title>
<polygon fill="#1a1a2e" stroke="#662222" stroke-dasharray="5,2" points="16,-329.77 16,-555 389,-555 389,-329.77 16,-329.77"/>
<text text-anchor="middle" x="202.5" y="-542.2" font-family="Helvetica,sans-Serif" font-size="11.00" fill="#cc8888">Main Process</text>
</g>
<g id="clust3" class="cluster">
<title>cluster_b_workers</title>
<polygon fill="#1a1a2e" stroke="#661111" stroke-dasharray="5,2" points="343,-186.25 343,-262.25 791,-262.25 791,-186.25 343,-186.25"/>
<text text-anchor="middle" x="567" y="-250.25" font-family="Helvetica,sans-Serif" font-size="10.00" fill="#ff6666">Fork Workers (inherit locked Mutex M)</text>
</g>
<g id="clust4" class="cluster">
<title>cluster_fixed</title>
<polygon fill="#08120a" stroke="#1a4a1a" points="967,-19 967,-583.49 1959,-583.49 1959,-19 967,-19"/>
<text text-anchor="middle" x="1463" y="-569.09" font-family="Helvetica,sans-Serif" font-size="13.00" fill="#88ee88">FIXED &#160;— &#160;Manager().Queue() &#160;(current implementation)</text>
</g>
<g id="clust5" class="cluster">
<title>cluster_f_main</title>
<polygon fill="#1a1a2e" stroke="#336633" stroke-dasharray="5,2" points="1202,-327.5 1202,-553.49 1653,-553.49 1653,-327.5 1202,-327.5"/>
<text text-anchor="middle" x="1427.5" y="-540.69" font-family="Helvetica,sans-Serif" font-size="11.00" fill="#88cc88">Main Process &#160;(no feeder threads for queues)</text>
</g>
<g id="clust6" class="cluster">
<title>cluster_f_manager</title>
<polygon fill="#1a1a2e" stroke="#334466" stroke-dasharray="5,2" points="1086,-171 1086,-278.5 1334,-278.5 1334,-171 1086,-171"/>
<text text-anchor="middle" x="1210" y="-265.7" font-family="Helvetica,sans-Serif" font-size="11.00" fill="#88aaee">Manager Server Process &#160;(spawned, not forked)</text>
</g>
<g id="clust7" class="cluster">
<title>cluster_f_workers</title>
<polygon fill="#1a1a2e" stroke="#224422" stroke-dasharray="5,2" points="1618,-180.75 1618,-267.75 1895,-267.75 1895,-180.75 1618,-180.75"/>
<text text-anchor="middle" x="1756.5" y="-255.75" font-family="Helvetica,sans-Serif" font-size="10.00" fill="#88cc88">Fork Workers (inherit socket fd only)</text>
</g>
<g id="clust8" class="cluster">
<title>cluster_f_embed</title>
<polygon fill="#1a1a2e" stroke="#334466" stroke-dasharray="5,2" points="975,-342.75 975,-418.75 1194,-418.75 1194,-342.75 975,-342.75"/>
<text text-anchor="middle" x="1084.5" y="-406.75" font-family="Helvetica,sans-Serif" font-size="10.00" fill="#aaaaee">Embed Subprocesses &#160;(spawn)</text>
</g>
<!-- b_main_t -->
<g id="node1" class="node">
<title>b_main_t</title>
<polygon fill="#3a2020" stroke="black" points="192,-519 112,-519 112,-483 192,-483 192,-519"/>
<text text-anchor="middle" x="152" y="-504" font-family="Helvetica,sans-Serif" font-size="10.00" fill="white">Main Thread</text>
<text text-anchor="middle" x="152" y="-493" font-family="Helvetica,sans-Serif" font-size="10.00" fill="white">extraction loop</text>
</g>
<!-- b_in_qs -->
<g id="node3" class="node">
<title>b_in_qs</title>
<path fill="#5a2222" stroke="black" d="M176,-394.47C176,-397.31 141.94,-399.63 100,-399.63 58.06,-399.63 24,-397.31 24,-394.47 24,-394.47 24,-348.03 24,-348.03 24,-345.19 58.06,-342.87 100,-342.87 141.94,-342.87 176,-345.19 176,-348.03 176,-348.03 176,-394.47 176,-394.47"/>
<path fill="none" stroke="black" d="M176,-394.47C176,-391.62 141.94,-389.31 100,-389.31 58.06,-389.31 24,-391.62 24,-394.47"/>
<text text-anchor="middle" x="100" y="-379.75" font-family="Helvetica,sans-Serif" font-size="10.00" fill="white">in_qs[0], in_qs[1]</text>
<text text-anchor="middle" x="100" y="-368.75" font-family="Helvetica,sans-Serif" font-size="10.00" fill="white">ctx.Queue() objects</text>
<text text-anchor="middle" x="100" y="-357.75" font-family="Helvetica,sans-Serif" font-size="10.00" fill="white">(feeder threads in this process)</text>
</g>
<!-- b_main_t&#45;&gt;b_in_qs -->
<g id="edge1" class="edge">
<title>b_main_t&#45;&gt;b_in_qs</title>
<path fill="none" stroke="#aaaaaa" d="M144,-482.96C144,-482.96 144,-409.61 144,-409.61"/>
<polygon fill="#aaaaaa" stroke="#aaaaaa" points="147.5,-409.61 144,-399.61 140.5,-409.61 147.5,-409.61"/>
<text text-anchor="middle" x="154" y="-438.8" font-family="Helvetica,sans-Serif" font-size="9.00" fill="#cccccc">put(batch)</text>
</g>
<!-- b_fork_pt -->
<g id="node6" class="node">
<title>b_fork_pt</title>
<polygon fill="#663300" stroke="black" points="732.71,-361.76 732.71,-380.74 642.08,-394.17 513.92,-394.17 423.29,-380.74 423.29,-361.76 513.92,-348.33 642.08,-348.33 732.71,-361.76"/>
<text text-anchor="middle" x="578" y="-374.25" font-family="Helvetica,sans-Serif" font-size="10.00" fill="white">Pool() forks workers HERE</text>
<text text-anchor="middle" x="578" y="-363.25" font-family="Helvetica,sans-Serif" font-size="10.00" fill="white">⚠ feeder thread active, may hold Mutex M</text>
</g>
<!-- b_main_t&#45;&gt;b_fork_pt -->
<g id="edge5" class="edge">
<title>b_main_t&#45;&gt;b_fork_pt</title>
<path fill="none" stroke="#aaaaaa" d="M184,-483C184,-465.32 184,-441 184,-441 184,-441 578,-441 578,-441 578,-441 578,-404.48 578,-404.48"/>
<polygon fill="#aaaaaa" stroke="#aaaaaa" points="581.5,-404.48 578,-394.48 574.5,-404.48 581.5,-404.48"/>
<text text-anchor="middle" x="508" y="-438.8" font-family="Helvetica,sans-Serif" font-size="9.00" fill="#cccccc">creates Pool()</text>
</g>
<!-- b_feeder -->
<g id="node2" class="node">
<title>b_feeder</title>
<polygon fill="#6a2200" stroke="black" points="375,-527 255,-527 255,-475 375,-475 375,-527"/>
<text text-anchor="middle" x="315" y="-515" font-family="Helvetica,sans-Serif" font-size="10.00" fill="white">Feeder Thread</text>
<text text-anchor="middle" x="315" y="-504" font-family="Helvetica,sans-Serif" font-size="10.00" fill="white">(started by ctx.Queue())</text>
<text text-anchor="middle" x="315" y="-493" font-family="Helvetica,sans-Serif" font-size="10.00" fill="white">holds Mutex M</text>
<text text-anchor="middle" x="315" y="-482" font-family="Helvetica,sans-Serif" font-size="10.00" fill="white">while writing to pipe</text>
</g>
<!-- b_mutex -->
<g id="node4" class="node">
<title>b_mutex</title>
<polygon fill="#881a00" stroke="black" points="380.67,-371.25 340.33,-404.7 259.67,-404.7 219.33,-371.25 259.67,-337.8 340.33,-337.8 380.67,-371.25"/>
<text text-anchor="middle" x="300" y="-379.75" font-family="Helvetica,sans-Serif" font-size="10.00" fill="white">Mutex M</text>
<text text-anchor="middle" x="300" y="-368.75" font-family="Helvetica,sans-Serif" font-size="10.00" fill="white">word=1 (LOCKED)</text>
<text text-anchor="middle" x="300" y="-357.75" font-family="Helvetica,sans-Serif" font-size="10.00" fill="white">in parent heap</text>
</g>
<!-- b_feeder&#45;&gt;b_mutex -->
<g id="edge2" class="edge">
<title>b_feeder&#45;&gt;b_mutex</title>
<path fill="none" stroke="#ff8800" d="M315,-474.74C315,-474.74 315,-414.87 315,-414.87"/>
<polygon fill="#ff8800" stroke="#ff8800" points="318.5,-414.87 315,-404.87 311.5,-414.87 318.5,-414.87"/>
<text text-anchor="middle" x="316.5" y="-438.8" font-family="Helvetica,sans-Serif" font-size="9.00" fill="#ff8800">holds</text>
</g>
<!-- b_pipe -->
<g id="node5" class="node">
<title>b_pipe</title>
<polygon fill="#2a1a1a" stroke="black" points="939.81,-401.25 809.67,-401.25 776.19,-341.25 906.33,-341.25 939.81,-401.25"/>
<text text-anchor="middle" x="858" y="-374.25" font-family="Helvetica,sans-Serif" font-size="10.00" fill="#aaaaaa">OS Pipe</text>
<text text-anchor="middle" x="858" y="-363.25" font-family="Helvetica,sans-Serif" font-size="10.00" fill="#aaaaaa">(limited buffer)</text>
</g>
<!-- b_feeder&#45;&gt;b_pipe -->
<g id="edge3" class="edge">
<title>b_feeder&#45;&gt;b_pipe</title>
<path fill="none" stroke="#aaaaaa" d="M375.19,-501C516.56,-501 858,-501 858,-501 858,-501 858,-411.34 858,-411.34"/>
<polygon fill="#aaaaaa" stroke="#aaaaaa" points="861.5,-411.34 858,-401.34 854.5,-411.34 861.5,-411.34"/>
<text text-anchor="middle" x="764" y="-438.8" font-family="Helvetica,sans-Serif" font-size="9.00" fill="#cccccc">writes (may hold M)</text>
</g>
<!-- b_embed -->
<g id="node10" class="node">
<title>b_embed</title>
<polygon fill="#2a2a3a" stroke="black" points="928,-235.25 826,-235.25 826,-194.25 928,-194.25 928,-235.25"/>
<text text-anchor="middle" x="877" y="-223.25" font-family="Helvetica,sans-Serif" font-size="10.00" fill="white">Embed Subprocess</text>
<text text-anchor="middle" x="877" y="-212.25" font-family="Helvetica,sans-Serif" font-size="10.00" fill="white">(spawn)</text>
<text text-anchor="middle" x="877" y="-201.25" font-family="Helvetica,sans-Serif" font-size="10.00" fill="white">bge&#45;m3 loaded</text>
</g>
<!-- b_pipe&#45;&gt;b_embed -->
<g id="edge4" class="edge">
<title>b_pipe&#45;&gt;b_embed</title>
<path fill="none" stroke="#aaaaaa" d="M877,-341.08C877,-341.08 877,-245.35 877,-245.35"/>
<polygon fill="#aaaaaa" stroke="#aaaaaa" points="880.5,-245.35 877,-235.35 873.5,-245.35 880.5,-245.35"/>
<text text-anchor="middle" x="875.5" y="-294.3" font-family="Helvetica,sans-Serif" font-size="9.00" fill="#cccccc">socket</text>
</g>
<!-- b_w0 -->
<g id="node7" class="node">
<title>b_w0</title>
<polygon fill="#880000" stroke="black" points="783,-235.25 643,-235.25 643,-194.25 783,-194.25 783,-235.25"/>
<text text-anchor="middle" x="713" y="-223.25" font-family="Helvetica,sans-Serif" font-size="10.00" fill="#ffcccc">Worker 0</text>
<text text-anchor="middle" x="713" y="-212.25" font-family="Helvetica,sans-Serif" font-size="10.00" fill="#ffcccc">Mutex M word=1 (inherited)</text>
<text text-anchor="middle" x="713" y="-201.25" font-family="Helvetica,sans-Serif" font-size="10.00" fill="#ffcccc">futex(WAIT) → DEADLOCK</text>
</g>
<!-- b_fork_pt&#45;&gt;b_w0 -->
<g id="edge6" class="edge">
<title>b_fork_pt&#45;&gt;b_w0</title>
<path fill="none" stroke="#ff4444" d="M687.8,-355.09C687.8,-355.09 687.8,-245.5 687.8,-245.5"/>
<polygon fill="#ff4444" stroke="#ff4444" points="691.3,-245.5 687.8,-235.5 684.3,-245.5 691.3,-245.5"/>
<text text-anchor="middle" x="717" y="-299.3" font-family="Helvetica,sans-Serif" font-size="9.00" fill="#cccccc">fork()</text>
<text text-anchor="middle" x="717" y="-289.3" font-family="Helvetica,sans-Serif" font-size="9.00" fill="#cccccc">copies M word=1</text>
</g>
<!-- b_w1 -->
<g id="node8" class="node">
<title>b_w1</title>
<polygon fill="#880000" stroke="black" points="491,-235.25 351,-235.25 351,-194.25 491,-194.25 491,-235.25"/>
<text text-anchor="middle" x="421" y="-223.25" font-family="Helvetica,sans-Serif" font-size="10.00" fill="#ffcccc">Worker 1</text>
<text text-anchor="middle" x="421" y="-212.25" font-family="Helvetica,sans-Serif" font-size="10.00" fill="#ffcccc">Mutex M word=1 (inherited)</text>
<text text-anchor="middle" x="421" y="-201.25" font-family="Helvetica,sans-Serif" font-size="10.00" fill="#ffcccc">futex(WAIT) → DEADLOCK</text>
</g>
<!-- b_fork_pt&#45;&gt;b_w1 -->
<g id="edge7" class="edge">
<title>b_fork_pt&#45;&gt;b_w1</title>
<path fill="none" stroke="#ff4444" d="M457.2,-356.53C457.2,-356.53 457.2,-245.44 457.2,-245.44"/>
<polygon fill="#ff4444" stroke="#ff4444" points="460.7,-245.44 457.2,-235.44 453.7,-245.44 460.7,-245.44"/>
<text text-anchor="middle" x="470" y="-294.3" font-family="Helvetica,sans-Serif" font-size="9.00" fill="#cccccc">fork()</text>
</g>
<!-- b_wn -->
<g id="node9" class="node">
<title>b_wn</title>
<polygon fill="#880000" stroke="black" points="600,-232.75 534,-232.75 534,-196.75 600,-196.75 600,-232.75"/>
<text text-anchor="middle" x="567" y="-217.75" font-family="Helvetica,sans-Serif" font-size="10.00" fill="#ffcccc">Worker N&#45;1</text>
<text text-anchor="middle" x="567" y="-206.75" font-family="Helvetica,sans-Serif" font-size="10.00" fill="#ffcccc">...</text>
</g>
<!-- b_fork_pt&#45;&gt;b_wn -->
<g id="edge8" class="edge">
<title>b_fork_pt&#45;&gt;b_wn</title>
<path fill="none" stroke="#ff4444" d="M567,-348.16C567,-348.16 567,-243.05 567,-243.05"/>
<polygon fill="#ff4444" stroke="#ff4444" points="570.5,-243.05 567,-233.05 563.5,-243.05 570.5,-243.05"/>
<text text-anchor="middle" x="585" y="-294.3" font-family="Helvetica,sans-Serif" font-size="9.00" fill="#cccccc">fork()</text>
</g>
<!-- b_deadlock -->
<g id="node11" class="node">
<title>b_deadlock</title>
<polygon fill="#660000" stroke="black" points="567,-120 406,-68 567,-16 728,-68 567,-120"/>
<text text-anchor="middle" x="567" y="-82" font-family="Helvetica,sans-Serif" font-size="10.00" fill="#ffaaaa">ALL WORKERS DEADLOCKED</text>
<text text-anchor="middle" x="567" y="-71" font-family="Helvetica,sans-Serif" font-size="10.00" fill="#ffaaaa">ps wchan: futex_</text>
<text text-anchor="middle" x="567" y="-60" font-family="Helvetica,sans-Serif" font-size="10.00" fill="#ffaaaa">CPU 0%, &#160;GPU 0%</text>
<text text-anchor="middle" x="567" y="-49" font-family="Helvetica,sans-Serif" font-size="10.00" fill="#ffaaaa">no output for 9h37m</text>
</g>
<!-- b_w0&#45;&gt;b_deadlock -->
<g id="edge9" class="edge">
<title>b_w0&#45;&gt;b_deadlock</title>
<path fill="none" stroke="#ff2222" d="M685.5,-194.04C685.5,-194.04 685.5,-92 685.5,-92"/>
<polygon fill="#ff2222" stroke="#ff2222" points="689,-92 685.5,-82 682,-92 689,-92"/>
</g>
<!-- b_w1&#45;&gt;b_deadlock -->
<g id="edge10" class="edge">
<title>b_w1&#45;&gt;b_deadlock</title>
<path fill="none" stroke="#ff2222" d="M448.5,-194.04C448.5,-194.04 448.5,-92 448.5,-92"/>
<polygon fill="#ff2222" stroke="#ff2222" points="452,-92 448.5,-82 445,-92 452,-92"/>
</g>
<!-- b_wn&#45;&gt;b_deadlock -->
<g id="edge11" class="edge">
<title>b_wn&#45;&gt;b_deadlock</title>
<path fill="none" stroke="#ff2222" d="M567,-196.46C567,-196.46 567,-130.04 567,-130.04"/>
<polygon fill="#ff2222" stroke="#ff2222" points="570.5,-130.04 567,-120.04 563.5,-130.04 570.5,-130.04"/>
</g>
<!-- f_main_t -->
<g id="node12" class="node">
<title>f_main_t</title>
<polygon fill="#1a3a1a" stroke="black" points="1645,-519 1565,-519 1565,-483 1645,-483 1645,-519"/>
<text text-anchor="middle" x="1605" y="-504" font-family="Helvetica,sans-Serif" font-size="10.00" fill="white">Main Thread</text>
<text text-anchor="middle" x="1605" y="-493" font-family="Helvetica,sans-Serif" font-size="10.00" fill="white">extraction loop</text>
</g>
<!-- f_proxies -->
<g id="node14" class="node">
<title>f_proxies</title>
<path fill="#1a3a3a" stroke="black" d="M1587.5,-400.3C1587.5,-403.86 1553.66,-406.75 1512,-406.75 1470.34,-406.75 1436.5,-403.86 1436.5,-400.3 1436.5,-400.3 1436.5,-342.2 1436.5,-342.2 1436.5,-338.64 1470.34,-335.75 1512,-335.75 1553.66,-335.75 1587.5,-338.64 1587.5,-342.2 1587.5,-342.2 1587.5,-400.3 1587.5,-400.3"/>
<path fill="none" stroke="black" d="M1587.5,-400.3C1587.5,-396.74 1553.66,-393.84 1512,-393.84 1470.34,-393.84 1436.5,-396.74 1436.5,-400.3"/>
<text text-anchor="middle" x="1512" y="-385.25" font-family="Helvetica,sans-Serif" font-size="10.00" fill="white">in_qs[0], in_qs[1]</text>
<text text-anchor="middle" x="1512" y="-374.25" font-family="Helvetica,sans-Serif" font-size="10.00" fill="white">out_qs[0], out_qs[1]</text>
<text text-anchor="middle" x="1512" y="-363.25" font-family="Helvetica,sans-Serif" font-size="10.00" fill="white">Proxy objects only</text>
<text text-anchor="middle" x="1512" y="-352.25" font-family="Helvetica,sans-Serif" font-size="10.00" fill="white">(hold socket fds, NO mutexes)</text>
</g>
<!-- f_main_t&#45;&gt;f_proxies -->
<g id="edge12" class="edge">
<title>f_main_t&#45;&gt;f_proxies</title>
<path fill="none" stroke="#aaaaaa" d="M1576.25,-482.96C1576.25,-482.96 1576.25,-414.91 1576.25,-414.91"/>
<polygon fill="#aaaaaa" stroke="#aaaaaa" points="1579.75,-414.91 1576.25,-404.91 1572.75,-414.91 1579.75,-414.91"/>
<text text-anchor="middle" x="1544" y="-438.8" font-family="Helvetica,sans-Serif" font-size="9.00" fill="#cccccc">put(batch)</text>
</g>
<!-- f_fork_pt -->
<g id="node17" class="node">
<title>f_fork_pt</title>
<polygon fill="#224422" stroke="black" points="1950.81,-358.3 1950.81,-384.2 1865.98,-402.51 1746.02,-402.51 1661.19,-384.2 1661.19,-358.3 1746.02,-339.99 1865.98,-339.99 1950.81,-358.3"/>
<text text-anchor="middle" x="1806" y="-379.75" font-family="Helvetica,sans-Serif" font-size="10.00" fill="#88ee88">Pool() forks workers HERE</text>
<text text-anchor="middle" x="1806" y="-368.75" font-family="Helvetica,sans-Serif" font-size="10.00" fill="#88ee88">✓ no feeder threads active</text>
<text text-anchor="middle" x="1806" y="-357.75" font-family="Helvetica,sans-Serif" font-size="10.00" fill="#88ee88">✓ main process has no mutex to inherit</text>
</g>
<!-- f_main_t&#45;&gt;f_fork_pt -->
<g id="edge19" class="edge">
<title>f_main_t&#45;&gt;f_fork_pt</title>
<path fill="none" stroke="#aaaaaa" d="M1635.75,-482.92C1635.75,-447.2 1635.75,-371 1635.75,-371 1635.75,-371 1651.24,-371 1651.24,-371"/>
<polygon fill="#aaaaaa" stroke="#aaaaaa" points="1651.24,-374.5 1661.24,-371 1651.24,-367.5 1651.24,-374.5"/>
<text text-anchor="middle" x="1664" y="-438.8" font-family="Helvetica,sans-Serif" font-size="9.00" fill="#cccccc">creates Pool()</text>
</g>
<!-- f_coll_t -->
<g id="node13" class="node">
<title>f_coll_t</title>
<polygon fill="#1a3a2a" stroke="black" points="1521.5,-519 1432.5,-519 1432.5,-483 1521.5,-483 1521.5,-519"/>
<text text-anchor="middle" x="1477" y="-504" font-family="Helvetica,sans-Serif" font-size="10.00" fill="white">Collector Thread</text>
<text text-anchor="middle" x="1477" y="-493" font-family="Helvetica,sans-Serif" font-size="10.00" fill="white">drains out_qs</text>
</g>
<!-- f_mgr -->
<g id="node16" class="node">
<title>f_mgr</title>
<path fill="#2a2a5a" stroke="black" d="M1280.5,-243.8C1280.5,-247.36 1248.9,-250.25 1210,-250.25 1171.1,-250.25 1139.5,-247.36 1139.5,-243.8 1139.5,-243.8 1139.5,-185.7 1139.5,-185.7 1139.5,-182.14 1171.1,-179.25 1210,-179.25 1248.9,-179.25 1280.5,-182.14 1280.5,-185.7 1280.5,-185.7 1280.5,-243.8 1280.5,-243.8"/>
<path fill="none" stroke="black" d="M1280.5,-243.8C1280.5,-240.24 1248.9,-237.34 1210,-237.34 1171.1,-237.34 1139.5,-240.24 1139.5,-243.8"/>
<text text-anchor="middle" x="1210" y="-228.75" font-family="Helvetica,sans-Serif" font-size="10.00" fill="white">Queue data: in_q[0], in_q[1]</text>
<text text-anchor="middle" x="1210" y="-217.75" font-family="Helvetica,sans-Serif" font-size="10.00" fill="white"> &#160;&#160;&#160;&#160;&#160;&#160;&#160;&#160;&#160;&#160;&#160;&#160;&#160;&#160;&#160;out_q[0], out_q[1]</text>
<text text-anchor="middle" x="1210" y="-206.75" font-family="Helvetica,sans-Serif" font-size="10.00" fill="white">Manages locks internally</text>
<text text-anchor="middle" x="1210" y="-195.75" font-family="Helvetica,sans-Serif" font-size="10.00" fill="white">Communicates via socket</text>
</g>
<!-- f_proxies&#45;&gt;f_mgr -->
<g id="edge13" class="edge">
<title>f_proxies&#45;&gt;f_mgr</title>
<path fill="none" stroke="#44aaee" d="M1436.3,-346C1357.46,-346 1245.34,-346 1245.34,-346 1245.34,-346 1245.34,-260.27 1245.34,-260.27"/>
<polygon fill="#44aaee" stroke="#44aaee" points="1248.84,-260.27 1245.34,-250.27 1241.84,-260.27 1248.84,-260.27"/>
<text text-anchor="middle" x="1476.5" y="-294.3" font-family="Helvetica,sans-Serif" font-size="9.00" fill="#cccccc">socket</text>
</g>
<!-- f_no_mutex -->
<g id="node15" class="node">
<title>f_no_mutex</title>
<polygon fill="#1a2a1a" stroke="black" stroke-dasharray="5,2" points="1389.63,-501 1344.81,-525.49 1255.19,-525.49 1210.37,-501 1255.19,-476.51 1344.81,-476.51 1389.63,-501"/>
<text text-anchor="middle" x="1300" y="-504" font-family="Helvetica,sans-Serif" font-size="10.00" fill="#88cc88">NO Mutex M</text>
<text text-anchor="middle" x="1300" y="-493" font-family="Helvetica,sans-Serif" font-size="10.00" fill="#88cc88">in main process heap</text>
</g>
<!-- f_mgr&#45;&gt;f_coll_t -->
<g id="edge18" class="edge">
<title>f_mgr&#45;&gt;f_coll_t</title>
<path fill="none" stroke="#44ee88" d="M1280.64,-245C1338.6,-245 1411.16,-245 1411.16,-245 1411.16,-245 1411.16,-501 1411.16,-501 1411.16,-501 1422.35,-501 1422.35,-501"/>
<polygon fill="#44ee88" stroke="#44ee88" points="1422.35,-504.5 1432.35,-501 1422.35,-497.5 1422.35,-504.5"/>
<text text-anchor="middle" x="1336" y="-369.05" font-family="Helvetica,sans-Serif" font-size="9.00" fill="#cccccc">results</text>
</g>
<!-- f_e0 -->
<g id="node20" class="node">
<title>f_e0</title>
<polygon fill="#1a1a4a" stroke="black" points="1186,-391.75 1106,-391.75 1106,-350.75 1186,-350.75 1186,-391.75"/>
<text text-anchor="middle" x="1146" y="-379.75" font-family="Helvetica,sans-Serif" font-size="10.00" fill="white">Embed&#45;0</text>
<text text-anchor="middle" x="1146" y="-368.75" font-family="Helvetica,sans-Serif" font-size="10.00" fill="white">cuda:0</text>
<text text-anchor="middle" x="1146" y="-357.75" font-family="Helvetica,sans-Serif" font-size="10.00" fill="white">bge&#45;m3 loaded</text>
</g>
<!-- f_mgr&#45;&gt;f_e0 -->
<g id="edge14" class="edge">
<title>f_mgr&#45;&gt;f_e0</title>
<path fill="none" stroke="#44aaee" d="M1155,-249.09C1155,-249.09 1155,-340.42 1155,-340.42"/>
<polygon fill="#44aaee" stroke="#44aaee" points="1151.5,-340.42 1155,-350.42 1158.5,-340.42 1151.5,-340.42"/>
<text text-anchor="middle" x="1261.5" y="-294.3" font-family="Helvetica,sans-Serif" font-size="9.00" fill="#cccccc">socket</text>
</g>
<!-- f_e1 -->
<g id="node21" class="node">
<title>f_e1</title>
<polygon fill="#1a1a4a" stroke="black" points="1063,-391.75 983,-391.75 983,-350.75 1063,-350.75 1063,-391.75"/>
<text text-anchor="middle" x="1023" y="-379.75" font-family="Helvetica,sans-Serif" font-size="10.00" fill="white">Embed&#45;1</text>
<text text-anchor="middle" x="1023" y="-368.75" font-family="Helvetica,sans-Serif" font-size="10.00" fill="white">cuda:1</text>
<text text-anchor="middle" x="1023" y="-357.75" font-family="Helvetica,sans-Serif" font-size="10.00" fill="white">bge&#45;m3 loaded</text>
</g>
<!-- f_mgr&#45;&gt;f_e1 -->
<g id="edge15" class="edge">
<title>f_mgr&#45;&gt;f_e1</title>
<path fill="none" stroke="#44aaee" d="M1139.36,-245C1091.28,-245 1036.33,-245 1036.33,-245 1036.33,-245 1036.33,-340.68 1036.33,-340.68"/>
<polygon fill="#44aaee" stroke="#44aaee" points="1032.83,-340.68 1036.33,-350.68 1039.83,-340.68 1032.83,-340.68"/>
<text text-anchor="middle" x="1110.5" y="-294.3" font-family="Helvetica,sans-Serif" font-size="9.00" fill="#cccccc">socket</text>
</g>
<!-- f_w0 -->
<g id="node18" class="node">
<title>f_w0</title>
<polygon fill="#1a3a1a" stroke="black" points="1787.5,-240.75 1626.5,-240.75 1626.5,-188.75 1787.5,-188.75 1787.5,-240.75"/>
<text text-anchor="middle" x="1707" y="-228.75" font-family="Helvetica,sans-Serif" font-size="10.00" fill="white">Worker 0</text>
<text text-anchor="middle" x="1707" y="-217.75" font-family="Helvetica,sans-Serif" font-size="10.00" fill="white">inherits socket fd</text>
<text text-anchor="middle" x="1707" y="-206.75" font-family="Helvetica,sans-Serif" font-size="10.00" fill="white">Proxy.put() → socket → Manager</text>
<text text-anchor="middle" x="1707" y="-195.75" font-family="Helvetica,sans-Serif" font-size="10.00" fill="white">NO deadlock</text>
</g>
<!-- f_fork_pt&#45;&gt;f_w0 -->
<g id="edge20" class="edge">
<title>f_fork_pt&#45;&gt;f_w0</title>
<path fill="none" stroke="#44aa44" d="M1724.42,-344.35C1724.42,-344.35 1724.42,-250.78 1724.42,-250.78"/>
<polygon fill="#44aa44" stroke="#44aa44" points="1727.92,-250.78 1724.42,-240.78 1720.92,-250.78 1727.92,-250.78"/>
<text text-anchor="middle" x="1755" y="-299.3" font-family="Helvetica,sans-Serif" font-size="9.00" fill="#cccccc">fork()</text>
<text text-anchor="middle" x="1755" y="-289.3" font-family="Helvetica,sans-Serif" font-size="9.00" fill="#cccccc">inherits socket fd only</text>
</g>
<!-- f_w1 -->
<g id="node19" class="node">
<title>f_w1</title>
<polygon fill="#1a3a1a" stroke="black" points="1887,-232.75 1831,-232.75 1831,-196.75 1887,-196.75 1887,-232.75"/>
<text text-anchor="middle" x="1859" y="-217.75" font-family="Helvetica,sans-Serif" font-size="10.00" fill="white">Worker 1</text>
<text text-anchor="middle" x="1859" y="-206.75" font-family="Helvetica,sans-Serif" font-size="10.00" fill="white">...</text>
</g>
<!-- f_fork_pt&#45;&gt;f_w1 -->
<g id="edge21" class="edge">
<title>f_fork_pt&#45;&gt;f_w1</title>
<path fill="none" stroke="#44aa44" d="M1859,-339.96C1859,-339.96 1859,-242.81 1859,-242.81"/>
<polygon fill="#44aa44" stroke="#44aa44" points="1862.5,-242.81 1859,-232.81 1855.5,-242.81 1862.5,-242.81"/>
<text text-anchor="middle" x="1866" y="-294.3" font-family="Helvetica,sans-Serif" font-size="9.00" fill="#cccccc">fork()</text>
</g>
<!-- f_success -->
<g id="node22" class="node">
<title>f_success</title>
<polygon fill="#1a4a1a" stroke="black" points="1783,-109 1664,-68 1783,-27 1902,-68 1783,-109"/>
<text text-anchor="middle" x="1783" y="-76.5" font-family="Helvetica,sans-Serif" font-size="10.00" fill="#88ffaa">BOTH GPUs ACTIVE</text>
<text text-anchor="middle" x="1783" y="-65.5" font-family="Helvetica,sans-Serif" font-size="10.00" fill="#88ffaa">88% + 100% utilization</text>
<text text-anchor="middle" x="1783" y="-54.5" font-family="Helvetica,sans-Serif" font-size="10.00" fill="#88ffaa">Progress bar advancing</text>
</g>
<!-- f_w0&#45;&gt;f_success -->
<g id="edge22" class="edge">
<title>f_w0&#45;&gt;f_success</title>
<path fill="none" stroke="#44cc44" d="M1725.75,-188.51C1725.75,-188.51 1725.75,-99.71 1725.75,-99.71"/>
<polygon fill="#44cc44" stroke="#44cc44" points="1729.25,-99.71 1725.75,-89.71 1722.25,-99.71 1729.25,-99.71"/>
</g>
<!-- f_w1&#45;&gt;f_success -->
<g id="edge23" class="edge">
<title>f_w1&#45;&gt;f_success</title>
<path fill="none" stroke="#44cc44" d="M1859,-196.46C1859,-196.46 1859,-92.96 1859,-92.96"/>
<polygon fill="#44cc44" stroke="#44cc44" points="1862.5,-92.96 1859,-82.96 1855.5,-92.96 1862.5,-92.96"/>
</g>
<!-- f_e0&#45;&gt;f_mgr -->
<g id="edge16" class="edge">
<title>f_e0&#45;&gt;f_mgr</title>
<path fill="none" stroke="#44ee88" d="M1170.5,-350.47C1170.5,-350.47 1170.5,-260.32 1170.5,-260.32"/>
<polygon fill="#44ee88" stroke="#44ee88" points="1174,-260.32 1170.5,-250.32 1167,-260.32 1174,-260.32"/>
<text text-anchor="middle" x="1186" y="-294.3" font-family="Helvetica,sans-Serif" font-size="9.00" fill="#cccccc">results</text>
</g>
<!-- f_e1&#45;&gt;f_mgr -->
<g id="edge17" class="edge">
<title>f_e1&#45;&gt;f_mgr</title>
<path fill="none" stroke="#44ee88" d="M1009.67,-350.74C1009.67,-313.83 1009.67,-240 1009.67,-240 1009.67,-240 1129.37,-240 1129.37,-240"/>
<polygon fill="#44ee88" stroke="#44ee88" points="1129.37,-243.5 1139.37,-240 1129.37,-236.5 1129.37,-243.5"/>
<text text-anchor="middle" x="1035" y="-294.3" font-family="Helvetica,sans-Serif" font-size="9.00" fill="#cccccc">results</text>
</g>
</g>
</svg>
