<?xml version="1.0" encoding="UTF-8" standalone="no"?>
<!DOCTYPE svg PUBLIC "-//W3C//DTD SVG 1.1//EN"
 "http://www.w3.org/Graphics/SVG/1.1/DTD/svg11.dtd">
<!-- Generated by graphviz version 2.43.0 (0)
 -->
<!-- Title: Concurrency5_IPC_Topology Pages: 1 -->
<svg width="1746pt" height="932pt"
 viewBox="0.00 0.00 1746.20 932.20" xmlns="http://www.w3.org/2000/svg" xmlns:xlink="http://www.w3.org/1999/xlink">
<g id="graph0" class="graph" transform="scale(1 1) rotate(0) translate(57.6 874.6)">
<title>Concurrency5_IPC_Topology</title>
<polygon fill="#1a1a2e" stroke="transparent" points="-57.6,57.6 -57.6,-874.6 1688.6,-874.6 1688.6,57.6 -57.6,57.6"/>
<text text-anchor="middle" x="815.5" y="-801.8" font-family="Helvetica,sans-Serif" font-size="14.00" fill="#e0e0e0">sort_docs.py &#160;— &#160;Production IPC Topology</text>
<text text-anchor="middle" x="815.5" y="-786.8" font-family="Helvetica,sans-Serif" font-size="14.00" fill="#e0e0e0">(dual&#45;GPU subprocess mode with Manager queues)</text>
<g id="clust1" class="cluster">
<title>cluster_main</title>
<polygon fill="#0e1018" stroke="#334455" points="939,-196.88 939,-487 1614,-487 1614,-196.88 939,-196.88"/>
<text text-anchor="middle" x="1276.5" y="-473.4" font-family="Helvetica,sans-Serif" font-size="12.00" fill="#e0e0e0">Main Process &#160;(Python sort_docs.py)</text>
</g>
<g id="clust2" class="cluster">
<title>cluster_main_threads</title>
<polygon fill="#1a1a2e" stroke="#445566" stroke-dasharray="5,2" points="1056,-382 1056,-458 1395,-458 1395,-382 1056,-382"/>
<text text-anchor="middle" x="1225.5" y="-446" font-family="Helvetica,sans-Serif" font-size="10.00" fill="#cccccc">Threads</text>
</g>
<g id="clust3" class="cluster">
<title>cluster_proxies</title>
<polygon fill="#1a1a2e" stroke="#335566" stroke-dasharray="5,2" points="947,-204.88 947,-281.12 1479,-281.12 1479,-204.88 947,-204.88"/>
<text text-anchor="middle" x="1213" y="-269.12" font-family="Helvetica,sans-Serif" font-size="10.00" fill="#88aaee">Manager Proxy Objects &#160;(socket fds — no mutexes)</text>
</g>
<g id="clust4" class="cluster">
<title>cluster_manager</title>
<polygon fill="#0e0e18" stroke="#334466" points="500,-8 500,-131 1231,-131 1231,-8 500,-8"/>
<text text-anchor="middle" x="865.5" y="-117.4" font-family="Helvetica,sans-Serif" font-size="12.00" fill="#88aaee">Manager Server Process &#160;(mp.Manager() — spawned at startup)</text>
</g>
<g id="clust5" class="cluster">
<title>cluster_embed</title>
<polygon fill="#08100e" stroke="#1a3a4a" points="8,-186 8,-322 927,-322 927,-186 8,-186"/>
<text text-anchor="middle" x="467.5" y="-308.4" font-family="Helvetica,sans-Serif" font-size="12.00" fill="#88ccee">Embed Subprocesses &#160;(mp.get_context(&#39;spawn&#39;))</text>
</g>
<g id="clust6" class="cluster">
<title>cluster_e0</title>
<polygon fill="#1a1a2e" stroke="#2a4a3a" stroke-dasharray="5,2" points="16,-194 16,-293 454,-293 454,-194 16,-194"/>
<text text-anchor="middle" x="235" y="-280.2" font-family="Helvetica,sans-Serif" font-size="11.00" fill="#88cc88">Embed&#45;0 &#160;(cuda:0 — RTX 5080)</text>
</g>
<g id="clust7" class="cluster">
<title>cluster_e1</title>
<polygon fill="#1a1a2e" stroke="#2a4a3a" stroke-dasharray="5,2" points="481,-194 481,-293 919,-293 919,-194 481,-194"/>
<text text-anchor="middle" x="700" y="-280.2" font-family="Helvetica,sans-Serif" font-size="11.00" fill="#88cc88">Embed&#45;1 &#160;(cuda:1 — RTX 3080)</text>
</g>
<g id="clust8" class="cluster">
<title>cluster_workers</title>
<polygon fill="#110e00" stroke="#4a3a00" points="849,-547 849,-636 1493,-636 1493,-547 849,-547"/>
<text text-anchor="middle" x="1171" y="-622.4" font-family="Helvetica,sans-Serif" font-size="12.00" fill="#ccaa66">Extraction Pool &#160;(mp.Pool, fork — 12 workers)</text>
</g>
<g id="clust9" class="cluster">
<title>cluster_source</title>
<polygon fill="#1a1a2e" stroke="#444444" stroke-dasharray="5,2" points="1075,-699 1075,-771 1211,-771 1211,-699 1075,-699"/>
<text text-anchor="middle" x="1143" y="-758.2" font-family="Helvetica,sans-Serif" font-size="11.00" fill="#cccccc">Source Corpus</text>
</g>
<g id="clust10" class="cluster">
<title>cluster_output</title>
<polygon fill="#1a1a2e" stroke="#444444" stroke-dasharray="5,2" points="1497,-30.5 1497,-107.5 1623,-107.5 1623,-30.5 1497,-30.5"/>
<text text-anchor="middle" x="1560" y="-94.7" font-family="Helvetica,sans-Serif" font-size="11.00" fill="#cccccc">Output</text>
</g>
<!-- main_loop -->
<g id="node1" class="node">
<title>main_loop</title>
<polygon fill="#2a3a4a" stroke="black" points="1222,-431 1064,-431 1064,-390 1222,-390 1222,-431"/>
<text text-anchor="middle" x="1143" y="-419" font-family="Helvetica,sans-Serif" font-size="10.00" fill="white">Main Thread</text>
<text text-anchor="middle" x="1143" y="-408" font-family="Helvetica,sans-Serif" font-size="10.00" fill="white">imap_unordered() extraction loop</text>
<text text-anchor="middle" x="1143" y="-397" font-family="Helvetica,sans-Serif" font-size="10.00" fill="white">round&#45;robin batch dispatch</text>
</g>
<!-- in_q0_p -->
<g id="node3" class="node">
<title>in_q0_p</title>
<path fill="#1a2a4a" stroke="black" d="M1051.5,-250.48C1051.5,-252.56 1029.76,-254.25 1003,-254.25 976.24,-254.25 954.5,-252.56 954.5,-250.48 954.5,-250.48 954.5,-216.52 954.5,-216.52 954.5,-214.44 976.24,-212.75 1003,-212.75 1029.76,-212.75 1051.5,-214.44 1051.5,-216.52 1051.5,-216.52 1051.5,-250.48 1051.5,-250.48"/>
<path fill="none" stroke="black" d="M1051.5,-250.48C1051.5,-248.4 1029.76,-246.71 1003,-246.71 976.24,-246.71 954.5,-248.4 954.5,-250.48"/>
<text text-anchor="middle" x="1003" y="-236.5" font-family="Helvetica,sans-Serif" font-size="10.00" fill="white">in_q[0] proxy</text>
<text text-anchor="middle" x="1003" y="-225.5" font-family="Helvetica,sans-Serif" font-size="10.00" fill="white">→ Manager server</text>
</g>
<!-- main_loop&#45;&gt;in_q0_p -->
<g id="edge1" class="edge">
<title>main_loop&#45;&gt;in_q0_p</title>
<path fill="none" stroke="#88aaee" d="M1080.75,-389.79C1080.75,-342.97 1080.75,-233 1080.75,-233 1080.75,-233 1061.8,-233 1061.8,-233"/>
<polygon fill="#88aaee" stroke="#88aaee" points="1061.8,-229.5 1051.8,-233 1061.8,-236.5 1061.8,-229.5"/>
<text text-anchor="middle" x="1048.5" y="-342.8" font-family="Helvetica,sans-Serif" font-size="9.00" fill="#cccccc">even batches</text>
<text text-anchor="middle" x="1048.5" y="-332.8" font-family="Helvetica,sans-Serif" font-size="9.00" fill="#cccccc">{path:text} × 512</text>
</g>
<!-- in_q1_p -->
<g id="node4" class="node">
<title>in_q1_p</title>
<path fill="#1a2a4a" stroke="black" d="M1191.5,-250.48C1191.5,-252.56 1169.76,-254.25 1143,-254.25 1116.24,-254.25 1094.5,-252.56 1094.5,-250.48 1094.5,-250.48 1094.5,-216.52 1094.5,-216.52 1094.5,-214.44 1116.24,-212.75 1143,-212.75 1169.76,-212.75 1191.5,-214.44 1191.5,-216.52 1191.5,-216.52 1191.5,-250.48 1191.5,-250.48"/>
<path fill="none" stroke="black" d="M1191.5,-250.48C1191.5,-248.4 1169.76,-246.71 1143,-246.71 1116.24,-246.71 1094.5,-248.4 1094.5,-250.48"/>
<text text-anchor="middle" x="1143" y="-236.5" font-family="Helvetica,sans-Serif" font-size="10.00" fill="white">in_q[1] proxy</text>
<text text-anchor="middle" x="1143" y="-225.5" font-family="Helvetica,sans-Serif" font-size="10.00" fill="white">→ Manager server</text>
</g>
<!-- main_loop&#45;&gt;in_q1_p -->
<g id="edge2" class="edge">
<title>main_loop&#45;&gt;in_q1_p</title>
<path fill="none" stroke="#88aaee" d="M1143,-389.85C1143,-389.85 1143,-264.29 1143,-264.29"/>
<polygon fill="#88aaee" stroke="#88aaee" points="1146.5,-264.29 1143,-254.29 1139.5,-264.29 1146.5,-264.29"/>
<text text-anchor="middle" x="1168.5" y="-337.8" font-family="Helvetica,sans-Serif" font-size="9.00" fill="#cccccc">odd batches</text>
</g>
<!-- coll_thread -->
<g id="node2" class="node">
<title>coll_thread</title>
<polygon fill="#2a3a4a" stroke="black" points="1387,-431 1265,-431 1265,-390 1387,-390 1387,-431"/>
<text text-anchor="middle" x="1326" y="-419" font-family="Helvetica,sans-Serif" font-size="10.00" fill="white">Collector Thread</text>
<text text-anchor="middle" x="1326" y="-408" font-family="Helvetica,sans-Serif" font-size="10.00" fill="white">drains out_q[0], out_q[1]</text>
<text text-anchor="middle" x="1326" y="-397" font-family="Helvetica,sans-Serif" font-size="10.00" fill="white">→ all_results[]</text>
</g>
<!-- out_q0_p -->
<g id="node5" class="node">
<title>out_q0_p</title>
<path fill="#1a2a4a" stroke="black" d="M1331.5,-250.48C1331.5,-252.56 1309.76,-254.25 1283,-254.25 1256.24,-254.25 1234.5,-252.56 1234.5,-250.48 1234.5,-250.48 1234.5,-216.52 1234.5,-216.52 1234.5,-214.44 1256.24,-212.75 1283,-212.75 1309.76,-212.75 1331.5,-214.44 1331.5,-216.52 1331.5,-216.52 1331.5,-250.48 1331.5,-250.48"/>
<path fill="none" stroke="black" d="M1331.5,-250.48C1331.5,-248.4 1309.76,-246.71 1283,-246.71 1256.24,-246.71 1234.5,-248.4 1234.5,-250.48"/>
<text text-anchor="middle" x="1283" y="-236.5" font-family="Helvetica,sans-Serif" font-size="10.00" fill="white">out_q[0] proxy</text>
<text text-anchor="middle" x="1283" y="-225.5" font-family="Helvetica,sans-Serif" font-size="10.00" fill="white">→ Manager server</text>
</g>
<!-- coll_thread&#45;&gt;out_q0_p -->
<g id="edge3" class="edge">
<title>coll_thread&#45;&gt;out_q0_p</title>
<path fill="none" stroke="#44ee88" d="M1298.25,-389.85C1298.25,-389.85 1298.25,-264.29 1298.25,-264.29"/>
<polygon fill="#44ee88" stroke="#44ee88" points="1301.75,-264.29 1298.25,-254.29 1294.75,-264.29 1301.75,-264.29"/>
<text text-anchor="middle" x="1324.5" y="-337.8" font-family="Helvetica,sans-Serif" font-size="9.00" fill="#cccccc">poll(timeout=0.05)</text>
</g>
<!-- out_q1_p -->
<g id="node6" class="node">
<title>out_q1_p</title>
<path fill="#1a2a4a" stroke="black" d="M1471.5,-250.48C1471.5,-252.56 1449.76,-254.25 1423,-254.25 1396.24,-254.25 1374.5,-252.56 1374.5,-250.48 1374.5,-250.48 1374.5,-216.52 1374.5,-216.52 1374.5,-214.44 1396.24,-212.75 1423,-212.75 1449.76,-212.75 1471.5,-214.44 1471.5,-216.52 1471.5,-216.52 1471.5,-250.48 1471.5,-250.48"/>
<path fill="none" stroke="black" d="M1471.5,-250.48C1471.5,-248.4 1449.76,-246.71 1423,-246.71 1396.24,-246.71 1374.5,-248.4 1374.5,-250.48"/>
<text text-anchor="middle" x="1423" y="-236.5" font-family="Helvetica,sans-Serif" font-size="10.00" fill="white">out_q[1] proxy</text>
<text text-anchor="middle" x="1423" y="-225.5" font-family="Helvetica,sans-Serif" font-size="10.00" fill="white">→ Manager server</text>
</g>
<!-- coll_thread&#45;&gt;out_q1_p -->
<g id="edge4" class="edge">
<title>coll_thread&#45;&gt;out_q1_p</title>
<path fill="none" stroke="#44ee88" d="M1378.67,-389.85C1378.67,-389.85 1378.67,-262.94 1378.67,-262.94"/>
<polygon fill="#44ee88" stroke="#44ee88" points="1382.17,-262.94 1378.67,-252.94 1375.17,-262.94 1382.17,-262.94"/>
<text text-anchor="middle" x="1455.5" y="-337.8" font-family="Helvetica,sans-Serif" font-size="9.00" fill="#cccccc">poll(timeout=0.05)</text>
</g>
<!-- all_results -->
<g id="node7" class="node">
<title>all_results</title>
<path fill="#334444" stroke="black" d="M1605.5,-256.72C1605.5,-259.56 1585.11,-261.88 1560,-261.88 1534.89,-261.88 1514.5,-259.56 1514.5,-256.72 1514.5,-256.72 1514.5,-210.28 1514.5,-210.28 1514.5,-207.44 1534.89,-205.12 1560,-205.12 1585.11,-205.12 1605.5,-207.44 1605.5,-210.28 1605.5,-210.28 1605.5,-256.72 1605.5,-256.72"/>
<path fill="none" stroke="black" d="M1605.5,-256.72C1605.5,-253.87 1585.11,-251.56 1560,-251.56 1534.89,-251.56 1514.5,-253.87 1514.5,-256.72"/>
<text text-anchor="middle" x="1560" y="-242" font-family="Helvetica,sans-Serif" font-size="10.00" fill="white">all_results[]</text>
<text text-anchor="middle" x="1560" y="-231" font-family="Helvetica,sans-Serif" font-size="10.00" fill="white">(in&#45;process list)</text>
<text text-anchor="middle" x="1560" y="-220" font-family="Helvetica,sans-Serif" font-size="10.00" fill="white">final CSV source</text>
</g>
<!-- coll_thread&#45;&gt;all_results -->
<g id="edge5" class="edge">
<title>coll_thread&#45;&gt;all_results</title>
<path fill="none" stroke="#44ee88" d="M1382.83,-389.8C1382.83,-347.9 1382.83,-257 1382.83,-257 1382.83,-257 1504.38,-257 1504.38,-257"/>
<polygon fill="#44ee88" stroke="#44ee88" points="1504.38,-260.5 1514.38,-257 1504.38,-253.5 1504.38,-260.5"/>
<text text-anchor="middle" x="1575" y="-337.8" font-family="Helvetica,sans-Serif" font-size="9.00" fill="#cccccc">extend(rows)</text>
</g>
<!-- in_q0_s -->
<g id="node9" class="node">
<title>in_q0_s</title>
<path fill="#1a1a4a" stroke="black" d="M603.5,-73.73C603.5,-75.53 582.21,-77 556,-77 529.79,-77 508.5,-75.53 508.5,-73.73 508.5,-73.73 508.5,-44.27 508.5,-44.27 508.5,-42.47 529.79,-41 556,-41 582.21,-41 603.5,-42.47 603.5,-44.27 603.5,-44.27 603.5,-73.73 603.5,-73.73"/>
<path fill="none" stroke="black" d="M603.5,-73.73C603.5,-71.92 582.21,-70.45 556,-70.45 529.79,-70.45 508.5,-71.92 508.5,-73.73"/>
<text text-anchor="middle" x="556" y="-56.5" font-family="Helvetica,sans-Serif" font-size="10.00" fill="white">in_q[0] &#160;data store</text>
</g>
<!-- in_q0_p&#45;&gt;in_q0_s -->
<g id="edge12" class="edge">
<title>in_q0_p&#45;&gt;in_q0_s</title>
<path fill="none" stroke="#88aaee" d="M977.67,-212.85C977.67,-198.52 977.67,-182 977.67,-182 977.67,-182 556,-182 556,-182 556,-182 556,-87.15 556,-87.15"/>
<polygon fill="#88aaee" stroke="#88aaee" points="559.5,-87.15 556,-77.15 552.5,-87.15 559.5,-87.15"/>
<text text-anchor="middle" x="726.5" y="-149.8" font-family="Helvetica,sans-Serif" font-size="9.00" fill="#cccccc">socket</text>
</g>
<!-- in_q1_s -->
<g id="node10" class="node">
<title>in_q1_s</title>
<path fill="#1a1a4a" stroke="black" d="M741.5,-73.73C741.5,-75.53 720.21,-77 694,-77 667.79,-77 646.5,-75.53 646.5,-73.73 646.5,-73.73 646.5,-44.27 646.5,-44.27 646.5,-42.47 667.79,-41 694,-41 720.21,-41 741.5,-42.47 741.5,-44.27 741.5,-44.27 741.5,-73.73 741.5,-73.73"/>
<path fill="none" stroke="black" d="M741.5,-73.73C741.5,-71.92 720.21,-70.45 694,-70.45 667.79,-70.45 646.5,-71.92 646.5,-73.73"/>
<text text-anchor="middle" x="694" y="-56.5" font-family="Helvetica,sans-Serif" font-size="10.00" fill="white">in_q[1] &#160;data store</text>
</g>
<!-- in_q1_p&#45;&gt;in_q1_s -->
<g id="edge13" class="edge">
<title>in_q1_p&#45;&gt;in_q1_s</title>
<path fill="none" stroke="#88aaee" d="M1143,-212.82C1143,-191.7 1143,-162 1143,-162 1143,-162 707.75,-162 707.75,-162 707.75,-162 707.75,-87.41 707.75,-87.41"/>
<polygon fill="#88aaee" stroke="#88aaee" points="711.25,-87.41 707.75,-77.41 704.25,-87.41 711.25,-87.41"/>
<text text-anchor="middle" x="899.5" y="-149.8" font-family="Helvetica,sans-Serif" font-size="9.00" fill="#cccccc">socket</text>
</g>
<!-- csv -->
<g id="node25" class="node">
<title>csv</title>
<polygon fill="#333333" stroke="black" points="1609.5,-79.5 1504.5,-79.5 1504.5,-38.5 1615.5,-38.5 1615.5,-73.5 1609.5,-79.5"/>
<polyline fill="none" stroke="black" points="1609.5,-79.5 1609.5,-73.5 "/>
<polyline fill="none" stroke="black" points="1615.5,-73.5 1609.5,-73.5 "/>
<text text-anchor="middle" x="1560" y="-67.5" font-family="Helvetica,sans-Serif" font-size="10.00" fill="white">usafa_sorted/</text>
<text text-anchor="middle" x="1560" y="-56.5" font-family="Helvetica,sans-Serif" font-size="10.00" fill="white">sort_report.csv</text>
<text text-anchor="middle" x="1560" y="-45.5" font-family="Helvetica,sans-Serif" font-size="10.00" fill="white">26,577 rows + header</text>
</g>
<!-- all_results&#45;&gt;csv -->
<g id="edge20" class="edge">
<title>all_results&#45;&gt;csv</title>
<path fill="none" stroke="#aaaaaa" d="M1560,-205.08C1560,-205.08 1560,-89.75 1560,-89.75"/>
<polygon fill="#aaaaaa" stroke="#aaaaaa" points="1563.5,-89.75 1560,-79.75 1556.5,-89.75 1563.5,-89.75"/>
<text text-anchor="middle" x="1587.5" y="-154.8" font-family="Helvetica,sans-Serif" font-size="9.00" fill="#cccccc">write CSV</text>
<text text-anchor="middle" x="1587.5" y="-144.8" font-family="Helvetica,sans-Serif" font-size="9.00" fill="#cccccc">at completion</text>
</g>
<!-- mgr_note -->
<g id="node8" class="node">
<title>mgr_note</title>
<polygon fill="#2a2a5a" stroke="black" points="1217,-102 1067,-102 1067,-16 1223,-16 1223,-96 1217,-102"/>
<polyline fill="none" stroke="black" points="1217,-102 1217,-96 "/>
<polyline fill="none" stroke="black" points="1223,-96 1217,-96 "/>
<text text-anchor="middle" x="1145" y="-90" font-family="Helvetica,sans-Serif" font-size="10.00" fill="#aaaaee">Spawned process</text>
<text text-anchor="middle" x="1145" y="-79" font-family="Helvetica,sans-Serif" font-size="10.00" fill="#aaaaee">(not forked)</text>
<text text-anchor="middle" x="1145" y="-68" font-family="Helvetica,sans-Serif" font-size="10.00" fill="#aaaaee">Owns all Queue data</text>
<text text-anchor="middle" x="1145" y="-57" font-family="Helvetica,sans-Serif" font-size="10.00" fill="#aaaaee">Communicates via socket only</text>
<text text-anchor="middle" x="1145" y="-34" font-family="Helvetica,sans-Serif" font-size="10.00" fill="#aaaaee">No mutex state in main process</text>
<text text-anchor="middle" x="1145" y="-23" font-family="Helvetica,sans-Serif" font-size="10.00" fill="#aaaaee">→ fork&#45;safe for extraction Pool</text>
</g>
<!-- e0_loop -->
<g id="node15" class="node">
<title>e0_loop</title>
<polygon fill="#1a3a2a" stroke="black" points="160,-265 24,-265 24,-202 166,-202 166,-259 160,-265"/>
<polyline fill="none" stroke="black" points="160,-265 160,-259 "/>
<polyline fill="none" stroke="black" points="166,-259 160,-259 "/>
<text text-anchor="middle" x="95" y="-253" font-family="Helvetica,sans-Serif" font-size="10.00" fill="white">while True:</text>
<text text-anchor="middle" x="95" y="-242" font-family="Helvetica,sans-Serif" font-size="10.00" fill="white"> &#160;batch = in_q[0].get()</text>
<text text-anchor="middle" x="95" y="-231" font-family="Helvetica,sans-Serif" font-size="10.00" fill="white"> &#160;vecs = encoder.encode()</text>
<text text-anchor="middle" x="95" y="-220" font-family="Helvetica,sans-Serif" font-size="10.00" fill="white"> &#160;probas = clf.predict_proba()</text>
<text text-anchor="middle" x="95" y="-209" font-family="Helvetica,sans-Serif" font-size="10.00" fill="white"> &#160;out_q[0].put(rows)</text>
</g>
<!-- in_q0_s&#45;&gt;e0_loop -->
<g id="edge14" class="edge">
<title>in_q0_s&#45;&gt;e0_loop</title>
<path fill="none" stroke="#88aaee" d="M508.2,-59C385.93,-59 71.33,-59 71.33,-59 71.33,-59 71.33,-191.9 71.33,-191.9"/>
<polygon fill="#88aaee" stroke="#88aaee" points="67.83,-191.9 71.33,-201.9 74.83,-191.9 67.83,-191.9"/>
<text text-anchor="middle" x="339.5" y="-149.8" font-family="Helvetica,sans-Serif" font-size="9.00" fill="#cccccc">socket</text>
</g>
<!-- e1_loop -->
<g id="node18" class="node">
<title>e1_loop</title>
<polygon fill="#1a3a2a" stroke="black" points="625,-265 489,-265 489,-202 631,-202 631,-259 625,-265"/>
<polyline fill="none" stroke="black" points="625,-265 625,-259 "/>
<polyline fill="none" stroke="black" points="631,-259 625,-259 "/>
<text text-anchor="middle" x="560" y="-253" font-family="Helvetica,sans-Serif" font-size="10.00" fill="white">while True:</text>
<text text-anchor="middle" x="560" y="-242" font-family="Helvetica,sans-Serif" font-size="10.00" fill="white"> &#160;batch = in_q[1].get()</text>
<text text-anchor="middle" x="560" y="-231" font-family="Helvetica,sans-Serif" font-size="10.00" fill="white"> &#160;vecs = encoder.encode()</text>
<text text-anchor="middle" x="560" y="-220" font-family="Helvetica,sans-Serif" font-size="10.00" fill="white"> &#160;probas = clf.predict_proba()</text>
<text text-anchor="middle" x="560" y="-209" font-family="Helvetica,sans-Serif" font-size="10.00" fill="white"> &#160;out_q[1].put(rows)</text>
</g>
<!-- in_q1_s&#45;&gt;e1_loop -->
<g id="edge15" class="edge">
<title>in_q1_s&#45;&gt;e1_loop</title>
<path fill="none" stroke="#88aaee" d="M660.25,-76.56C660.25,-115.76 660.25,-207 660.25,-207 660.25,-207 641.25,-207 641.25,-207"/>
<polygon fill="#88aaee" stroke="#88aaee" points="641.25,-203.5 631.25,-207 641.25,-210.5 641.25,-203.5"/>
<text text-anchor="middle" x="645.5" y="-149.8" font-family="Helvetica,sans-Serif" font-size="9.00" fill="#cccccc">socket</text>
</g>
<!-- out_q0_s -->
<g id="node11" class="node">
<title>out_q0_s</title>
<path fill="#1a1a4a" stroke="black" d="M883,-73.73C883,-75.53 861.04,-77 834,-77 806.96,-77 785,-75.53 785,-73.73 785,-73.73 785,-44.27 785,-44.27 785,-42.47 806.96,-41 834,-41 861.04,-41 883,-42.47 883,-44.27 883,-44.27 883,-73.73 883,-73.73"/>
<path fill="none" stroke="black" d="M883,-73.73C883,-71.92 861.04,-70.45 834,-70.45 806.96,-70.45 785,-71.92 785,-73.73"/>
<text text-anchor="middle" x="834" y="-56.5" font-family="Helvetica,sans-Serif" font-size="10.00" fill="white">out_q[0] data store</text>
</g>
<!-- out_q0_s&#45;&gt;out_q0_p -->
<g id="edge18" class="edge">
<title>out_q0_s&#45;&gt;out_q0_p</title>
<path fill="none" stroke="#44ee88" d="M854,-77.01C854,-101.42 854,-142 854,-142 854,-142 1283,-142 1283,-142 1283,-142 1283,-202.74 1283,-202.74"/>
<polygon fill="#44ee88" stroke="#44ee88" points="1279.5,-202.74 1283,-212.74 1286.5,-202.74 1279.5,-202.74"/>
<text text-anchor="middle" x="1140.5" y="-149.8" font-family="Helvetica,sans-Serif" font-size="9.00" fill="#cccccc">socket</text>
</g>
<!-- out_q1_s -->
<g id="node12" class="node">
<title>out_q1_s</title>
<path fill="#1a1a4a" stroke="black" d="M1024,-73.73C1024,-75.53 1002.04,-77 975,-77 947.96,-77 926,-75.53 926,-73.73 926,-73.73 926,-44.27 926,-44.27 926,-42.47 947.96,-41 975,-41 1002.04,-41 1024,-42.47 1024,-44.27 1024,-44.27 1024,-73.73 1024,-73.73"/>
<path fill="none" stroke="black" d="M1024,-73.73C1024,-71.92 1002.04,-70.45 975,-70.45 947.96,-70.45 926,-71.92 926,-73.73"/>
<text text-anchor="middle" x="975" y="-56.5" font-family="Helvetica,sans-Serif" font-size="10.00" fill="white">out_q[1] data store</text>
</g>
<!-- out_q1_s&#45;&gt;out_q1_p -->
<g id="edge19" class="edge">
<title>out_q1_s&#45;&gt;out_q1_p</title>
<path fill="none" stroke="#44ee88" d="M1000.83,-77.22C1000.83,-95.83 1000.83,-122 1000.83,-122 1000.83,-122 1423,-122 1423,-122 1423,-122 1423,-202.79 1423,-202.79"/>
<polygon fill="#44ee88" stroke="#44ee88" points="1419.5,-202.79 1423,-212.79 1426.5,-202.79 1419.5,-202.79"/>
<text text-anchor="middle" x="1326.5" y="-149.8" font-family="Helvetica,sans-Serif" font-size="9.00" fill="#cccccc">socket</text>
</g>
<!-- e0_model -->
<g id="node13" class="node">
<title>e0_model</title>
<polygon fill="#1a3a2a" stroke="black" points="446,-254 360,-254 360,-213 446,-213 446,-254"/>
<text text-anchor="middle" x="403" y="-242" font-family="Helvetica,sans-Serif" font-size="10.00" fill="white">bge&#45;m3</text>
<text text-anchor="middle" x="403" y="-231" font-family="Helvetica,sans-Serif" font-size="10.00" fill="white">~5&#45;6 GB VRAM</text>
<text text-anchor="middle" x="403" y="-220" font-family="Helvetica,sans-Serif" font-size="10.00" fill="white">cuda:0</text>
</g>
<!-- e0_clf -->
<g id="node14" class="node">
<title>e0_clf</title>
<polygon fill="#1a2a2a" stroke="black" points="317,-251.5 209,-251.5 209,-215.5 317,-215.5 317,-251.5"/>
<text text-anchor="middle" x="263" y="-236.5" font-family="Helvetica,sans-Serif" font-size="10.00" fill="white">clf (64&#45;class LR)</text>
<text text-anchor="middle" x="263" y="-225.5" font-family="Helvetica,sans-Serif" font-size="10.00" fill="white">loaded independently</text>
</g>
<!-- e0_loop&#45;&gt;out_q0_s -->
<g id="edge16" class="edge">
<title>e0_loop&#45;&gt;out_q0_s</title>
<path fill="none" stroke="#44ee88" d="M118.67,-201.79C118.67,-159.25 118.67,-89 118.67,-89 118.67,-89 805,-89 805,-89 805,-89 805,-87.14 805,-87.14"/>
<polygon fill="#44ee88" stroke="#44ee88" points="808.5,-87.14 805,-77.14 801.5,-87.14 808.5,-87.14"/>
<text text-anchor="middle" x="813.5" y="-154.8" font-family="Helvetica,sans-Serif" font-size="9.00" fill="#cccccc">socket</text>
<text text-anchor="middle" x="813.5" y="-144.8" font-family="Helvetica,sans-Serif" font-size="9.00" fill="#cccccc">result rows</text>
</g>
<!-- e1_model -->
<g id="node16" class="node">
<title>e1_model</title>
<polygon fill="#1a3a2a" stroke="black" points="911,-254 825,-254 825,-213 911,-213 911,-254"/>
<text text-anchor="middle" x="868" y="-242" font-family="Helvetica,sans-Serif" font-size="10.00" fill="white">bge&#45;m3</text>
<text text-anchor="middle" x="868" y="-231" font-family="Helvetica,sans-Serif" font-size="10.00" fill="white">~5&#45;6 GB VRAM</text>
<text text-anchor="middle" x="868" y="-220" font-family="Helvetica,sans-Serif" font-size="10.00" fill="white">cuda:1</text>
</g>
<!-- e1_clf -->
<g id="node17" class="node">
<title>e1_clf</title>
<polygon fill="#1a2a2a" stroke="black" points="782,-251.5 674,-251.5 674,-215.5 782,-215.5 782,-251.5"/>
<text text-anchor="middle" x="728" y="-236.5" font-family="Helvetica,sans-Serif" font-size="10.00" fill="white">clf (64&#45;class LR)</text>
<text text-anchor="middle" x="728" y="-225.5" font-family="Helvetica,sans-Serif" font-size="10.00" fill="white">loaded independently</text>
</g>
<!-- e1_loop&#45;&gt;out_q1_s -->
<g id="edge17" class="edge">
<title>e1_loop&#45;&gt;out_q1_s</title>
<path fill="none" stroke="#44ee88" d="M631.1,-210C741.78,-210 942.75,-210 942.75,-210 942.75,-210 942.75,-86.91 942.75,-86.91"/>
<polygon fill="#44ee88" stroke="#44ee88" points="946.25,-86.91 942.75,-76.91 939.25,-86.91 946.25,-86.91"/>
<text text-anchor="middle" x="984.5" y="-154.8" font-family="Helvetica,sans-Serif" font-size="9.00" fill="#cccccc">socket</text>
<text text-anchor="middle" x="984.5" y="-144.8" font-family="Helvetica,sans-Serif" font-size="9.00" fill="#cccccc">result rows</text>
</g>
<!-- fork_note -->
<g id="node19" class="node">
<title>fork_note</title>
<polygon fill="#3a2a00" stroke="black" points="1478.5,-607 1313.5,-607 1313.5,-555 1484.5,-555 1484.5,-601 1478.5,-607"/>
<polyline fill="none" stroke="black" points="1478.5,-607 1478.5,-601 "/>
<polyline fill="none" stroke="black" points="1484.5,-601 1478.5,-601 "/>
<text text-anchor="middle" x="1399" y="-595" font-family="Helvetica,sans-Serif" font-size="10.00" fill="#eecc88">Forked from main process</text>
<text text-anchor="middle" x="1399" y="-584" font-family="Helvetica,sans-Serif" font-size="10.00" fill="#eecc88">✓ inherit socket fd (Manager proxy)</text>
<text text-anchor="middle" x="1399" y="-573" font-family="Helvetica,sans-Serif" font-size="10.00" fill="#eecc88">✗ inherit NO mutex state</text>
<text text-anchor="middle" x="1399" y="-562" font-family="Helvetica,sans-Serif" font-size="10.00" fill="#eecc88">→ fork&#45;safe</text>
</g>
<!-- w0 -->
<g id="node20" class="node">
<title>w0</title>
<polygon fill="#2a2a00" stroke="black" points="1072,-607 974,-607 974,-555 1072,-555 1072,-607"/>
<text text-anchor="middle" x="1023" y="-595" font-family="Helvetica,sans-Serif" font-size="10.00" fill="white">Worker 0</text>
<text text-anchor="middle" x="1023" y="-584" font-family="Helvetica,sans-Serif" font-size="10.00" fill="white">_extract_cpu(path)</text>
<text text-anchor="middle" x="1023" y="-573" font-family="Helvetica,sans-Serif" font-size="10.00" fill="white">fitz.get_text()</text>
<text text-anchor="middle" x="1023" y="-562" font-family="Helvetica,sans-Serif" font-size="10.00" fill="white">→ (path, text)</text>
</g>
<!-- w0&#45;&gt;main_loop -->
<g id="edge9" class="edge">
<title>w0&#45;&gt;main_loop</title>
<path fill="none" stroke="#ccaa44" d="M1068,-554.73C1068,-554.73 1068,-441.16 1068,-441.16"/>
<polygon fill="#ccaa44" stroke="#ccaa44" points="1071.5,-441.16 1068,-431.16 1064.5,-441.16 1071.5,-441.16"/>
<text text-anchor="middle" x="1070" y="-507.8" font-family="Helvetica,sans-Serif" font-size="9.00" fill="#cccccc">(path, text)</text>
<text text-anchor="middle" x="1070" y="-497.8" font-family="Helvetica,sans-Serif" font-size="9.00" fill="#cccccc">via Pool pipe</text>
</g>
<!-- w1 -->
<g id="node21" class="node">
<title>w1</title>
<polygon fill="#2a2a00" stroke="black" points="1171,-599 1115,-599 1115,-563 1171,-563 1171,-599"/>
<text text-anchor="middle" x="1143" y="-578.5" font-family="Helvetica,sans-Serif" font-size="10.00" fill="white">Worker 1</text>
</g>
<!-- w1&#45;&gt;main_loop -->
<g id="edge10" class="edge">
<title>w1&#45;&gt;main_loop</title>
<path fill="none" stroke="#ccaa44" stroke-dasharray="5,2" d="M1143,-562.75C1143,-562.75 1143,-441.26 1143,-441.26"/>
<polygon fill="#ccaa44" stroke="#ccaa44" points="1146.5,-441.26 1143,-431.26 1139.5,-441.26 1146.5,-441.26"/>
</g>
<!-- w2 -->
<g id="node22" class="node">
<title>w2</title>
<polygon fill="#2a2a00" stroke="black" points="1270,-599 1214,-599 1214,-563 1270,-563 1270,-599"/>
<text text-anchor="middle" x="1242" y="-578.5" font-family="Helvetica,sans-Serif" font-size="10.00" fill="white">Worker 2</text>
</g>
<!-- w2&#45;&gt;main_loop -->
<g id="edge11" class="edge">
<title>w2&#45;&gt;main_loop</title>
<path fill="none" stroke="#ccaa44" stroke-dasharray="5,2" d="M1218,-562.75C1218,-562.75 1218,-441.26 1218,-441.26"/>
<polygon fill="#ccaa44" stroke="#ccaa44" points="1221.5,-441.26 1218,-431.26 1214.5,-441.26 1221.5,-441.26"/>
</g>
<!-- wdots -->
<g id="node23" class="node">
<title>wdots</title>
<polygon fill="#1a1a00" stroke="black" points="931,-599 857,-599 857,-563 931,-563 931,-599"/>
<text text-anchor="middle" x="894" y="-584" font-family="Helvetica,sans-Serif" font-size="10.00" fill="#aaaaaa">Workers 3&#45;11</text>
<text text-anchor="middle" x="894" y="-573" font-family="Helvetica,sans-Serif" font-size="10.00" fill="#aaaaaa">...</text>
</g>
<!-- src -->
<g id="node24" class="node">
<title>src</title>
<polygon fill="#333333" stroke="black" points="1202.5,-743 1199.5,-747 1178.5,-747 1175.5,-743 1083.5,-743 1083.5,-707 1202.5,-707 1202.5,-743"/>
<text text-anchor="middle" x="1143" y="-728" font-family="Helvetica,sans-Serif" font-size="10.00" fill="white">/media/.../usafa_af_mil/</text>
<text text-anchor="middle" x="1143" y="-717" font-family="Helvetica,sans-Serif" font-size="10.00" fill="white">26,577 PDFs</text>
</g>
<!-- src&#45;&gt;w0 -->
<g id="edge6" class="edge">
<title>src&#45;&gt;w0</title>
<path fill="none" stroke="#ccaa44" d="M1099.25,-707C1099.25,-673.06 1099.25,-603 1099.25,-603 1099.25,-603 1082.15,-603 1082.15,-603"/>
<polygon fill="#ccaa44" stroke="#ccaa44" points="1082.15,-599.5 1072.15,-603 1082.15,-606.5 1082.15,-599.5"/>
<text text-anchor="middle" x="1069.5" y="-659.8" font-family="Helvetica,sans-Serif" font-size="9.00" fill="#cccccc">file paths</text>
<text text-anchor="middle" x="1069.5" y="-649.8" font-family="Helvetica,sans-Serif" font-size="9.00" fill="#cccccc">(imap_unordered)</text>
</g>
<!-- src&#45;&gt;w1 -->
<g id="edge7" class="edge">
<title>src&#45;&gt;w1</title>
<path fill="none" stroke="#ccaa44" stroke-dasharray="5,2" d="M1143,-706.76C1143,-706.76 1143,-609.09 1143,-609.09"/>
<polygon fill="#ccaa44" stroke="#ccaa44" points="1146.5,-609.09 1143,-599.09 1139.5,-609.09 1146.5,-609.09"/>
</g>
<!-- src&#45;&gt;w2 -->
<g id="edge8" class="edge">
<title>src&#45;&gt;w2</title>
<path fill="none" stroke="#ccaa44" stroke-dasharray="5,2" d="M1186.75,-706.76C1186.75,-668.01 1186.75,-581 1186.75,-581 1186.75,-581 1203.73,-581 1203.73,-581"/>
<polygon fill="#ccaa44" stroke="#ccaa44" points="1203.73,-584.5 1213.73,-581 1203.73,-577.5 1203.73,-584.5"/>
</g>
</g>
</svg>
