<?xml version="1.0" encoding="UTF-8" standalone="no"?>
<!DOCTYPE svg PUBLIC "-//W3C//DTD SVG 1.1//EN"
 "http://www.w3.org/Graphics/SVG/1.1/DTD/svg11.dtd">
<!-- Generated by graphviz version 2.43.0 (0)
 -->
<!-- Title: Incident1_BrokenProcessPool Pages: 1 -->
<svg width="1437pt" height="889pt"
 viewBox="0.00 0.00 1437.40 889.40" xmlns="http://www.w3.org/2000/svg" xmlns:xlink="http://www.w3.org/1999/xlink">
<g id="graph0" class="graph" transform="scale(1 1) rotate(0) translate(43.2 846.2)">
<title>Incident1_BrokenProcessPool</title>
<polygon fill="#1a1a2e" stroke="transparent" points="-43.2,43.2 -43.2,-846.2 1394.2,-846.2 1394.2,43.2 -43.2,43.2"/>
<text text-anchor="middle" x="675.5" y="-786.2" font-family="Helvetica,sans-Serif" font-size="16.00" fill="#e0e0e0">Incident: BrokenProcessPool — Root Cause Analysis &amp; Fix</text>
<g id="clust1" class="cluster">
<title>cluster_symptom</title>
<polygon fill="#1a1a2e" stroke="#553333" stroke-dasharray="5,2" points="697,-551 697,-637 901,-637 901,-551 697,-551"/>
<text text-anchor="middle" x="799" y="-620.2" font-family="Helvetica,sans-Serif" font-size="16.00" fill="#e0e0e0">Symptom</text>
</g>
<g id="clust2" class="cluster">
<title>cluster_ruled_out</title>
<polygon fill="#1a1a2e" stroke="#444444" stroke-dasharray="5,2" points="657,-421 657,-507 955,-507 955,-421 657,-421"/>
<text text-anchor="middle" x="806" y="-490.2" font-family="Helvetica,sans-Serif" font-size="16.00" fill="#e0e0e0">Ruled Out</text>
</g>
<g id="clust3" class="cluster">
<title>cluster_cause</title>
<polygon fill="#1a0a00" stroke="#884400" points="989,-8 989,-507 1343,-507 1343,-8 989,-8"/>
<text text-anchor="middle" x="1166" y="-490.2" font-family="Helvetica,sans-Serif" font-size="16.00" fill="#e0e0e0">Root Cause</text>
</g>
<g id="clust4" class="cluster">
<title>cluster_wrong_fix</title>
<polygon fill="#111000" stroke="#665500" points="8,-298 8,-633 226,-633 226,-298 8,-298"/>
<text text-anchor="middle" x="117" y="-616.2" font-family="Helvetica,sans-Serif" font-size="16.00" fill="#e0e0e0">Wrong Fix (v5 — 8c0c8a6)</text>
</g>
<g id="clust5" class="cluster">
<title>cluster_fix</title>
<polygon fill="#001000" stroke="#225522" points="259,-294 259,-633 623,-633 623,-294 259,-294"/>
<text text-anchor="middle" x="441" y="-616.2" font-family="Helvetica,sans-Serif" font-size="16.00" fill="#e0e0e0">Correct Fix (v6 — e2f2d30)</text>
</g>
<!-- root -->
<g id="node1" class="node">
<title>root</title>
<polygon fill="#8b0000" stroke="black" points="378,-777 194,-733 378,-689 562,-733 378,-777"/>
<text text-anchor="middle" x="378" y="-742.2" font-family="Helvetica,sans-Serif" font-size="11.00" fill="white">BrokenProcessPool</text>
<text text-anchor="middle" x="378" y="-730.2" font-family="Helvetica,sans-Serif" font-size="11.00" fill="white">concurrent.futures.process</text>
<text text-anchor="middle" x="378" y="-718.2" font-family="Helvetica,sans-Serif" font-size="11.00" fill="white">Training crashed — no militia.joblib</text>
</g>
<!-- symptom -->
<g id="node2" class="node">
<title>symptom</title>
<polygon fill="#5a1a1a" stroke="black" points="893,-603 705,-603 705,-559 893,-559 893,-603"/>
<text text-anchor="middle" x="799" y="-590.2" font-family="Helvetica,sans-Serif" font-size="11.00" fill="white">Worker process killed abruptly</text>
<text text-anchor="middle" x="799" y="-578.2" font-family="Helvetica,sans-Serif" font-size="11.00" fill="white">while future was running or pending</text>
<text text-anchor="middle" x="799" y="-566.2" font-family="Helvetica,sans-Serif" font-size="11.00" fill="white">All pending futures poisoned</text>
</g>
<!-- root&#45;&gt;symptom -->
<g id="edge11" class="edge">
<title>root&#45;&gt;symptom</title>
<path fill="none" stroke="#aaaaaa" d="M523.5,-723.49C523.5,-690.22 523.5,-581 523.5,-581 523.5,-581 694.96,-581 694.96,-581"/>
<polygon fill="#aaaaaa" stroke="#aaaaaa" points="694.96,-584.5 704.96,-581 694.96,-577.5 694.96,-584.5"/>
</g>
<!-- thread -->
<g id="node10" class="node">
<title>thread</title>
<polygon fill="#554400" stroke="black" points="214,-599 42,-599 42,-563 214,-563 214,-599"/>
<text text-anchor="middle" x="128" y="-584.2" font-family="Helvetica,sans-Serif" font-size="11.00" fill="white">ThreadPoolExecutor</text>
<text text-anchor="middle" x="128" y="-572.2" font-family="Helvetica,sans-Serif" font-size="11.00" fill="white">(replaced ProcessPoolExecutor)</text>
</g>
<!-- root&#45;&gt;thread -->
<g id="edge15" class="edge">
<title>root&#45;&gt;thread</title>
<path fill="none" stroke="#cc9900" d="M204,-730.36C204,-730.36 204,-609.22 204,-609.22"/>
<polygon fill="#cc9900" stroke="#cc9900" points="207.5,-609.22 204,-599.22 200.5,-609.22 207.5,-609.22"/>
<text text-anchor="middle" x="225.5" y="-648" font-family="Helvetica,sans-Serif" font-size="10.00" fill="#cccccc">first fix attempt</text>
</g>
<!-- restore -->
<g id="node13" class="node">
<title>restore</title>
<polygon fill="#1a4a1a" stroke="black" points="485,-599 271,-599 271,-563 485,-563 485,-599"/>
<text text-anchor="middle" x="378" y="-584.2" font-family="Helvetica,sans-Serif" font-size="11.00" fill="white">ProcessPoolExecutor restored</text>
<text text-anchor="middle" x="378" y="-572.2" font-family="Helvetica,sans-Serif" font-size="11.00" fill="white">(true parallelism — separate interpreters)</text>
</g>
<!-- root&#45;&gt;restore -->
<g id="edge16" class="edge">
<title>root&#45;&gt;restore</title>
<path fill="none" stroke="#44aa44" d="M378,-688.63C378,-688.63 378,-609.19 378,-609.19"/>
<polygon fill="#44aa44" stroke="#44aa44" points="381.5,-609.19 378,-599.19 374.5,-609.19 381.5,-609.19"/>
<text text-anchor="middle" x="394" y="-648" font-family="Helvetica,sans-Serif" font-size="10.00" fill="#cccccc">final fix</text>
</g>
<!-- oom -->
<g id="node3" class="node">
<title>oom</title>
<polygon fill="#2a2a2a" stroke="black" points="790.5,-473 665.5,-473 665.5,-429 790.5,-429 790.5,-473"/>
<text text-anchor="middle" x="728" y="-460.2" font-family="Helvetica,sans-Serif" font-size="11.00" fill="#888888">OOM killer ✗</text>
<text text-anchor="middle" x="728" y="-448.2" font-family="Helvetica,sans-Serif" font-size="11.00" fill="#888888">101 GB RAM free</text>
<text text-anchor="middle" x="728" y="-436.2" font-family="Helvetica,sans-Serif" font-size="11.00" fill="#888888">dmesg: no oom events</text>
</g>
<!-- symptom&#45;&gt;oom -->
<g id="edge12" class="edge">
<title>symptom&#45;&gt;oom</title>
<path fill="none" stroke="#666666" stroke-dasharray="5,2" d="M747.75,-558.95C747.75,-558.95 747.75,-483.16 747.75,-483.16"/>
<polygon fill="#666666" stroke="#666666" points="751.25,-483.16 747.75,-473.16 744.25,-483.16 751.25,-483.16"/>
<text text-anchor="middle" x="768.5" y="-518" font-family="Helvetica,sans-Serif" font-size="10.00" fill="#cccccc">investigated</text>
</g>
<!-- ulimit -->
<g id="node4" class="node">
<title>ulimit</title>
<polygon fill="#2a2a2a" stroke="black" points="947.5,-473 840.5,-473 840.5,-429 947.5,-429 947.5,-473"/>
<text text-anchor="middle" x="894" y="-460.2" font-family="Helvetica,sans-Serif" font-size="11.00" fill="#888888">ulimit ✗</text>
<text text-anchor="middle" x="894" y="-448.2" font-family="Helvetica,sans-Serif" font-size="11.00" fill="#888888">data seg: unlimited</text>
<text text-anchor="middle" x="894" y="-436.2" font-family="Helvetica,sans-Serif" font-size="11.00" fill="#888888">virtual: unlimited</text>
</g>
<!-- symptom&#45;&gt;ulimit -->
<g id="edge13" class="edge">
<title>symptom&#45;&gt;ulimit</title>
<path fill="none" stroke="#666666" stroke-dasharray="5,2" d="M866.75,-558.95C866.75,-558.95 866.75,-483.16 866.75,-483.16"/>
<polygon fill="#666666" stroke="#666666" points="870.25,-483.16 866.75,-473.16 863.25,-483.16 870.25,-483.16"/>
<text text-anchor="middle" x="905.5" y="-518" font-family="Helvetica,sans-Serif" font-size="10.00" fill="#cccccc">investigated</text>
</g>
<!-- embedded -->
<g id="node6" class="node">
<title>embedded</title>
<polygon fill="#5a2200" stroke="black" points="1335,-473 1167,-473 1167,-429 1335,-429 1335,-473"/>
<text text-anchor="middle" x="1251" y="-460.2" font-family="Helvetica,sans-Serif" font-size="11.00" fill="white">PDF contains embedded image</text>
<text text-anchor="middle" x="1251" y="-448.2" font-family="Helvetica,sans-Serif" font-size="11.00" fill="white">(Liberated_manuals corpus —</text>
<text text-anchor="middle" x="1251" y="-436.2" font-family="Helvetica,sans-Serif" font-size="11.00" fill="white">706 files, several &gt;1M chars)</text>
</g>
<!-- symptom&#45;&gt;embedded -->
<g id="edge14" class="edge">
<title>symptom&#45;&gt;embedded</title>
<path fill="none" stroke="#ff6600" d="M893.2,-581C1025.67,-581 1251,-581 1251,-581 1251,-581 1251,-483.05 1251,-483.05"/>
<polygon fill="#ff6600" stroke="#ff6600" points="1254.5,-483.05 1251,-473.05 1247.5,-483.05 1254.5,-483.05"/>
<text text-anchor="middle" x="1154" y="-518" font-family="Helvetica,sans-Serif" font-size="10.00" fill="#cccccc">actual cause</text>
</g>
<!-- pillow -->
<g id="node5" class="node">
<title>pillow</title>
<polygon fill="#6a3300" stroke="black" points="1277.5,-346 1054.5,-346 1054.5,-302 1277.5,-302 1277.5,-346"/>
<text text-anchor="middle" x="1166" y="-333.2" font-family="Helvetica,sans-Serif" font-size="11.00" fill="white">Pillow C extension</text>
<text text-anchor="middle" x="1166" y="-321.2" font-family="Helvetica,sans-Serif" font-size="11.00" fill="white">_imaging.cpython&#45;310&#45;x86_64&#45;linux&#45;gnu.so</text>
<text text-anchor="middle" x="1166" y="-309.2" font-family="Helvetica,sans-Serif" font-size="11.00" fill="white">(one of 8 .so files in Pillow)</text>
</g>
<!-- segfault -->
<g id="node8" class="node">
<title>segfault</title>
<polygon fill="#8b1a00" stroke="black" points="1166,-225 1011,-181 1166,-137 1321,-181 1166,-225"/>
<text text-anchor="middle" x="1166" y="-190.2" font-family="Helvetica,sans-Serif" font-size="11.00" fill="white">SIGSEGV in C code</text>
<text text-anchor="middle" x="1166" y="-178.2" font-family="Helvetica,sans-Serif" font-size="11.00" fill="white">No Python exception handler</text>
<text text-anchor="middle" x="1166" y="-166.2" font-family="Helvetica,sans-Serif" font-size="11.00" fill="white">Worker process killed by OS</text>
</g>
<!-- pillow&#45;&gt;segfault -->
<g id="edge3" class="edge">
<title>pillow&#45;&gt;segfault</title>
<path fill="none" stroke="#aaaaaa" d="M1166,-301.97C1166,-301.97 1166,-235.26 1166,-235.26"/>
<polygon fill="#aaaaaa" stroke="#aaaaaa" points="1169.5,-235.26 1166,-225.26 1162.5,-235.26 1169.5,-235.26"/>
<text text-anchor="middle" x="1183.5" y="-261" font-family="Helvetica,sans-Serif" font-size="10.00" fill="#cccccc">C crash</text>
</g>
<!-- embedded&#45;&gt;pillow -->
<g id="edge1" class="edge">
<title>embedded&#45;&gt;pillow</title>
<path fill="none" stroke="#aaaaaa" d="M1222.25,-428.88C1222.25,-428.88 1222.25,-356.29 1222.25,-356.29"/>
<polygon fill="#aaaaaa" stroke="#aaaaaa" points="1225.75,-356.29 1222.25,-346.29 1218.75,-356.29 1225.75,-356.29"/>
<text text-anchor="middle" x="1257.5" y="-382" font-family="Helvetica,sans-Serif" font-size="10.00" fill="#cccccc">pdfplumber calls Pillow</text>
</g>
<!-- corrupt -->
<g id="node7" class="node">
<title>corrupt</title>
<polygon fill="#6a1a00" stroke="black" points="1116.5,-469 997.5,-469 997.5,-433 1116.5,-433 1116.5,-469"/>
<text text-anchor="middle" x="1057" y="-454.2" font-family="Helvetica,sans-Serif" font-size="11.00" fill="white">Corrupt image data</text>
<text text-anchor="middle" x="1057" y="-442.2" font-family="Helvetica,sans-Serif" font-size="11.00" fill="white">in PDF binary stream</text>
</g>
<!-- corrupt&#45;&gt;pillow -->
<g id="edge2" class="edge">
<title>corrupt&#45;&gt;pillow</title>
<path fill="none" stroke="#aaaaaa" d="M1085.5,-432.8C1085.5,-432.8 1085.5,-356 1085.5,-356"/>
<polygon fill="#aaaaaa" stroke="#aaaaaa" points="1089,-356 1085.5,-346 1082,-356 1089,-356"/>
<text text-anchor="middle" x="1104.5" y="-382" font-family="Helvetica,sans-Serif" font-size="10.00" fill="#cccccc">fed to</text>
</g>
<!-- poison -->
<g id="node9" class="node">
<title>poison</title>
<polygon fill="#6a0000" stroke="black" points="1254,-60 1078,-60 1078,-16 1254,-16 1254,-60"/>
<text text-anchor="middle" x="1166" y="-47.2" font-family="Helvetica,sans-Serif" font-size="11.00" fill="white">pool.__exit__() sees dead worker</text>
<text text-anchor="middle" x="1166" y="-35.2" font-family="Helvetica,sans-Serif" font-size="11.00" fill="white">Raises BrokenProcessPool</text>
<text text-anchor="middle" x="1166" y="-23.2" font-family="Helvetica,sans-Serif" font-size="11.00" fill="white">All pending futures cancelled</text>
</g>
<!-- segfault&#45;&gt;poison -->
<g id="edge4" class="edge">
<title>segfault&#45;&gt;poison</title>
<path fill="none" stroke="#aaaaaa" d="M1166,-136.93C1166,-136.93 1166,-70.17 1166,-70.17"/>
<polygon fill="#aaaaaa" stroke="#aaaaaa" points="1169.5,-70.17 1166,-60.17 1162.5,-70.17 1169.5,-70.17"/>
<text text-anchor="middle" x="1191" y="-96" font-family="Helvetica,sans-Serif" font-size="10.00" fill="#cccccc">kills worker</text>
</g>
<!-- gil -->
<g id="node11" class="node">
<title>gil</title>
<polygon fill="#443300" stroke="black" points="217.5,-479 16.5,-479 16.5,-423 217.5,-423 217.5,-479"/>
<text text-anchor="middle" x="117" y="-466.2" font-family="Helvetica,sans-Serif" font-size="11.00" fill="white">GIL — Global Interpreter Lock</text>
<text text-anchor="middle" x="117" y="-454.2" font-family="Helvetica,sans-Serif" font-size="11.00" fill="white">pdfminer / pdfplumber / pypdf</text>
<text text-anchor="middle" x="117" y="-442.2" font-family="Helvetica,sans-Serif" font-size="11.00" fill="white">= pure Python, zero .so files</text>
<text text-anchor="middle" x="117" y="-430.2" font-family="Helvetica,sans-Serif" font-size="11.00" fill="white">→ threads serialize, one runs at a time</text>
</g>
<!-- thread&#45;&gt;gil -->
<g id="edge5" class="edge">
<title>thread&#45;&gt;gil</title>
<path fill="none" stroke="#aaaaaa" d="M128,-562.92C128,-562.92 128,-489.42 128,-489.42"/>
<polygon fill="#aaaaaa" stroke="#aaaaaa" points="131.5,-489.42 128,-479.42 124.5,-489.42 131.5,-489.42"/>
<text text-anchor="middle" x="146" y="-518" font-family="Helvetica,sans-Serif" font-size="10.00" fill="#cccccc">blocked by</text>
</g>
<!-- no_parallel -->
<g id="node12" class="node">
<title>no_parallel</title>
<polygon fill="#443300" stroke="black" points="216.5,-342 17.5,-342 17.5,-306 216.5,-306 216.5,-342"/>
<text text-anchor="middle" x="117" y="-327.2" font-family="Helvetica,sans-Serif" font-size="11.00" fill="#ffaa00">14 &#39;workers&#39; but sequential throughput</text>
<text text-anchor="middle" x="117" y="-315.2" font-family="Helvetica,sans-Serif" font-size="11.00" fill="#ffaa00">No actual CPU parallelism</text>
</g>
<!-- gil&#45;&gt;no_parallel -->
<g id="edge6" class="edge">
<title>gil&#45;&gt;no_parallel</title>
<path fill="none" stroke="#aaaaaa" d="M117,-422.81C117,-422.81 117,-352.3 117,-352.3"/>
<polygon fill="#aaaaaa" stroke="#aaaaaa" points="120.5,-352.3 117,-342.3 113.5,-352.3 120.5,-352.3"/>
</g>
<!-- guard1 -->
<g id="node14" class="node">
<title>guard1</title>
<polygon fill="#224422" stroke="black" points="418.5,-473 267.5,-473 267.5,-429 418.5,-429 418.5,-473"/>
<text text-anchor="middle" x="343" y="-460.2" font-family="Helvetica,sans-Serif" font-size="11.00" fill="white">Per&#45;future try/except</text>
<text text-anchor="middle" x="343" y="-448.2" font-family="Helvetica,sans-Serif" font-size="11.00" fill="white">individual worker exceptions</text>
<text text-anchor="middle" x="343" y="-436.2" font-family="Helvetica,sans-Serif" font-size="11.00" fill="white">→ needs_sequential[]</text>
</g>
<!-- restore&#45;&gt;guard1 -->
<g id="edge7" class="edge">
<title>restore&#45;&gt;guard1</title>
<path fill="none" stroke="#aaaaaa" d="M344.75,-562.92C344.75,-562.92 344.75,-483.27 344.75,-483.27"/>
<polygon fill="#aaaaaa" stroke="#aaaaaa" points="348.25,-483.27 344.75,-473.27 341.25,-483.27 348.25,-483.27"/>
</g>
<!-- guard2 -->
<g id="node15" class="node">
<title>guard2</title>
<polygon fill="#224422" stroke="black" points="615,-473 469,-473 469,-429 615,-429 615,-473"/>
<text text-anchor="middle" x="542" y="-460.2" font-family="Helvetica,sans-Serif" font-size="11.00" fill="white">except BrokenProcessPool</text>
<text text-anchor="middle" x="542" y="-448.2" font-family="Helvetica,sans-Serif" font-size="11.00" fill="white">collect unfinished files</text>
<text text-anchor="middle" x="542" y="-436.2" font-family="Helvetica,sans-Serif" font-size="11.00" fill="white">→ needs_sequential[]</text>
</g>
<!-- restore&#45;&gt;guard2 -->
<g id="edge8" class="edge">
<title>restore&#45;&gt;guard2</title>
<path fill="none" stroke="#aaaaaa" d="M477,-562.92C477,-562.92 477,-483.27 477,-483.27"/>
<polygon fill="#aaaaaa" stroke="#aaaaaa" points="480.5,-483.27 477,-473.27 473.5,-483.27 480.5,-483.27"/>
</g>
<!-- seq_fb -->
<g id="node16" class="node">
<title>seq_fb</title>
<polygon fill="#2a5a2a" stroke="black" points="525,-346 365,-346 365,-302 525,-302 525,-346"/>
<text text-anchor="middle" x="445" y="-333.2" font-family="Helvetica,sans-Serif" font-size="11.00" fill="white">Sequential fallback</text>
<text text-anchor="middle" x="445" y="-321.2" font-family="Helvetica,sans-Serif" font-size="11.00" fill="white">extract_text(f, None)</text>
<text text-anchor="middle" x="445" y="-309.2" font-family="Helvetica,sans-Serif" font-size="11.00" fill="white">Train survives worker segfault</text>
</g>
<!-- guard1&#45;&gt;seq_fb -->
<g id="edge9" class="edge">
<title>guard1&#45;&gt;seq_fb</title>
<path fill="none" stroke="#aaaaaa" d="M391.75,-428.88C391.75,-428.88 391.75,-356.29 391.75,-356.29"/>
<polygon fill="#aaaaaa" stroke="#aaaaaa" points="395.25,-356.29 391.75,-346.29 388.25,-356.29 395.25,-356.29"/>
</g>
<!-- guard2&#45;&gt;seq_fb -->
<g id="edge10" class="edge">
<title>guard2&#45;&gt;seq_fb</title>
<path fill="none" stroke="#aaaaaa" d="M497,-428.88C497,-428.88 497,-356.29 497,-356.29"/>
<polygon fill="#aaaaaa" stroke="#aaaaaa" points="500.5,-356.29 497,-346.29 493.5,-356.29 500.5,-356.29"/>
</g>
</g>
</svg>
